<svg width="75" height="75" viewBox="0 0 75 75" fill="none" xmlns="http://www.w3.org/2000/svg">
<rect width="75" height="75" fill="white"/>
<path d="M20.3254 22.5001H24.8723L22.4553 17.4459L20.3254 22.5001ZM22.4633 10.2004L10.8896 14.2735L12.7184 29.437L22.4756 34.7997L32.283 29.3645L34.1111 14.2014L22.4633 10.2004ZM19.384 24.6485L17.965 28.1985L15.3125 28.2094L22.4625 12.3737L22.4488 12.3438H22.4363L22.4365 12.3178L22.4488 12.3438H22.4764L22.5004 12.2903V12.3438H22.4762L22.4627 12.3737L29.9215 28.2754L27.368 28.2194L25.7973 24.5905L22.4432 24.6065" fill="#1D90FF"/>
<path fill-rule="evenodd" clip-rule="evenodd" d="M51.7762 27.1519L40.6068 44.9273C40.4739 45.0362 40.3831 45.1844 40.3435 45.3462L40 45.8929L52.5 53.1267L65 45.8929L53.2233 27.151C53.1889 27.0671 53.1404 26.9905 53.0807 26.9242L52.5 26L51.9197 26.9235C51.8595 26.9902 51.8106 27.0674 51.7762 27.1519ZM51.7187 30.1802L43.2623 43.6379L51.7187 39.6125V30.1802ZM51.7187 41.343L42.6867 45.6425L51.7187 50.8693V41.343ZM53.2812 50.8694V41.361L62.1625 45.7297L53.2812 50.8694ZM53.2812 39.6197V30.1799L61.8664 43.8428L53.2812 39.6197ZM52.4093 55.2443L40 48.063L52.5 65.0624L65 48.063L52.5906 55.2443C52.5609 55.2409 52.5306 55.2391 52.4999 55.2391C52.4693 55.2391 52.439 55.2409 52.4093 55.2443ZM51.7187 56.6499L45.6868 53.1593L51.7187 61.3623V56.6499ZM53.2812 61.3625L59.3132 53.1593L53.2812 56.65V61.3625Z" fill="#1D90FF"/>
</svg>
