<svg width="75" height="75" viewBox="0 0 75 75" fill="none" xmlns="http://www.w3.org/2000/svg">
<rect width="75" height="75" fill="white"/>
<path d="M38.378 13L25.0986 20.6585L29.9808 23.4878L38.378 18.6585L46.7754 23.4878L51.6575 20.6585L38.378 13Z" fill="#1D90FF"/>
<path d="M46.7754 27.4878L51.6575 30.3172V35.9757L43.2603 40.8049V50.4634L38.378 53.2927L33.4959 50.4634V40.8049L25.0986 35.9757V30.3172L29.9808 27.4878L38.378 32.3172L46.7754 27.4878Z" fill="#1D90FF"/>
<path d="M51.6575 39.9756V45.6341L46.7754 48.4633V42.8048L51.6575 39.9756Z" fill="#1D90FF"/>
<path d="M46.7266 52.4635L55.1238 47.6342V37.9757L60.0061 35.1465V50.4635L46.7266 58.1221V52.4635Z" fill="#1D90FF"/>
<path d="M55.1243 28.317L50.2422 25.4877L55.1243 22.6584L60.0066 25.4877V31.1463L55.1243 33.9755V28.317Z" fill="#1D90FF"/>
<path d="M33.4961 60.1707V54.5122L38.3782 57.3415L43.2605 54.5122V60.1707L38.3782 63L33.4961 60.1707Z" fill="#1D90FF"/>
<path d="M29.9808 48.4633L25.0986 45.6341V39.9756L29.9808 42.8048V48.4633Z" fill="#1D90FF"/>
<path d="M38.3782 28.317L33.4961 25.4877L38.3782 22.6584L43.2605 25.4877L38.3782 28.317Z" fill="#1D90FF"/>
<path d="M26.5144 25.4877L21.6322 28.317V33.9755L16.75 31.1463V25.4877L21.6322 22.6584L26.5144 25.4877Z" fill="#1D90FF"/>
<path d="M16.75 35.1465L21.6322 37.9757V47.6342L30.0295 52.4635V58.1221L16.75 50.4635V35.1465Z" fill="#1D90FF"/>
</svg>
