<svg width="1128" height="628" viewBox="0 0 1128 628" fill="none" xmlns="http://www.w3.org/2000/svg">
<rect x="134.72" y="81" width="73.2113" height="74.3304" stroke="white" stroke-width="4"/>
<rect x="235.932" y="108.356" width="39.7602" height="18.8397" stroke="white" stroke-width="5"/>
<rect x="291.881" y="108.356" width="39.7602" height="18.8397" stroke="white" stroke-width="5"/>
<rect x="262.826" y="116.357" width="41.9222" height="2.83806" stroke="white" stroke-width="2.83806"/>
<rect x="318.775" y="116.357" width="41.9222" height="2.83806" stroke="white" stroke-width="2.83806"/>
<rect x="206.874" y="116.357" width="41.9222" height="2.83806" stroke="white" stroke-width="2.83806"/>
<rect x="2.73962" y="108.356" width="42.639" height="18.8397" stroke="white" stroke-width="5"/>
<rect x="62.2875" y="108.356" width="42.639" height="18.8397" stroke="white" stroke-width="5"/>
<rect x="31.4323" y="116.357" width="44.8009" height="2.83806" stroke="white" stroke-width="2.83806"/>
<rect x="90.9807" y="116.357" width="44.8009" height="2.83806" stroke="white" stroke-width="2.83806"/>
<mask id="path-11-inside-1_74_2480" fill="white">
<path d="M0.239624 115H18.2396V120H0.239624V115Z"/>
</mask>
<path d="M0.239624 115V110H-4.76038V115H0.239624ZM18.2396 115H23.2396V110H18.2396V115ZM18.2396 120V125H23.2396V120H18.2396ZM0.239624 120H-4.76038V125H0.239624V120ZM0.239624 120H18.2396V110H0.239624V120ZM13.2396 115V120H23.2396V115H13.2396ZM18.2396 115H0.239624V125H18.2396V115ZM5.23962 120V115H-4.76038V120H5.23962Z" fill="white" mask="url(#path-11-inside-1_74_2480)"/>
<rect x="364.118" y="81" width="73.2113" height="74.3304" stroke="white" stroke-width="4"/>
<rect x="465.327" y="108.356" width="39.7602" height="18.8397" stroke="white" stroke-width="5"/>
<rect x="521.277" y="108.356" width="39.7602" height="18.8397" stroke="white" stroke-width="5"/>
<rect x="492.221" y="116.357" width="41.9222" height="2.83806" stroke="white" stroke-width="2.83806"/>
<rect x="548.171" y="116.357" width="41.9222" height="2.83806" stroke="white" stroke-width="2.83806"/>
<rect x="436.271" y="116.357" width="41.9222" height="2.83806" stroke="white" stroke-width="2.83806"/>
<rect x="593.512" y="81" width="73.2113" height="74.3304" stroke="white" stroke-width="4"/>
<rect x="694.722" y="108.356" width="39.7602" height="18.8397" stroke="white" stroke-width="5"/>
<rect x="750.674" y="108.356" width="39.7602" height="18.8397" stroke="white" stroke-width="5"/>
<rect x="721.619" y="116.357" width="41.9222" height="2.83806" stroke="white" stroke-width="2.83806"/>
<rect x="777.569" y="116.357" width="41.9222" height="2.83806" stroke="white" stroke-width="2.83806"/>
<rect x="665.667" y="116.358" width="41.9222" height="2.83806" stroke="white" stroke-width="2.83806"/>
<rect x="822.91" y="81.0002" width="73.2113" height="74.3304" stroke="white" stroke-width="4"/>
<rect x="924.119" y="108.357" width="39.7602" height="18.8397" stroke="white" stroke-width="5"/>
<rect x="980.068" y="108.357" width="39.7602" height="18.8397" stroke="white" stroke-width="5"/>
<rect x="951.013" y="116.358" width="41.9222" height="2.83806" stroke="white" stroke-width="2.83806"/>
<rect x="1006.96" y="116.358" width="41.9222" height="2.83806" stroke="white" stroke-width="2.83806"/>
<rect x="895.064" y="116.358" width="41.9222" height="2.83806" stroke="white" stroke-width="2.83806"/>
<rect x="1052.24" y="81" width="73" height="74" stroke="white" stroke-width="4"/>
<rect x="2" y="2" width="73.2113" height="74.3304" stroke="white" stroke-width="4"/>
<rect x="103.209" y="29.3562" width="39.7602" height="18.8397" stroke="white" stroke-width="5"/>
<rect x="159.161" y="29.3562" width="39.7602" height="18.8397" stroke="white" stroke-width="5"/>
<rect x="130.105" y="37.3573" width="41.9222" height="2.83806" stroke="white" stroke-width="2.83806"/>
<rect x="186.054" y="37.3573" width="41.9222" height="2.83806" stroke="white" stroke-width="2.83806"/>
<rect x="74.1535" y="37.3573" width="41.9222" height="2.83806" stroke="white" stroke-width="2.83806"/>
<rect x="231.395" y="2" width="73.2113" height="74.3304" stroke="white" stroke-width="4"/>
<rect x="332.607" y="29.3562" width="39.7602" height="18.8397" stroke="white" stroke-width="5"/>
<rect x="388.557" y="29.3562" width="39.7602" height="18.8397" stroke="white" stroke-width="5"/>
<rect x="359.501" y="37.3573" width="41.9222" height="2.83806" stroke="white" stroke-width="2.83806"/>
<rect x="415.45" y="37.3573" width="41.9222" height="2.83806" stroke="white" stroke-width="2.83806"/>
<rect x="303.55" y="37.3573" width="41.9222" height="2.83806" stroke="white" stroke-width="2.83806"/>
<rect x="460.791" y="2" width="73.2113" height="74.3304" stroke="white" stroke-width="4"/>
<rect x="562.003" y="29.3562" width="39.7602" height="18.8397" stroke="white" stroke-width="5"/>
<rect x="617.952" y="29.3562" width="39.7602" height="18.8397" stroke="white" stroke-width="5"/>
<rect x="588.897" y="37.3573" width="41.9222" height="2.83806" stroke="white" stroke-width="2.83806"/>
<rect x="644.846" y="37.3573" width="41.9222" height="2.83806" stroke="white" stroke-width="2.83806"/>
<rect x="532.945" y="37.3573" width="41.9222" height="2.83806" stroke="white" stroke-width="2.83806"/>
<rect x="690.186" y="2" width="73.2113" height="74.3304" stroke="white" stroke-width="4"/>
<rect x="791.395" y="29.3569" width="39.7602" height="18.8397" stroke="white" stroke-width="5"/>
<rect x="847.344" y="29.3569" width="39.7602" height="18.8397" stroke="white" stroke-width="5"/>
<rect x="818.288" y="37.358" width="41.9222" height="2.83806" stroke="white" stroke-width="2.83806"/>
<rect x="874.238" y="37.358" width="41.9222" height="2.83806" stroke="white" stroke-width="2.83806"/>
<rect x="762.339" y="37.358" width="41.9222" height="2.83806" stroke="white" stroke-width="2.83806"/>
<rect x="919.583" y="2" width="73.2113" height="74.3304" stroke="white" stroke-width="4"/>
<rect x="1023.59" y="29.3567" width="42.639" height="18.8397" stroke="white" stroke-width="5"/>
<rect x="1052.02" y="37.2086" width="27.4156" height="2.79751" stroke="white" stroke-width="2.79751"/>
<path d="M993.816 38.4387H1036.46V39.1148H993.816V38.4387Z" stroke="white" stroke-width="5"/>
<rect x="1082.52" y="29.5" width="42.639" height="18.8397" stroke="white" stroke-width="5"/>
<rect x="1110.74" y="37.5" width="15" height="3" stroke="white" stroke-width="3"/>
<path d="M1052.74 38.582H1095.38V39.2581H1052.74V38.582Z" stroke="white" stroke-width="5"/>
<rect x="134.96" y="238" width="73.2113" height="74.3304" stroke="white" stroke-width="4"/>
<rect x="236.171" y="265.356" width="39.7602" height="18.8397" stroke="white" stroke-width="5"/>
<rect x="292.121" y="265.356" width="39.7602" height="18.8397" stroke="white" stroke-width="5"/>
<rect x="263.065" y="273.357" width="41.9222" height="2.83806" stroke="white" stroke-width="2.83806"/>
<rect x="319.015" y="273.357" width="41.9222" height="2.83806" stroke="white" stroke-width="2.83806"/>
<rect x="207.114" y="273.357" width="41.9222" height="2.83806" stroke="white" stroke-width="2.83806"/>
<rect x="2.97925" y="265.356" width="42.639" height="18.8397" stroke="white" stroke-width="5"/>
<rect x="62.5271" y="265.356" width="42.639" height="18.8397" stroke="white" stroke-width="5"/>
<rect x="31.672" y="273.357" width="44.8009" height="2.83806" stroke="white" stroke-width="2.83806"/>
<rect x="91.2203" y="273.357" width="44.8009" height="2.83806" stroke="white" stroke-width="2.83806"/>
<mask id="path-73-inside-2_74_2480" fill="white">
<path d="M0.479248 272H18.4792V277H0.479248V272Z"/>
</mask>
<path d="M0.479248 272V267H-4.52075V272H0.479248ZM18.4792 272H23.4792V267H18.4792V272ZM18.4792 277V282H23.4792V277H18.4792ZM0.479248 277H-4.52075V282H0.479248V277ZM0.479248 277H18.4792V267H0.479248V277ZM13.4792 272V277H23.4792V272H13.4792ZM18.4792 272H0.479248V282H18.4792V272ZM5.47925 277V272H-4.52075V277H5.47925Z" fill="white" mask="url(#path-73-inside-2_74_2480)"/>
<rect x="364.358" y="238" width="73.2113" height="74.3304" stroke="white" stroke-width="4"/>
<rect x="465.566" y="265.356" width="39.7602" height="18.8397" stroke="white" stroke-width="5"/>
<rect x="521.516" y="265.356" width="39.7602" height="18.8397" stroke="white" stroke-width="5"/>
<rect x="492.46" y="273.357" width="41.9222" height="2.83806" stroke="white" stroke-width="2.83806"/>
<rect x="548.41" y="273.357" width="41.9222" height="2.83806" stroke="white" stroke-width="2.83806"/>
<rect x="436.51" y="273.357" width="41.9222" height="2.83806" stroke="white" stroke-width="2.83806"/>
<rect x="593.751" y="238" width="73.2113" height="74.3304" stroke="white" stroke-width="4"/>
<rect x="694.962" y="265.356" width="39.7602" height="18.8397" stroke="white" stroke-width="5"/>
<rect x="750.914" y="265.356" width="39.7602" height="18.8397" stroke="white" stroke-width="5"/>
<rect x="721.858" y="273.357" width="41.9222" height="2.83806" stroke="white" stroke-width="2.83806"/>
<rect x="777.808" y="273.357" width="41.9222" height="2.83806" stroke="white" stroke-width="2.83806"/>
<rect x="665.906" y="273.358" width="41.9222" height="2.83806" stroke="white" stroke-width="2.83806"/>
<rect x="823.149" y="238" width="73.2113" height="74.3304" stroke="white" stroke-width="4"/>
<rect x="924.358" y="265.357" width="39.7602" height="18.8397" stroke="white" stroke-width="5"/>
<rect x="980.307" y="265.357" width="39.7602" height="18.8397" stroke="white" stroke-width="5"/>
<rect x="951.252" y="273.358" width="41.9222" height="2.83806" stroke="white" stroke-width="2.83806"/>
<rect x="1007.2" y="273.358" width="41.9222" height="2.83806" stroke="white" stroke-width="2.83806"/>
<rect x="895.304" y="273.358" width="41.9222" height="2.83806" stroke="white" stroke-width="2.83806"/>
<rect x="1052.48" y="238" width="73" height="74" stroke="white" stroke-width="4"/>
<rect x="2.23962" y="159" width="73.2113" height="74.3304" stroke="white" stroke-width="4"/>
<rect x="103.449" y="186.356" width="39.7602" height="18.8397" stroke="white" stroke-width="5"/>
<rect x="159.401" y="186.356" width="39.7602" height="18.8397" stroke="white" stroke-width="5"/>
<rect x="130.345" y="194.357" width="41.9222" height="2.83806" stroke="white" stroke-width="2.83806"/>
<rect x="186.293" y="194.357" width="41.9222" height="2.83806" stroke="white" stroke-width="2.83806"/>
<rect x="74.3931" y="194.357" width="41.9222" height="2.83806" stroke="white" stroke-width="2.83806"/>
<rect x="231.635" y="159" width="73.2113" height="74.3304" stroke="white" stroke-width="4"/>
<rect x="332.847" y="186.356" width="39.7602" height="18.8397" stroke="white" stroke-width="5"/>
<rect x="388.796" y="186.356" width="39.7602" height="18.8397" stroke="white" stroke-width="5"/>
<rect x="359.741" y="194.357" width="41.9222" height="2.83806" stroke="white" stroke-width="2.83806"/>
<rect x="415.69" y="194.357" width="41.9222" height="2.83806" stroke="white" stroke-width="2.83806"/>
<rect x="303.789" y="194.357" width="41.9222" height="2.83806" stroke="white" stroke-width="2.83806"/>
<rect x="461.031" y="159" width="73.2113" height="74.3304" stroke="white" stroke-width="4"/>
<rect x="562.243" y="186.356" width="39.7602" height="18.8397" stroke="white" stroke-width="5"/>
<rect x="618.192" y="186.356" width="39.7602" height="18.8397" stroke="white" stroke-width="5"/>
<rect x="589.136" y="194.357" width="41.9222" height="2.83806" stroke="white" stroke-width="2.83806"/>
<rect x="645.086" y="194.357" width="41.9222" height="2.83806" stroke="white" stroke-width="2.83806"/>
<rect x="533.185" y="194.357" width="41.9222" height="2.83806" stroke="white" stroke-width="2.83806"/>
<rect x="690.426" y="159" width="73.2113" height="74.3304" stroke="white" stroke-width="4"/>
<rect x="791.635" y="186.357" width="39.7602" height="18.8397" stroke="white" stroke-width="5"/>
<rect x="847.584" y="186.357" width="39.7602" height="18.8397" stroke="white" stroke-width="5"/>
<rect x="818.528" y="194.358" width="41.9222" height="2.83806" stroke="white" stroke-width="2.83806"/>
<rect x="874.478" y="194.358" width="41.9222" height="2.83806" stroke="white" stroke-width="2.83806"/>
<rect x="762.579" y="194.358" width="41.9222" height="2.83806" stroke="white" stroke-width="2.83806"/>
<rect x="919.822" y="159" width="73.2113" height="74.3304" stroke="white" stroke-width="4"/>
<rect x="1023.83" y="186.357" width="42.639" height="18.8397" stroke="white" stroke-width="5"/>
<rect x="1052.26" y="194.209" width="27.4156" height="2.79751" stroke="white" stroke-width="2.79751"/>
<path d="M994.056 195.439H1036.69V196.115H994.056V195.439Z" stroke="white" stroke-width="5"/>
<rect x="1082.76" y="186.5" width="42.639" height="18.8397" stroke="white" stroke-width="5"/>
<rect x="1110.98" y="194.5" width="15" height="3" stroke="white" stroke-width="3"/>
<path d="M1052.98 195.582H1095.62V196.258H1052.98V195.582Z" stroke="white" stroke-width="5"/>
<rect x="134.96" y="395" width="73.2113" height="74.3304" stroke="white" stroke-width="4"/>
<rect x="236.171" y="422.356" width="39.7602" height="18.8397" stroke="white" stroke-width="5"/>
<rect x="292.121" y="422.356" width="39.7602" height="18.8397" stroke="white" stroke-width="5"/>
<rect x="263.065" y="430.357" width="41.9222" height="2.83806" stroke="white" stroke-width="2.83806"/>
<rect x="319.015" y="430.357" width="41.9222" height="2.83806" stroke="white" stroke-width="2.83806"/>
<rect x="207.114" y="430.357" width="41.9222" height="2.83806" stroke="white" stroke-width="2.83806"/>
<rect x="2.97925" y="422.356" width="42.639" height="18.8397" stroke="white" stroke-width="5"/>
<rect x="62.5271" y="422.356" width="42.639" height="18.8397" stroke="white" stroke-width="5"/>
<rect x="31.672" y="430.357" width="44.8009" height="2.83806" stroke="white" stroke-width="2.83806"/>
<rect x="91.2203" y="430.357" width="44.8009" height="2.83806" stroke="white" stroke-width="2.83806"/>
<mask id="path-135-inside-3_74_2480" fill="white">
<path d="M0.479248 429H18.4792V434H0.479248V429Z"/>
</mask>
<path d="M0.479248 429V424H-4.52075V429H0.479248ZM18.4792 429H23.4792V424H18.4792V429ZM18.4792 434V439H23.4792V434H18.4792ZM0.479248 434H-4.52075V439H0.479248V434ZM0.479248 434H18.4792V424H0.479248V434ZM13.4792 429V434H23.4792V429H13.4792ZM18.4792 429H0.479248V439H18.4792V429ZM5.47925 434V429H-4.52075V434H5.47925Z" fill="white" mask="url(#path-135-inside-3_74_2480)"/>
<rect x="364.358" y="395" width="73.2113" height="74.3304" stroke="white" stroke-width="4"/>
<rect x="465.566" y="422.356" width="39.7602" height="18.8397" stroke="white" stroke-width="5"/>
<rect x="521.516" y="422.356" width="39.7602" height="18.8397" stroke="white" stroke-width="5"/>
<rect x="492.46" y="430.357" width="41.9222" height="2.83806" stroke="white" stroke-width="2.83806"/>
<rect x="548.41" y="430.357" width="41.9222" height="2.83806" stroke="white" stroke-width="2.83806"/>
<rect x="436.51" y="430.357" width="41.9222" height="2.83806" stroke="white" stroke-width="2.83806"/>
<rect x="593.751" y="395" width="73.2113" height="74.3304" stroke="white" stroke-width="4"/>
<rect x="694.962" y="422.356" width="39.7602" height="18.8397" stroke="white" stroke-width="5"/>
<rect x="750.914" y="422.356" width="39.7602" height="18.8397" stroke="white" stroke-width="5"/>
<rect x="721.858" y="430.357" width="41.9222" height="2.83806" stroke="white" stroke-width="2.83806"/>
<rect x="777.808" y="430.357" width="41.9222" height="2.83806" stroke="white" stroke-width="2.83806"/>
<rect x="665.906" y="430.358" width="41.9222" height="2.83806" stroke="white" stroke-width="2.83806"/>
<rect x="823.149" y="395" width="73.2113" height="74.3304" stroke="white" stroke-width="4"/>
<rect x="924.358" y="422.357" width="39.7602" height="18.8397" stroke="white" stroke-width="5"/>
<rect x="980.307" y="422.357" width="39.7602" height="18.8397" stroke="white" stroke-width="5"/>
<rect x="951.252" y="430.358" width="41.9222" height="2.83806" stroke="white" stroke-width="2.83806"/>
<rect x="1007.2" y="430.358" width="41.9222" height="2.83806" stroke="white" stroke-width="2.83806"/>
<rect x="895.304" y="430.358" width="41.9222" height="2.83806" stroke="white" stroke-width="2.83806"/>
<rect x="1052.48" y="395" width="73" height="74" stroke="white" stroke-width="4"/>
<rect x="134.48" y="551" width="73.2113" height="74.3304" stroke="white" stroke-width="4"/>
<rect x="235.692" y="578.356" width="39.7602" height="18.8397" stroke="white" stroke-width="5"/>
<rect x="291.641" y="578.356" width="39.7602" height="18.8397" stroke="white" stroke-width="5"/>
<rect x="262.586" y="586.357" width="41.9222" height="2.83806" stroke="white" stroke-width="2.83806"/>
<rect x="318.535" y="586.357" width="41.9222" height="2.83806" stroke="white" stroke-width="2.83806"/>
<rect x="206.635" y="586.357" width="41.9222" height="2.83806" stroke="white" stroke-width="2.83806"/>
<rect x="2.5" y="578.356" width="42.639" height="18.8397" stroke="white" stroke-width="5"/>
<rect x="62.0479" y="578.356" width="42.639" height="18.8397" stroke="white" stroke-width="5"/>
<rect x="31.1927" y="586.357" width="44.8009" height="2.83806" stroke="white" stroke-width="2.83806"/>
<rect x="90.7411" y="586.357" width="44.8009" height="2.83806" stroke="white" stroke-width="2.83806"/>
<mask id="path-166-inside-4_74_2480" fill="white">
<path d="M0 585H18V590H0V585Z"/>
</mask>
<path d="M0 585V580H-5V585H0ZM18 585H23V580H18V585ZM18 590V595H23V590H18ZM0 590H-5V595H0V590ZM0 590H18V580H0V590ZM13 585V590H23V585H13ZM18 585H0V595H18V585ZM5 590V585H-5V590H5Z" fill="white" mask="url(#path-166-inside-4_74_2480)"/>
<rect x="363.878" y="551" width="73.2113" height="74.3304" stroke="white" stroke-width="4"/>
<rect x="465.087" y="578.356" width="39.7602" height="18.8397" stroke="white" stroke-width="5"/>
<rect x="521.037" y="578.356" width="39.7602" height="18.8397" stroke="white" stroke-width="5"/>
<rect x="491.981" y="586.357" width="41.9222" height="2.83806" stroke="white" stroke-width="2.83806"/>
<rect x="547.931" y="586.357" width="41.9222" height="2.83806" stroke="white" stroke-width="2.83806"/>
<rect x="436.031" y="586.357" width="41.9222" height="2.83806" stroke="white" stroke-width="2.83806"/>
<rect x="593.272" y="551" width="73.2113" height="74.3304" stroke="white" stroke-width="4"/>
<rect x="694.483" y="578.356" width="39.7602" height="18.8397" stroke="white" stroke-width="5"/>
<rect x="750.435" y="578.356" width="39.7602" height="18.8397" stroke="white" stroke-width="5"/>
<rect x="721.379" y="586.357" width="41.9222" height="2.83806" stroke="white" stroke-width="2.83806"/>
<rect x="777.329" y="586.357" width="41.9222" height="2.83806" stroke="white" stroke-width="2.83806"/>
<rect x="665.427" y="586.358" width="41.9222" height="2.83806" stroke="white" stroke-width="2.83806"/>
<rect x="822.67" y="551" width="73.2113" height="74.3304" stroke="white" stroke-width="4"/>
<rect x="923.879" y="578.357" width="39.7602" height="18.8397" stroke="white" stroke-width="5"/>
<rect x="979.828" y="578.357" width="39.7602" height="18.8397" stroke="white" stroke-width="5"/>
<rect x="950.773" y="586.358" width="41.9222" height="2.83806" stroke="white" stroke-width="2.83806"/>
<rect x="1006.72" y="586.358" width="41.9222" height="2.83806" stroke="white" stroke-width="2.83806"/>
<rect x="894.825" y="586.358" width="41.9222" height="2.83806" stroke="white" stroke-width="2.83806"/>
<rect x="1052" y="551" width="73" height="74" stroke="white" stroke-width="4"/>
<rect x="2.23962" y="316" width="73.2113" height="74.3304" stroke="white" stroke-width="4"/>
<rect x="103.449" y="343.356" width="39.7602" height="18.8397" stroke="white" stroke-width="5"/>
<rect x="159.401" y="343.356" width="39.7602" height="18.8397" stroke="white" stroke-width="5"/>
<rect x="130.345" y="351.357" width="41.9222" height="2.83806" stroke="white" stroke-width="2.83806"/>
<rect x="186.293" y="351.357" width="41.9222" height="2.83806" stroke="white" stroke-width="2.83806"/>
<rect x="74.3931" y="351.357" width="41.9222" height="2.83806" stroke="white" stroke-width="2.83806"/>
<rect x="231.635" y="316" width="73.2113" height="74.3304" stroke="white" stroke-width="4"/>
<rect x="332.847" y="343.356" width="39.7602" height="18.8397" stroke="white" stroke-width="5"/>
<rect x="388.796" y="343.356" width="39.7602" height="18.8397" stroke="white" stroke-width="5"/>
<rect x="359.741" y="351.357" width="41.9222" height="2.83806" stroke="white" stroke-width="2.83806"/>
<rect x="415.69" y="351.357" width="41.9222" height="2.83806" stroke="white" stroke-width="2.83806"/>
<rect x="303.789" y="351.357" width="41.9222" height="2.83806" stroke="white" stroke-width="2.83806"/>
<rect x="461.031" y="316" width="73.2113" height="74.3304" stroke="white" stroke-width="4"/>
<rect x="562.243" y="343.356" width="39.7602" height="18.8397" stroke="white" stroke-width="5"/>
<rect x="618.192" y="343.356" width="39.7602" height="18.8397" stroke="white" stroke-width="5"/>
<rect x="589.136" y="351.357" width="41.9222" height="2.83806" stroke="white" stroke-width="2.83806"/>
<rect x="645.086" y="351.357" width="41.9222" height="2.83806" stroke="white" stroke-width="2.83806"/>
<rect x="533.185" y="351.357" width="41.9222" height="2.83806" stroke="white" stroke-width="2.83806"/>
<rect x="690.426" y="316" width="73.2113" height="74.3304" stroke="white" stroke-width="4"/>
<rect x="791.635" y="343.357" width="39.7602" height="18.8397" stroke="white" stroke-width="5"/>
<rect x="847.584" y="343.357" width="39.7602" height="18.8397" stroke="white" stroke-width="5"/>
<rect x="818.528" y="351.358" width="41.9222" height="2.83806" stroke="white" stroke-width="2.83806"/>
<rect x="874.478" y="351.358" width="41.9222" height="2.83806" stroke="white" stroke-width="2.83806"/>
<rect x="762.579" y="351.358" width="41.9222" height="2.83806" stroke="white" stroke-width="2.83806"/>
<rect x="919.822" y="316" width="73.2113" height="74.3304" stroke="white" stroke-width="4"/>
<rect x="1023.83" y="343.357" width="42.639" height="18.8397" stroke="white" stroke-width="5"/>
<rect x="1052.26" y="351.209" width="27.4156" height="2.79751" stroke="white" stroke-width="2.79751"/>
<path d="M994.056 352.439H1036.69V353.115H994.056V352.439Z" stroke="white" stroke-width="5"/>
<rect x="1082.76" y="343.5" width="42.639" height="18.8397" stroke="white" stroke-width="5"/>
<rect x="1110.98" y="351.5" width="15" height="3" stroke="white" stroke-width="3"/>
<path d="M1052.98 352.582H1095.62V353.258H1052.98V352.582Z" stroke="white" stroke-width="5"/>
<rect x="2.23962" y="473" width="73.2113" height="74.3304" stroke="white" stroke-width="4"/>
<rect x="103.449" y="500.356" width="39.7602" height="18.8397" stroke="white" stroke-width="5"/>
<rect x="159.401" y="500.356" width="39.7602" height="18.8397" stroke="white" stroke-width="5"/>
<rect x="130.345" y="508.357" width="41.9222" height="2.83806" stroke="white" stroke-width="2.83806"/>
<rect x="186.293" y="508.357" width="41.9222" height="2.83806" stroke="white" stroke-width="2.83806"/>
<rect x="74.3931" y="508.357" width="41.9222" height="2.83806" stroke="white" stroke-width="2.83806"/>
<rect x="231.635" y="473" width="73.2113" height="74.3304" stroke="white" stroke-width="4"/>
<rect x="332.847" y="500.356" width="39.7602" height="18.8397" stroke="white" stroke-width="5"/>
<rect x="388.796" y="500.356" width="39.7602" height="18.8397" stroke="white" stroke-width="5"/>
<rect x="359.741" y="508.357" width="41.9222" height="2.83806" stroke="white" stroke-width="2.83806"/>
<rect x="415.69" y="508.357" width="41.9222" height="2.83806" stroke="white" stroke-width="2.83806"/>
<rect x="303.789" y="508.357" width="41.9222" height="2.83806" stroke="white" stroke-width="2.83806"/>
<rect x="461.031" y="473" width="73.2113" height="74.3304" stroke="white" stroke-width="4"/>
<rect x="562.243" y="500.356" width="39.7602" height="18.8397" stroke="white" stroke-width="5"/>
<rect x="618.192" y="500.356" width="39.7602" height="18.8397" stroke="white" stroke-width="5"/>
<rect x="589.136" y="508.357" width="41.9222" height="2.83806" stroke="white" stroke-width="2.83806"/>
<rect x="645.086" y="508.357" width="41.9222" height="2.83806" stroke="white" stroke-width="2.83806"/>
<rect x="533.185" y="508.357" width="41.9222" height="2.83806" stroke="white" stroke-width="2.83806"/>
<rect x="690.426" y="473" width="73.2113" height="74.3304" stroke="white" stroke-width="4"/>
<rect x="791.635" y="500.357" width="39.7602" height="18.8397" stroke="white" stroke-width="5"/>
<rect x="847.584" y="500.357" width="39.7602" height="18.8397" stroke="white" stroke-width="5"/>
<rect x="818.528" y="508.358" width="41.9222" height="2.83806" stroke="white" stroke-width="2.83806"/>
<rect x="874.478" y="508.358" width="41.9222" height="2.83806" stroke="white" stroke-width="2.83806"/>
<rect x="762.579" y="508.358" width="41.9222" height="2.83806" stroke="white" stroke-width="2.83806"/>
<rect x="919.822" y="473" width="73.2113" height="74.3304" stroke="white" stroke-width="4"/>
<rect x="1023.83" y="500.357" width="42.639" height="18.8397" stroke="white" stroke-width="5"/>
<rect x="1052.26" y="508.209" width="27.4156" height="2.79751" stroke="white" stroke-width="2.79751"/>
<path d="M994.056 509.439H1036.69V510.115H994.056V509.439Z" stroke="white" stroke-width="5"/>
<rect x="1082.76" y="500.5" width="42.639" height="18.8397" stroke="white" stroke-width="5"/>
<rect x="1110.98" y="508.5" width="15" height="3" stroke="white" stroke-width="3"/>
<path d="M1052.98 509.582H1095.62V510.258H1052.98V509.582Z" stroke="white" stroke-width="5"/>
</svg>
