<svg width="889" height="70" viewBox="0 0 889 70" fill="none" xmlns="http://www.w3.org/2000/svg">
<rect x="2" y="2" width="65" height="66" stroke="white" stroke-width="4"/>
<rect x="92.5" y="26.5" width="35" height="16.3043" stroke="white" stroke-width="5"/>
<rect x="142.5" y="26.5" width="35" height="16.3043" stroke="white" stroke-width="5"/>
<rect x="116.268" y="33.3841" width="37.4638" height="2.53623" stroke="white" stroke-width="2.53623"/>
<rect x="166.268" y="33.3841" width="37.4638" height="2.53623" stroke="white" stroke-width="2.53623"/>
<rect x="66.2681" y="33.3841" width="37.4638" height="2.53623" stroke="white" stroke-width="2.53623"/>
<rect x="207" y="2" width="65" height="66" stroke="white" stroke-width="4"/>
<rect x="297.5" y="26.5" width="35" height="16.3043" stroke="white" stroke-width="5"/>
<rect x="347.5" y="26.5" width="35" height="16.3043" stroke="white" stroke-width="5"/>
<rect x="321.268" y="33.3841" width="37.4638" height="2.53623" stroke="white" stroke-width="2.53623"/>
<rect x="371.268" y="33.3841" width="37.4638" height="2.53623" stroke="white" stroke-width="2.53623"/>
<rect x="271.268" y="33.3841" width="37.4638" height="2.53623" stroke="white" stroke-width="2.53623"/>
<rect x="412" y="2" width="65" height="66" stroke="white" stroke-width="4"/>
<rect x="502.5" y="26.5" width="35" height="16.3043" stroke="white" stroke-width="5"/>
<rect x="552.5" y="26.5" width="35" height="16.3043" stroke="white" stroke-width="5"/>
<rect x="526.268" y="33.3841" width="37.4638" height="2.53623" stroke="white" stroke-width="2.53623"/>
<rect x="576.268" y="33.3841" width="37.4638" height="2.53623" stroke="white" stroke-width="2.53623"/>
<rect x="476.268" y="33.3841" width="37.4638" height="2.53623" stroke="white" stroke-width="2.53623"/>
<rect x="617" y="2" width="65" height="66" stroke="white" stroke-width="4"/>
<rect x="707.5" y="26.5" width="35" height="16.3043" stroke="white" stroke-width="5"/>
<rect x="757.5" y="26.5" width="35" height="16.3043" stroke="white" stroke-width="5"/>
<rect x="731.268" y="33.3841" width="37.4638" height="2.53623" stroke="white" stroke-width="2.53623"/>
<rect x="781.268" y="33.3841" width="37.4638" height="2.53623" stroke="white" stroke-width="2.53623"/>
<rect x="681.268" y="33.3841" width="37.4638" height="2.53623" stroke="white" stroke-width="2.53623"/>
<rect x="822" y="2" width="65" height="66" stroke="white" stroke-width="4"/>
</svg>
