<svg width="75" height="75" viewBox="0 0 75 75" fill="none" xmlns="http://www.w3.org/2000/svg">
<rect width="75" height="75" fill="white"/>
<path d="M49.5385 29.6426V37.964C49.5385 39.0674 49.9437 40.1257 50.665 40.906C51.3863 41.6863 52.3646 42.1246 53.3846 42.1246H55.3077C57.3478 42.1246 59.3044 41.2479 60.747 39.6874C62.1896 38.1268 63 36.0103 63 33.8033V21.3213C63 20.2178 62.5948 19.1596 61.8735 18.3793C61.1522 17.599 60.1739 17.1607 59.1538 17.1607H53.3846C52.1674 17.1594 50.9679 16.8457 49.8846 16.2453C46.2125 14.1722 42.1417 13.0606 38 13C33.8322 13.0476 29.7337 14.1596 26.0385 16.2453C24.975 16.8234 23.8053 17.1362 22.6154 17.1607H16.8462C15.8261 17.1607 14.8478 17.599 14.1265 18.3793C13.4052 19.1596 13 20.2178 13 21.3213V33.8033C13 36.0103 13.8104 38.1268 15.253 39.6874C16.6956 41.2479 18.6522 42.1246 20.6923 42.1246H22.6154C23.6354 42.1246 24.6137 41.6863 25.335 40.906C26.0563 40.1257 26.4615 39.0674 26.4615 37.964V29.6426" stroke="#1D90FF" stroke-width="4" stroke-linecap="round" stroke-linejoin="round"/>
<path d="M55.3087 42.1248L54.1164 48.657C53.383 52.6976 51.3749 56.3372 48.4354 58.9535C45.4959 61.5697 41.8076 63.0001 38.0011 63.0001C34.1945 63.0001 30.5062 61.5697 27.5667 58.9535C24.6272 56.3372 22.6191 52.6976 21.8857 48.657L20.6934 42.1248" stroke="#1D90FF" stroke-width="4" stroke-linecap="round" stroke-linejoin="round"/>
<path d="M36.0771 50.4458H39.9233" stroke="#1D90FF" stroke-width="4" stroke-linecap="round" stroke-linejoin="round"/>
</svg>
