<svg width="151" height="190" viewBox="0 0 151 190" fill="none" xmlns="http://www.w3.org/2000/svg">
<path d="M145.733 189.017C146.559 189.08 147.28 188.462 147.343 187.636L148.367 174.175C148.43 173.349 147.811 172.628 146.985 172.565C146.159 172.502 145.439 173.121 145.376 173.947L144.465 185.912L132.5 185.001C131.674 184.939 130.953 185.557 130.89 186.383C130.827 187.209 131.446 187.93 132.272 187.993L145.733 189.017ZM0.479082 20.5025L144.709 188.499L146.985 186.545L2.75529 18.5483L0.479082 20.5025Z" fill="white"/>
<path d="M5.73104 0.0297174C4.905 -0.0331607 4.18439 0.585502 4.12151 1.41154L3.09686 14.8726C3.03398 15.6986 3.65264 16.4192 4.47868 16.4821C5.30472 16.545 6.02533 15.9263 6.0882 15.1003L6.99901 3.13491L18.9644 4.04572C19.7904 4.1086 20.511 3.48994 20.5739 2.6639C20.6368 1.83786 20.0181 1.11725 19.1921 1.05437L5.73104 0.0297174ZM4.47908 2.50249L148.709 170.499L150.985 168.545L6.75529 0.548295L4.47908 2.50249Z" fill="white"/>
</svg>
