<svg width="75" height="75" viewBox="0 0 75 75" fill="none" xmlns="http://www.w3.org/2000/svg">
<rect width="75" height="75" fill="white"/>
<path d="M38.0004 57.8052C48.9266 57.8052 57.784 49.8335 57.784 39.9999C57.784 30.1663 48.9266 22.1946 38.0004 22.1946C27.0742 22.1946 18.2168 30.1663 18.2168 39.9999C18.2168 49.8335 27.0742 57.8052 38.0004 57.8052Z" fill="white"/>
<path d="M48.1167 31.5598C47.8823 31.219 47.6659 30.8619 47.4855 30.4886C47.3232 30.164 46.8543 30.1315 46.5297 30.2938C46.1149 30.2613 45.646 30.5535 45.8083 31.0242C46.0247 31.6572 46.3313 32.274 46.71 32.8583C46.9806 33.2803 47.5757 33.1991 47.8282 32.8745C48.0626 32.8907 48.279 32.7934 48.4413 32.5824C48.5495 32.4363 48.5856 32.2902 48.6036 32.1117C48.6217 31.8682 48.3872 31.641 48.1167 31.5598Z" fill="#1D90FF"/>
<path d="M45.5922 24.597C45.4299 24.4184 45.1053 24.532 45.0331 24.7268C44.9971 24.7106 44.9429 24.7106 44.9069 24.6943C44.6724 24.6781 44.5462 24.9053 44.5823 25.0677C44.6003 25.1326 44.6183 25.2137 44.6183 25.2787C44.438 25.3274 44.3118 25.5221 44.4019 25.7169C44.5823 26.074 44.6905 26.4311 44.7806 26.8206C44.8167 26.9991 44.979 27.0478 45.1413 27.0316C45.1413 27.0478 45.1594 27.0641 45.1774 27.0803C45.2676 27.2101 45.4118 27.2426 45.52 27.2101C45.6102 27.4049 45.9529 27.5023 46.1152 27.2588C46.6562 26.5122 46.1693 25.23 45.5922 24.597Z" fill="white"/>
<path d="M57.6751 40.8928C57.6751 40.8116 57.6931 40.7467 57.6931 40.6655C57.6931 40.6169 57.6931 40.5682 57.6751 40.5195C57.7472 40.4221 57.8013 40.3085 57.8013 40.1786C57.7833 39.4807 57.7472 38.799 57.6751 38.1011C57.621 37.533 57.6029 36.9162 57.2963 36.413C57.2963 36.3644 57.2963 36.3157 57.2963 36.267C56.9898 34.2381 55.9077 32.3878 54.6814 30.6998C53.7797 29.45 52.8419 28.0217 51.4532 27.1777C51.1647 26.8693 50.8581 26.5933 50.5155 26.3336C50.4072 26.2525 50.299 26.2038 50.1728 26.1876C49.9384 25.9928 49.7039 25.798 49.4695 25.6195C49.3973 25.5546 49.3072 25.5221 49.217 25.5059C49.1268 25.4247 49.0186 25.376 48.9284 25.3598C48.7842 25.2624 48.6399 25.165 48.4776 25.0676C48.4595 25.0514 48.4415 25.0352 48.4054 25.0352C48.0808 24.8404 47.7742 24.6456 47.4316 24.4671C47.4857 24.4346 47.5218 24.3859 47.5398 24.3048C47.5578 24.2561 47.5578 24.2074 47.5759 24.1587C47.9005 23.8503 48.189 23.5257 48.4415 23.1686C48.9104 22.8115 49.3252 22.4382 49.74 22.0325C49.758 22.0325 49.776 22.0162 49.8121 22.0162C50.2449 21.8377 50.6237 21.578 50.9483 21.2696C51.0024 21.2209 51.0204 21.156 51.0384 21.1073C51.327 20.945 51.6155 20.7989 51.9041 20.6528C51.9762 20.6204 52.0303 20.5717 52.0484 20.5067C52.1926 20.4743 52.2828 20.3931 52.4451 20.2633C52.6976 20.0685 53.0042 19.9224 53.3108 19.7926C53.5813 19.679 53.8518 19.5816 54.1223 19.468C54.4469 19.3381 54.8256 19.0784 55.1863 19.192C55.3306 19.2245 55.4388 19.192 55.5109 19.1271C55.8716 19.3219 56.2143 18.8025 55.8536 18.6077C55.4749 18.413 55.2585 18.2993 54.8076 18.3805C54.2846 18.4617 53.7616 18.5915 53.2567 18.7538C52.8058 18.8999 52.373 19.0947 51.9582 19.3057C51.4713 19.5654 50.9663 19.7114 50.4253 19.8737C50.3351 19.9062 50.281 19.9549 50.2269 20.0036C50.0105 20.101 49.7941 20.2146 49.6318 20.2957C49.2891 20.4581 48.9645 20.6366 48.6399 20.8151C48.6038 20.7989 48.5858 20.7989 48.5497 20.7989C48.2071 20.7989 47.9005 21.0586 47.63 21.2209C47.2512 21.4481 46.8725 21.7078 46.5118 21.9513C46.4938 21.9675 46.4758 21.9838 46.4577 22C46.3495 22.0649 46.2413 22.1298 46.1512 22.1948C46.061 22.1623 45.9708 22.1623 45.8806 22.211C45.4478 22.4707 45.033 22.7466 44.6363 23.055C44.5641 23.1037 44.5281 23.1686 44.5281 23.2335C44.2576 23.1524 43.969 23.1037 43.6805 23.055C43.6624 23.055 43.6444 23.055 43.6264 23.055C43.3558 22.8602 43.0673 22.7304 42.7246 22.6492C42.6525 22.633 42.5984 22.633 42.5443 22.6492C42.4541 22.6168 42.3459 22.6168 42.2558 22.6655C42.2377 22.6817 42.2197 22.6979 42.2017 22.6979C42.1656 22.6817 42.1295 22.6817 42.0754 22.6817H42.0574C41.8951 22.5843 41.6426 22.6168 41.5705 22.844C41.5524 22.8927 41.5524 22.9252 41.5344 22.9576C41.4983 23.0225 41.4803 23.0875 41.4442 23.1686C41.4081 23.2335 41.4262 23.2985 41.4442 23.3634C41.4442 23.3796 41.4442 23.3796 41.4442 23.3959C41.4262 23.4445 41.4262 23.4932 41.4081 23.5419C41.4081 23.5744 41.4081 23.5906 41.4081 23.6069C41.354 23.7529 41.2999 23.899 41.2819 24.0451C41.2819 24.0776 41.2819 24.0938 41.2819 24.1262C41.2458 24.1749 41.2098 24.2236 41.2098 24.3048C41.2098 24.3535 41.2098 24.4184 41.2098 24.4671C41.1917 24.7917 41.1016 25.1001 41.1016 25.4247C41.1016 25.6357 41.1196 25.8467 41.1376 26.0577C41.1196 26.2687 41.1196 26.4635 41.1557 26.6745C41.1557 26.6907 41.1557 26.7232 41.1737 26.7394C41.2098 27.3237 41.2999 27.9243 41.4803 28.4924C41.4803 28.5248 41.4803 28.5735 41.4803 28.606C41.5524 28.8657 41.6426 29.1091 41.7328 29.3688C41.7328 29.3851 41.7328 29.3851 41.7328 29.4013C41.8049 29.8071 41.9852 30.1641 42.1836 30.5212C42.1836 30.5375 42.1836 30.5537 42.2017 30.5861C42.5443 31.7061 43.3378 32.7936 44.0051 33.7836C44.0231 33.8648 44.0772 33.9459 44.1494 33.9946C44.3297 34.157 44.6363 34.0433 44.7084 33.8648C44.7084 33.8648 44.7084 33.8648 44.7265 33.8648C44.8347 33.9135 44.9609 33.8973 45.0511 33.8648C45.2134 33.9459 45.4478 33.881 45.538 33.7349C45.7364 33.7187 45.9167 33.5402 45.8446 33.3616C45.8446 33.3454 45.8446 33.3454 45.8265 33.3454C45.8987 33.3129 45.9708 33.248 46.0069 33.1669C46.1151 33.1669 46.2053 33.1344 46.2954 33.0857C46.3135 33.1019 46.3495 33.1019 46.3676 33.1182L46.9988 33.8161C47.4677 34.3355 47.9365 34.8711 48.7661 34.7088C48.9284 34.6763 49.0727 34.5627 49.1629 34.4329C49.235 34.579 49.3072 34.725 49.3973 34.8711C49.7219 35.4554 50.1367 35.9586 50.7319 36.3319C50.786 36.3644 50.8401 36.3806 50.8942 36.3968C50.9122 36.4455 50.9122 36.478 50.9302 36.5267C51.0024 36.7864 51.2549 36.9162 51.5254 36.9487C51.5795 37.0785 51.6516 37.2084 51.7057 37.3382C51.5073 37.5492 51.4713 37.8414 51.7418 38.0848C51.3811 38.166 51.1286 38.6205 51.309 38.9613C51.309 38.9613 51.309 38.9613 51.2909 38.9775C51.2368 39.0425 51.2008 39.0911 51.1647 39.1561C50.6597 39.2535 50.4794 39.9676 50.9843 40.2598C51.4532 40.5357 51.9221 40.8441 52.4271 41.0551C52.4451 41.0551 52.4451 41.0713 52.4632 41.0713C52.4812 41.0875 52.4992 41.1038 52.5173 41.12C52.6615 41.2174 52.8238 41.2499 53.0042 41.2986L53.2026 41.3635C53.2206 41.3635 53.2206 41.3797 53.2386 41.3797C53.3649 41.4609 53.4911 41.5096 53.6354 41.5582C53.6895 41.5745 53.7256 41.5745 53.7616 41.5745C53.9059 41.6232 54.0502 41.6881 54.1944 41.7368C54.2305 41.7855 54.3026 41.8342 54.3928 41.8504C54.465 41.8666 54.5191 41.8666 54.5912 41.8829C54.6273 41.8829 54.6633 41.8829 54.6994 41.8829C54.8437 41.9316 55.006 41.9965 55.1322 42.0289C55.3847 42.0939 55.6372 42.1426 55.8897 42.1913C56.2503 42.2399 56.6291 42.2724 57.0078 42.2886C57.0799 42.3049 57.1701 42.3049 57.2422 42.2886C57.2783 42.2886 57.3144 42.2886 57.3685 42.2886C57.4045 42.2886 57.4226 42.2886 57.4586 42.2724C57.6029 42.2562 57.6931 42.1426 57.6931 42.0127C57.7833 41.8991 57.8193 41.7368 57.7652 41.5582C57.6751 41.3148 57.657 41.1038 57.6751 40.8928Z" fill="#1D90FF"/>
<path d="M34.7724 25.8792C34.7724 25.8305 34.7904 25.798 34.7904 25.7493C34.7904 25.5221 34.7724 25.3111 34.7543 25.0838C34.7543 24.9215 34.7183 24.7592 34.6822 24.6131C34.6641 24.4346 34.6461 24.2561 34.61 24.0775C34.6281 24.0288 34.6281 23.9639 34.592 23.899C34.574 23.8503 34.5559 23.8016 34.5379 23.7367C34.5199 23.6718 34.5018 23.6068 34.4838 23.5419C34.4658 23.4932 34.4477 23.4608 34.4297 23.4445C34.4117 23.3147 34.3756 23.1848 34.3395 23.055C34.3215 23.0063 34.3035 22.9576 34.2674 22.9251C34.2674 22.9089 34.2674 22.8927 34.2674 22.8764C34.2313 22.6167 33.8887 22.5356 33.7083 22.6492C33.6723 22.6654 33.6362 22.6979 33.6001 22.7304C33.4739 22.6817 33.3296 22.6979 33.2394 22.7791C33.1312 22.7791 33.023 22.8277 32.9509 22.8927C32.7886 22.8115 32.5541 22.8602 32.464 23.0063C32.3017 22.9251 32.0492 23.0225 31.9951 23.1848C31.8508 23.0874 31.6164 23.1199 31.5262 23.2498C31.5081 23.2335 31.4901 23.2335 31.4721 23.2173C31.2376 23.0063 30.9852 22.8115 30.7146 22.6167C30.3359 22.2759 29.8851 22.0162 29.4162 21.7727C29.3981 21.7078 29.3621 21.6429 29.326 21.5942C29.2719 21.5617 29.2178 21.513 29.1637 21.4806C29.0916 21.4319 29.0194 21.3994 28.9293 21.3994C28.8751 21.3994 28.821 21.4157 28.7669 21.4319C27.6668 20.7502 26.4946 20.1983 25.2863 19.6952C24.7273 19.3868 24.1141 19.1596 23.4829 18.9648C23.4108 18.9486 23.3386 18.9486 23.2665 18.981C22.7976 18.7863 22.3287 18.6239 21.8237 18.4941C21.7336 18.4779 21.6434 18.4941 21.5713 18.5266C21.3188 18.4616 21.0302 18.4454 20.7597 18.5103C20.7417 18.5103 20.7237 18.5266 20.7056 18.5266C20.6155 18.5266 20.5072 18.5266 20.399 18.5266C19.9843 18.5428 19.9662 19.1433 20.399 19.1271C20.9401 19.0946 21.427 19.2732 21.9139 19.4517C22.0221 19.5004 22.1303 19.4842 22.2205 19.4517C22.6173 19.6789 23.014 19.8737 23.4288 20.0847C24.1141 20.4418 24.7633 20.8476 25.3765 21.2858C26.5668 22.1623 27.6308 23.1524 28.6587 24.1749C28.7128 24.2236 28.7669 24.2561 28.8391 24.2561C28.7128 24.2561 28.5866 24.2885 28.4604 24.3535C27.5947 24.9053 26.7471 25.4734 25.9175 26.0577C25.1962 26.5609 24.4748 27.064 23.8797 27.7133C23.7895 27.7457 23.6993 27.7944 23.6091 27.8918C22.2385 29.3526 21.0483 30.927 20.0925 32.6475C20.0564 32.7124 20.0384 32.7611 20.0203 32.826C20.0023 32.8422 19.9843 32.8585 19.9662 32.8909C19.6416 33.3129 19.5695 33.8161 19.4613 34.3192C19.4432 34.3842 19.4252 34.4491 19.4252 34.514C19.299 34.8224 19.1547 35.1308 19.0465 35.4392C18.8842 35.8612 18.776 36.2832 18.7219 36.7214C18.6497 36.8026 18.5956 36.8837 18.5776 36.9811C18.4874 37.533 18.3972 38.101 18.3612 38.6529C18.289 39.01 18.2349 39.3671 18.3071 39.7404C18.3071 40.0001 18.3071 40.2598 18.3251 40.5194C18.3251 40.5844 18.3251 40.6493 18.3431 40.7142C18.3071 40.7467 18.271 40.7954 18.2349 40.8441C18.2169 40.909 18.1808 40.9577 18.1628 41.0226C18.1267 41.1525 18.1267 41.2823 18.1628 41.4121C18.1808 41.4608 18.1808 41.5258 18.1989 41.5745C18.2169 41.6718 18.271 41.753 18.3431 41.8179C18.3612 41.8504 18.3972 41.8828 18.4333 41.9153C18.3972 42.0776 18.4333 42.2562 18.6317 42.3048C18.7038 42.3211 18.776 42.3211 18.8481 42.3048C18.9022 42.3211 18.9563 42.3373 19.0284 42.3211C19.0825 42.3048 19.1186 42.3048 19.1727 42.2886H19.1907C19.2268 42.3048 19.2629 42.3211 19.317 42.3048C19.3891 42.3048 19.4793 42.2886 19.5514 42.2724C19.6055 42.2562 19.6416 42.2399 19.6777 42.2399C19.7137 42.2399 19.7678 42.2237 19.8039 42.2075C19.8219 42.2075 19.84 42.2075 19.858 42.2075C19.9843 42.2075 20.0925 42.1912 20.2007 42.1588C20.3089 42.175 20.4351 42.1263 20.5433 42.0938C20.5974 42.0776 20.6696 42.0614 20.7237 42.0452C20.7597 42.0289 20.7958 42.0127 20.8319 42.0127C20.9401 41.9965 21.0302 41.964 21.1384 41.9478C21.2106 41.964 21.2827 41.964 21.3729 41.9315C22.0221 41.7692 22.6173 41.4933 23.2124 41.2174C23.2665 41.2011 23.3206 41.1849 23.3747 41.1525L23.537 41.0551C23.5731 41.0388 23.5911 41.0226 23.6091 40.9901C23.6452 40.9739 23.6632 40.9739 23.6993 40.9577C23.7714 40.9415 23.8436 40.9252 23.9338 40.8765C24.0059 40.8441 24.06 40.8116 24.1141 40.7629C24.4387 40.6493 24.7633 40.487 24.9978 40.2598C25.0158 40.2435 25.0338 40.2273 25.0519 40.2111C25.1962 40.065 25.2863 39.9027 25.2863 39.7079C25.2863 39.5294 25.1962 39.3184 25.0519 39.2047C24.9978 39.156 24.9256 39.1236 24.8535 39.0911C24.8535 38.4094 24.3485 37.7277 23.8075 37.2246C23.7534 37.1759 23.6993 37.1434 23.6452 37.111C23.6993 36.8188 23.7714 36.5429 23.8616 36.2669C24.1141 35.4229 24.6191 34.6925 25.1421 33.9622C25.3044 33.8323 25.4486 33.7025 25.6109 33.5564C25.8454 33.8323 26.2602 33.9622 26.6389 33.7512C26.7832 33.67 26.9274 33.5726 27.0717 33.4915C27.2881 33.8485 27.7751 34.0758 28.1898 33.7998C28.5325 33.5726 28.8571 33.3454 29.1637 33.1181C29.1817 33.1181 29.1817 33.1181 29.1998 33.1019C29.2719 33.1506 29.344 33.1993 29.4162 33.2318C29.4883 33.3129 29.5785 33.3941 29.6867 33.459C29.831 33.5402 29.9752 33.5726 30.1195 33.5564C30.1556 33.5888 30.2097 33.6375 30.2458 33.67C30.4261 33.7836 30.5884 33.8323 30.7327 33.8161C30.8048 33.8972 30.913 33.9784 31.0212 34.0271C31.2737 34.1407 31.5803 34.1569 31.8328 33.9946C31.941 33.9459 32.0131 33.8648 32.0852 33.7512L32.2115 33.5564C32.2656 33.4752 32.2836 33.3941 32.3017 33.3129C32.3558 33.2642 32.4099 33.2155 32.4459 33.1506L32.7705 32.5501C32.7886 32.5176 32.8066 32.4851 32.8246 32.4527C32.8788 32.3715 32.9329 32.2904 32.987 32.2092C32.987 32.193 33.005 32.193 33.005 32.1768C33.023 32.1605 33.023 32.1281 33.0411 32.1118L33.0952 31.9982C33.1132 31.9495 33.1312 31.9171 33.1493 31.8684C33.1493 31.8684 33.1493 31.8684 33.1673 31.8521C33.2575 31.7223 33.3476 31.5924 33.4198 31.4464C33.4378 31.3977 33.4559 31.349 33.4739 31.3165C33.4919 31.3003 33.51 31.2678 33.528 31.2354C33.6362 31.0244 33.7264 30.8134 33.8165 30.6024C33.8346 30.5537 33.8526 30.505 33.8526 30.4563C33.8706 30.4238 33.8887 30.3751 33.9067 30.3427C33.9067 30.3264 33.9247 30.3102 33.9247 30.3102C33.9428 30.2615 33.9608 30.2128 33.9969 30.1641C33.9969 30.1479 33.9969 30.1479 34.0149 30.1317C34.0149 30.1154 34.0329 30.0992 34.0329 30.083C34.051 30.0505 34.051 30.0343 34.051 30.0018C34.1051 29.8882 34.1592 29.7746 34.2133 29.661C34.2494 29.5636 34.2674 29.4824 34.2674 29.4013C34.2674 29.385 34.2854 29.385 34.2854 29.3688C34.3215 29.3201 34.3576 29.2552 34.3756 29.174C34.3936 29.1416 34.3936 29.0929 34.3936 29.0604C34.4117 28.9793 34.4297 28.8819 34.4658 28.8007C34.4838 28.752 34.4838 28.7033 34.5018 28.6546V28.6384C34.5559 28.4761 34.592 28.2976 34.6281 28.1353C34.6281 28.119 34.6281 28.0866 34.6281 28.0703L34.6641 27.908C34.6641 27.8918 34.6641 27.8756 34.6822 27.8431C34.6822 27.8269 34.6822 27.8106 34.7002 27.7944C34.7002 27.7782 34.7002 27.7782 34.7002 27.7619V27.7457C34.7182 27.6159 34.7363 27.486 34.7543 27.3562C34.7724 27.2263 34.8084 27.0802 34.8084 26.9504C34.8084 26.9342 34.8084 26.9179 34.8084 26.9017C34.8084 26.8855 34.8084 26.8692 34.8084 26.8692C34.8084 26.8368 34.8084 26.8043 34.8265 26.7719C34.8265 26.7556 34.8265 26.7394 34.8265 26.7232V26.7069C34.8265 26.6907 34.8265 26.6745 34.8265 26.6582C34.8265 26.6258 34.8265 26.5933 34.8265 26.5771C34.8265 26.4635 34.8265 26.3499 34.8265 26.22C34.8265 26.1875 34.8265 26.1389 34.8084 26.1064C34.7724 25.9441 34.7724 25.9116 34.7724 25.8792ZM29.3981 24.1425C29.3981 24.1425 29.3801 24.1425 29.3801 24.1587C29.2719 24.2074 29.1817 24.2723 29.0735 24.321C29.0014 24.3048 28.9292 24.2885 28.8571 24.2885C28.9473 24.2885 29.0555 24.2398 29.1276 24.1749C29.2358 24.2074 29.3621 24.1911 29.4522 24.1262C29.4342 24.11 29.4162 24.1262 29.3981 24.1425ZM29.4703 24.0775C29.5244 24.0288 29.5604 23.9801 29.5785 23.9152C29.5965 23.9314 29.6146 23.9639 29.6326 23.9801C29.5785 24.0126 29.5244 24.0451 29.4703 24.0775Z" fill="#1D90FF"/>
<path d="M56.7555 22.8598C56.7555 22.8111 56.7374 22.7787 56.7194 22.7462C56.7014 22.5839 56.6833 22.4054 56.6473 22.2431C56.6473 22.1944 56.6112 22.1619 56.5932 22.1294C56.5751 21.5614 56.503 21.0095 56.3587 20.4414C56.3587 20.409 56.3407 20.3927 56.3407 20.3765V20.3603C56.3948 20.3116 56.4309 20.2629 56.485 20.2142C56.5751 20.133 56.5751 20.0357 56.5391 19.9545C56.5391 19.9383 56.5571 19.922 56.5571 19.9058C56.6292 19.711 56.3948 19.565 56.2144 19.5974C56.1964 19.5974 56.1603 19.6137 56.1423 19.6137C56.1423 19.5 56.0521 19.3864 55.9439 19.354C55.9259 19.3377 55.8898 19.3215 55.8718 19.3215C55.8357 19.3053 55.7816 19.3053 55.7275 19.3215C55.2226 19.3702 54.4651 19.354 54.1044 19.7273C53.7077 19.8734 53.329 20.0681 52.9322 20.2791C52.283 20.62 51.6518 20.9933 51.0386 21.3991C49.7942 22.2106 48.6761 23.152 47.7023 24.2232C47.5219 24.418 47.7383 24.6939 47.9367 24.6615C48.6581 25.0672 49.3795 25.473 50.0828 25.9113C50.8583 26.3819 51.4895 27.015 52.1387 27.5993C52.7699 28.1673 53.3831 28.7517 53.9602 29.3522C54.2307 29.6444 54.5373 29.9365 54.7356 30.2774C54.934 30.6344 54.952 31.0565 55.1144 31.4298C55.2045 31.6408 55.6013 31.7057 55.6554 31.4298C55.8538 30.5046 56.0161 29.5632 56.1423 28.6218C56.1423 28.6056 56.1423 28.5731 56.1603 28.5569C56.3948 27.8752 56.521 27.161 56.5751 26.4469C56.5751 26.3657 56.5391 26.3008 56.485 26.2683C56.521 25.9437 56.5391 25.6191 56.5571 25.2945C56.6292 25.262 56.6653 25.2133 56.6833 25.1484C56.8096 24.3693 56.8276 23.6227 56.7555 22.8598Z" fill="white"/>
<path d="M28.2616 23.9638C28.2256 23.9476 28.2075 23.9313 28.1715 23.9313C28.1534 23.8989 28.1354 23.8827 28.1174 23.8664C28.1174 23.834 28.0993 23.8177 28.0993 23.7853C27.8649 23.3146 27.4321 23.0062 26.9632 22.7627C26.5845 22.3732 26.1336 22.0323 25.6647 21.7239C25.6467 21.7077 25.6286 21.7077 25.6106 21.7077C25.5926 21.6915 25.5745 21.6752 25.5565 21.6428C25.5204 21.6266 25.5024 21.5941 25.4663 21.5779C25.3581 21.4967 25.2499 21.4156 25.1237 21.3344C25.0876 21.3182 25.0515 21.3019 25.0155 21.3019C24.6368 20.9773 24.1859 20.7339 23.735 20.4904C23.2481 20.2307 22.653 19.76 22.0579 19.7113C21.4988 19.2893 20.7594 19.0945 19.9839 19.3705C19.7495 19.4516 19.7495 19.7275 19.8937 19.8249C19.8396 19.9548 19.8216 20.1008 19.8036 20.1982C19.6413 20.9449 19.5872 21.7402 19.497 22.4868C19.4248 23.1198 19.5511 23.7853 19.515 24.4183C19.4609 24.6293 19.4248 24.8565 19.4068 25.0675C19.3888 25.1649 19.4429 25.2298 19.515 25.2785C19.479 25.3759 19.4609 25.4733 19.4249 25.5707C19.3527 25.7654 19.5511 25.8953 19.7134 25.8791C19.6773 25.9764 19.6593 26.0738 19.6232 26.1712C19.5872 26.2848 19.6232 26.366 19.6954 26.4309C19.6954 26.8529 19.7134 27.2587 19.7495 27.6807C19.7855 28.3137 19.8577 28.9467 19.9478 29.5797C19.9659 29.6933 20.056 29.742 20.1643 29.7582C20.1643 29.8556 20.2364 29.9206 20.3085 29.953C20.2544 30.1153 20.1823 30.2776 20.1282 30.4399C20.056 30.6185 20.2184 30.7483 20.3807 30.7483C20.3266 30.8619 20.2725 30.9593 20.2184 31.0729C20.0741 31.3651 20.543 31.6248 20.7053 31.3326C21.2643 30.3426 21.9136 29.4174 22.653 28.5409C22.7251 28.5409 22.8153 28.5085 22.8694 28.4273C24.0777 26.999 25.5926 25.8141 27.3239 24.9377C27.414 24.889 27.4501 24.824 27.4681 24.7591L27.4862 24.7429C27.5763 24.7591 27.6845 24.7429 27.7567 24.678C27.8829 24.6617 27.9911 24.5968 28.0092 24.4832C28.0452 24.467 28.0813 24.467 28.1174 24.4345C28.3698 24.4183 28.5141 24.0937 28.2616 23.9638Z" fill="white"/>
<path d="M20.4888 31.5112C20.4347 31.5112 20.3987 31.495 20.3446 31.4787C20.1823 31.4138 20.0741 31.2353 20.1642 31.0567C20.2003 30.9756 20.2544 30.8782 20.3085 30.797C20.2183 30.7808 20.1462 30.7321 20.1101 30.6834C20.0741 30.6347 20.038 30.5536 20.0921 30.4399C20.1462 30.3101 20.2003 30.164 20.2724 29.9855C20.2003 29.953 20.1462 29.8881 20.1282 29.8069C20.0019 29.7745 19.9298 29.7096 19.9118 29.5959C19.8035 28.9629 19.7494 28.3299 19.7134 27.6969C19.6773 27.2587 19.6593 26.8529 19.6593 26.4634C19.5691 26.3984 19.5511 26.2848 19.5871 26.1712C19.6232 26.0901 19.6412 26.0089 19.6593 25.9277C19.5691 25.9115 19.4789 25.8791 19.4248 25.8141C19.3707 25.7492 19.3527 25.6518 19.3888 25.5544C19.4068 25.4733 19.4429 25.3921 19.4789 25.2947C19.4068 25.246 19.3707 25.1649 19.3707 25.0675C19.3888 24.8403 19.4429 24.6293 19.4789 24.402C19.497 24.1099 19.4789 23.7853 19.4609 23.4931C19.4429 23.1523 19.4248 22.8114 19.4609 22.4706C19.4789 22.3569 19.4789 22.2596 19.497 22.1459C19.5691 21.4967 19.6232 20.815 19.7675 20.182C19.7675 20.1658 19.7855 20.1333 19.7855 20.1171C19.8035 20.0197 19.8216 19.9223 19.8576 19.8249C19.7855 19.76 19.7494 19.6464 19.7675 19.549C19.7855 19.4354 19.8757 19.3542 19.9839 19.3218C20.7053 19.0783 21.4447 19.1919 22.0939 19.6626C22.5448 19.6951 22.9956 19.971 23.3924 20.2145C23.5186 20.2956 23.6448 20.3768 23.7711 20.4417H23.7891C24.2219 20.6852 24.6728 20.9286 25.0515 21.237C25.0876 21.237 25.1237 21.2532 25.1597 21.2857C25.286 21.3669 25.3942 21.4318 25.5024 21.5292L25.5925 21.5941C25.6106 21.6103 25.6286 21.6266 25.6647 21.659C25.6827 21.659 25.7008 21.6752 25.7008 21.6752C26.2057 21.9999 26.6385 22.3407 27.0173 22.714C27.5943 23.0062 27.9731 23.347 28.1714 23.7528C28.1895 23.769 28.1895 23.8015 28.1895 23.834C28.2075 23.8502 28.2255 23.8664 28.2436 23.8827C28.2797 23.8989 28.2977 23.8989 28.3338 23.9151C28.46 23.98 28.5141 24.0937 28.478 24.2235C28.442 24.3533 28.3338 24.4507 28.2075 24.467C28.1895 24.4832 28.1534 24.4994 28.1173 24.4994C28.0813 24.613 27.955 24.6942 27.8468 24.7104C27.7747 24.7754 27.6845 24.7916 27.5763 24.7754C27.5583 24.8565 27.5042 24.9214 27.414 24.9701C25.6647 25.8628 24.1678 27.0315 22.9776 28.4435C22.9235 28.5085 22.8333 28.5572 22.7431 28.5734C22.0037 29.4336 21.3545 30.3588 20.8135 31.3489C20.6872 31.4625 20.579 31.5112 20.4888 31.5112ZM19.7675 25.8466L19.7494 25.9277C19.7134 26.0251 19.6953 26.1063 19.6593 26.2037C19.6232 26.2848 19.6593 26.366 19.7134 26.4147L19.7314 26.4309V26.4471C19.7314 26.8367 19.7494 27.2425 19.7855 27.6807C19.8216 28.3137 19.8937 28.9467 19.9839 29.5635C20.0019 29.6771 20.1101 29.6933 20.1642 29.7095H20.2003V29.742C20.2003 29.8394 20.2724 29.8881 20.3265 29.9043L20.3626 29.9206L20.3446 29.953C20.2724 30.1478 20.2183 30.2939 20.1642 30.4399C20.1462 30.5049 20.1462 30.5536 20.1823 30.6022C20.2183 30.6509 20.2905 30.6834 20.3806 30.6996H20.4528L20.3987 30.797C20.3446 30.8944 20.3085 30.9756 20.2544 31.0729C20.1823 31.2028 20.2724 31.3326 20.3806 31.3813C20.4708 31.4138 20.579 31.4138 20.6512 31.3002C21.2102 30.3101 21.8595 29.3687 22.5989 28.5085L22.6169 28.4922H22.6349C22.689 28.4922 22.7612 28.476 22.8333 28.3948C24.0416 26.9665 25.5384 25.7817 27.3058 24.889C27.396 24.8403 27.414 24.7754 27.414 24.7429V24.7267L27.432 24.7104C27.432 24.7104 27.432 24.7104 27.4501 24.6942L27.4681 24.678H27.4861C27.5763 24.6942 27.6665 24.678 27.7206 24.6293L27.7386 24.613H27.7567C27.8468 24.5968 27.955 24.5481 27.9731 24.4507V24.4183H28.0091C28.0452 24.4183 28.0813 24.402 28.0993 24.3858H28.1173H28.1354C28.2255 24.3696 28.3157 24.3047 28.3338 24.2073C28.3518 24.1586 28.3518 24.0612 28.2255 23.9963C28.1895 23.98 28.1714 23.9638 28.1354 23.9638H28.1173V23.9476C28.0993 23.9313 28.0813 23.8989 28.0632 23.8827L28.0452 23.8664V23.8502C28.0452 23.834 28.0452 23.8015 28.0272 23.7853C27.8288 23.3795 27.4681 23.0711 26.909 22.7789L26.891 22.7627C26.5303 22.3894 26.0975 22.0486 25.5925 21.7402C25.5745 21.7239 25.5745 21.7239 25.5565 21.7239H25.5384V21.7077C25.5204 21.6915 25.5024 21.6752 25.4843 21.659L25.3942 21.5941C25.286 21.5129 25.1778 21.4318 25.0515 21.3506C25.0335 21.3344 24.9974 21.3182 24.9794 21.3182H24.9613L24.9433 21.3019C24.5826 20.9773 24.1318 20.7339 23.6809 20.5066H23.6629C23.5366 20.4417 23.4104 20.3605 23.2842 20.2794C22.8874 20.0359 22.4546 19.7762 22.0037 19.7438H21.9857L21.9677 19.7275C21.3545 19.2731 20.6331 19.1595 19.9478 19.4029C19.8396 19.4354 19.8035 19.5328 19.7855 19.5652C19.7675 19.6464 19.8035 19.7438 19.8576 19.7925L19.8757 19.8087L19.8576 19.8412C19.8216 19.9385 19.8035 20.0522 19.7855 20.1495C19.7855 20.182 19.7675 20.1982 19.7675 20.2145C19.6232 20.8475 19.5691 21.5292 19.497 22.1784C19.4789 22.292 19.4789 22.4056 19.4609 22.503C19.4248 22.8276 19.4429 23.1685 19.4609 23.5093C19.4789 23.8177 19.497 24.1261 19.4789 24.4345C19.4248 24.6455 19.3888 24.8727 19.3707 25.0837C19.3527 25.1811 19.4068 25.2298 19.4609 25.246L19.497 25.2623V25.2947C19.4609 25.4084 19.4429 25.5057 19.4068 25.5869C19.3888 25.6518 19.3888 25.7167 19.4429 25.7654C19.497 25.8141 19.5691 25.8466 19.6593 25.8466H19.7675Z" fill="white"/>
<path d="M41.2818 43.5383C41.2458 43.3436 40.8851 43.2786 40.813 43.5221C40.6687 43.9766 40.4883 44.4148 40.2539 44.8206C40.2359 44.8368 40.2359 44.8368 40.2178 44.853C40.0735 45.0154 39.9293 45.1939 39.803 45.3562C39.8211 44.8043 39.8211 44.2525 39.8211 43.7169C39.8391 43.6844 39.8571 43.652 39.8571 43.6195C39.8571 43.4734 39.8571 43.3111 39.8752 43.165C39.8932 43.1163 39.8752 43.0514 39.8391 43.0027C39.8571 42.9865 39.8571 42.9865 39.8752 42.9703C39.9112 42.9378 39.8571 42.8729 39.803 42.9053C39.785 42.9216 39.767 42.9378 39.7489 42.954C39.7489 42.954 39.7489 42.954 39.7309 42.954C39.7129 42.954 39.7129 42.954 39.6948 42.954C39.6768 42.9378 39.6407 42.9378 39.6047 42.9378H35.7273C35.6912 42.9378 35.6732 42.9378 35.6371 42.954C35.6191 42.954 35.583 42.954 35.565 42.9703L35.5469 42.954C35.5109 42.9053 35.4387 42.9703 35.4748 43.0189L35.4928 43.0352C35.4568 43.0839 35.4568 43.1326 35.4748 43.1813C35.4568 43.1975 35.4568 43.2299 35.4568 43.2624C35.5109 43.9441 35.6011 44.6258 35.6011 45.3075C35.565 45.3075 35.5289 45.3075 35.4928 45.3075C35.4928 45.2913 35.4748 45.275 35.4748 45.2588C35.4387 45.1939 35.3846 45.1614 35.3305 45.129C35.2404 44.9829 35.1322 44.8368 35.042 44.6907C34.9338 44.431 34.8075 44.1713 34.6633 43.9279C34.6633 43.9116 34.6633 43.8954 34.6633 43.8792C34.6272 43.7169 34.5731 43.587 34.501 43.441C34.501 43.441 34.501 43.4247 34.4829 43.4247C34.4649 43.376 34.4288 43.376 34.3928 43.3923C34.3387 43.3923 34.2846 43.4247 34.2846 43.4734C34.2665 43.4734 34.2485 43.4572 34.2124 43.4572C34.1944 43.4572 34.1583 43.4572 34.1403 43.4734C34.1042 43.441 34.0681 43.441 34.0321 43.4572C33.8337 43.587 33.4189 43.5383 33.3648 43.8143C33.3287 43.9603 33.4189 44.1713 33.455 44.3012C33.5091 44.5609 33.5632 44.8043 33.6173 45.064C33.6353 45.1127 33.6714 45.129 33.7075 45.129C34.0501 46.3625 34.4108 47.6123 34.9338 48.7809C35.2223 49.4302 35.7453 49.9658 36.3946 50.3066C36.4306 50.3553 36.4847 50.4202 36.5569 50.4527C36.629 50.4852 36.6831 50.5176 36.7552 50.5501C36.8274 50.5826 36.8815 50.5988 36.9536 50.5988C37.0618 50.6312 37.152 50.6637 37.2602 50.6799C37.3864 50.6962 37.4947 50.6962 37.6209 50.6799C37.8553 50.7936 38.198 50.7611 38.3783 50.615C38.3964 50.615 38.4324 50.615 38.4505 50.5988C38.8833 50.4689 39.2079 50.2417 39.4604 49.9333C39.6047 49.9333 39.7309 49.8684 39.8211 49.7223C39.9112 49.5925 39.9293 49.4626 39.9293 49.3328C40.3801 48.8458 40.7589 48.3265 41.0474 47.6935C41.5704 46.5411 41.7868 45.2588 41.9671 44.0253C42.0754 43.6195 41.5524 43.376 41.2818 43.5383Z" fill="#1D90FF"/>
<path d="M41.2102 47.3364C39.9658 44.5772 35.3851 44.6421 34.2129 47.028C34.285 47.8558 35.7278 49.9658 36.1786 50.258C36.6295 50.5502 37.6394 50.8748 38.2886 50.7125C40.1101 50.2418 41.0839 47.6773 41.2102 47.3364Z" fill="#1D90FF"/>
<path d="M49.6318 25.6032C49.9745 24.9864 53.906 21.4643 54.8978 20.9773C55.3307 20.7663 55.7094 20.604 55.7635 21.3669C55.9799 24.678 54.447 29.4986 54.3027 29.9368C53.0223 27.9729 50.0466 25.8628 49.6318 25.6032Z" fill="white"/>
<path d="M26.4943 25.6032C26.1517 24.9864 22.2202 21.4643 21.2283 20.9773C20.7955 20.7663 20.4168 20.604 20.3627 21.3669C20.1463 24.678 21.6792 29.4986 21.8235 29.9368C23.1219 27.9729 26.0796 25.8628 26.4943 25.6032Z" fill="white"/>
<path d="M20.7232 30.927C20.3986 30.083 20.3265 29.1741 20.1822 28.2814L19.7855 25.6195C19.7674 25.4572 19.4789 25.4572 19.4969 25.6195C19.6412 26.5609 19.7674 27.5023 19.9117 28.4599C20.0379 29.3202 20.1281 30.1804 20.4347 31.0082C20.5068 31.1543 20.7773 31.0894 20.7232 30.927Z" fill="white"/>
<path d="M19.8032 21.6265C19.6229 21.6265 19.6229 21.8862 19.8032 21.8862C19.9836 21.8699 19.9836 21.6265 19.8032 21.6265Z" fill="white"/>
<path d="M19.5521 22.2433C19.498 22.5679 19.4799 22.8926 19.498 23.2172C19.498 23.3795 19.7865 23.3795 19.7865 23.2172C19.7865 22.8926 19.8046 22.5679 19.8406 22.2433C19.8587 22.081 19.5881 22.081 19.5521 22.2433Z" fill="white"/>
<path d="M28.3515 24.0613C27.2334 22.8277 25.9169 21.7402 24.4381 20.8475C23.8249 20.4905 23.1937 20.1496 22.5445 19.8575C22.31 19.7438 22.0756 19.6302 21.8411 19.5491C21.4083 19.3705 20.9574 19.2245 20.4885 19.2407C20.4164 19.2245 20.3443 19.2245 20.2721 19.2082C20.1639 19.192 20.0918 19.2407 20.0738 19.3056C20.0197 19.3218 19.9475 19.3381 19.8934 19.3705C19.6229 19.4841 19.8573 19.8575 20.1279 19.7438C20.2361 19.6952 20.3443 19.6627 20.4705 19.6627C20.9214 19.7114 21.3722 19.7925 21.8051 19.9548C21.9493 20.0198 22.0936 20.0847 22.2379 20.1496C22.4543 20.2632 22.6527 20.3931 22.8691 20.5067C23.6085 20.9449 24.3479 21.3994 25.0873 21.8539C25.1414 21.8863 25.2135 21.9026 25.2676 21.8863C26.2956 22.6167 27.2153 23.4445 28.0449 24.3372C28.2072 24.5807 28.5318 24.2723 28.3515 24.0613Z" fill="white"/>
<path d="M55.8537 31.9007L55.3127 31.7384C57.2243 26.4471 56.3947 20.7176 56.1603 19.7925C55.98 19.1432 55.7816 18.7861 55.457 18.6238C55.0602 18.4291 54.429 18.5102 53.2388 18.8835C50.6238 19.7275 46.7103 21.5616 44.5643 23.2983L44.1855 22.925C46.4038 21.1072 50.3172 19.2731 53.0404 18.3966C54.1765 18.0233 55.0782 17.8447 55.7094 18.1694C56.1783 18.3966 56.4669 18.8511 56.6833 19.6626C57.0079 20.815 57.7834 26.5283 55.8537 31.9007Z" fill="#1D90FF"/>
<path d="M47.6299 24.4184L47.3594 24.2561C48.6939 22.422 53.0041 19.4355 55.2223 19.0622C55.7092 18.9811 56.088 19.0298 56.3404 19.1921L56.1421 19.4355C55.9617 19.3219 55.6732 19.2895 55.2764 19.3544C53.1664 19.6952 48.9103 22.6655 47.6299 24.4184Z" fill="#1D90FF"/>
<path d="M20.254 31.706C18.3604 26.4309 19.154 20.8799 19.4605 19.6951C19.677 18.8835 19.9835 18.4291 20.4344 18.2018C21.0836 17.8935 21.9673 18.072 23.1035 18.4291C25.8266 19.3055 29.7581 21.1396 31.9583 22.9575L31.5796 23.3308C29.4515 21.5779 25.5201 19.7438 22.9051 18.916C21.7329 18.5427 21.0836 18.4615 20.6869 18.6563C20.3803 18.8024 20.1639 19.1595 19.9835 19.8249C19.677 20.9936 18.9015 26.4147 20.759 31.5599L20.254 31.706Z" fill="#1D90FF"/>
<path d="M28.5504 24.4184C27.27 22.6655 23.0139 19.6952 20.9039 19.3544C20.5071 19.2895 20.2186 19.3219 20.0382 19.4355L19.8398 19.1921C20.0923 19.0298 20.471 18.9811 20.958 19.0622C23.1942 19.4355 27.4864 22.422 28.8209 24.2561L28.5504 24.4184Z" fill="#1D90FF"/>
<path d="M38 57.9999C26.963 57.9999 18 49.9169 18 39.9998C18 30.0665 26.9811 21.9998 38 21.9998C49.0189 21.9998 58 30.0828 58 39.9998C58 49.9332 49.0189 57.9999 38 57.9999ZM38 22.3893C27.1975 22.3893 18.4148 30.2938 18.4148 39.9998C18.4148 49.7059 27.1975 57.6104 37.982 57.6104C48.7845 57.6104 57.5491 49.7059 57.5491 39.9998C57.5491 30.2938 48.7845 22.3893 38 22.3893Z" fill="#1D90FF"/>
<path d="M18.6318 42.3372C18.5417 42.3372 18.4515 42.3372 18.3613 42.3372V42.2561C20.273 42.321 22.5453 41.6231 24.9078 40.2272C27.1801 38.88 29.3803 36.9648 31.0935 34.8223C34.502 30.5698 35.6021 26.0901 34.1233 22.5517L34.2134 22.5193C35.7103 26.0901 34.6102 30.5861 31.1837 34.871C27.6129 39.3021 22.4912 42.3372 18.6318 42.3372Z" fill="#1D90FF"/>
<path d="M57.2242 42.3371C53.3469 42.3371 48.2432 39.3019 44.6904 34.8547C41.2639 30.5697 40.1458 26.0737 41.6606 22.5029L41.7508 22.5354C40.254 26.0737 41.3541 30.5535 44.7806 34.806C46.4938 36.9484 48.694 38.8637 50.9663 40.2109C53.3288 41.6067 55.5831 42.3047 57.5128 42.2397V42.3209C57.4046 42.3371 57.3144 42.3371 57.2242 42.3371Z" fill="#1D90FF"/>
<path d="M28.3338 41.3146C30.9533 41.3146 33.0768 39.4034 33.0768 37.0458C33.0768 34.6883 30.9533 32.7771 28.3338 32.7771C25.7143 32.7771 23.5908 34.6883 23.5908 37.0458C23.5908 39.4034 25.7143 41.3146 28.3338 41.3146Z" fill="white"/>
<path d="M47.4325 41.3146C50.052 41.3146 52.1755 39.4034 52.1755 37.0458C52.1755 34.6883 50.052 32.7771 47.4325 32.7771C44.813 32.7771 42.6895 34.6883 42.6895 37.0458C42.6895 39.4034 44.813 41.3146 47.4325 41.3146Z" fill="white"/>
<path d="M47.4138 41.2173C47.3237 41.2173 47.2335 41.2173 47.1433 41.2173C45.2497 41.1199 43.6808 40.0324 43.0496 38.3606C42.8872 37.9548 43.1397 37.5166 43.5725 37.3705C44.0234 37.2244 44.5103 37.4517 44.6726 37.8412C45.0874 38.9125 46.0432 39.5942 47.2515 39.6591C48.532 39.724 49.7042 39.0261 50.3354 37.8575C50.5338 37.4679 51.0568 37.3056 51.4896 37.5004C51.9224 37.6789 52.1028 38.1496 51.8863 38.5392C51.0027 40.1947 49.3074 41.2173 47.4138 41.2173Z" fill="white"/>
<path d="M28.2978 41.2658C26.819 41.2658 25.4665 40.6004 24.5828 39.4317C24.3303 39.1071 24.4205 38.6527 24.7992 38.4254C25.1599 38.1982 25.6648 38.2793 25.9173 38.6202C26.5125 39.3993 27.3781 39.8375 28.352 39.8213C29.434 39.805 30.498 39.237 31.1833 38.2793C31.4178 37.9385 31.9227 37.8411 32.3015 38.0683C32.6802 38.2793 32.7884 38.7338 32.5359 39.0747C31.5621 40.4381 29.9931 41.2658 28.37 41.2821C28.3339 41.2658 28.3159 41.2658 28.2978 41.2658Z" fill="white"/>
<path d="M50.2457 35.3741C50.6839 35.3741 51.0392 35.0544 51.0392 34.66C51.0392 34.2655 50.6839 33.9458 50.2457 33.9458C49.8074 33.9458 49.4521 34.2655 49.4521 34.66C49.4521 35.0544 49.8074 35.3741 50.2457 35.3741Z" fill="white"/>
<path d="M30.9677 36.056C31.4557 36.056 31.8513 35.6999 31.8513 35.2606C31.8513 34.8214 31.4557 34.4653 30.9677 34.4653C30.4796 34.4653 30.084 34.8214 30.084 35.2606C30.084 35.6999 30.4796 36.056 30.9677 36.056Z" fill="white"/>
<path d="M28.3336 41.4446C25.6465 41.4446 23.4463 39.4644 23.4463 37.046C23.4463 34.6276 25.6465 32.6475 28.3336 32.6475C31.0207 32.6475 33.2209 34.6276 33.2209 37.046C33.2209 39.4644 31.0387 41.4446 28.3336 41.4446ZM28.3336 32.9072C25.7907 32.9072 23.7348 34.7575 23.7348 37.046C23.7348 39.3346 25.7907 41.1849 28.3336 41.1849C30.8764 41.1849 32.9323 39.3346 32.9323 37.046C32.9503 34.7575 30.8764 32.9072 28.3336 32.9072Z" fill="#1D90FF"/>
<path d="M47.4322 41.4446C44.7451 41.4446 42.5449 39.4644 42.5449 37.046C42.5449 34.6276 44.7451 32.6475 47.4322 32.6475C50.1193 32.6475 52.3195 34.6276 52.3195 37.046C52.3195 39.4644 50.1193 41.4446 47.4322 41.4446ZM47.4322 32.9072C44.8894 32.9072 42.8335 34.7575 42.8335 37.046C42.8335 39.3346 44.8894 41.1849 47.4322 41.1849C49.975 41.1849 52.0309 39.3346 52.0309 37.046C52.0309 34.7575 49.975 32.9072 47.4322 32.9072Z" fill="#1D90FF"/>
<path d="M47.522 39.6914C49.1754 39.6914 50.5157 38.4851 50.5157 36.9971C50.5157 35.509 49.1754 34.3027 47.522 34.3027C45.8686 34.3027 44.5283 35.509 44.5283 36.9971C44.5283 38.4851 45.8686 39.6914 47.522 39.6914Z" fill="#1D90FF"/>
<path d="M56.1333 44.4955C56.3365 43.381 55.2025 42.2857 53.6004 42.0491C51.9984 41.8125 50.5349 42.5243 50.3318 43.6389C50.1286 44.7534 51.2626 45.8488 52.8646 46.0853C54.4667 46.3219 55.9301 45.6101 56.1333 44.4955Z" fill="white"/>
<path d="M53.4918 46.184C53.2934 46.184 53.077 46.1678 52.8787 46.1353C52.0852 46.0217 51.3818 45.6971 50.8949 45.2264C50.408 44.7557 50.1916 44.1876 50.2817 43.6195C50.3899 43.0677 50.7867 42.5808 51.4179 42.2724C52.0491 41.964 52.8246 41.8666 53.6181 41.9802C55.2592 42.2237 56.4134 43.3436 56.215 44.496C56.0347 45.5023 54.8624 46.184 53.4918 46.184ZM52.9869 42.0614C52.4458 42.0614 51.9228 42.175 51.472 42.386C50.8769 42.6781 50.4981 43.1164 50.408 43.6358C50.3178 44.1552 50.5162 44.6908 50.9851 45.129C51.454 45.5835 52.1212 45.8919 52.8787 46.0055C54.4296 46.2327 55.8723 45.551 56.0707 44.4635C56.2691 43.3923 55.151 42.3211 53.6 42.0938C53.4017 42.0776 53.1852 42.0614 52.9869 42.0614Z" fill="#1D90FF"/>
<path d="M23.4696 46.0749C25.0716 45.8384 26.2056 44.743 26.0025 43.6285C25.7993 42.5139 24.3358 41.8022 22.7338 42.0387C21.1317 42.2753 19.9977 43.3706 20.2009 44.4851C20.4041 45.5997 21.8675 46.3115 23.4696 46.0749Z" fill="white"/>
<path d="M22.8515 46.1838C21.4809 46.1838 20.3086 45.5021 20.1283 44.4958C19.9119 43.3434 21.0841 42.2234 22.7252 41.98C23.5187 41.8663 24.2942 41.9637 24.9254 42.2721C25.5566 42.5805 25.9714 43.0512 26.0616 43.6193C26.1698 44.1711 25.9534 44.7392 25.4484 45.2261C24.9615 45.6968 24.2581 46.0215 23.4646 46.1351C23.2662 46.1675 23.0679 46.1838 22.8515 46.1838ZM20.2726 44.4795C20.4709 45.5508 21.8956 46.2487 23.4646 46.0215C24.2221 45.9078 24.8893 45.5995 25.3582 45.145C25.8271 44.6905 26.0255 44.1711 25.9353 43.6517C25.8451 43.1324 25.4664 42.6941 24.8713 42.402C24.2762 42.1098 23.5187 42.0124 22.7613 42.126C21.1923 42.337 20.0742 43.4083 20.2726 44.4795Z" fill="#1D90FF"/>
<path d="M25.0343 37.2729C25.9901 36.7048 28.3346 35.244 31.4906 36.4776C31.7431 36.575 31.8332 36.9645 31.3102 36.932C29.3445 36.8184 27.3788 37.0294 25.9 38.4415C25.7557 38.5876 25.4311 38.7012 25.4491 38.2305C25.4491 38.0033 25.4852 37.776 25.5393 37.6137C25.3589 37.5488 25.2327 37.5326 25.0163 37.5001C24.872 37.4839 24.9081 37.354 25.0343 37.2729Z" fill="#1D90FF"/>
<path d="M37.7295 40.9901C37.0622 40.7142 36.4671 39.9838 36.3589 39.7079C36.2867 39.5293 36.1966 39.2209 36.7917 39.1398C37.3147 39.0749 38.0721 39.1073 38.5771 39.1398C39.064 39.1885 39.1722 39.3508 38.9738 39.8215C38.7574 40.2272 38.2885 40.7142 37.7295 40.9901Z" fill="#1D90FF"/>
<path d="M37.6755 50.9234C34.8982 50.9234 33.8162 46.5086 33.2391 44.1227C33.203 43.9604 33.1669 43.798 33.1309 43.652L33.4014 43.6033C33.4374 43.7493 33.4735 43.9117 33.5096 44.074C34.0326 46.2164 35.1146 50.6637 37.6575 50.6637C40.597 50.6637 41.9316 45.0641 41.9316 43.6195H42.2201C42.2201 45.3237 40.8135 50.9234 37.6755 50.9234Z" fill="#1D90FF"/>
<path d="M42.0399 43.7492C41.8415 43.7006 41.7514 43.6681 41.6792 43.6519C41.5891 43.6194 41.4628 43.5869 41.5169 43.4733C41.553 43.3597 41.6792 43.3922 41.7874 43.4084C41.8596 43.4246 41.9678 43.4571 42.1301 43.5058L42.0399 43.7492Z" fill="#1D90FF"/>
<path d="M34.5205 43.2465C34.773 44.0581 35.0255 44.6262 35.5485 45.3241C35.5304 44.3502 35.4763 43.3926 35.4944 42.9057C35.4763 42.7109 34.5205 43.2465 34.5205 43.2465Z" fill="white"/>
<path d="M35.5303 45.3889C35.5123 45.3889 35.4762 45.3726 35.4762 45.3564C34.9352 44.6098 34.6827 44.0255 34.4482 43.2626C34.4482 43.2302 34.4482 43.1977 34.4843 43.1977C34.8089 43.0192 35.35 42.7432 35.4942 42.8244C35.5303 42.8406 35.5483 42.8731 35.5483 42.9218C35.5483 43.1815 35.5483 43.5872 35.5664 44.0579C35.5844 44.4475 35.6024 44.902 35.6024 45.3402C35.6024 45.3727 35.5844 45.3889 35.5483 45.4051C35.5483 45.3889 35.5483 45.3889 35.5303 45.3889ZM34.5925 43.2789C34.8089 43.9443 35.0253 44.4637 35.4582 45.0967C35.4582 44.7234 35.4401 44.3663 35.4221 44.0417C35.4041 43.5873 35.386 43.1977 35.4041 42.9218C35.2959 42.938 34.9171 43.1003 34.5925 43.2789Z" fill="#1D90FF"/>
<path d="M40.8678 43.2465C40.6153 44.0581 40.3628 44.6262 39.8398 45.3241C39.8579 44.3502 39.912 43.3926 39.8939 42.9057C39.8939 42.7109 40.8678 43.2465 40.8678 43.2465Z" fill="white"/>
<path d="M39.8397 45.3889H39.8217C39.7856 45.3727 39.7676 45.3564 39.7676 45.324C39.7676 44.8857 39.7856 44.4313 39.8036 44.0417C39.8217 43.571 39.8397 43.1815 39.8217 42.9218C39.8217 42.8893 39.8397 42.8569 39.8758 42.8244C40.0201 42.7432 40.5791 43.0192 40.8857 43.1977C40.9218 43.2139 40.9218 43.2464 40.9218 43.2626C40.6873 44.0255 40.4348 44.6098 39.8938 45.3564C39.8938 45.3726 39.8758 45.3889 39.8397 45.3889ZM39.966 42.9218C39.966 43.1815 39.966 43.571 39.9479 44.0255C39.9299 44.3501 39.9299 44.7072 39.9119 45.0805C40.3447 44.4475 40.5611 43.9119 40.7775 43.2626C40.4529 43.1003 40.0922 42.938 39.966 42.9218Z" fill="#1D90FF"/>
<path d="M30.6243 44.0903C30.5161 44.0903 30.426 44.0903 30.3358 44.0903C29.8489 44.0741 28.9832 43.9767 28.7127 43.5872C28.4602 43.2463 28.5504 42.8892 28.9111 42.6133C28.9652 42.5646 29.0554 42.5808 29.1095 42.6295C29.1636 42.6782 29.1455 42.7594 29.0914 42.8081C28.9111 42.9379 28.7488 43.1652 28.9471 43.4573C29.0914 43.6683 29.6144 43.8144 30.3538 43.8306C32.1212 43.9118 35.5657 43.2788 37.315 41.2986C37.4232 41.185 37.5134 40.8117 37.5134 40.5844C37.5134 40.5195 37.5856 40.4546 37.6577 40.4546C37.7298 40.4546 37.802 40.5195 37.802 40.5844C37.802 40.8279 37.7118 41.2824 37.5495 41.4609C35.8002 43.4086 32.4999 44.0903 30.6243 44.0903Z" fill="#1D90FF"/>
<path d="M44.7627 44.0901C42.8691 44.0901 39.5868 43.4084 37.8736 41.4607C37.7113 41.2821 37.6211 40.8277 37.6211 40.5842C37.6211 40.5193 37.6932 40.4543 37.7654 40.4543C37.8375 40.4543 37.9096 40.5193 37.9096 40.5842C37.9096 40.8114 37.9998 41.1847 38.108 41.2984C39.8573 43.2785 43.3019 43.8953 45.0692 43.8304C45.8086 43.7979 46.3316 43.6518 46.4759 43.4571C46.6923 43.1649 46.512 42.9539 46.3316 42.8078C46.2775 42.7591 46.2595 42.678 46.3136 42.6293C46.3677 42.5806 46.4579 42.5644 46.512 42.6131C46.8727 42.889 46.9628 43.2461 46.7104 43.5869C46.4398 43.9765 45.5742 44.0576 45.0873 44.0901C44.961 44.0901 44.8709 44.0901 44.7627 44.0901Z" fill="#1D90FF"/>
<path d="M39.8403 42.9538H35.476C35.4579 42.9538 35.4219 42.9376 35.4219 42.9051C35.4219 42.8727 35.4399 42.8564 35.476 42.8564H39.8403C39.8583 42.8564 39.8944 42.8727 39.8944 42.9051C39.8944 42.9376 39.8763 42.9538 39.8403 42.9538Z" fill="#1D90FF"/>
</svg>
