<svg width="75" height="75" viewBox="0 0 75 75" fill="none" xmlns="http://www.w3.org/2000/svg">
<rect width="75" height="75" fill="white"/>
<path fill-rule="evenodd" clip-rule="evenodd" d="M38.0002 14.9934C24.974 14.9934 14.4111 25.554 14.4111 38.5825C14.4111 49.0051 21.1701 57.8469 30.5428 60.9665C31.7213 61.1852 32.1541 60.4547 32.1541 59.8317C32.1541 59.2692 32.1322 57.411 32.1221 55.4399C25.5596 56.8669 24.1748 52.6567 24.1748 52.6567C23.1018 49.9301 21.5557 49.2051 21.5557 49.2051C19.415 47.7411 21.717 47.7715 21.717 47.7715C24.0854 47.9376 25.333 50.2024 25.333 50.2024C27.4369 53.8079 30.8514 52.7657 32.1975 52.1633C32.4092 50.6387 33.0205 49.5977 33.6951 49.0086C28.4557 48.4129 22.9475 46.3899 22.9475 37.3512C22.9475 34.7758 23.8693 32.6715 25.3783 31.0192C25.133 30.4254 24.3256 28.0262 25.6064 24.777C25.6064 24.777 27.5869 24.143 32.0947 27.195C33.9768 26.6719 35.9951 26.409 38.0002 26.4C40.0041 26.409 42.0236 26.6711 43.9092 27.1942C48.4115 24.1422 50.3896 24.7762 50.3896 24.7762C51.6736 28.025 50.8662 30.4247 50.6213 31.0184C52.1338 32.6708 53.049 34.7751 53.049 37.3504C53.049 46.4106 47.5307 48.4051 42.2779 48.9895C43.1244 49.7215 43.8783 51.1575 43.8783 53.3579C43.8783 56.5141 43.851 59.0544 43.851 59.8313C43.851 60.459 44.276 61.1946 45.4713 60.9629C54.8385 57.8403 61.5896 49.0012 61.5896 38.5825C61.5893 25.5547 51.0275 14.9938 38.0002 14.9938V14.9934Z" fill="#1D90FF"/>
<path d="M23.3451 48.8617C23.2931 48.9789 23.1087 49.0141 22.9408 48.934C22.7689 48.8574 22.6732 48.6977 22.7287 48.5801C22.7794 48.459 22.9642 48.4258 23.1349 48.5066C23.3068 48.5836 23.4044 48.7449 23.3447 48.8621L23.3451 48.8617ZM24.3005 49.9277C24.1884 50.032 23.9685 49.9836 23.8193 49.8184C23.6646 49.6543 23.6357 49.4344 23.7501 49.3285C23.8665 49.2246 24.0798 49.2738 24.2345 49.4379C24.3884 49.6043 24.4189 49.8223 24.3009 49.9281L24.3005 49.9277ZM25.231 51.2859C25.0865 51.3867 24.8497 51.2926 24.7037 51.0828C24.5591 50.8726 24.5591 50.6207 24.7076 50.5203C24.8533 50.4195 25.0865 50.5105 25.2349 50.7184C25.3787 50.9312 25.3787 51.1832 25.231 51.2855V51.2859ZM26.5048 52.5988C26.3759 52.7414 26.1001 52.7031 25.8986 52.509C25.6927 52.3187 25.6353 52.048 25.7646 51.9059C25.8958 51.7629 26.1728 51.8027 26.3755 51.9957C26.5814 52.1855 26.6435 52.4566 26.5056 52.5984L26.5048 52.5988ZM28.2626 53.3609C28.2052 53.5457 27.9404 53.6297 27.6728 53.5508C27.406 53.4699 27.2314 53.2539 27.2861 53.0672C27.3408 52.8809 27.6076 52.7937 27.8767 52.8777C28.1435 52.9582 28.3181 53.173 28.2626 53.3609ZM30.1935 53.5019C30.2001 53.6965 29.9736 53.8574 29.6935 53.8613C29.4111 53.868 29.1826 53.7101 29.1798 53.5187C29.1798 53.3223 29.4017 53.1633 29.6837 53.1578C29.9638 53.1527 30.1939 53.309 30.1939 53.5016L30.1935 53.5019ZM31.9896 53.1965C32.0232 53.3859 31.8283 53.5808 31.5497 53.6328C31.2763 53.6836 31.0224 53.5656 30.9872 53.3777C30.9537 53.1832 31.1521 52.9883 31.4255 52.9379C31.7044 52.8898 31.9544 53.0043 31.9896 53.1969V53.1965Z" fill="#1D90FF"/>
</svg>
