<svg width="31" height="30" viewBox="0 0 31 30" fill="none" xmlns="http://www.w3.org/2000/svg">
<path d="M18.6346 17.1551C18.889 16.768 19.1507 16.8275 19.5099 16.9615C19.8689 17.0955 21.784 18.0337 22.1729 18.2272L22.921 18.6815L23.3511 18.4264C23.2504 18.2567 23.1029 18.1499 22.9876 18.0794C22.876 18.0112 22.7425 17.9472 22.619 17.888L22.6046 17.8811C22.5376 17.849 22.4689 17.816 22.3958 17.7796L22.3957 17.7796C22.199 17.6817 21.621 17.3978 21.0471 17.1215C20.4875 16.8521 19.8916 16.5703 19.6847 16.4931L19.6847 16.4931C19.516 16.4301 19.2527 16.3335 18.9744 16.3663C18.6438 16.4053 18.3997 16.6036 18.219 16.8771M18.6346 17.1551L18.2205 16.8749C18.22 16.8756 18.2195 16.8764 18.219 16.8771M18.6346 17.1551L18.2167 16.8806C18.2175 16.8794 18.2183 16.8782 18.219 16.8771M18.6346 17.1551C18.3727 17.5422 17.6247 18.4134 17.4002 18.6741C17.1758 18.9346 16.9439 18.9644 16.5549 18.7709M18.219 16.8771C17.9763 17.235 17.2558 18.0756 17.0214 18.3478L17.0213 18.3478C16.998 18.3749 16.9819 18.3889 16.9734 18.3955M20.0634 22.3746C20.7816 22.3076 22.3675 21.4364 22.6966 20.528L10.2861 7.81807C10.0617 7.81066 9.79988 7.81066 9.53796 7.81066C9.27618 7.81066 8.85717 7.90744 8.49815 8.29457C8.47675 8.31765 8.45306 8.34268 8.42743 8.36977C8.02308 8.79711 7.13657 9.73404 7.13657 11.5337C7.13657 13.4146 8.49903 15.2377 8.72173 15.5357L8.73001 15.5467M20.0634 22.3746C19.9954 22.381 19.9277 22.3892 19.8581 22.3976C19.1999 22.4772 18.3645 22.5783 15.3879 21.4066M20.0634 22.3746L20.1098 22.8724C20.11 22.8724 20.1101 22.8724 20.1103 22.8724M20.0634 22.3746L20.1103 22.8724M15.3879 21.4066C11.7201 19.9643 9.29899 16.3858 8.80949 15.6623M15.3879 21.4066L15.2048 21.8719C15.2048 21.8719 15.2049 21.8719 15.2049 21.8719M15.3879 21.4066L15.2049 21.8719M8.80949 15.6623C8.77084 15.6051 8.74423 15.5658 8.73001 15.5467M8.80949 15.6623L8.39536 15.9424L8.34811 15.8728L8.3338 15.8521C8.3307 15.8477 8.32929 15.8458 8.32914 15.8456C8.32913 15.8456 8.32913 15.8456 8.32913 15.8456L8.32122 15.835L8.32118 15.8349L8.32112 15.8349C8.20427 15.6785 7.78757 15.1209 7.3995 14.354C7.01481 13.5938 6.63657 12.5862 6.63657 11.5337C6.63657 9.53873 7.63318 8.48169 8.06424 8.02612L8.40887 8.3522L8.06425 8.02611C8.09031 7.99857 8.11217 7.97546 8.13154 7.95457C8.60074 7.44864 9.16171 7.31066 9.53796 7.31066H9.5434C9.80077 7.31066 10.0687 7.31066 10.301 7.31829M8.80949 15.6623L8.39536 15.9424L8.40117 15.951C8.90095 16.6898 11.3925 20.3727 15.2049 21.8719M8.73001 15.5467L8.32946 15.846L8.32924 15.8457L8.73001 15.5467ZM10.301 7.31829C10.3043 7.31838 10.3077 7.31847 10.3111 7.31856C10.4503 7.32216 10.7072 7.32881 10.9688 7.48043C11.2396 7.63745 11.447 7.90511 11.6172 8.28289L11.6175 8.28356C11.8143 8.72217 12.1422 9.52055 12.4055 10.1619L12.409 10.1703C12.5124 10.4223 12.6061 10.6504 12.6792 10.8261C12.7158 10.914 12.7467 10.9875 12.7708 11.0435C12.7828 11.0716 12.7927 11.0942 12.8004 11.1116L12.8096 11.1318C12.8104 11.1335 12.8111 11.1349 12.8115 11.1359C12.8122 11.1374 12.8126 11.1381 12.8126 11.1382C12.9457 11.4031 13.0681 11.8019 12.845 12.259L10.301 7.31829ZM10.301 7.31829L20.1103 22.8724M15.2049 21.8719C16.7086 22.4638 17.698 22.7451 18.4097 22.8644C19.1399 22.9869 19.5668 22.9365 19.9181 22.894C19.9889 22.8854 20.05 22.8781 20.1103 22.8724M16.9734 18.3955C16.9532 18.3931 16.8948 18.3815 16.7776 18.3232M16.9734 18.3955C16.9701 18.398 16.9679 18.3994 16.9668 18.4001C16.966 18.4006 16.9726 18.3972 16.9809 18.3962C16.9815 18.3961 16.9818 18.3961 16.9818 18.3961C16.9818 18.3961 16.9791 18.3962 16.9734 18.3955ZM16.5549 18.7709L16.7776 18.3232C16.7776 18.3232 16.7776 18.3232 16.7776 18.3232M16.5549 18.7709L16.7776 18.3232M16.5549 18.7709C16.4916 18.7394 16.4054 18.7022 16.2991 18.6563C15.7511 18.4199 14.6671 17.9522 13.4205 16.8424C12.261 15.8148 11.4755 14.5416 11.251 14.1545M16.7776 18.3232C16.7019 18.2856 16.6051 18.2438 16.5075 18.2017L16.4971 18.1972L16.496 18.1967C15.9651 17.9676 14.9393 17.5251 13.753 16.4689L13.7521 16.4682C12.6522 15.4934 11.8986 14.2744 11.6836 13.9037M11.6836 13.9037L11.251 14.1545M11.6836 13.9037C11.6691 13.8788 11.6612 13.8608 11.6569 13.8492M11.6836 13.9037C11.6835 13.9037 11.6835 13.9036 11.6835 13.9036L11.251 14.1545M11.251 14.1545C11.0266 13.7673 11.2286 13.5587 11.4231 13.3652C11.5328 13.256 11.6607 13.1014 11.7894 12.9458C11.8626 12.8574 11.9361 12.7686 12.0067 12.6876C12.1782 12.4906 12.2508 12.3399 12.3528 12.1282L11.6569 13.8492M11.6569 13.8492C11.6603 13.8443 11.665 13.8381 11.6711 13.8305C11.6947 13.8014 11.7254 13.7698 11.7757 13.7197L11.776 13.7195C11.9029 13.5931 12.0435 13.4231 12.1645 13.2768L12.1746 13.2646C12.2487 13.1751 12.318 13.0914 12.3836 13.0161L12.3838 13.016C12.5995 12.7681 12.6965 12.567 12.799 12.3542L12.8033 12.3453L12.8033 12.3453C12.8169 12.3169 12.8306 12.2886 12.845 12.2591L11.6569 13.8492ZM11.6569 13.8492C11.6499 13.8592 11.6477 13.8638 11.6477 13.8638C11.6477 13.8638 11.6479 13.8634 11.6481 13.8628C11.6516 13.8536 11.653 13.8408 11.652 13.8333C11.6518 13.8314 11.6522 13.8365 11.6569 13.8492ZM8.09293 27.7202C7.98142 27.6598 7.85113 27.6441 7.72843 27.6761L0.761017 29.496C0.682855 29.5164 0.611922 29.4445 0.633378 29.3666L2.49436 22.6115C2.52997 22.4823 2.51218 22.3442 2.44499 22.2281C1.16981 20.0264 0.49909 17.5296 0.500001 14.9886V14.9884C0.500001 7.00202 7.03647 0.5 15.0587 0.5C18.9588 0.5 22.6098 2.01128 25.3587 4.7473C28.107 7.48286 29.6177 11.1229 29.6177 14.9958C29.6177 22.982 23.0812 29.484 15.0588 29.484H15.0514C12.6138 29.484 10.2195 28.8721 8.09293 27.7202Z" fill="white" stroke="white" stroke-linejoin="round"/>
</svg>
