<svg width="30" height="30" viewBox="0 0 30 30" fill="none" xmlns="http://www.w3.org/2000/svg">
<path fill-rule="evenodd" clip-rule="evenodd" d="M23.1039 24.7375L23.1047 24.7354L23.1265 24.681L26.875 5.78216V5.72078C26.875 5.2499 26.701 4.83883 26.3224 4.59225C25.991 4.37642 25.6101 4.36105 25.3429 4.38133C25.0604 4.40277 24.794 4.47329 24.6096 4.53199C24.5147 4.56219 24.4353 4.59129 24.3785 4.6133C24.35 4.62434 24.3269 4.63372 24.3101 4.6407L24.2936 4.64765L3.39383 12.8463L3.38808 12.8484C3.37679 12.8525 3.36187 12.8581 3.34384 12.8651C3.30789 12.8791 3.25897 12.8991 3.20149 12.9251C3.08864 12.9763 2.93272 13.0552 2.7746 13.1635C2.50603 13.3474 1.99464 13.7828 2.08099 14.4731C2.15251 15.0449 2.54664 15.408 2.81235 15.596C2.95479 15.6968 3.09106 15.7694 3.19084 15.8169C3.2414 15.841 3.28435 15.8595 3.31633 15.8725C3.33237 15.879 3.34578 15.8842 3.35615 15.8882L3.36943 15.8931L3.37792 15.8963L7.03447 17.1273C7.02213 17.3567 7.04489 17.5906 7.10573 17.8214L8.93733 24.7694C9.1545 25.5932 9.89978 26.1671 10.7517 26.1665C11.5154 26.1659 12.1927 25.7039 12.4804 25.0147L15.34 21.9571L20.2512 25.7224L20.3211 25.7528C20.7673 25.9475 21.1842 26.0092 21.5653 25.9572C21.9459 25.9052 22.2484 25.7456 22.4756 25.5638C22.6992 25.3849 22.8524 25.183 22.9488 25.031C22.9977 24.9538 23.0342 24.886 23.0595 24.8349C23.0722 24.8092 23.0823 24.7875 23.0898 24.7706L23.0992 24.7488L23.1025 24.7408L23.1039 24.7375ZM8.91873 17.3434C8.8771 17.1855 8.94245 17.0188 9.08031 16.9313L21.4828 9.05515C21.4828 9.05515 22.2123 8.61228 22.1862 9.05515C22.1862 9.05515 22.3164 9.13336 21.9255 9.49802C21.5547 9.84437 13.0859 18.0207 12.229 18.848C12.1795 18.8958 12.15 18.9506 12.1326 19.0171L10.7503 24.2915L8.91873 17.3434Z" fill="white"/>
</svg>
