<svg width="30" height="30" viewBox="0 0 30 30" fill="none" xmlns="http://www.w3.org/2000/svg">
<path d="M5.9375 2.34375C4.47049 2.34375 3.28125 3.53299 3.28125 5C3.28125 6.46701 4.47049 7.65625 5.9375 7.65625C7.40451 7.65625 8.59375 6.46701 8.59375 5C8.59375 3.53299 7.40451 2.34375 5.9375 2.34375Z" fill="white"/>
<path d="M3.4375 9.84375C3.35121 9.84375 3.28125 9.91371 3.28125 10V26.25C3.28125 26.3363 3.35121 26.4062 3.4375 26.4062H8.4375C8.52379 26.4062 8.59375 26.3363 8.59375 26.25V10C8.59375 9.91371 8.52379 9.84375 8.4375 9.84375H3.4375Z" fill="white"/>
<path d="M11.5625 9.84375C11.4762 9.84375 11.4062 9.91371 11.4062 10V26.25C11.4062 26.3363 11.4762 26.4062 11.5625 26.4062H16.5625C16.6488 26.4062 16.7188 26.3363 16.7188 26.25V17.5C16.7188 16.8784 16.9657 16.2823 17.4052 15.8427C17.8448 15.4032 18.4409 15.1562 19.0625 15.1562C19.6841 15.1562 20.2802 15.4032 20.7198 15.8427C21.1593 16.2823 21.4062 16.8784 21.4062 17.5V26.25C21.4062 26.3363 21.4762 26.4062 21.5625 26.4062H26.5625C26.6488 26.4062 26.7188 26.3363 26.7188 26.25V15.4753C26.7188 12.4419 24.0805 10.0687 21.0623 10.3431C20.1315 10.4277 19.2112 10.6591 18.3518 11.0274L16.7188 11.7273V10C16.7188 9.91371 16.6488 9.84375 16.5625 9.84375H11.5625Z" fill="white"/>
</svg>
