<svg width="1205" height="1356" viewBox="0 0 1205 1356" fill="none" xmlns="http://www.w3.org/2000/svg">
<path d="M112.074 577.749L120.092 575.075L128.11 577.749H151.273L160.181 575.075L164.636 581.314L171.763 586.66H196.707L199.38 589.334V596.463L196.707 603.593L202.052 608.048H208.288V615.178L211.852 620.525L213.633 624.09L223.433 630.328L231.451 636.566L237.687 640.131L243.032 647.26L246.596 649.042V650.825L247.486 651.716M247.486 651.716H258.177L265.304 646.369V641.022H261.74L258.177 637.457V633.892L261.74 630.328L271.54 628.545L274.213 623.198V601.81L267.976 597.354V580.422L271.54 567.946L275.994 566.164L282.23 560.817L285.794 564.381L284.012 567.946L291.139 572.402H302.72L308.956 575.966L315.192 583.096L308.956 584.878V604.484L299.157 606.266V613.396H316.083V606.266L320.538 604.484L322.319 600.028V594.681H340.137L345.482 600.028L353.5 600.919V586.66H357.063L359.736 580.422L362.409 575.966L353.5 575.075L351.718 567.946L353.5 562.599V558.143L359.736 555.47H376.662V541.211H372.208L366.863 544.775H349.045L343.7 541.211L340.137 537.646L338.355 530.517L340.137 522.496L343.7 520.714L349.045 515.367L353.5 511.802L357.063 509.129L362.409 504.673L366.863 502.891L372.208 497.544H379.335L386.462 492.197H390.916L395.371 486.849H398.043L406.952 479.72V473.482M247.486 651.716L253.723 662.41L251.05 668.648H247.486L242.141 671.322L239.469 674.886V700.73M229.669 323.765H221.651L213.633 326.439L202.943 337.133V342.48L199.38 352.283L194.034 360.303L190.471 370.106L186.017 375.453L178.89 379.018L170.872 385.256L163.745 389.712L160.181 397.733L154.836 410.209H152.164L147.709 418.229L144.146 428.923H116.529L110.293 435.162H100.493L97.8205 428.923L90.6936 420.903L84.4575 418.229L79.1123 424.468L72.8762 428.923L68.759 437.835L66.6401 443.182L58.6223 449.42L53.2771 459.223L47.041 464.57V477.938L49.7136 482.394L56.8405 486.849H66.6401L72.8762 489.523V520.714L79.1123 528.734L90.6936 531.408H95.1479V546.558L105.838 559.034V563.49L110.293 572.402V584.878L105.838 592.899L100.493 595.572H90.6936V588.443H88.021L84.4575 592.899H79.1123L71.0945 595.572L66.6401 599.137H58.6223L53.2771 598.246L48.6205 592.899H16.3988L14.0789 598.246V607.157L11.1375 614.58L2.49756 617.851V624.981L6.06103 634.784L11.4062 639.239L18.5332 646.369L24.7693 653.498L32.7871 657.063H38.1323L47.041 662.41H53.2771L62.1858 657.063L71.0945 653.498H79.1123L81.7849 650.825L88.021 649.042H90.6936L88.021 653.498L84.4575 657.063L79.1123 667.757L71.0945 673.104L66.6401 675.777L56.8405 676.669H49.7136L44.3684 680.233H38.1323L32.7871 675.777L27.4419 680.233V688.254L29.2236 692.71L35.4597 700.73L38.1323 704.295L44.3684 706.968L47.041 713.206L53.2771 716.326L62.1858 726.574L66.6401 730.139L72.8762 733.703L79.1123 739.942L84.4575 742.615L90.6936 747.962L95.1479 751.527L100.493 754.2H110.293L120.983 751.527L127.219 747.962L135.237 742.615L144.146 739.942L152.164 735.486L159.29 730.139L162.854 722.118V713.206L159.29 706.968V700.73H165.527V690.036H173.544L170.872 692.71V700.73H177.999L176.217 704.295V713.206L186.017 716.326M229.669 323.765V307.724L239.469 295.248L253.723 282.772L259.068 277.425V258.71L253.723 246.234L259.068 239.996L265.304 231.975L274.213 225.737L284.903 221.281L290.248 215.934M229.669 323.765L230.56 324.657L238.578 330.004H249.268M290.248 215.934L284.903 210.587M290.248 215.934L289.357 215.043M284.903 210.587H268.867L262.631 207.913V195.437H253.723V190.981L248.377 182.961L239.469 175.831L234.123 168.702L239.469 164.246V150.879H234.123V141.076L239.469 137.511L243.032 131.273H229.669V123.252H234.123V115.232H225.215V103.647H234.123V98.2246H239.469L243.032 90.4306H253.723L254.613 82.6365L249.268 75.8167H243.032V69.9712L230.56 66.0742L225.215 56.3316H213.633L202.943 48.5376L206.123 35.8723L213.633 29.0525H218.797L225.215 18.3357V12.4901H249.268V5.67033H274.213L282.23 2.74756H289.357L296.484 5.67033H300.048L309.847 2.74756H312.52L314.302 12.4901L321.429 18.3357L328.555 29.0525H335.682L342.809 35.8723L353.5 42.692L359.736 48.5376L363.299 56.3316L369.535 60.2287L380.226 63.1514L384.68 69.9712V75.8167H405.17L414.97 69.9712L429.224 60.2287L436.351 53.4089L441.696 48.5376H454.168L458.622 56.3316L465.749 63.1514L472.876 66.0742H480.894V69.9712L488.021 75.8167V82.6365L485.348 94.3276L484.458 103.647L480.894 107.211L480.003 109.916L470.328 110.89V115.232L468.378 117.71H462.186V126.817L458.622 137.511H439.914L441.696 144.989V150.879L439.914 157.117V164.246L449.714 168.702H458.622V199.002L454.168 207.913H449.714L444.368 210.587H432.787V199.002L425.66 207.913L422.097 204.349L413.683 199.299M284.903 210.587L289.357 215.043M436.351 264.948L434.569 262.275L430.115 259.601L431.896 256.037L434.569 248.907L431.896 246.234L429.224 242.669L430.115 239.104L431.896 233.757L430.115 230.193L423.878 223.955L422.097 218.608V210.587L413.188 199.002L413.683 199.299M436.351 264.948H439.023L446.15 257.819L447.932 260.492L450.605 267.622L455.059 272.078L460.404 278.316L465.749 282.772H480.894L484.458 284.554L488.021 290.792L491.584 293.466L496.039 300.595L510.293 305.942L516.529 310.398L520.983 314.854L521.874 318.418L516.529 323.765L511.184 327.33L508.511 330.895L503.166 336.242L500.493 340.698V346.936L498.711 352.283L496.039 356.739V364.759L494.257 369.215L488.021 375.453V385.256M436.351 264.948L438.132 266.731M488.021 385.256L496.039 390.603L503.166 393.277H510.293L516.529 396.841L523.656 404.862L533.455 410.209L540.582 416.447L545.037 420.012L551.273 423.576L556.618 425.359L563.745 428.032H574.435L579.78 436.053H595.816L598.489 440.509V447.638H617.197L620.76 453.876L623.433 450.312V447.638H632.342L635.905 450.312H642.587M488.021 385.256L485.348 386.147L480.003 383.474H472.876L465.749 380.8H462.186L456.841 378.127L450.604 371.889L445.259 370.997L437.241 365.65L434.569 361.195L437.241 354.956L432.787 352.283L427.442 347.827L422.988 344.262L419.424 339.807L416.751 330.895L408.734 329.113V339.807L405.17 344.262H396.261L391.807 339.807L393.589 329.113V326.439L396.261 320.201V315.745L391.807 312.18L386.462 309.507M819.424 488.632L814.079 494.87H810.515V496.652H792.698L789.135 498.435L782.008 496.652L776.662 494.87L773.99 488.632H769.535L765.972 494.87H761.518L753.5 488.632H749.045L741.028 485.958L733.01 484.176L731.228 485.958L727.665 488.632L720.538 485.958V478.829L716.083 475.264L712.52 478.829L707.175 480.611H699.157V478.829L692.03 475.264L690.248 471.7H685.794L676.885 467.244L674.213 461.006V454.767H670.649L661.74 450.312L658.177 447.638H653.723L649.268 450.312H642.587M819.424 488.632L821.238 480.611V471.7L816.245 466.353L814.079 458.332M819.424 488.632L822.677 486.849L824.769 490.24L827.442 494.87L824.769 500.217M814.079 458.332L816.245 453.876V443.182L819.424 437.835V434.27L821.238 426.25H825.66L830.115 423.576L837.242 420.903H849.714V431.597L853.277 434.27L851.495 441.4V454.767L849.714 458.332M814.079 458.332L821.238 463.879H832.812L837.242 460.837L847.041 459.823L849.714 458.332M849.714 458.332L851.495 466.353L856.841 471.7V475.264H875.549L881.785 480.611M881.785 480.611H901.384M881.785 480.611H890.694M901.384 480.611L907.62 475.264H913.856L920.983 478.829H966.417L973.544 475.264H983.344M901.384 480.611H890.694M983.344 475.264V447.638H969.981L966.417 441.4L969.981 431.597L976.217 434.27H983.344L988.689 431.597H994.034L1005.62 429.815L1010.96 423.576V416.447H1015.42L1022.54 408.427V404.862H1028.78V400.406L1037.69 395.059L1041.25 392.386H1048.38L1057.29 388.821L1059.07 387.039L1067.09 385.256L1072.43 379.909L1080.45 374.562V363.868L1086.68 362.086L1097.38 363.868L1100.94 368.324H1107.17L1112.52 370.997L1119.65 372.78L1124.1 368.324L1130.34 366.542L1134.79 362.086L1138.36 360.303L1140.14 358.521H1154.39L1156.17 360.303H1159.74L1161.52 362.086L1159.74 368.324L1161.52 370.997L1167.75 376.344L1169.54 379.909L1171.32 385.256V388.821L1168.64 394.168L1167.75 396.841L1174.88 394.168L1177.55 395.059L1181.12 398.624L1184.68 400.406L1185.57 405.753H1191.81L1195.37 404.862L1200.72 408.427L1202.5 412.882V425.359L1196.26 429.815L1192.7 431.597L1187.35 436.053L1184.68 440.509L1185.57 447.638L1187.35 452.094L1192.7 456.55V465.461H1189.13L1184.68 461.006L1181.12 459.223L1177.55 456.55L1173.1 454.767L1165.08 456.55H1157.95L1149.94 459.223L1135.68 473.482L1128.56 479.72L1119.65 483.285L1112.52 487.741L1110.74 493.088L1108.07 497.544L1109.85 502.891L1112.52 510.02L1115.19 514.476L1110.74 520.714L1106.28 523.387V529.626L1102.72 531.408L1099.16 534.973L1096.48 539.428L1093.81 540.32L1091.14 542.325M983.344 475.264L991.362 470.808H1001.16L1006.51 467.244H1016.31L1024.32 470.808H1049.27L1051.05 469.026L1058.18 467.244L1060.85 460.114L1064.41 456.55L1066.19 450.312L1075.99 443.182H1083.12L1088.47 436.053H1094.7L1096.48 433.379L1107.17 431.597L1111.63 428.923H1119.65L1125.88 427.141L1128.56 421.794H1141.03L1145.48 424.468L1143.7 428.923L1141.03 436.053V443.182L1143.7 450.312V456.55H1136.57L1128.56 458.332L1125.88 460.114L1123.21 462.788L1119.65 464.57L1116.08 470.808M1041.25 608.94H1045.7L1052.83 609.831H1059.07L1062.63 611.613H1072.43L1075.1 605.375V600.028L1078.67 593.79L1080.45 585.769L1083.12 581.314L1085.79 577.749L1088.47 575.075L1090.25 571.511L1093.81 567.055L1095.59 559.925V558.143L1091.14 554.578L1088.47 551.905L1090.25 542.993L1091.14 542.325M1041.25 608.94L1039.47 611.613V625.872L1041.25 633.892V648.151L1039.47 650.825L1034.12 652.607L1030.56 657.063L1028.78 660.627V673.995L1030.56 679.342V687.363L1022.54 694.492L1020.76 698.948L1016.31 696.274L1012.74 694.492H1009.18L1008.29 697.166H1005.62V687.363L1004.72 678.451H1003.83V668.648L1001.16 663.301L998.489 657.063L996.707 650.825V637.457L994.925 634.784L992.253 625.872L990.471 623.198M1041.25 608.94L1037.69 607.157V603.593H1024.32V590.225M990.471 623.198H984.235M990.471 623.198H989.58M984.235 623.198L980.671 625.872L977.999 630.328V637.457H974.435L973.544 644.586V652.607H962.854L961.072 649.933L956.618 644.586L954.836 643.695L953.945 637.457L948.6 632.11L947.709 624.981V615.178L950.382 611.613L956.618 607.157L960.181 605.375L965.527 601.81L969.09 600.919L977.999 596.463V593.79L980.671 590.225L986.017 587.552L988.689 581.314L990.471 575.966V570.619L992.253 567.946H996.707L1001.16 567.055V564.381L996.707 561.708L996.014 561.51M984.235 623.198H989.58M885.348 509.129L889.803 515.367L891.584 519.823V526.952L893.366 530.517L896.93 531.943M885.348 509.129H881.785M885.348 509.129H884.458M881.785 509.129L880.003 517.149H878.221L872.876 515.367L866.64 510.911L861.295 506.455M881.785 509.129H884.458M845.988 500.217H836.351L827.442 509.129L821.238 515.367V519.823L827.442 525.17L831.005 526.952L834.569 534.973L840.805 541.211L847.041 540.32L852.386 544.775L856.841 550.123L855.95 553.687H847.041L838.132 555.47L832.787 559.034V562.599L819.424 571.511V578.64L821.238 583.096L825.66 587.552L829.224 589.334L832.787 592.007H845.259V601.81L847.041 606.266V609.831L842.587 613.396L838.132 616.069V620.525L840.805 626.763L842.587 628.545L847.041 631.219V639.239L855.95 648.151L852.386 657.063V663.301L855.95 669.539L856.841 678.451V684.689L860.404 692.71V696.274L854.168 698.057L860.404 704.295V719.445L854.168 715.88H842.587V704.295L838.132 715.88H831.005L825.66 711.424L821.238 704.295V698.057L825.66 692.71L819.424 689.145L816.752 684.689L814.079 678.451L813.188 681.124L814.079 684.689L817.642 690.036L818.533 693.601V697.166L815.861 701.621L812.297 706.077L805.17 709.642L798.934 713.206M798.934 713.206L792.698 714.989M798.934 713.206L796.262 713.97M792.698 714.989L785.571 715.88L778.444 719.445L774.881 723.009V726.574L769.535 731.03V742.615L772.208 747.962L774.881 755.983L772.208 763.112L767.754 764.894V772.024L758.845 775.588L755.282 780.044L751.718 787.174L749.045 789.847L747.264 787.174L743.7 786.282L741.919 783.609L740.137 782.718L741.919 790.738V793.412H736.573L731.228 795.194L724.101 794.303H720.538L714.302 790.738H707.175L703.611 794.303L700.048 798.759V803.215L698.266 805.888L696.484 813.018L691.139 818.364L686.685 824.603M792.698 714.989L796.262 713.97M686.685 824.603L682.23 829.058L676.885 837.079L671.54 844.208L660.85 854.902L654.613 858.467L651.05 862.032H647.486L643.032 866.488L635.905 870.944L633.233 875.399L627.887 881.637L623.433 884.311L620.76 889.658L613.633 896.787L609.179 899.461L602.052 903.026L588.689 907.481L581.562 911.937V934.217L579.78 936.89L573.544 940.455L567.308 943.128L560.181 945.802H533.455V955.605L530.783 960.06V964.516L524.547 969.863L520.983 971.646H518.311L515.638 968.081H507.62L501.384 971.646L496.93 977.884L491.584 985.904V988.578L487.13 995.707V1017.99L491.584 1027.79V1034.92L489.803 1039.37L491.584 1049.18L496.93 1061.65V1067M686.685 824.603L676.885 823.711L671.54 829.058H665.304V837.97H651.05L643.032 837.079L639.469 832.623L635.905 829.058L633.233 824.603H623.433L620.76 829.058V840.644H613.633V856.685H602.052V859.358L588.689 860.25V856.685H585.126V851.338H581.562L579.78 854.902V872.726L573.544 870.944L567.308 875.399H562.854L554.836 878.964V881.637L545.927 882.529M496.93 1067L491.584 1071.46L483.567 1069.67L480.003 1074.13L475.549 1079.48H455.95L451.495 1086.61L444.368 1088.39H433.678L428.333 1091.06L425.66 1098.19L422.097 1102.65L417.642 1103.54H413.188L408.734 1099.97M496.93 1067V1084.82L494.257 1093.74V1102.65L491.584 1107.99L489.803 1116.01L487.13 1118.69L483.567 1123.14L480.003 1125.82L475.549 1133.84H470.204V1140.08L473.767 1142.75V1157.9L470.204 1160.57L475.549 1165.03V1202.46L473.767 1204.24H459.513L455.95 1206.91L453.277 1210.48V1221.17L447.932 1222.96L442.587 1230.98L439.914 1236.32L442.587 1243.45L447.932 1245.23H459.513L461.295 1251.47L455.95 1248.8H437.241L428.333 1251.47L425.66 1254.15L419.424 1256.82H414.97L408.734 1264.84V1278.21L405.17 1283.55L398.043 1288.9L390.916 1293.36L386.462 1295.14L382.008 1297.81H371.317L364.19 1290.68M364.19 1290.68L361.518 1288.9L357.954 1285.34L355.282 1281.77L351.718 1276.43H349.045L346.373 1267.51L344.591 1264.84L338.355 1256.82L335.682 1254.15V1245.23L333.01 1239V1236.32H335.682L333.01 1222.96V1219.39L329.446 1215.83L326.774 1206.91L321.429 1198V1195.33L317.865 1185.53L313.411 1182.85L310.738 1174.83V1169.49L302.72 1156.12L300.048 1150.77L296.484 1142.75H293.812L287.576 1133.84L284.903 1127.6L280.449 1119.58L275.994 1112.45L273.322 1107.1L271.54 1099.97M364.19 1290.68L369.535 1283.55V1276.43L367.754 1271.97V1267.51L365.081 1261.28L368.645 1254.15L369.535 1248.8L375.772 1246.13L377.553 1239H371.317L369.535 1230.98V1210.48L367.754 1204.24H365.081L359.736 1206.91L355.282 1204.24L351.718 1198V1190.87L349.045 1182.85V1174.83L346.373 1169.49L340.137 1167.7L338.355 1160.57H333.01L329.446 1153.44L335.682 1148.99L333.01 1142.75M271.54 1099.97L268.867 1093.74H266.195V1079.48L264.413 1071.46V1064.33L261.74 1058.09V1055.42L255.504 1050.07V1036.7L250.159 1034.92V1026.9L247.486 1023.33L245.705 1020.66L242.141 1016.2L238.578 1014.42L237.564 1012.6M271.54 1099.97L278.667 1104.43L284.903 1107.99L288.466 1114.23L293.812 1118.69L300.048 1125.82L307.175 1129.38L310.738 1133.84L317.865 1136.51L324.101 1140.08H329.446L333.01 1142.75M225.215 980.557V986.796H228.778V989.469L231.451 996.598L234.123 1000.16V1006.4L237.564 1012.6M225.215 980.557L221.651 974.319L215.415 967.19V956.496L211.852 952.931L209.179 945.802V935.999L206.506 928.87V923.523L203.834 912.828V907.481L201.161 901.243V895.005L197.598 887.876V882.529L194.034 876.29V870.944L189.58 861.141V849.555L185.126 845.1V810.344L182.453 805.888L177.999 797.868V783.609M225.215 980.557L227.887 979.666L231.451 975.21H244.814M177.999 783.609L182.453 772.915L185.126 760.438L189.58 754.2L185.126 747.962L182.453 739.942L177.999 735.486V722.118L182.453 718.554L186.017 716.326M177.999 783.609H185.126L186.017 776.479L191.362 774.697L197.598 779.153H207.397V764.894H210.07V757.765L215.415 760.438H222.542L226.996 757.765V739.942L215.415 735.486L217.197 733.703H222.542L231.451 726.574L235.014 722.118L240.36 718.554M186.017 716.326L189.58 714.098M333.01 1142.75H340.137L346.373 1148.99H351.718L355.282 1142.75L361.518 1140.08H375.772L379.335 1135.62H387.353L388.244 1131.16V1125.82L379.335 1123.14V1118.69L382.008 1114.23V1104.43H387.353L390.025 1098.19L392.698 1095.52H398.043L403.388 1096.41L408.734 1099.97M408.734 1099.97L413.188 1095.52L419.424 1093.74V1086.61L425.66 1079.48V1076.8H417.642V1069.67L414.97 1064.33H408.734L405.17 1061.65L403.388 1058.09L401.607 1052.74H398.043L394.48 1051.85L390.025 1052.74L379.335 1058.09L375.772 1055.42L371.317 1051.85L369.535 1053.63L365.081 1058.98H359.736L357.954 1055.42V1050.07L355.282 1046.5L356.172 1043.25L359.736 1040.68L363.299 1041.16L364.061 1044.23L365.081 1046.5H371.317H374.881V1035.81L369.535 1034.03H363.299L356.172 1035.81L354.55 1040.68M354.391 1041.16L354.55 1040.68M381.117 859.358L382.008 862.923V878.964L381.117 881.637L379.335 889.658L384.68 894.114L382.008 896.787V899.461L375.772 903.026L374.881 907.481L375.772 911.937V927.087L374.881 936.89H371.317V943.128H374.881L381.117 945.802V953.822L379.335 960.06L374.881 961.843H365.081L363.299 963.625V976.993L359.736 982.34V988.578L363.299 993.034L365.081 999.272L359.736 1001.95H349.045L349.936 1007.29L352.609 1010.86L349.936 1014.42L348.155 1016.2V1021.55L349.936 1024.22L352.609 1029.57H354.391V1034.92L354.55 1040.68M381.117 859.358H375.772L374.881 856.685L373.099 854.902L369.535 856.685L365.081 862.923L359.736 866.488H354.391L352.609 870.944V878.964H348.155L345.482 886.093H333.901L331.228 894.114V901.243H326.774L318.756 899.461L315.192 901.243L309.847 899.461L303.611 896.787H300.939L298.266 903.026L300.939 907.481V917.284H285.794L283.121 922.631H278.667L275.103 919.958L269.758 922.631L267.976 928.87L260.849 930.652V936.89L255.504 935.108H250.159L245.705 936.89V943.128L250.159 949.366H255.504V960.06L251.941 963.625L244.814 975.21M381.117 859.358L382.008 853.12L386.462 851.338L390.025 847.773L392.698 844.208L397.152 840.644V837.97L392.698 832.623L390.025 829.058L395.371 818.364L397.152 816.582L402.498 818.364L406.061 819.256L410.515 816.582V812.126L413.188 806.779L414.97 802.323V792.521L422.097 794.303H432.787L436.351 798.759L439.023 804.106H444.368L446.15 802.323H453.277L454.168 804.997L460.404 806.779L464.858 808.562H471.094V804.106H475.549L477.331 806.779L480.003 810.344L481.785 815.691L480.003 816.582V829.058L481.785 833.514V840.644L486.239 844.208H491.584M244.814 975.21L245.705 979.666V1006.4L244.814 1007.29L241.25 1008.18L237.564 1012.6M491.584 844.208L495.593 845.991M491.584 844.208L495.148 845.793M545.927 882.529L541.473 881.637H527.219L524.547 878.964L521.874 872.726L519.201 867.379H514.747L511.184 860.25V854.902L509.402 853.12L504.057 849.555L499.602 847.773L495.593 845.991M545.927 882.529V870.052L549.491 863.814L557.509 859.358L562.854 852.229L569.09 845.1L572.653 839.753V818.364L569.09 809.453V804.997L562.854 796.976L560.181 791.629V787.174L566.417 782.718L576.217 787.174L583.344 791.629L593.143 796.976L599.38 791.629L596.707 782.718H583.344V744.397H586.907L593.143 736.377H615.415C613.93 736.08 611.852 735.129 615.415 733.703C619.691 728.713 622.542 723.901 623.433 722.118L625.215 716.771L628.778 711.424L631.451 706.077V692.71L635.905 690.927L638.578 688.254L645.705 680.233L650.159 678.96M240.36 718.554H243.032M240.36 718.554H231.451L222.542 714.098L224.324 706.077L226.996 704.295L235.014 700.73H239.469M495.148 845.793V830.841L499.602 828.167V818.364L501.384 812.126H504.947L507.62 816.582H515.638V805.888L512.074 802.323L507.62 796.976L501.384 792.521V787.174L506.729 783.609V779.153H501.384V772.915H509.402V764.894L501.384 760.438L504.947 754.2V752.418L504.057 747.962L499.602 739.942L509.402 730.139L508.136 727.607M495.148 845.793L495.593 845.991M598.489 613.396V616.069L592.253 617.851H566.417L561.963 613.396H553.054L551.273 624.981V631.219H561.963L565.527 633.892L568.199 635.675L570.872 636.566L575.326 640.131V645.478L570.872 649.042L561.963 657.954H556.618V668.648L551.273 670.43L546.818 673.995L545.037 678.451H536.128L532.564 680.233L529.892 685.58V689.145L526.328 695.383H521.874L519.201 698.948V707.859L515.638 711.424V724.792L508.511 727.465L508.136 727.607M598.489 613.396H615.415L620.76 604.484L623.433 600.919M598.489 613.396V578.64L592.253 575.075L584.235 575.966H579.78L575.326 571.511L570.872 567.946L563.745 566.164L556.618 562.599L551.273 558.143L546.818 555.47H536.128L529.892 562.599L526.328 566.164H519.201L517.42 562.599L519.201 555.47H508.511L502.275 558.143H496.93V547.449H483.567L481.785 550.123L477.331 552.796L472.876 558.143H461.295L455.059 552.796H443.478L439.914 551.014V541.211H435.46L430.115 544.775L424.769 547.449V558.143L430.115 566.164V571.511L432.787 578.64H435.46L439.914 586.66V594.681H435.46C433.678 596.463 429.045 598.959 424.769 594.681C420.493 590.403 416.455 587.552 414.97 586.66L411.406 584.878V571.511L408.734 567.946V562.599H411.406L414.97 558.143V550.123L411.406 547.449V541.211L414.97 537.646H422.097L424.769 531.408H430.115L432.787 525.17L435.46 520.714L439.914 511.802V504.673L444.368 502.891V492.197L435.46 481.502L426.551 479.72H422.097L411.406 475.264L406.952 473.482M623.433 600.919H627.887L631.451 604.484V610.722L635.905 616.069L643.032 624.981V628.545H648.377V636.566L650.159 642.804L654.613 649.042L660.85 653.498H664.413V662.41L657.286 664.192L654.613 665.975L650.159 668.648V678.96M623.433 600.919L625.215 594.681L627.887 590.225L625.215 585.769V583.096H629.669L631.451 575.966L627.887 571.511L622.542 567.946L620.76 560.817V556.361L625.215 550.123L629.669 546.558L635.905 543.884L644.814 538.537L649.268 534.973L653.723 530.517H658.177L663.522 532.299L672.431 530.517L676.885 526.952L670.649 520.714L664.413 519.823L658.177 515.367L653.723 510.911L652.832 507.346L651.05 503.782H656.395V499.326L652.832 494.87L647.486 492.197L653.723 485.958H663.522V477.047L656.395 471.7L651.05 467.244L647.486 461.006L643.032 453.876L642.587 450.312M406.952 473.482L398.043 470.808H393.589L385.571 476.155L377.553 480.611L373.099 477.938L377.553 470.808L383.789 465.461L380.226 460.114V453.876L373.099 446.747V438.726L367.754 432.488M763.299 688.254L758.845 684.689L752.609 682.016L746.373 680.233L742.809 676.669L735.683 673.995L733.901 678.451V692.71L730.337 698.057L720.538 695.383L716.974 692.71H705.393C703.968 692.71 703.017 694.492 702.72 695.383H697.375L692.03 690.927L697.375 686.471V678.451H690.248L676.885 680.233L667.976 684.689L659.959 682.016L651.941 678.451L650.159 678.96M763.299 688.254L770.426 692.71L775.772 695.383L780.226 698.057L782.899 702.512L785.571 706.077H790.916L792.698 707.859L794.48 711.424L796.262 713.206V713.97M763.299 688.254L766.863 684.689V678.451L761.518 671.322L758.845 668.648L754.391 665.975L752.609 663.301L750.827 661.519V658.845L752.609 656.172V653.498H742.809L737.464 650.825L735.683 649.042L730.337 646.369V632.11L733.901 627.654H735.683L739.246 630.328H746.373L748.155 627.654L752.609 623.198H761.518L763.299 618.743L766.863 614.287L773.99 609.831L777.553 614.287L782.899 616.96L786.462 616.069V605.375H794.48L796.262 600.919H798.934L802.498 596.463V592.899L805.17 591.116V585.769L807.843 581.314H811.406V567.946L806.952 559.925V549.231M1052.83 1320.98L1052.69 1321.22M1052.69 1321.22L1049.27 1327.22L1047.49 1332.57L1049.27 1340.59V1346.83L1055.5 1349.5V1353.07H1059.07L1060.85 1349.5H1063.52V1340.59L1059.07 1336.13V1330.79L1057.29 1329L1055.5 1325.44L1052.69 1321.22ZM249.268 330.004L254.613 337.133L257.286 346.936V354.065L260.849 358.521H267.086V354.065L272.431 358.521L282.23 362.977H293.812V368.324L296.484 376.344L300.048 380.8V388.821L305.393 395.95L309.847 403.08L314.302 409.318L317.865 413.774V427.141L324.101 432.488L326.774 422.685L333.901 420.012V413.774L342.809 422.685L346.373 420.012L349.045 413.774L350.827 412.882L354.391 420.012V432.488L359.736 438.726L367.754 432.488M249.268 330.004L257.286 331.786L260.849 330.004H270.649L275.994 332.677L281.339 333.568L284.012 341.589L286.685 346.045L289.357 341.589L295.593 338.915H317.865L322.319 337.133L325.883 332.677V326.439L330.337 321.983H335.682L342.809 319.31L348.155 310.398L353.5 309.507L354.391 305.051L349.936 296.139L349.045 289.01L352.609 285.445M367.754 432.488L372.208 429.815H375.772L379.335 426.25L381.117 419.121V412.882L377.553 403.08L373.099 398.624V388.821C373.099 387.395 372.505 386.444 372.208 386.147L368.645 381.692L364.19 378.127C364.903 376.701 365.675 373.374 365.972 371.889V356.739L362.409 354.065M362.134 354.065V350.501L362.409 346.045L363.299 341.589L367.754 336.242L369.535 330.004L372.208 326.439L377.553 321.983C377.85 321.092 378.8 318.953 380.226 317.527L384.68 313.071V308.616L377.553 306.833H372.208L368.645 303.269L365.972 299.704L364.19 292.575L359.736 289.01L352.609 285.445M352.609 285.445L346.373 280.989V272.969L340.137 264.057H324.101V251.581L317.865 242.669V238.213L309.847 230.193H305.393V218.608H309.847L314.302 210.587L311.629 204.349H305.393L300.048 210.587H293.812L289.357 215.043M239.469 700.73H247.486L251.941 697.166V704.295L258.177 711.424L267.086 713.206L277.776 716.326L282.23 722.118H287.576L298.266 726.574H315.192L319.647 724.792L322.319 733.703L327.665 738.159L331.228 735.486H333.901L345.482 733.703L348.155 724.792L352.609 718.554L354.391 713.206L365.081 711.424H381.117L382.008 716.326L375.772 722.118L390.025 726.574H397.152L406.061 724.792L410.515 718.554L414.97 716.326H422.097L424.769 718.554H429.224L439.023 716.326L449.714 713.206L454.168 711.424H460.404L462.186 710.533L466.64 715.88H471.094L475.549 714.098L477.331 716.326L486.239 718.554V714.098H496.039L501.384 721.227L506.729 724.792L508.136 727.607M312.52 204.349V186.525C313.708 187.12 316.44 187.951 317.865 186.525C319.29 185.1 326.774 178.505 321.429 182.961C323.21 181.178 327.13 177.435 328.555 176.723L333.901 174.049L334.792 170.484H339.246C340.137 170.484 345.482 168.702 346.373 170.484C347.086 171.91 350.233 175.237 351.718 176.723C354.391 177.614 357.954 179.396 359.736 180.287M359.736 180.287C361.518 181.178 365.972 185.634 367.754 186.525C372.208 187.417 375.772 187.417 377.553 187.417C379.335 187.417 380.226 186.525 382.008 186.525C383.789 186.525 386.462 182.961 387.353 182.961C388.066 182.961 390.619 183.555 391.807 183.852L392.698 184.743C395.371 187.417 396.262 190.09 397.152 190.981C398.043 191.872 398.934 195.437 398.043 196.328C399.825 199.002 402.498 199.893 403.388 199.893C404.101 199.893 406.655 199.299 407.843 199.002L412.297 197.219L413.683 199.299M359.736 180.287V176.723L349.045 164.246L342.809 160.577H335.682L340.137 150.879L335.682 147.912L330.337 144.989L325.883 137.511H321.429V131.273L314.302 126.817H309.847L308.49 120.633V109.916H328.964L340.663 104.07L345.537 101.147H359.186V95.3019L362.111 87.5078H367.961L369.91 82.6365V80.688L367.961 82.6365L362.111 70.9455L363.086 68.997H367.961L375.76 70.9455L382.584 74.8425H384.534M414.079 199.893L413.683 199.299M630.56 583.096H646.596L650.159 579.531L654.613 583.096L659.959 586.66L667.086 589.334L669.758 595.572H675.994L681.339 586.66L684.903 583.096L688.466 591.116H692.921L695.593 589.334L700.939 586.66H713.411L719.647 583.096V572.402H730.337L737.464 577.749L740.137 583.096L744.591 586.66L749.045 592.899H751.718L755.282 589.334V586.66L757.954 579.531L765.081 581.314H770.426C773.99 581.314 775.475 578.937 775.772 577.749V564.381L782.008 559.925L790.916 552.796L793.589 549.231H806.952M806.952 549.231V541.211L814.97 538.537L819.424 534.973L817.642 530.517L811.406 526.061L809.625 524.279L806.952 520.714V517.149L811.406 514.476L814.97 511.802L821.206 507.346L824.769 498.435M845.259 500.217L850.605 501.999H854.168V496.652H858.622L861.295 500.217V507.346M386.021 309.507L387.353 304.16L390.025 303.269L391.807 300.595L390.025 293.466V288.119L392.698 280.098L397.152 273.86L403.388 269.404L410.515 267.622L414.97 265.839L420.315 267.622L426.551 270.295L432.787 269.404M432.787 269.404L437.241 273.86H441.696V270.295L438.132 266.731M432.787 269.404L434.569 265.839L438.132 266.731M884.458 509.129L887.13 505.564H890.694V495.761L894.257 492.197V486.849L890.694 482.394V480.611M896.93 532.299V531.943M996.014 561.51L990.471 559.925L986.017 553.687H976.217C976.217 553.39 975.861 552.974 974.435 553.687C973.01 554.4 967.902 555.767 965.527 556.361H956.618L952.164 551.905H943.255L937.91 553.687H932.564L925.437 555.47H911.184L905.838 551.905H902.275L895.148 550.123L891.584 548.34L889.803 542.993L894.257 538.537V534.973L897.821 532.299L896.93 531.943M996.014 561.51L997.598 559.925C999.38 558.737 1004.55 555.648 1010.96 552.796C1017.38 549.944 1015.42 549.825 1013.63 550.123V544.775H1010.96L1008.29 540.32L1005.62 534.081L997.598 528.734C996.113 527.843 992.431 526.061 989.58 526.061V518.932C990.768 517.743 993.678 515.01 995.816 513.585C997.954 512.159 994.925 512.99 993.144 513.585H972.654L967.308 517.149L964.636 522.496H959.291L956.618 526.061H951.273L946.818 522.496L939.691 518.932H933.455L926.328 517.149H909.402C907.264 517.149 904.354 518.338 903.166 518.932L899.602 522.496L896.93 526.061V531.943M987.798 584.878L993.144 590.225L997.598 600.919M997.598 600.919L995.816 607.157V613.396L993.144 617.851L989.58 623.198M997.598 600.919L1001.16 597.354L1010.96 594.681L1013.63 590.225L1019.87 588.443L1024.32 590.225M1024.32 590.225V583.987L1029.67 577.749V567.946L1033.23 563.49L1037.69 554.578L1039.47 552.796M1039.47 552.796L1043.03 545.667V541.211L1037.69 538.537L1039.47 531.408L1045.7 526.952L1049.27 522.496L1051.05 519.823L1056.4 522.496C1060.67 520.357 1065.9 512.099 1067.98 508.238L1072.43 501.108L1075.99 494.87L1083.12 490.414H1084.9L1088.47 486.849L1096.48 479.72L1103.61 475.264L1111.63 470.808H1116.08M1039.47 552.796H1049.27L1054.61 545.667V538.537L1058.18 535.864H1064.41L1072.43 538.537H1075.99L1080.45 535.864L1084.9 534.081H1088.47L1091.14 535.864V542.325M1091.14 542.993V542.325M1116.08 470.808V485.067M1011.85 1096.41L1016.31 1083.04V1072.35L1023.43 1062.54L1027 1067V1088.39L1023.43 1096.41V1139.19L1011.85 1130.27V1157.9L999.38 1148.99L1003.83 1139.19V1130.27L1008.29 1122.25V1105.32L1011.85 1096.41ZM999.38 1179.29H1003.83L1006.51 1187.31L1008.29 1195.33H999.38V1179.29ZM990.471 1148.99V1154.34L993.144 1155.23L994.925 1154.34V1150.77L994.034 1148.99H990.471ZM1056.4 1123.14L1058.18 1125.82L1062.63 1123.14L1061.74 1119.58L1059.07 1117.8H1056.4V1123.14ZM1075.1 1068.78V1073.24L1076.89 1075.91H1079.56V1069.67L1076.89 1068.78H1075.1ZM1011.85 1247.02V1255.93L1014.52 1257.71H1019.87L1021.65 1254.15V1247.02H1011.85ZM1021.65 1285.34V1291.58L1029.67 1294.25L1033.23 1291.58L1029.67 1285.34H1021.65ZM1047.49 1276.43L1052.83 1274.64V1285.34H1047.49V1276.43ZM1042.14 1291.58H1049.27V1306.73H1045.7V1308.51L1043.92 1310.29H1036.8L1035.01 1306.73V1298.7H1042.14V1291.58ZM191.362 1286.23V1294.25H196.707L200.27 1291.58V1288.9L196.707 1286.23H191.362ZM217.197 1213.15L218.979 1211.37V1209.59H224.324V1214.93L221.651 1216.72H217.197V1213.15ZM218.979 1180.18V1184.64L221.651 1186.42L223.433 1185.53V1180.18H218.979ZM178.89 1142.75V1148.99L180.671 1149.88L185.126 1148.99L184.235 1143.64L180.671 1141.86L178.89 1142.75ZM191.362 1151.66V1157.01L194.034 1158.79L195.816 1157.01V1152.55L191.362 1151.66ZM183.344 1159.68L182.453 1163.25L178.89 1168.59V1174.83L184.235 1175.72L186.907 1174.83V1161.46L184.235 1159.68H183.344ZM172.653 1182.85V1186.42L177.999 1187.31L176.686 1182.85H172.653ZM175.326 1191.76L176.686 1195.33H180.671L178.89 1191.76H175.326ZM156.618 1178.4L157.509 1187.31L161.963 1186.42L160.181 1178.4H156.618Z" stroke="white" stroke-width="4"/>
<path d="M464.344 1057.25C464.344 1051.64 468.891 1047.09 474.5 1047.09C480.109 1047.09 484.656 1051.64 484.656 1057.25C484.656 1062.86 480.109 1067.41 474.5 1067.41C468.891 1067.41 464.344 1062.86 464.344 1057.25Z" fill="white"/>
<path fill-rule="evenodd" clip-rule="evenodd" d="M448.792 1053.74C449.866 1040.71 460.753 1030.69 473.825 1030.69H475.175C488.247 1030.69 499.134 1040.71 500.208 1053.74C500.786 1060.76 498.619 1067.72 494.164 1073.17L479.186 1091.49C476.764 1094.45 472.236 1094.45 469.814 1091.49L454.836 1073.17C450.381 1067.72 448.214 1060.76 448.792 1053.74ZM474.5 1042.41C466.302 1042.41 459.656 1049.05 459.656 1057.25C459.656 1065.45 466.302 1072.09 474.5 1072.09C482.698 1072.09 489.344 1065.45 489.344 1057.25C489.344 1049.05 482.698 1042.41 474.5 1042.41Z" fill="white"/>
<path fill-rule="evenodd" clip-rule="evenodd" d="M351.289 1166.8C351.862 1159.85 357.668 1154.5 364.64 1154.5H365.36C372.332 1154.5 378.138 1159.85 378.711 1166.8C379.019 1170.54 377.864 1174.25 375.488 1177.16L367.499 1186.93C366.207 1188.51 363.793 1188.51 362.501 1186.93L354.513 1177.16C352.136 1174.25 350.981 1170.54 351.289 1166.8ZM370.884 1166.22C371.372 1165.73 371.372 1164.94 370.884 1164.45C370.396 1163.96 369.604 1163.96 369.116 1164.45L364.167 1169.4L361.717 1166.95C361.229 1166.46 360.438 1166.46 359.949 1166.95C359.461 1167.44 359.461 1168.23 359.949 1168.72L363.283 1172.05C363.771 1172.54 364.562 1172.54 365.051 1172.05L370.884 1166.22Z" fill="white"/>
<path fill-rule="evenodd" clip-rule="evenodd" d="M412.289 1146.8C412.862 1139.85 418.668 1134.5 425.64 1134.5H426.36C433.332 1134.5 439.138 1139.85 439.711 1146.8C440.019 1150.54 438.864 1154.25 436.488 1157.16L428.499 1166.93C427.207 1168.51 424.793 1168.51 423.501 1166.93L415.513 1157.16C413.136 1154.25 411.981 1150.54 412.289 1146.8ZM431.884 1146.22C432.372 1145.73 432.372 1144.94 431.884 1144.45C431.396 1143.96 430.604 1143.96 430.116 1144.45L425.167 1149.4L422.717 1146.95C422.229 1146.46 421.438 1146.46 420.949 1146.95C420.461 1147.44 420.461 1148.23 420.949 1148.72L424.283 1152.05C424.771 1152.54 425.562 1152.54 426.051 1152.05L431.884 1146.22Z" fill="white"/>
<path fill-rule="evenodd" clip-rule="evenodd" d="M284.289 987.796C284.862 980.847 290.668 975.5 297.64 975.5H298.36C305.332 975.5 311.138 980.847 311.711 987.796C312.019 991.537 310.864 995.251 308.488 998.157L300.499 1007.93C299.207 1009.51 296.793 1009.51 295.501 1007.93L287.513 998.157C285.136 995.251 283.981 991.537 284.289 987.796ZM303.884 987.217C304.372 986.729 304.372 985.938 303.884 985.449C303.396 984.961 302.604 984.961 302.116 985.449L297.167 990.399L294.717 987.949C294.229 987.461 293.438 987.461 292.949 987.949C292.461 988.438 292.461 989.229 292.949 989.717L296.283 993.051C296.771 993.539 297.562 993.539 298.051 993.051L303.884 987.217Z" fill="white"/>
<path fill-rule="evenodd" clip-rule="evenodd" d="M304.289 781.796C304.862 774.847 310.668 769.5 317.64 769.5H318.36C325.332 769.5 331.138 774.847 331.711 781.796C332.019 785.537 330.864 789.251 328.488 792.157L320.499 801.927C319.207 803.506 316.793 803.506 315.501 801.927L307.513 792.157C305.136 789.251 303.981 785.537 304.289 781.796ZM323.884 781.217C324.372 780.729 324.372 779.938 323.884 779.449C323.396 778.961 322.604 778.961 322.116 779.449L317.167 784.399L314.717 781.949C314.229 781.461 313.438 781.461 312.949 781.949C312.461 782.438 312.461 783.229 312.949 783.717L316.283 787.051C316.771 787.539 317.562 787.539 318.051 787.051L323.884 781.217Z" fill="white"/>
<path fill-rule="evenodd" clip-rule="evenodd" d="M344.289 643.796C344.862 636.847 350.668 631.5 357.64 631.5H358.36C365.332 631.5 371.138 636.847 371.711 643.796C372.019 647.537 370.864 651.251 368.488 654.157L360.499 663.927C359.207 665.506 356.793 665.506 355.501 663.927L347.513 654.157C345.136 651.251 343.981 647.537 344.289 643.796ZM363.884 643.217C364.372 642.729 364.372 641.938 363.884 641.449C363.396 640.961 362.604 640.961 362.116 641.449L357.167 646.399L354.717 643.949C354.229 643.461 353.438 643.461 352.949 643.949C352.461 644.438 352.461 645.229 352.949 645.717L356.283 649.051C356.771 649.539 357.562 649.539 358.051 649.051L363.884 643.217Z" fill="white"/>
<path fill-rule="evenodd" clip-rule="evenodd" d="M411.289 429.796C411.862 422.847 417.668 417.5 424.64 417.5H425.36C432.332 417.5 438.138 422.847 438.711 429.796C439.019 433.537 437.864 437.251 435.488 440.157L427.499 449.927C426.207 451.506 423.793 451.506 422.501 449.927L414.513 440.157C412.136 437.251 410.981 433.537 411.289 429.796ZM430.884 429.217C431.372 428.729 431.372 427.938 430.884 427.449C430.396 426.961 429.604 426.961 429.116 427.449L424.167 432.399L421.717 429.949C421.229 429.461 420.438 429.461 419.949 429.949C419.461 430.438 419.461 431.229 419.949 431.717L423.283 435.051C423.771 435.539 424.562 435.539 425.051 435.051L430.884 429.217Z" fill="white"/>
</svg>
