<svg width="931" height="931" viewBox="0 0 931 931" fill="none" xmlns="http://www.w3.org/2000/svg">
<rect x="2.82843" y="881.055" width="65" height="66" transform="rotate(-45 2.82843 881.055)" stroke="white" stroke-width="4"/>
<rect x="84.1457" y="833.679" width="36" height="17.3043" transform="rotate(-45 84.1457 833.679)" stroke="white" stroke-width="4"/>
<rect x="70.7107" y="858.428" width="38" height="2" transform="rotate(-45 70.7107 858.428)" stroke="white" stroke-width="2"/>
<rect x="107.48" y="821.658" width="38" height="2" transform="rotate(-45 107.48 821.658)" stroke="white" stroke-width="2"/>
<rect x="120.915" y="796.909" width="36" height="17.3043" transform="rotate(-45 120.915 796.909)" stroke="white" stroke-width="4"/>
<rect x="107.48" y="821.658" width="38" height="2" transform="rotate(-45 107.48 821.658)" stroke="white" stroke-width="2"/>
<rect x="144.25" y="784.889" width="38" height="2" transform="rotate(-45 144.25 784.889)" stroke="white" stroke-width="2"/>
<rect x="157.685" y="760.14" width="36" height="17.3043" transform="rotate(-45 157.685 760.14)" stroke="white" stroke-width="4"/>
<rect x="144.25" y="784.889" width="38" height="2" transform="rotate(-45 144.25 784.889)" stroke="white" stroke-width="2"/>
<rect x="181.019" y="748.119" width="38" height="2" transform="rotate(-45 181.019 748.119)" stroke="white" stroke-width="2"/>
<rect x="194.454" y="723.37" width="36" height="17.3043" transform="rotate(-45 194.454 723.37)" stroke="white" stroke-width="4"/>
<rect x="181.019" y="748.119" width="38" height="2" transform="rotate(-45 181.019 748.119)" stroke="white" stroke-width="2"/>
<rect x="217.789" y="711.349" width="38" height="2" transform="rotate(-45 217.789 711.349)" stroke="white" stroke-width="2"/>
<rect x="224.153" y="659.731" width="64.3387" height="66" transform="rotate(-45 224.153 659.731)" stroke="white" stroke-width="4"/>
<rect x="304.853" y="612.971" width="35.6166" height="17.3043" transform="rotate(-45 304.853 612.971)" stroke="white" stroke-width="4"/>
<rect x="291.595" y="637.544" width="37.6166" height="2" transform="rotate(-45 291.595 637.544)" stroke="white" stroke-width="2"/>
<rect x="328.012" y="601.127" width="37.6166" height="2" transform="rotate(-45 328.012 601.127)" stroke="white" stroke-width="2"/>
<rect x="341.27" y="576.554" width="35.6166" height="17.3043" transform="rotate(-45 341.27 576.554)" stroke="white" stroke-width="4"/>
<rect x="328.012" y="601.127" width="37.6166" height="2" transform="rotate(-45 328.012 601.127)" stroke="white" stroke-width="2"/>
<rect x="364.429" y="564.71" width="37.6166" height="2" transform="rotate(-45 364.429 564.71)" stroke="white" stroke-width="2"/>
<rect x="377.688" y="540.137" width="35.6166" height="17.3043" transform="rotate(-45 377.688 540.137)" stroke="white" stroke-width="4"/>
<rect x="364.429" y="564.71" width="37.6166" height="2" transform="rotate(-45 364.429 564.71)" stroke="white" stroke-width="2"/>
<rect x="400.846" y="528.292" width="37.6166" height="2" transform="rotate(-45 400.846 528.292)" stroke="white" stroke-width="2"/>
<rect x="414.105" y="503.72" width="35.6166" height="17.3043" transform="rotate(-45 414.105 503.72)" stroke="white" stroke-width="4"/>
<rect x="400.846" y="528.292" width="37.6166" height="2" transform="rotate(-45 400.846 528.292)" stroke="white" stroke-width="2"/>
<rect x="437.263" y="491.875" width="37.6166" height="2" transform="rotate(-45 437.263 491.875)" stroke="white" stroke-width="2"/>
<rect x="443.356" y="440.528" width="65" height="66" transform="rotate(-45 443.356 440.528)" stroke="white" stroke-width="4"/>
<rect x="524.673" y="393.151" width="36" height="17.3043" transform="rotate(-45 524.673 393.151)" stroke="white" stroke-width="4"/>
<rect x="511.238" y="417.9" width="38" height="2" transform="rotate(-45 511.238 417.9)" stroke="white" stroke-width="2"/>
<rect x="548.008" y="381.131" width="38" height="2" transform="rotate(-45 548.008 381.131)" stroke="white" stroke-width="2"/>
<rect x="561.443" y="356.382" width="36" height="17.3043" transform="rotate(-45 561.443 356.382)" stroke="white" stroke-width="4"/>
<rect x="548.008" y="381.131" width="38" height="2" transform="rotate(-45 548.008 381.131)" stroke="white" stroke-width="2"/>
<rect x="584.777" y="344.361" width="38" height="2" transform="rotate(-45 584.777 344.361)" stroke="white" stroke-width="2"/>
<rect x="598.212" y="319.612" width="36" height="17.3043" transform="rotate(-45 598.212 319.612)" stroke="white" stroke-width="4"/>
<rect x="584.777" y="344.361" width="38" height="2" transform="rotate(-45 584.777 344.361)" stroke="white" stroke-width="2"/>
<rect x="621.547" y="307.591" width="38" height="2" transform="rotate(-45 621.547 307.591)" stroke="white" stroke-width="2"/>
<rect x="634.982" y="282.843" width="36" height="17.3043" transform="rotate(-45 634.982 282.843)" stroke="white" stroke-width="4"/>
<rect x="621.547" y="307.591" width="38" height="2" transform="rotate(-45 621.547 307.591)" stroke="white" stroke-width="2"/>
<rect x="658.316" y="270.822" width="38" height="2" transform="rotate(-45 658.316 270.822)" stroke="white" stroke-width="2"/>
<rect x="664.68" y="219.203" width="64.3387" height="66" transform="rotate(-45 664.68 219.203)" stroke="white" stroke-width="4"/>
<rect x="745.381" y="172.444" width="35.6166" height="17.3043" transform="rotate(-45 745.381 172.444)" stroke="white" stroke-width="4"/>
<rect x="732.122" y="197.016" width="37.6166" height="2" transform="rotate(-45 732.122 197.016)" stroke="white" stroke-width="2"/>
<rect x="768.539" y="160.599" width="37.6166" height="2" transform="rotate(-45 768.539 160.599)" stroke="white" stroke-width="2"/>
<rect x="781.798" y="136.027" width="35.6166" height="17.3043" transform="rotate(-45 781.798 136.027)" stroke="white" stroke-width="4"/>
<rect x="768.539" y="160.599" width="37.6166" height="2" transform="rotate(-45 768.539 160.599)" stroke="white" stroke-width="2"/>
<rect x="804.956" y="124.182" width="37.6166" height="2" transform="rotate(-45 804.956 124.182)" stroke="white" stroke-width="2"/>
<rect x="818.215" y="99.6094" width="35.6166" height="17.3043" transform="rotate(-45 818.215 99.6094)" stroke="white" stroke-width="4"/>
<rect x="804.956" y="124.182" width="37.6166" height="2" transform="rotate(-45 804.956 124.182)" stroke="white" stroke-width="2"/>
<rect x="841.373" y="87.7648" width="37.6166" height="2" transform="rotate(-45 841.373 87.7648)" stroke="white" stroke-width="2"/>
<rect x="854.632" y="63.1923" width="35.6166" height="17.3043" transform="rotate(-45 854.632 63.1923)" stroke="white" stroke-width="4"/>
<rect x="841.373" y="87.7648" width="37.6166" height="2" transform="rotate(-45 841.373 87.7648)" stroke="white" stroke-width="2"/>
<rect x="877.791" y="51.3477" width="37.6166" height="2" transform="rotate(-45 877.791 51.3477)" stroke="white" stroke-width="2"/>
</svg>
