<svg width="1026" height="70" viewBox="0 0 1026 70" fill="none" xmlns="http://www.w3.org/2000/svg">
<rect x="29.1079" y="26.5" width="37.5726" height="16.3043" stroke="white" stroke-width="5"/>
<rect x="82.3237" y="26.5" width="37.5726" height="16.3043" stroke="white" stroke-width="5"/>
<rect x="54.4839" y="33.3841" width="40.0364" height="2.53623" stroke="white" stroke-width="2.53623"/>
<rect x="107.7" y="33.3841" width="40.0364" height="2.53623" stroke="white" stroke-width="2.53623"/>
<path d="M2.5 34.616H40.0726V34.6884H2.5V34.616Z" stroke="white" stroke-width="5"/>
<rect x="906.104" y="26.5" width="37.5726" height="16.3043" stroke="white" stroke-width="5"/>
<rect x="959.32" y="26.5" width="37.5726" height="16.3043" stroke="white" stroke-width="5"/>
<rect x="931.48" y="33.3841" width="40.0364" height="2.53623" stroke="white" stroke-width="2.53623"/>
<rect x="984.695" y="33.3841" width="40.0364" height="2.53623" stroke="white" stroke-width="2.53623"/>
<path d="M879.496 34.616H917.068V34.6884H879.496V34.616Z" stroke="white" stroke-width="5"/>
<rect x="151.004" y="2" width="69.4378" height="66" stroke="white" stroke-width="4"/>
<rect x="247.293" y="26.5" width="37.5726" height="16.3043" stroke="white" stroke-width="5"/>
<rect x="300.508" y="26.5" width="37.5726" height="16.3043" stroke="white" stroke-width="5"/>
<rect x="272.669" y="33.3841" width="40.0364" height="2.53623" stroke="white" stroke-width="2.53623"/>
<rect x="325.884" y="33.3841" width="40.0364" height="2.53623" stroke="white" stroke-width="2.53623"/>
<rect x="219.453" y="33.3841" width="40.0364" height="2.53623" stroke="white" stroke-width="2.53623"/>
<rect x="369.189" y="2" width="69.4378" height="66" stroke="white" stroke-width="4"/>
<rect x="465.477" y="26.5" width="37.5726" height="16.3043" stroke="white" stroke-width="5"/>
<rect x="518.693" y="26.5" width="37.5726" height="16.3043" stroke="white" stroke-width="5"/>
<rect x="490.853" y="33.3841" width="40.0364" height="2.53623" stroke="white" stroke-width="2.53623"/>
<rect x="544.069" y="33.3841" width="40.0364" height="2.53623" stroke="white" stroke-width="2.53623"/>
<rect x="437.637" y="33.3841" width="40.0364" height="2.53623" stroke="white" stroke-width="2.53623"/>
<rect x="587.373" y="2" width="69.4378" height="66" fill="white" stroke="white" stroke-width="4"/>
<path fill-rule="evenodd" clip-rule="evenodd" d="M622.151 9.5779L606.832 33.9579C606.65 34.1071 606.526 34.31 606.472 34.5314L606 35.2817L623.143 45.2024L640.286 35.2817L624.136 9.58029C624.088 9.46399 624.021 9.35788 623.938 9.26617L623.143 8L622.346 9.2681C622.265 9.35874 622.198 9.46335 622.151 9.5779ZM622.072 13.7323L610.474 32.1894L622.072 26.6685V13.7323ZM622.072 29.0418L609.685 34.9383L622.072 42.1067V29.0418ZM624.215 42.1064V29.0667L636.394 35.0579L624.215 42.1064ZM624.215 26.6786V13.7331L635.988 32.4701L624.215 26.6786ZM623.018 48.1065L606 38.2579L623.143 61.5714L640.286 38.2579L623.267 48.1064C623.227 48.1017 623.185 48.0993 623.143 48.0993C623.101 48.0993 623.059 48.1018 623.018 48.1065ZM622.072 50.0345L613.799 45.2471L622.072 56.4974V50.0345ZM624.215 56.4967L632.487 45.2471L624.215 50.0342V56.4967Z" fill="#1D90FF"/>
<rect x="683.662" y="26.5" width="37.5726" height="16.3043" stroke="white" stroke-width="5"/>
<rect x="736.878" y="26.5" width="37.5726" height="16.3043" stroke="white" stroke-width="5"/>
<rect x="709.038" y="33.3841" width="40.0364" height="2.53623" stroke="white" stroke-width="2.53623"/>
<rect x="762.254" y="33.3841" width="40.0364" height="2.53623" stroke="white" stroke-width="2.53623"/>
<rect x="655.822" y="33.3841" width="40.0364" height="2.53623" stroke="white" stroke-width="2.53623"/>
<rect x="805.558" y="2" width="69.4378" height="66" stroke="white" stroke-width="4"/>
</svg>
