<svg width="1026" height="70" viewBox="0 0 1026 70" fill="none" xmlns="http://www.w3.org/2000/svg">
<rect x="29.1079" y="26.5" width="37.5726" height="16.3043" stroke="white" stroke-width="5"/>
<rect x="82.3237" y="26.5" width="37.5726" height="16.3043" stroke="white" stroke-width="5"/>
<rect x="54.4839" y="33.3841" width="40.0364" height="2.53623" stroke="white" stroke-width="2.53623"/>
<rect x="107.7" y="33.3841" width="40.0364" height="2.53623" stroke="white" stroke-width="2.53623"/>
<path d="M2.5 34.616H40.0726V34.6884H2.5V34.616Z" stroke="white" stroke-width="5"/>
<rect x="906.104" y="26.5" width="37.5726" height="16.3043" stroke="white" stroke-width="5"/>
<rect x="959.32" y="26.5" width="37.5726" height="16.3043" stroke="white" stroke-width="5"/>
<rect x="931.48" y="33.3841" width="40.0364" height="2.53623" stroke="white" stroke-width="2.53623"/>
<rect x="984.695" y="33.3841" width="40.0364" height="2.53623" stroke="white" stroke-width="2.53623"/>
<path d="M879.496 34.616H917.068V34.6884H879.496V34.616Z" stroke="white" stroke-width="5"/>
<rect x="151.004" y="2" width="69.4378" height="66" stroke="white" stroke-width="4"/>
<rect x="247.293" y="26.5" width="37.5726" height="16.3043" stroke="white" stroke-width="5"/>
<rect x="300.508" y="26.5" width="37.5726" height="16.3043" stroke="white" stroke-width="5"/>
<rect x="272.669" y="33.3841" width="40.0364" height="2.53623" stroke="white" stroke-width="2.53623"/>
<rect x="325.884" y="33.3841" width="40.0364" height="2.53623" stroke="white" stroke-width="2.53623"/>
<rect x="219.453" y="33.3841" width="40.0364" height="2.53623" stroke="white" stroke-width="2.53623"/>
<rect x="369.189" y="2" width="69.4378" height="66" stroke="white" stroke-width="4"/>
<rect x="465.477" y="26.5" width="37.5726" height="16.3043" stroke="white" stroke-width="5"/>
<rect x="518.693" y="26.5" width="37.5726" height="16.3043" stroke="white" stroke-width="5"/>
<rect x="490.853" y="33.3841" width="40.0364" height="2.53623" stroke="white" stroke-width="2.53623"/>
<rect x="544.069" y="33.3841" width="40.0364" height="2.53623" stroke="white" stroke-width="2.53623"/>
<rect x="437.637" y="33.3841" width="40.0364" height="2.53623" stroke="white" stroke-width="2.53623"/>
<rect x="587.373" y="2" width="69.4378" height="66" stroke="white" stroke-width="4"/>
<rect x="683.662" y="26.5" width="37.5726" height="16.3043" stroke="white" stroke-width="5"/>
<rect x="736.878" y="26.5" width="37.5726" height="16.3043" stroke="white" stroke-width="5"/>
<rect x="709.038" y="33.3841" width="40.0364" height="2.53623" stroke="white" stroke-width="2.53623"/>
<rect x="762.254" y="33.3841" width="40.0364" height="2.53623" stroke="white" stroke-width="2.53623"/>
<rect x="655.822" y="33.3841" width="40.0364" height="2.53623" stroke="white" stroke-width="2.53623"/>
<rect x="805.558" y="2" width="69.4378" height="66" stroke="white" stroke-width="4"/>
</svg>
