<svg width="1128" height="79" viewBox="0 0 1128 79" fill="none" xmlns="http://www.w3.org/2000/svg">
<rect x="2" y="2" width="73.2113" height="74.3304" stroke="white" stroke-width="4"/>
<rect x="103.21" y="29.3562" width="39.7602" height="18.8397" stroke="white" stroke-width="5"/>
<rect x="159.161" y="29.3562" width="39.7602" height="18.8397" stroke="white" stroke-width="5"/>
<rect x="130.105" y="37.3573" width="41.9222" height="2.83806" stroke="white" stroke-width="2.83806"/>
<rect x="186.054" y="37.3573" width="41.9222" height="2.83806" stroke="white" stroke-width="2.83806"/>
<rect x="74.1536" y="37.3573" width="41.9222" height="2.83806" stroke="white" stroke-width="2.83806"/>
<rect x="231.395" y="2" width="73.2113" height="74.3304" stroke="white" stroke-width="4"/>
<rect x="332.607" y="29.3562" width="39.7602" height="18.8397" stroke="white" stroke-width="5"/>
<rect x="388.557" y="29.3562" width="39.7602" height="18.8397" stroke="white" stroke-width="5"/>
<rect x="359.501" y="37.3573" width="41.9222" height="2.83806" stroke="white" stroke-width="2.83806"/>
<rect x="415.45" y="37.3573" width="41.9222" height="2.83806" stroke="white" stroke-width="2.83806"/>
<rect x="303.55" y="37.3573" width="41.9222" height="2.83806" stroke="white" stroke-width="2.83806"/>
<rect x="460.791" y="2" width="73.2113" height="74.3304" stroke="white" stroke-width="4"/>
<rect x="562.003" y="29.3562" width="39.7602" height="18.8397" stroke="white" stroke-width="5"/>
<rect x="617.952" y="29.3562" width="39.7602" height="18.8397" stroke="white" stroke-width="5"/>
<rect x="588.897" y="37.3573" width="41.9222" height="2.83806" stroke="white" stroke-width="2.83806"/>
<rect x="644.846" y="37.3573" width="41.9222" height="2.83806" stroke="white" stroke-width="2.83806"/>
<rect x="532.945" y="37.3573" width="41.9222" height="2.83806" stroke="white" stroke-width="2.83806"/>
<rect x="690.186" y="2" width="73.2113" height="74.3304" stroke="white" stroke-width="4"/>
<rect x="791.395" y="29.3569" width="39.7602" height="18.8397" stroke="white" stroke-width="5"/>
<rect x="847.344" y="29.3569" width="39.7602" height="18.8397" stroke="white" stroke-width="5"/>
<rect x="818.288" y="37.358" width="41.9222" height="2.83806" stroke="white" stroke-width="2.83806"/>
<rect x="874.238" y="37.358" width="41.9222" height="2.83806" stroke="white" stroke-width="2.83806"/>
<rect x="762.339" y="37.358" width="41.9222" height="2.83806" stroke="white" stroke-width="2.83806"/>
<rect x="919.583" y="2" width="73.2113" height="74.3304" stroke="white" stroke-width="4"/>
<rect x="1023.59" y="29.3567" width="42.639" height="18.8397" stroke="white" stroke-width="5"/>
<rect x="1052.02" y="37.2086" width="27.4156" height="2.79751" stroke="white" stroke-width="2.79751"/>
<path d="M993.816 38.4387H1036.46V39.1148H993.816V38.4387Z" stroke="white" stroke-width="5"/>
<rect x="1082.52" y="29.5" width="42.639" height="18.8397" stroke="white" stroke-width="5"/>
<rect x="1110.74" y="37.5" width="15" height="3" stroke="white" stroke-width="3"/>
<path d="M1052.74 38.582H1095.38V39.2581H1052.74V38.582Z" stroke="white" stroke-width="5"/>
</svg>
