<svg width="2257" height="630" viewBox="0 0 2257 630" fill="none" xmlns="http://www.w3.org/2000/svg">
<rect x="1159.28" y="29.3569" width="42.639" height="18.8397" stroke="white" stroke-width="5"/>
<rect x="1218.83" y="29.3569" width="42.639" height="18.8397" stroke="white" stroke-width="5"/>
<rect x="1187.97" y="37.3575" width="44.8009" height="2.83806" stroke="white" stroke-width="2.83806"/>
<rect x="1247.52" y="37.3575" width="44.8009" height="2.83806" stroke="white" stroke-width="2.83806"/>
<path d="M1129.5 38.4385H1172.14V39.1146H1129.5V38.4385Z" stroke="white" stroke-width="5"/>
<rect x="2140.64" y="29.355" width="42.639" height="18.8397" stroke="white" stroke-width="5"/>
<rect x="2200.2" y="29.355" width="42.639" height="18.8397" stroke="white" stroke-width="5"/>
<rect x="2169.33" y="37.3556" width="44.8009" height="2.83806" stroke="white" stroke-width="2.83806"/>
<rect x="2228.5" y="37.5" width="27" height="3" stroke="white" stroke-width="3"/>
<path d="M2110.87 38.4365H2153.51V39.1126H2110.87V38.4365Z" stroke="white" stroke-width="5"/>
<rect x="1295.74" y="2" width="78.177" height="74.3304" stroke="white" stroke-width="4"/>
<rect x="1403.42" y="29.3569" width="42.639" height="18.8397" stroke="white" stroke-width="5"/>
<rect x="1462.97" y="29.3569" width="42.639" height="18.8397" stroke="white" stroke-width="5"/>
<rect x="1432.12" y="37.3575" width="44.8009" height="2.83806" stroke="white" stroke-width="2.83806"/>
<rect x="1491.67" y="37.3575" width="44.8009" height="2.83806" stroke="white" stroke-width="2.83806"/>
<rect x="1372.57" y="37.3575" width="44.8009" height="2.83806" stroke="white" stroke-width="2.83806"/>
<rect x="1539.89" y="2" width="78.177" height="74.3304" stroke="white" stroke-width="4"/>
<rect x="1647.57" y="29.3569" width="42.639" height="18.8397" stroke="white" stroke-width="5"/>
<rect x="1707.12" y="29.3569" width="42.639" height="18.8397" stroke="white" stroke-width="5"/>
<rect x="1676.27" y="37.3575" width="44.8009" height="2.83806" stroke="white" stroke-width="2.83806"/>
<rect x="1735.82" y="37.3575" width="44.8009" height="2.83806" stroke="white" stroke-width="2.83806"/>
<rect x="1616.72" y="37.3575" width="44.8009" height="2.83806" stroke="white" stroke-width="2.83806"/>
<rect x="1784.04" y="2" width="78.177" height="74.3304" fill="white" stroke="white" stroke-width="4"/>
<path fill-rule="evenodd" clip-rule="evenodd" d="M1823.2 10.7145L1806.05 38.0007C1805.85 38.1667 1805.71 38.3915 1805.65 38.6369L1805.12 39.4791L1824.31 50.5804L1843.49 39.4791L1825.42 10.7189C1825.37 10.5893 1825.29 10.471 1825.2 10.3686L1824.31 8.95068L1823.41 10.3722C1823.32 10.4725 1823.25 10.5881 1823.2 10.7145ZM1823.11 15.3648L1810.13 36.0205L1823.11 29.8419V15.3648ZM1823.11 32.4976L1809.25 39.0955L1823.11 47.1164V32.4976ZM1825.51 47.1158V32.525L1839.14 39.2289L1825.51 47.1158ZM1825.51 29.8527V15.3664L1838.68 36.3335L1825.51 29.8527ZM1824.17 53.8307L1805.12 42.81L1824.31 68.8979L1843.49 42.81L1824.45 53.8306C1824.4 53.8254 1824.35 53.8227 1824.31 53.8227C1824.26 53.8227 1824.21 53.8254 1824.17 53.8307ZM1823.11 55.9882L1813.85 50.6309L1823.11 63.2205V55.9882ZM1825.51 63.219L1834.76 50.6309L1825.51 55.9876V63.219Z" fill="#1D90FF"/>
<rect x="1891.73" y="29.356" width="42.639" height="18.8397" stroke="white" stroke-width="5"/>
<rect x="1951.27" y="29.356" width="42.639" height="18.8397" stroke="white" stroke-width="5"/>
<rect x="1920.42" y="37.3575" width="44.8009" height="2.83806" stroke="white" stroke-width="2.83806"/>
<rect x="1979.97" y="37.3575" width="44.8009" height="2.83806" stroke="white" stroke-width="2.83806"/>
<rect x="1860.87" y="37.3575" width="44.8009" height="2.83806" stroke="white" stroke-width="2.83806"/>
<rect x="2028.19" y="2" width="78.177" height="74.3304" stroke="white" stroke-width="4"/>
<rect x="1814.33" y="212.793" width="42.639" height="18.8397" transform="rotate(-90 1814.33 212.793)" stroke="white" stroke-width="5"/>
<rect x="1814.33" y="153.246" width="42.639" height="18.8397" transform="rotate(-90 1814.33 153.246)" stroke="white" stroke-width="5"/>
<rect x="1822.33" y="184.101" width="44.8009" height="2.83806" transform="rotate(-90 1822.33 184.101)" stroke="white" stroke-width="2.83806"/>
<rect x="1822.33" y="124.552" width="44.8009" height="2.83806" transform="rotate(-90 1822.33 124.552)" stroke="white" stroke-width="2.83806"/>
<path d="M1823.41 242.568V199.929H1824.09V242.568H1823.41Z" stroke="white" stroke-width="5"/>
<rect x="1814.33" y="331.407" width="42.639" height="18.8397" transform="rotate(-90 1814.33 331.407)" stroke="white" stroke-width="5"/>
<rect x="1814.33" y="271.859" width="42.639" height="18.8397" transform="rotate(-90 1814.33 271.859)" stroke="white" stroke-width="5"/>
<rect x="1822.33" y="302.714" width="44.8009" height="2.83806" transform="rotate(-90 1822.33 302.714)" stroke="white" stroke-width="2.83806"/>
<rect x="1822.33" y="243.166" width="44.8009" height="2.83806" transform="rotate(-90 1822.33 243.166)" stroke="white" stroke-width="2.83806"/>
<path d="M1823.41 361.182V318.543H1824.09V361.182H1823.41Z" stroke="white" stroke-width="5"/>
<rect x="1635.91" y="365.677" width="374.771" height="262.323" stroke="white" stroke-width="4"/>
<rect x="1635.91" y="365.677" width="374.771" height="25.5915" stroke="white" stroke-width="4"/>
<circle cx="1646.63" cy="378.176" r="4.43872" fill="white"/>
<circle cx="1659.06" cy="378.176" r="4.43872" fill="white"/>
<circle cx="1671.49" cy="378.176" r="4.43872" fill="white"/>
<g clip-path="url(#clip0_105_242)">
<path d="M1677.13 496.838H1685.75L1681.17 487.266L1677.13 496.838ZM1681.18 473.544L1659.26 481.258L1662.73 509.975L1681.21 520.132L1699.78 509.838L1703.24 481.121L1681.18 473.544ZM1675.35 500.907L1672.66 507.63L1667.64 507.651L1681.18 477.66L1681.16 477.603H1681.13L1681.13 477.554L1681.16 477.603H1681.21L1681.25 477.502V477.603H1681.21L1681.18 477.66L1695.31 507.776L1690.47 507.669L1687.5 500.797L1681.15 500.827" fill="white"/>
</g>
<g clip-path="url(#clip1_105_242)">
<path d="M1729.34 496.805V519.923H1775.58V473.686H1729.34V496.805ZM1766.6 494.955C1767.71 495.212 1768.71 495.791 1769.49 496.62C1769.92 497.066 1770.29 497.563 1770.6 498.099C1770.6 498.158 1768.6 499.509 1767.39 500.263C1767.34 500.293 1767.16 500.1 1766.97 499.808C1766.75 499.425 1766.43 499.104 1766.05 498.876C1765.67 498.647 1765.24 498.519 1764.8 498.502C1763.4 498.406 1762.49 499.142 1762.5 500.352C1762.49 500.653 1762.56 500.952 1762.7 501.217C1763.01 501.857 1763.58 502.238 1765.38 503.015C1768.69 504.439 1770.11 505.379 1770.99 506.714C1771.97 508.194 1772.19 510.583 1771.52 512.351C1770.78 514.275 1768.97 515.58 1766.41 516.013C1765.24 516.147 1764.05 516.135 1762.89 515.976C1761.1 515.687 1759.46 514.839 1758.19 513.553C1757.77 513.084 1756.94 511.859 1756.99 511.771C1757.12 511.67 1757.27 511.58 1757.41 511.5L1759.12 510.524L1760.44 509.755L1760.72 510.165C1761.19 510.835 1761.79 511.406 1762.47 511.844C1763.95 512.621 1765.97 512.514 1766.97 511.615C1767.31 511.286 1767.52 510.849 1767.56 510.382C1767.61 509.914 1767.49 509.445 1767.23 509.055C1766.86 508.541 1766.12 508.109 1764.05 507.206C1761.66 506.178 1760.64 505.542 1759.7 504.528C1759.11 503.859 1758.68 503.07 1758.43 502.216C1758.24 501.241 1758.21 500.241 1758.35 499.257C1758.84 496.953 1760.57 495.344 1763.09 494.866C1764.26 494.722 1765.44 494.754 1766.6 494.963V494.955ZM1755.75 496.893V498.787H1749.74V515.887H1745.49V498.784H1739.47V496.934C1739.45 496.297 1739.47 495.66 1739.52 495.025C1739.54 494.996 1743.22 494.981 1747.66 494.988H1755.72L1755.75 496.893Z" fill="white"/>
</g>
<g clip-path="url(#clip2_105_242)">
<path d="M1806.86 482.56L1809.85 515.821L1823.27 519.402L1836.73 515.889L1839.73 482.56H1806.86ZM1833.5 490.132L1833.32 492.29L1833.23 493.287H1817.49L1817.86 497.726H1832.86L1832.76 498.551L1831.79 509.244L1831.72 509.87L1823.29 512.139V512.137L1823.28 512.141L1814.86 509.953L1814.28 503.644H1818.41L1818.71 506.774L1823.29 507.935L1823.29 507.848V507.853L1827.88 506.873L1828.36 501.795H1814.1L1813.09 490.389L1812.99 489.218H1833.6L1833.5 490.132V490.132ZM1809.96 473.175H1812.04V475.23H1813.94V473.175H1816.02V479.397H1813.94V477.314H1812.04V479.397H1809.96V473.175ZM1818.76 475.239H1816.92V473.175H1822.67V475.239H1820.83V479.397H1818.76V475.239V475.239ZM1823.58 473.175H1825.75L1827.08 475.361L1828.41 473.175H1830.58V479.397H1828.51V476.313L1827.08 478.526H1827.04L1825.61 476.313V479.397H1823.58V473.175H1823.58ZM1831.62 473.175H1833.7V477.341H1836.62V479.398H1831.62V473.175V473.175Z" fill="white"/>
</g>
<g clip-path="url(#clip3_105_242)">
<path d="M1894.31 482.635C1888 482.635 1884.05 485.79 1882.47 492.103C1884.84 488.947 1887.6 487.764 1890.76 488.553C1892.56 489.002 1893.85 490.309 1895.27 491.756C1897.59 494.111 1900.28 496.838 1906.15 496.838C1912.46 496.838 1916.4 493.682 1917.98 487.368C1915.62 490.525 1912.85 491.709 1909.7 490.92C1907.9 490.47 1906.61 489.164 1905.18 487.716C1902.86 485.361 1900.18 482.635 1894.31 482.635V482.635ZM1882.47 496.838C1876.16 496.838 1872.22 499.993 1870.64 506.308C1873 503.151 1875.77 501.967 1878.92 502.756C1880.72 503.206 1882.01 504.512 1883.44 505.959C1885.76 508.315 1888.44 511.041 1894.31 511.041C1900.62 511.041 1904.57 507.886 1906.15 501.573C1903.78 504.728 1901.02 505.912 1897.86 505.123C1896.06 504.674 1894.77 503.367 1893.35 501.92C1891.03 499.564 1888.34 496.838 1882.47 496.838Z" fill="white"/>
</g>
<path d="M1948.93 481.599L1951.92 515.072L1965.31 518.79L1978.74 515.067L1981.73 481.599H1948.93ZM1974.53 500.275L1973.67 508.372L1973.67 509.066L1965.33 511.394V511.395L1965.32 511.4L1956.92 509.098L1956.35 502.683H1960.47L1960.77 505.926L1965.33 507.145L1965.33 507.15V507.138L1969.92 505.846L1970.4 500.464H1960.82L1960.73 499.593L1960.55 497.504L1960.45 496.395H1970.76L1971.14 492.326H1955.43L1955.35 491.369L1955.16 489.138L1955.06 487.888H1975.63L1975.53 489.121L1974.53 500.275ZM1974.58 477.299L1971.93 474.202H1974.58V472.352H1968.66V473.966L1971.76 476.791H1968.66V478.64H1974.58V477.299ZM1967.55 477.299L1965.03 474.202H1967.55V472.352H1962V473.966L1964.86 476.791H1962V478.64H1967.55V477.299ZM1960.89 476.791H1957.93V474.202H1960.89V472.352H1955.71V478.64H1960.89V476.791Z" fill="white"/>
<rect x="134.72" y="2" width="73.2113" height="74.3304" stroke="white" stroke-width="4"/>
<rect x="235.932" y="29.3564" width="39.7602" height="18.8397" stroke="white" stroke-width="5"/>
<rect x="291.881" y="29.3564" width="39.7602" height="18.8397" stroke="white" stroke-width="5"/>
<rect x="262.826" y="37.3575" width="41.9222" height="2.83806" stroke="white" stroke-width="2.83806"/>
<rect x="318.775" y="37.3575" width="41.9222" height="2.83806" stroke="white" stroke-width="2.83806"/>
<rect x="206.874" y="37.3575" width="41.9222" height="2.83806" stroke="white" stroke-width="2.83806"/>
<rect x="2.73975" y="29.356" width="42.639" height="18.8397" stroke="white" stroke-width="5"/>
<rect x="62.2876" y="29.356" width="42.639" height="18.8397" stroke="white" stroke-width="5"/>
<rect x="31.4325" y="37.357" width="44.8009" height="2.83806" stroke="white" stroke-width="2.83806"/>
<rect x="90.9808" y="37.357" width="44.8009" height="2.83806" stroke="white" stroke-width="2.83806"/>
<mask id="path-61-inside-1_105_242" fill="white">
<path d="M0.239746 36H18.2397V41H0.239746V36Z"/>
</mask>
<path d="M0.239746 36V31H-4.76025V36H0.239746ZM18.2397 36H23.2397V31H18.2397V36ZM18.2397 41V46H23.2397V41H18.2397ZM0.239746 41H-4.76025V46H0.239746V41ZM0.239746 41H18.2397V31H0.239746V41ZM13.2397 36V41H23.2397V36H13.2397ZM18.2397 36H0.239746V46H18.2397V36ZM5.23975 41V36H-4.76025V41H5.23975Z" fill="white" mask="url(#path-61-inside-1_105_242)"/>
<rect x="364.118" y="2" width="73.2113" height="74.3304" stroke="white" stroke-width="4"/>
<rect x="465.327" y="29.3555" width="39.7602" height="18.8397" stroke="white" stroke-width="5"/>
<rect x="521.277" y="29.3555" width="39.7602" height="18.8397" stroke="white" stroke-width="5"/>
<rect x="492.221" y="37.3565" width="41.9222" height="2.83806" stroke="white" stroke-width="2.83806"/>
<rect x="548.171" y="37.3565" width="41.9222" height="2.83806" stroke="white" stroke-width="2.83806"/>
<rect x="436.271" y="37.3565" width="41.9222" height="2.83806" stroke="white" stroke-width="2.83806"/>
<rect x="593.512" y="2" width="73.2113" height="74.3304" stroke="white" stroke-width="4"/>
<rect x="694.722" y="29.356" width="39.7602" height="18.8397" stroke="white" stroke-width="5"/>
<rect x="750.674" y="29.356" width="39.7602" height="18.8397" stroke="white" stroke-width="5"/>
<rect x="721.619" y="37.357" width="41.9222" height="2.83806" stroke="white" stroke-width="2.83806"/>
<rect x="777.569" y="37.357" width="41.9222" height="2.83806" stroke="white" stroke-width="2.83806"/>
<rect x="665.667" y="37.357" width="41.9222" height="2.83806" stroke="white" stroke-width="2.83806"/>
<rect x="822.91" y="2" width="73.2113" height="74.3304" stroke="white" stroke-width="4"/>
<rect x="924.119" y="29.3569" width="39.7602" height="18.8397" stroke="white" stroke-width="5"/>
<rect x="980.068" y="29.3569" width="39.7602" height="18.8397" stroke="white" stroke-width="5"/>
<rect x="951.013" y="37.3585" width="41.9222" height="2.83806" stroke="white" stroke-width="2.83806"/>
<rect x="1006.96" y="37.3585" width="41.9222" height="2.83806" stroke="white" stroke-width="2.83806"/>
<rect x="895.064" y="37.3585" width="41.9222" height="2.83806" stroke="white" stroke-width="2.83806"/>
<rect x="1052.24" y="2" width="73" height="74" stroke="white" stroke-width="4"/>
<defs>
<clipPath id="clip0_105_242">
<rect width="47.3464" height="47.3464" fill="white" transform="translate(1657.58 473.165)"/>
</clipPath>
<clipPath id="clip1_105_242">
<rect width="47.3464" height="47.3464" fill="white" transform="translate(1728.6 473.165)"/>
</clipPath>
<clipPath id="clip2_105_242">
<rect width="47.3464" height="47.3464" fill="white" transform="translate(1799.62 472.573)"/>
</clipPath>
<clipPath id="clip3_105_242">
<rect width="47.3464" height="47.3464" fill="white" transform="translate(1870.64 473.165)"/>
</clipPath>
</defs>
</svg>
