<svg width="75" height="75" viewBox="0 0 75 75" fill="none" xmlns="http://www.w3.org/2000/svg">
<rect width="75" height="75" fill="white"/>
<path d="M36.0771 50.001H39.9233" stroke="#1D90FF" stroke-width="4" stroke-linecap="round" stroke-linejoin="round"/>
<path d="M13 61.9996L26.4615 54.0005" stroke="#1D90FF" stroke-width="4" stroke-linecap="round" stroke-linejoin="round"/>
<path d="M13 42.002L28.3846 46.0015" stroke="#1D90FF" stroke-width="4" stroke-linecap="round" stroke-linejoin="round"/>
<path d="M39.8458 18.1244L60.5765 12.085C60.8821 11.9849 61.2081 11.973 61.5197 12.0504C61.8313 12.1279 62.1168 12.292 62.3458 12.525C62.5875 12.7455 62.7709 13.0266 62.8786 13.3417C62.9863 13.6567 63.0147 13.9951 62.9612 14.3248L58.7304 36.7624C58.4996 36.1625 58.2688 35.5225 58.0765 34.8826C56.8514 30.2372 54.2545 26.1092 50.6523 23.0808C47.05 20.0525 42.6243 18.2769 37.9996 18.0044C33.3749 18.2769 28.9492 20.0525 25.3469 23.0808C21.7447 26.1092 19.1478 30.2372 17.9227 34.8826C17.7304 35.5625 17.4996 36.1625 17.2688 36.8024L13.0381 14.3248C12.9845 13.9951 13.0129 13.6567 13.1206 13.3417C13.2283 13.0266 13.4118 12.7455 13.6535 12.525C13.8824 12.292 14.1679 12.1279 14.4795 12.0504C14.7911 11.973 15.1171 11.9849 15.4227 12.085L36.1535 18.1244" stroke="#1D90FF" stroke-width="4" stroke-linecap="round" stroke-linejoin="round"/>
<path d="M43.7689 61.3198C39.9722 62.2268 36.0272 62.2268 32.2305 61.3198" stroke="#1D90FF" stroke-width="4" stroke-linecap="round" stroke-linejoin="round"/>
<path d="M63.0006 61.9996L49.5391 54.0005" stroke="#1D90FF" stroke-width="4" stroke-linecap="round" stroke-linejoin="round"/>
<path d="M62.9998 42.002L47.6152 46.0015" stroke="#1D90FF" stroke-width="4" stroke-linecap="round" stroke-linejoin="round"/>
</svg>
