<svg width="75" height="75" viewBox="0 0 75 75" fill="none" xmlns="http://www.w3.org/2000/svg">
<rect width="75" height="75" fill="white"/>
<path d="M54.2306 58H21.748C19.6781 58 18 56.321 18 54.2501V21.7499C18 19.679 19.6781 18 21.748 18H54.2306C56.3005 18 57.9785 19.679 57.9785 21.7499V54.2501C57.9785 56.321 56.3005 58 54.2306 58Z" fill="#1D90FF"/>
<path d="M43.0261 31.7267L39.2781 37.9765L43.0261 44.2266H40.5276L38.0287 40.0601L35.5302 44.2266H33.0316L36.7796 37.9765L33.0316 31.7267H35.5302L38.0287 35.8932L40.5276 31.7267H43.0261ZM45.525 49.2266H30.5328V26.7267H45.525V31.7267H48.0235V25.5157C48.0235 24.8048 47.4456 24.2266 46.7351 24.2266H29.3227C28.6121 24.2266 28.0342 24.8048 28.0342 25.5157V50.4376C28.0342 51.1482 28.6121 51.7267 29.3227 51.7267H46.7351C47.4456 51.7267 48.0235 51.1482 48.0235 50.4376V44.2266H45.525V49.2266ZM45.525 41.7264H51.7715V39.2266H45.525V41.7264ZM45.525 34.2266V36.7264H51.7715V34.2266H45.525Z" fill="white"/>
</svg>
