<svg width="442" height="58" viewBox="0 0 442 58" fill="none" xmlns="http://www.w3.org/2000/svg">
<path d="M200.354 4.35355C200.549 4.15829 200.549 3.84171 200.354 3.64645L197.172 0.464466C196.976 0.269204 196.66 0.269204 196.464 0.464466C196.269 0.659728 196.269 0.976311 196.464 1.17157L199.293 4L196.464 6.82843C196.269 7.02369 196.269 7.34027 196.464 7.53553C196.66 7.7308 196.976 7.7308 197.172 7.53553L200.354 4.35355ZM167 4.5L200 4.5V3.5L167 3.5V4.5Z" fill="white"/>
<path d="M3.72656 9.5L3.52441 10.7832L2.79492 13.833H1.82812L2.31152 10.7744L2.51367 9.5H3.72656ZM6.0293 9.5L5.82715 10.7832L5.09766 13.833H4.13086L4.62305 10.7129L4.81641 9.5H6.0293ZM12.0586 19.2734L13.6055 10.2031H15.249L13.7109 19.2646C13.5996 20.0557 13.3447 20.75 12.9463 21.3477C12.5479 21.9395 12.0322 22.3994 11.3994 22.7275C10.7666 23.0498 10.043 23.2051 9.22852 23.1934C8.47266 23.1758 7.82812 23.0146 7.29492 22.71C6.76758 22.4053 6.37207 21.9775 6.1084 21.4268C5.84473 20.8701 5.73926 20.2139 5.79199 19.458H7.44434C7.40918 19.9033 7.4502 20.2988 7.56738 20.6445C7.68457 20.9902 7.88672 21.2656 8.17383 21.4707C8.46094 21.6758 8.8418 21.7842 9.31641 21.7959C9.82617 21.8135 10.2715 21.7109 10.6523 21.4883C11.0391 21.2598 11.3496 20.9521 11.584 20.5654C11.8242 20.1787 11.9824 19.748 12.0586 19.2734ZM21.6123 20.7148L22.8604 13.4902H24.46L22.8076 23H21.2871L21.6123 20.7148ZM22.21 18.7988L22.8604 18.7725C22.7842 19.3701 22.6494 19.9385 22.4561 20.4775C22.2627 21.0107 21.999 21.4854 21.665 21.9014C21.3369 22.3115 20.9268 22.6338 20.4346 22.8682C19.9482 23.0967 19.3711 23.2021 18.7031 23.1846C18.1816 23.167 17.7451 23.0615 17.3936 22.8682C17.0479 22.6748 16.7754 22.4141 16.5762 22.0859C16.377 21.7578 16.2451 21.3828 16.1807 20.9609C16.1162 20.5391 16.1074 20.0938 16.1543 19.625L17.1826 13.4902H18.7734L17.7451 19.6514C17.7217 19.9092 17.7188 20.1641 17.7363 20.416C17.7539 20.6621 17.8066 20.8877 17.8945 21.0928C17.9824 21.2979 18.1172 21.4648 18.2988 21.5938C18.4863 21.7168 18.7324 21.7842 19.0371 21.7959C19.6699 21.8193 20.2061 21.7021 20.6455 21.4443C21.085 21.1807 21.4336 20.8174 21.6914 20.3545C21.9492 19.8916 22.1221 19.373 22.21 18.7988ZM31.0693 20.4248C31.1221 20.0615 31.0547 19.7773 30.8672 19.5723C30.6855 19.3672 30.4453 19.2119 30.1465 19.1064C29.8535 18.9951 29.5664 18.9043 29.2852 18.834C28.9336 18.7461 28.5791 18.6377 28.2217 18.5088C27.8643 18.3799 27.5361 18.2158 27.2373 18.0166C26.9443 17.8115 26.71 17.5596 26.5342 17.2607C26.3643 16.9561 26.2881 16.5869 26.3057 16.1533C26.3291 15.6846 26.4521 15.2715 26.6748 14.9141C26.9033 14.5566 27.1963 14.2578 27.5537 14.0176C27.917 13.7773 28.3125 13.5986 28.7402 13.4814C29.168 13.3643 29.5928 13.3086 30.0146 13.3145C30.6123 13.3262 31.1543 13.4492 31.6406 13.6836C32.1328 13.918 32.5225 14.2549 32.8096 14.6943C33.0967 15.1338 33.2314 15.667 33.2139 16.2939L31.6406 16.2852C31.6523 15.9512 31.585 15.6641 31.4385 15.4238C31.292 15.1836 31.0898 14.999 30.832 14.8701C30.5742 14.7354 30.2812 14.665 29.9531 14.6592C29.6426 14.6533 29.3379 14.7031 29.0391 14.8086C28.7402 14.9082 28.4854 15.0664 28.2744 15.2832C28.0635 15.4941 27.9346 15.7695 27.8877 16.1094C27.8525 16.3613 27.8906 16.5693 28.002 16.7334C28.1133 16.8916 28.2656 17.0205 28.459 17.1201C28.6582 17.2139 28.8662 17.293 29.083 17.3574C29.3057 17.416 29.5078 17.4688 29.6895 17.5156C30.1699 17.6504 30.6445 17.8203 31.1133 18.0254C31.582 18.2305 31.9629 18.5146 32.2559 18.8779C32.5488 19.2354 32.6807 19.707 32.6514 20.293C32.6279 20.791 32.4961 21.2246 32.2559 21.5938C32.0215 21.957 31.7168 22.2588 31.3418 22.499C30.9727 22.7334 30.5654 22.9062 30.1201 23.0176C29.6748 23.1289 29.2295 23.1816 28.7842 23.1758C28.1689 23.1641 27.5947 23.0381 27.0615 22.7979C26.5342 22.5518 26.1123 22.2002 25.7959 21.7432C25.4795 21.2803 25.3301 20.7178 25.3477 20.0557L26.9385 20.0645C26.9385 20.4453 27.0176 20.7676 27.1758 21.0312C27.3398 21.2891 27.5654 21.4854 27.8525 21.6201C28.1396 21.7549 28.4678 21.8252 28.8369 21.8311C29.1475 21.8369 29.4639 21.7959 29.7861 21.708C30.1143 21.6201 30.3955 21.4736 30.6299 21.2686C30.8701 21.0576 31.0166 20.7764 31.0693 20.4248ZM39.7441 13.4902L39.5244 14.7383H34.5234L34.7432 13.4902H39.7441ZM36.835 11.1787H38.417L36.8086 20.6621C36.791 20.8672 36.7969 21.0518 36.8262 21.2158C36.8555 21.3799 36.9258 21.5117 37.0371 21.6113C37.1484 21.7051 37.3184 21.7549 37.5469 21.7607C37.6758 21.7607 37.8018 21.752 37.9248 21.7344C38.0537 21.7109 38.1826 21.6904 38.3115 21.6729L38.1973 23.0088C38.0098 23.0615 37.8164 23.0996 37.6172 23.123C37.4238 23.1523 37.2305 23.1641 37.0371 23.1582C36.5508 23.1523 36.1699 23.0293 35.8945 22.7891C35.6191 22.5488 35.4316 22.2383 35.332 21.8574C35.2324 21.4766 35.2031 21.0693 35.2441 20.6357L36.835 11.1787ZM49.8867 13.4902L49.667 14.7383H44.666L44.8857 13.4902H49.8867ZM46.9775 11.1787H48.5596L46.9512 20.6621C46.9336 20.8672 46.9395 21.0518 46.9688 21.2158C46.998 21.3799 47.0684 21.5117 47.1797 21.6113C47.291 21.7051 47.4609 21.7549 47.6895 21.7607C47.8184 21.7607 47.9443 21.752 48.0674 21.7344C48.1963 21.7109 48.3252 21.6904 48.4541 21.6729L48.3398 23.0088C48.1523 23.0615 47.959 23.0996 47.7598 23.123C47.5664 23.1523 47.373 23.1641 47.1797 23.1582C46.6934 23.1523 46.3125 23.0293 46.0371 22.7891C45.7617 22.5488 45.5742 22.2383 45.4746 21.8574C45.375 21.4766 45.3457 21.0693 45.3867 20.6357L46.9775 11.1787ZM54.0088 9.5L51.6621 23H50.0713L52.418 9.5H54.0088ZM52.207 17.8848L51.5566 17.8672C51.6387 17.2988 51.7881 16.7422 52.0049 16.1973C52.2275 15.6465 52.5176 15.1514 52.875 14.7119C53.2383 14.2725 53.6689 13.9268 54.167 13.6748C54.6709 13.417 55.2451 13.2969 55.8896 13.3145C56.3994 13.3262 56.8242 13.4258 57.1641 13.6133C57.5098 13.7949 57.7793 14.0439 57.9727 14.3604C58.166 14.6768 58.2949 15.043 58.3594 15.459C58.4238 15.8691 58.4297 16.3057 58.377 16.7686L57.3398 23H55.7402L56.7949 16.7422C56.8359 16.3613 56.8213 16.0186 56.751 15.7139C56.6865 15.4033 56.54 15.1572 56.3115 14.9756C56.0889 14.7881 55.7666 14.6885 55.3447 14.6768C54.8994 14.665 54.498 14.75 54.1406 14.9316C53.7832 15.1133 53.4697 15.3623 53.2002 15.6787C52.9365 15.9893 52.7197 16.3379 52.5498 16.7246C52.3857 17.1055 52.2715 17.4922 52.207 17.8848ZM65.4346 21.374L66.2256 16.4609C66.2666 16.0977 66.2314 15.7783 66.1201 15.5029C66.0146 15.2275 65.8359 15.0137 65.584 14.8613C65.3379 14.709 65.0273 14.627 64.6523 14.6152C64.3242 14.6094 64.002 14.6621 63.6855 14.7734C63.375 14.8848 63.1055 15.0518 62.877 15.2744C62.6484 15.4971 62.499 15.7783 62.4287 16.1182L60.8467 16.127C60.8877 15.6523 61.0371 15.2393 61.2949 14.8877C61.5527 14.5303 61.875 14.2344 62.2617 14C62.6484 13.7598 63.0645 13.584 63.5098 13.4727C63.9551 13.3555 64.3887 13.2998 64.8105 13.3057C65.4492 13.3174 66.0029 13.4551 66.4717 13.7188C66.9463 13.9766 67.3037 14.3398 67.5439 14.8086C67.7842 15.2773 67.8721 15.8398 67.8076 16.4961L67.0781 20.9258C67.0254 21.248 66.9932 21.5732 66.9814 21.9014C66.9756 22.2236 67.0137 22.54 67.0957 22.8506L67.0781 23L65.4697 23.0088C65.4053 22.7393 65.373 22.4668 65.373 22.1914C65.3789 21.916 65.3994 21.6436 65.4346 21.374ZM66.4102 17.2344L66.2256 18.377L64.7227 18.3682C64.4062 18.3682 64.0723 18.3916 63.7207 18.4385C63.3691 18.4854 63.0352 18.5732 62.7188 18.7021C62.4023 18.8311 62.1357 19.0186 61.9189 19.2646C61.7021 19.5049 61.5703 19.8184 61.5234 20.2051C61.4883 20.5215 61.5264 20.7969 61.6377 21.0312C61.7549 21.2598 61.9307 21.4385 62.165 21.5674C62.3994 21.6963 62.6719 21.7637 62.9824 21.7695C63.3867 21.7754 63.7852 21.6963 64.1777 21.5322C64.5703 21.3682 64.9131 21.1338 65.2061 20.8291C65.499 20.5244 65.7012 20.1729 65.8125 19.7744L66.3926 20.5566C66.2812 20.9434 66.0996 21.3008 65.8477 21.6289C65.5957 21.9512 65.2969 22.2295 64.9512 22.4639C64.6113 22.6982 64.2451 22.8799 63.8525 23.0088C63.46 23.1377 63.0674 23.1992 62.6748 23.1934C62.1416 23.1816 61.6582 23.0615 61.2246 22.833C60.7969 22.6045 60.457 22.2852 60.2051 21.875C59.959 21.459 59.8535 20.9756 59.8887 20.4248C59.9238 19.8213 60.082 19.3145 60.3633 18.9043C60.6445 18.4941 61.0049 18.166 61.4443 17.9199C61.8896 17.6738 62.376 17.498 62.9033 17.3926C63.4307 17.2812 63.9521 17.2256 64.4678 17.2256L66.4102 17.2344ZM74.7246 13.4902L74.5049 14.7383H69.5039L69.7236 13.4902H74.7246ZM71.8154 11.1787H73.3975L71.7891 20.6621C71.7715 20.8672 71.7773 21.0518 71.8066 21.2158C71.8359 21.3799 71.9062 21.5117 72.0176 21.6113C72.1289 21.7051 72.2988 21.7549 72.5273 21.7607C72.6562 21.7607 72.7822 21.752 72.9053 21.7344C73.0342 21.7109 73.1631 21.6904 73.292 21.6729L73.1777 23.0088C72.9902 23.0615 72.7969 23.0996 72.5977 23.123C72.4043 23.1523 72.2109 23.1641 72.0176 23.1582C71.5312 23.1523 71.1504 23.0293 70.875 22.7891C70.5996 22.5488 70.4121 22.2383 70.3125 21.8574C70.2129 21.4766 70.1836 21.0693 70.2246 20.6357L71.8154 11.1787ZM82.1162 21.9189L86.124 13.4902H87.8818L82.3008 24.4766C82.1543 24.7871 81.9814 25.0859 81.7822 25.373C81.5889 25.6602 81.3662 25.918 81.1143 26.1465C80.8682 26.375 80.5898 26.5537 80.2793 26.6826C79.9688 26.8115 79.626 26.876 79.251 26.876C79.0928 26.8701 78.9346 26.8525 78.7764 26.8232C78.6123 26.7939 78.4541 26.7617 78.3018 26.7266L78.3984 25.3906C78.4688 25.4023 78.5391 25.4111 78.6094 25.417C78.6797 25.4287 78.7471 25.4375 78.8115 25.4434C79.2041 25.4551 79.541 25.3994 79.8223 25.2764C80.1094 25.1533 80.3555 24.9717 80.5605 24.7314C80.7715 24.4912 80.959 24.2041 81.123 23.8701L82.1162 21.9189ZM81.6768 13.4902L82.8105 20.9609L82.916 22.6396L81.7295 23.2197L80.0068 13.4902H81.6768ZM87.873 18.4033L87.8994 18.2012C87.9697 17.5625 88.1279 16.9473 88.374 16.3555C88.626 15.7637 88.957 15.2363 89.3672 14.7734C89.7773 14.3105 90.2637 13.9473 90.8262 13.6836C91.3887 13.4199 92.0156 13.2969 92.707 13.3145C93.375 13.3262 93.9463 13.4697 94.4209 13.7451C94.9014 14.0205 95.2881 14.3867 95.5811 14.8438C95.8799 15.2949 96.0879 15.8047 96.2051 16.373C96.3223 16.9414 96.3516 17.5273 96.293 18.1309L96.2754 18.333C96.1992 18.9717 96.0352 19.584 95.7832 20.1699C95.5312 20.7559 95.1973 21.2773 94.7812 21.7344C94.3711 22.1914 93.8848 22.5518 93.3223 22.8154C92.7598 23.0732 92.1357 23.1934 91.4502 23.1758C90.7881 23.1641 90.2168 23.0234 89.7363 22.7539C89.2617 22.4785 88.8779 22.1152 88.585 21.6641C88.292 21.2129 88.0869 20.7061 87.9697 20.1436C87.8525 19.5811 87.8203 19.001 87.873 18.4033ZM89.4814 18.2012L89.4639 18.4121C89.4229 18.7812 89.4199 19.165 89.4551 19.5635C89.4961 19.9619 89.5898 20.3311 89.7363 20.6709C89.8887 21.0107 90.1084 21.2891 90.3955 21.5059C90.6826 21.7227 91.0547 21.8369 91.5117 21.8486C91.998 21.8604 92.4258 21.7666 92.7949 21.5674C93.1641 21.3623 93.4775 21.0869 93.7354 20.7412C93.999 20.3955 94.207 20.0117 94.3594 19.5898C94.5176 19.168 94.623 18.749 94.6758 18.333L94.6934 18.1309C94.7344 17.7617 94.7344 17.3779 94.6934 16.9795C94.6582 16.5752 94.5645 16.2002 94.4121 15.8545C94.2656 15.5029 94.0488 15.2188 93.7617 15.002C93.4746 14.7793 93.1025 14.6621 92.6455 14.6504C92.1592 14.6328 91.7285 14.7295 91.3535 14.9404C90.9844 15.1455 90.6709 15.4238 90.4131 15.7754C90.1553 16.127 89.9473 16.5166 89.7891 16.9443C89.6367 17.3662 89.5342 17.7852 89.4814 18.2012ZM103.474 20.7148L104.722 13.4902H106.321L104.669 23H103.148L103.474 20.7148ZM104.071 18.7988L104.722 18.7725C104.646 19.3701 104.511 19.9385 104.317 20.4775C104.124 21.0107 103.86 21.4854 103.526 21.9014C103.198 22.3115 102.788 22.6338 102.296 22.8682C101.81 23.0967 101.232 23.2021 100.564 23.1846C100.043 23.167 99.6064 23.0615 99.2549 22.8682C98.9092 22.6748 98.6367 22.4141 98.4375 22.0859C98.2383 21.7578 98.1064 21.3828 98.042 20.9609C97.9775 20.5391 97.9688 20.0938 98.0156 19.625L99.0439 13.4902H100.635L99.6064 19.6514C99.583 19.9092 99.5801 20.1641 99.5977 20.416C99.6152 20.6621 99.668 20.8877 99.7559 21.0928C99.8438 21.2979 99.9785 21.4648 100.16 21.5938C100.348 21.7168 100.594 21.7842 100.898 21.7959C101.531 21.8193 102.067 21.7021 102.507 21.4443C102.946 21.1807 103.295 20.8174 103.553 20.3545C103.811 19.8916 103.983 19.373 104.071 18.7988ZM117.642 21.0576L119.646 9.5H121.245L118.898 23H117.448L117.642 21.0576ZM111.911 18.4209L111.929 18.2363C112.005 17.6504 112.146 17.0645 112.351 16.4785C112.562 15.8926 112.846 15.3564 113.203 14.8701C113.561 14.3838 113.994 13.9971 114.504 13.71C115.014 13.4229 115.608 13.2881 116.288 13.3057C116.897 13.3232 117.407 13.4668 117.817 13.7363C118.228 14.0059 118.55 14.3633 118.784 14.8086C119.024 15.248 119.186 15.7314 119.268 16.2588C119.355 16.7861 119.382 17.3164 119.347 17.8496L119.25 18.6582C119.15 19.2266 118.986 19.7832 118.758 20.3281C118.529 20.873 118.233 21.3652 117.87 21.8047C117.513 22.2383 117.082 22.5811 116.578 22.833C116.08 23.085 115.509 23.2021 114.864 23.1846C114.243 23.1611 113.728 23 113.317 22.7012C112.913 22.4023 112.597 22.0186 112.368 21.5498C112.146 21.0752 111.999 20.5654 111.929 20.0205C111.864 19.4697 111.858 18.9365 111.911 18.4209ZM113.546 18.2188L113.528 18.4033C113.487 18.7549 113.473 19.127 113.484 19.5195C113.502 19.9062 113.569 20.2725 113.687 20.6182C113.804 20.958 113.994 21.2393 114.258 21.4619C114.521 21.6787 114.879 21.7959 115.33 21.8135C115.811 21.8252 116.256 21.7168 116.666 21.4883C117.076 21.2598 117.428 20.9551 117.721 20.5742C118.014 20.1934 118.225 19.7803 118.354 19.335L118.696 17.1992C118.714 16.877 118.676 16.5693 118.582 16.2764C118.488 15.9775 118.348 15.7109 118.16 15.4766C117.979 15.2422 117.753 15.0547 117.483 14.9141C117.22 14.7676 116.924 14.6914 116.596 14.6855C116.104 14.668 115.679 14.7646 115.321 14.9756C114.964 15.1807 114.662 15.459 114.416 15.8105C114.176 16.1562 113.985 16.54 113.845 16.9619C113.704 17.3838 113.604 17.8027 113.546 18.2188ZM121.746 18.4033L121.772 18.2012C121.843 17.5625 122.001 16.9473 122.247 16.3555C122.499 15.7637 122.83 15.2363 123.24 14.7734C123.65 14.3105 124.137 13.9473 124.699 13.6836C125.262 13.4199 125.889 13.2969 126.58 13.3145C127.248 13.3262 127.819 13.4697 128.294 13.7451C128.774 14.0205 129.161 14.3867 129.454 14.8438C129.753 15.2949 129.961 15.8047 130.078 16.373C130.195 16.9414 130.225 17.5273 130.166 18.1309L130.148 18.333C130.072 18.9717 129.908 19.584 129.656 20.1699C129.404 20.7559 129.07 21.2773 128.654 21.7344C128.244 22.1914 127.758 22.5518 127.195 22.8154C126.633 23.0732 126.009 23.1934 125.323 23.1758C124.661 23.1641 124.09 23.0234 123.609 22.7539C123.135 22.4785 122.751 22.1152 122.458 21.6641C122.165 21.2129 121.96 20.7061 121.843 20.1436C121.726 19.5811 121.693 19.001 121.746 18.4033ZM123.354 18.2012L123.337 18.4121C123.296 18.7812 123.293 19.165 123.328 19.5635C123.369 19.9619 123.463 20.3311 123.609 20.6709C123.762 21.0107 123.981 21.2891 124.269 21.5059C124.556 21.7227 124.928 21.8369 125.385 21.8486C125.871 21.8604 126.299 21.7666 126.668 21.5674C127.037 21.3623 127.351 21.0869 127.608 20.7412C127.872 20.3955 128.08 20.0117 128.232 19.5898C128.391 19.168 128.496 18.749 128.549 18.333L128.566 18.1309C128.607 17.7617 128.607 17.3779 128.566 16.9795C128.531 16.5752 128.438 16.2002 128.285 15.8545C128.139 15.5029 127.922 15.2188 127.635 15.002C127.348 14.7793 126.976 14.6621 126.519 14.6504C126.032 14.6328 125.602 14.7295 125.227 14.9404C124.857 15.1455 124.544 15.4238 124.286 15.7754C124.028 16.127 123.82 16.5166 123.662 16.9443C123.51 17.3662 123.407 17.7852 123.354 18.2012ZM141.258 13.4902L141.038 14.7383H136.037L136.257 13.4902H141.258ZM138.349 11.1787H139.931L138.322 20.6621C138.305 20.8672 138.311 21.0518 138.34 21.2158C138.369 21.3799 138.439 21.5117 138.551 21.6113C138.662 21.7051 138.832 21.7549 139.061 21.7607C139.189 21.7607 139.315 21.752 139.438 21.7344C139.567 21.7109 139.696 21.6904 139.825 21.6729L139.711 23.0088C139.523 23.0615 139.33 23.0996 139.131 23.123C138.938 23.1523 138.744 23.1641 138.551 23.1582C138.064 23.1523 137.684 23.0293 137.408 22.7891C137.133 22.5488 136.945 22.2383 136.846 21.8574C136.746 21.4766 136.717 21.0693 136.758 20.6357L138.349 11.1787ZM145.38 9.5L143.033 23H141.442L143.789 9.5H145.38ZM143.578 17.8848L142.928 17.8672C143.01 17.2988 143.159 16.7422 143.376 16.1973C143.599 15.6465 143.889 15.1514 144.246 14.7119C144.609 14.2725 145.04 13.9268 145.538 13.6748C146.042 13.417 146.616 13.2969 147.261 13.3145C147.771 13.3262 148.195 13.4258 148.535 13.6133C148.881 13.7949 149.15 14.0439 149.344 14.3604C149.537 14.6768 149.666 15.043 149.73 15.459C149.795 15.8691 149.801 16.3057 149.748 16.7686L148.711 23H147.111L148.166 16.7422C148.207 16.3613 148.192 16.0186 148.122 15.7139C148.058 15.4033 147.911 15.1572 147.683 14.9756C147.46 14.7881 147.138 14.6885 146.716 14.6768C146.271 14.665 145.869 14.75 145.512 14.9316C145.154 15.1133 144.841 15.3623 144.571 15.6787C144.308 15.9893 144.091 16.3379 143.921 16.7246C143.757 17.1055 143.643 17.4922 143.578 17.8848ZM155.083 23.1758C154.433 23.1641 153.867 23.0352 153.387 22.7891C152.912 22.5371 152.522 22.2002 152.218 21.7783C151.919 21.3506 151.705 20.8643 151.576 20.3193C151.447 19.7744 151.409 19.2031 151.462 18.6055L151.497 18.2275C151.556 17.6182 151.705 17.0205 151.945 16.4346C152.186 15.8428 152.505 15.3096 152.903 14.835C153.308 14.3604 153.782 13.9854 154.327 13.71C154.878 13.4287 155.487 13.2969 156.155 13.3145C156.817 13.3262 157.368 13.4668 157.808 13.7363C158.247 14.0059 158.59 14.3633 158.836 14.8086C159.088 15.248 159.252 15.7432 159.328 16.2939C159.404 16.8389 159.41 17.3984 159.346 17.9727L159.249 18.7021H152.35L152.561 17.375L157.825 17.3838L157.852 17.2432C157.91 16.8213 157.887 16.4141 157.781 16.0215C157.676 15.6289 157.482 15.3066 157.201 15.0547C156.926 14.7969 156.554 14.6621 156.085 14.6504C155.599 14.6328 155.177 14.7324 154.819 14.9492C154.462 15.1602 154.163 15.4473 153.923 15.8105C153.683 16.168 153.492 16.5605 153.352 16.9883C153.217 17.4102 153.123 17.8232 153.07 18.2275L153.035 18.5967C153 18.9717 153.012 19.3496 153.07 19.7305C153.129 20.1113 153.24 20.46 153.404 20.7764C153.574 21.0869 153.809 21.3418 154.107 21.541C154.406 21.7344 154.775 21.8369 155.215 21.8486C155.748 21.8604 156.226 21.7461 156.647 21.5059C157.075 21.2598 157.465 20.9492 157.816 20.5742L158.722 21.3477C158.446 21.752 158.118 22.0918 157.737 22.3672C157.356 22.6426 156.94 22.8477 156.489 22.9824C156.038 23.1172 155.569 23.1816 155.083 23.1758ZM168.24 15.6963L166.975 23H164.505L166.157 13.4902H168.478L168.24 15.6963ZM171.343 13.4111L171.035 15.7754C170.895 15.752 170.751 15.7314 170.604 15.7139C170.464 15.6963 170.32 15.6846 170.174 15.6787C169.834 15.6729 169.526 15.7168 169.251 15.8105C168.976 15.9043 168.735 16.042 168.53 16.2236C168.331 16.3994 168.161 16.6162 168.021 16.874C167.886 17.1318 167.783 17.4219 167.713 17.7441L167.229 17.5859C167.288 17.1348 167.385 16.6602 167.52 16.1621C167.66 15.6582 167.854 15.1895 168.1 14.7559C168.352 14.3164 168.671 13.9619 169.058 13.6924C169.45 13.417 169.928 13.2822 170.49 13.2881C170.637 13.2881 170.777 13.2998 170.912 13.3232C171.053 13.3467 171.196 13.376 171.343 13.4111ZM175.157 13.4902L173.514 23H171.035L172.688 13.4902H175.157ZM172.96 11.0557C172.948 10.6572 173.077 10.3379 173.347 10.0977C173.622 9.85742 173.953 9.73438 174.34 9.72852C174.709 9.72266 175.031 9.83398 175.307 10.0625C175.582 10.2852 175.72 10.5869 175.72 10.9678C175.731 11.3662 175.6 11.6855 175.324 11.9258C175.049 12.166 174.721 12.2891 174.34 12.2949C173.971 12.3008 173.648 12.1924 173.373 11.9697C173.104 11.7471 172.966 11.4424 172.96 11.0557ZM182.997 13.4902H185.265L183.691 22.6748C183.574 23.5479 183.284 24.292 182.821 24.9072C182.358 25.5225 181.77 25.9883 181.055 26.3047C180.346 26.6211 179.558 26.7705 178.69 26.7529C178.269 26.7412 177.853 26.6768 177.442 26.5596C177.032 26.4424 176.648 26.2695 176.291 26.041C175.934 25.8184 175.623 25.54 175.359 25.2061L176.581 23.7471C176.839 24.0869 177.144 24.3506 177.495 24.5381C177.847 24.7314 178.236 24.834 178.664 24.8457C179.121 24.8574 179.525 24.7754 179.877 24.5996C180.229 24.4238 180.519 24.1748 180.747 23.8525C180.976 23.5303 181.128 23.1465 181.204 22.7012L182.417 15.5645L182.997 13.4902ZM175.975 18.4209L176.001 18.2363C176.071 17.6387 176.212 17.0469 176.423 16.4609C176.634 15.8691 176.918 15.333 177.275 14.8525C177.633 14.3721 178.069 13.9912 178.585 13.71C179.101 13.4287 179.701 13.2969 180.387 13.3145C181.02 13.332 181.532 13.4902 181.925 13.7891C182.317 14.082 182.616 14.4658 182.821 14.9404C183.026 15.4092 183.161 15.9189 183.226 16.4697C183.296 17.0205 183.319 17.5566 183.296 18.0781L183.252 18.4912C183.158 19.0186 183.003 19.5605 182.786 20.1172C182.569 20.6738 182.288 21.1895 181.942 21.6641C181.597 22.1328 181.181 22.5078 180.694 22.7891C180.214 23.0703 179.666 23.2021 179.051 23.1846C178.412 23.167 177.882 23.0117 177.46 22.7188C177.044 22.4258 176.716 22.0479 176.476 21.585C176.241 21.1162 176.086 20.6064 176.01 20.0557C175.934 19.499 175.922 18.9541 175.975 18.4209ZM178.479 18.2275L178.453 18.4209C178.424 18.6846 178.412 18.9746 178.418 19.291C178.43 19.6016 178.477 19.9004 178.559 20.1875C178.646 20.4746 178.79 20.7119 178.989 20.8994C179.188 21.0811 179.464 21.1777 179.815 21.1895C180.278 21.2129 180.674 21.1162 181.002 20.8994C181.336 20.6826 181.603 20.3955 181.802 20.0381C182.001 19.6748 182.139 19.291 182.215 18.8867L182.382 17.7178C182.405 17.4365 182.402 17.1553 182.373 16.874C182.344 16.5928 182.273 16.335 182.162 16.1006C182.057 15.8662 181.898 15.6758 181.688 15.5293C181.482 15.3828 181.21 15.3066 180.87 15.3008C180.478 15.2832 180.138 15.3652 179.851 15.5469C179.569 15.7285 179.335 15.9688 179.147 16.2676C178.96 16.5605 178.811 16.8799 178.699 17.2256C178.588 17.5713 178.515 17.9053 178.479 18.2275ZM190.266 9.5L187.919 23H185.449L187.796 9.5H190.266ZM188.473 17.9111L187.831 17.9199C187.896 17.3809 188.021 16.8359 188.209 16.2852C188.402 15.7344 188.663 15.2334 188.991 14.7822C189.319 14.3252 189.721 13.9619 190.195 13.6924C190.676 13.417 191.232 13.2881 191.865 13.3057C192.398 13.3174 192.841 13.4258 193.192 13.6309C193.55 13.8301 193.828 14.1025 194.027 14.4482C194.227 14.7881 194.358 15.1777 194.423 15.6172C194.487 16.0508 194.493 16.5078 194.44 16.9883L193.438 23H190.951L191.971 16.9619C192.006 16.6514 191.997 16.373 191.944 16.127C191.897 15.875 191.783 15.6758 191.602 15.5293C191.426 15.377 191.165 15.2979 190.819 15.292C190.438 15.2803 190.11 15.3477 189.835 15.4941C189.565 15.6406 189.337 15.8428 189.149 16.1006C188.962 16.3525 188.815 16.6367 188.71 16.9531C188.604 17.2637 188.525 17.583 188.473 17.9111ZM201.472 13.4902L201.155 15.2832H195.768L196.084 13.4902H201.472ZM197.824 11.1436H200.294L198.747 20.1523C198.724 20.3574 198.724 20.5332 198.747 20.6797C198.776 20.8203 198.844 20.9287 198.949 21.0049C199.055 21.0811 199.219 21.125 199.441 21.1367C199.564 21.1426 199.688 21.1396 199.811 21.1279C199.934 21.1104 200.06 21.0928 200.188 21.0752L200.013 22.9648C199.778 23.0352 199.541 23.085 199.301 23.1143C199.066 23.1494 198.826 23.167 198.58 23.167C198.018 23.1553 197.555 23.0322 197.191 22.7979C196.834 22.5635 196.576 22.2412 196.418 21.8311C196.266 21.415 196.216 20.9346 196.269 20.3896L197.824 11.1436ZM211.395 13.4902L211.175 14.7383H206.174L206.394 13.4902H211.395ZM208.485 11.1787H210.067L208.459 20.6621C208.441 20.8672 208.447 21.0518 208.477 21.2158C208.506 21.3799 208.576 21.5117 208.688 21.6113C208.799 21.7051 208.969 21.7549 209.197 21.7607C209.326 21.7607 209.452 21.752 209.575 21.7344C209.704 21.7109 209.833 21.6904 209.962 21.6729L209.848 23.0088C209.66 23.0615 209.467 23.0996 209.268 23.123C209.074 23.1523 208.881 23.1641 208.688 23.1582C208.201 23.1523 207.82 23.0293 207.545 22.7891C207.27 22.5488 207.082 22.2383 206.982 21.8574C206.883 21.4766 206.854 21.0693 206.895 20.6357L208.485 11.1787ZM215.517 9.5L213.17 23H211.579L213.926 9.5H215.517ZM213.715 17.8848L213.064 17.8672C213.146 17.2988 213.296 16.7422 213.513 16.1973C213.735 15.6465 214.025 15.1514 214.383 14.7119C214.746 14.2725 215.177 13.9268 215.675 13.6748C216.179 13.417 216.753 13.2969 217.397 13.3145C217.907 13.3262 218.332 13.4258 218.672 13.6133C219.018 13.7949 219.287 14.0439 219.48 14.3604C219.674 14.6768 219.803 15.043 219.867 15.459C219.932 15.8691 219.938 16.3057 219.885 16.7686L218.848 23H217.248L218.303 16.7422C218.344 16.3613 218.329 16.0186 218.259 15.7139C218.194 15.4033 218.048 15.1572 217.819 14.9756C217.597 14.7881 217.274 14.6885 216.853 14.6768C216.407 14.665 216.006 14.75 215.648 14.9316C215.291 15.1133 214.978 15.3623 214.708 15.6787C214.444 15.9893 214.228 16.3379 214.058 16.7246C213.894 17.1055 213.779 17.4922 213.715 17.8848ZM224.569 13.4902L222.917 23H221.326L222.979 13.4902H224.569ZM223.295 10.9941C223.295 10.7188 223.38 10.4902 223.55 10.3086C223.726 10.1211 223.951 10.0244 224.227 10.0186C224.502 10.0127 224.728 10.0977 224.903 10.2734C225.085 10.4492 225.173 10.6719 225.167 10.9414C225.167 11.2109 225.076 11.4365 224.895 11.6182C224.719 11.7939 224.496 11.8848 224.227 11.8906C223.957 11.8965 223.734 11.8174 223.559 11.6533C223.383 11.4834 223.295 11.2637 223.295 10.9941ZM228.322 15.6172L227.039 23H225.448L227.101 13.4902H228.604L228.322 15.6172ZM227.584 17.8848L226.934 17.8672C227.016 17.2988 227.165 16.7422 227.382 16.1973C227.604 15.6465 227.895 15.1514 228.252 14.7119C228.615 14.2725 229.046 13.9268 229.544 13.6748C230.048 13.417 230.622 13.2969 231.267 13.3145C231.776 13.3262 232.201 13.4258 232.541 13.6133C232.887 13.7949 233.156 14.0439 233.35 14.3604C233.543 14.6768 233.672 15.043 233.736 15.459C233.801 15.8691 233.807 16.3057 233.754 16.7686L232.717 23H231.117L232.172 16.7422C232.213 16.3613 232.198 16.0186 232.128 15.7139C232.063 15.4033 231.917 15.1572 231.688 14.9756C231.466 14.7881 231.144 14.6885 230.722 14.6768C230.276 14.665 229.875 14.75 229.518 14.9316C229.16 15.1133 228.847 15.3623 228.577 15.6787C228.313 15.9893 228.097 16.3379 227.927 16.7246C227.763 17.1055 227.648 17.4922 227.584 17.8848ZM242.719 13.4902H244.178L242.587 22.7891C242.476 23.5801 242.221 24.2773 241.822 24.8809C241.43 25.4844 240.914 25.9531 240.275 26.2871C239.643 26.6211 238.919 26.7793 238.104 26.7617C237.677 26.75 237.258 26.6768 236.848 26.542C236.438 26.4072 236.06 26.2168 235.714 25.9707C235.368 25.7246 235.078 25.4229 234.844 25.0654L235.758 24.1162C236.033 24.5088 236.358 24.8193 236.733 25.0479C237.114 25.2822 237.548 25.4082 238.034 25.4258C238.567 25.4375 239.039 25.3379 239.449 25.127C239.865 24.9219 240.202 24.626 240.46 24.2393C240.724 23.8525 240.896 23.3984 240.979 22.877L242.227 15.5029L242.719 13.4902ZM235.538 18.4209L235.564 18.2275C235.635 17.6416 235.772 17.0557 235.978 16.4697C236.188 15.8838 236.47 15.3506 236.821 14.8701C237.173 14.3838 237.604 14 238.113 13.7188C238.623 13.4316 239.218 13.2939 239.897 13.3057C240.513 13.3232 241.025 13.4668 241.436 13.7363C241.846 14.0059 242.168 14.3633 242.402 14.8086C242.643 15.248 242.804 15.7314 242.886 16.2588C242.974 16.7861 243 17.3164 242.965 17.8496L242.868 18.6582C242.769 19.2266 242.604 19.7832 242.376 20.3281C242.147 20.873 241.852 21.3652 241.488 21.8047C241.125 22.2383 240.691 22.5811 240.188 22.833C239.689 23.085 239.121 23.2021 238.482 23.1846C237.855 23.1611 237.337 23 236.927 22.7012C236.522 22.4023 236.209 22.0186 235.986 21.5498C235.764 21.0752 235.62 20.5654 235.556 20.0205C235.491 19.4697 235.485 18.9365 235.538 18.4209ZM237.164 18.2188L237.138 18.4121C237.097 18.7637 237.085 19.1328 237.103 19.5195C237.12 19.9062 237.188 20.2725 237.305 20.6182C237.422 20.958 237.609 21.2393 237.867 21.4619C238.131 21.6787 238.488 21.793 238.939 21.8047C239.42 21.8223 239.865 21.7168 240.275 21.4883C240.686 21.2598 241.037 20.9551 241.33 20.5742C241.623 20.1934 241.834 19.7803 241.963 19.335L242.306 17.1992C242.323 16.877 242.285 16.5664 242.191 16.2676C242.098 15.9688 241.957 15.7021 241.77 15.4678C241.588 15.2334 241.365 15.0459 241.102 14.9053C240.838 14.7646 240.539 14.6914 240.205 14.6855C239.713 14.668 239.288 14.7646 238.931 14.9756C238.573 15.1807 238.271 15.459 238.025 15.8105C237.785 16.1621 237.595 16.5488 237.454 16.9707C237.313 17.3926 237.217 17.8086 237.164 18.2188ZM245.092 22.165C245.092 21.8779 245.183 21.6377 245.364 21.4443C245.552 21.251 245.789 21.1514 246.076 21.1455C246.363 21.1396 246.598 21.2275 246.779 21.4092C246.967 21.5908 247.058 21.8252 247.052 22.1123C247.052 22.3994 246.958 22.6367 246.771 22.8242C246.589 23.0117 246.354 23.1084 246.067 23.1143C245.786 23.1201 245.552 23.0352 245.364 22.8594C245.177 22.6836 245.086 22.4521 245.092 22.165ZM260.648 10.2031L258.434 23H256.799L259.022 10.2031H260.648ZM264.639 10.2031L264.393 11.5918H254.795L255.041 10.2031H264.639ZM267.952 9.5L265.605 23H264.015L266.361 9.5H267.952ZM266.15 17.8848L265.5 17.8672C265.582 17.2988 265.731 16.7422 265.948 16.1973C266.171 15.6465 266.461 15.1514 266.818 14.7119C267.182 14.2725 267.612 13.9268 268.11 13.6748C268.614 13.417 269.188 13.2969 269.833 13.3145C270.343 13.3262 270.768 13.4258 271.107 13.6133C271.453 13.7949 271.723 14.0439 271.916 14.3604C272.109 14.6768 272.238 15.043 272.303 15.459C272.367 15.8691 272.373 16.3057 272.32 16.7686L271.283 23H269.684L270.738 16.7422C270.779 16.3613 270.765 16.0186 270.694 15.7139C270.63 15.4033 270.483 15.1572 270.255 14.9756C270.032 14.7881 269.71 14.6885 269.288 14.6768C268.843 14.665 268.441 14.75 268.084 14.9316C267.727 15.1133 267.413 15.3623 267.144 15.6787C266.88 15.9893 266.663 16.3379 266.493 16.7246C266.329 17.1055 266.215 17.4922 266.15 17.8848ZM277.655 23.1758C277.005 23.1641 276.439 23.0352 275.959 22.7891C275.484 22.5371 275.095 22.2002 274.79 21.7783C274.491 21.3506 274.277 20.8643 274.148 20.3193C274.02 19.7744 273.981 19.2031 274.034 18.6055L274.069 18.2275C274.128 17.6182 274.277 17.0205 274.518 16.4346C274.758 15.8428 275.077 15.3096 275.476 14.835C275.88 14.3604 276.354 13.9854 276.899 13.71C277.45 13.4287 278.06 13.2969 278.728 13.3145C279.39 13.3262 279.94 13.4668 280.38 13.7363C280.819 14.0059 281.162 14.3633 281.408 14.8086C281.66 15.248 281.824 15.7432 281.9 16.2939C281.977 16.8389 281.982 17.3984 281.918 17.9727L281.821 18.7021H274.922L275.133 17.375L280.397 17.3838L280.424 17.2432C280.482 16.8213 280.459 16.4141 280.354 16.0215C280.248 15.6289 280.055 15.3066 279.773 15.0547C279.498 14.7969 279.126 14.6621 278.657 14.6504C278.171 14.6328 277.749 14.7324 277.392 14.9492C277.034 15.1602 276.735 15.4473 276.495 15.8105C276.255 16.168 276.064 16.5605 275.924 16.9883C275.789 17.4102 275.695 17.8232 275.643 18.2275L275.607 18.5967C275.572 18.9717 275.584 19.3496 275.643 19.7305C275.701 20.1113 275.812 20.46 275.977 20.7764C276.146 21.0869 276.381 21.3418 276.68 21.541C276.979 21.7344 277.348 21.8369 277.787 21.8486C278.32 21.8604 278.798 21.7461 279.22 21.5059C279.647 21.2598 280.037 20.9492 280.389 20.5742L281.294 21.3477C281.019 21.752 280.69 22.0918 280.31 22.3672C279.929 22.6426 279.513 22.8477 279.062 22.9824C278.61 23.1172 278.142 23.1816 277.655 23.1758ZM290.294 15.0547L288.914 23H287.323L288.976 13.4902H290.522L290.294 15.0547ZM293.379 13.4111L293.229 14.9404C293.106 14.917 292.98 14.8965 292.852 14.8789C292.729 14.8613 292.605 14.8525 292.482 14.8525C292.102 14.8467 291.759 14.9053 291.454 15.0283C291.155 15.1455 290.889 15.3125 290.654 15.5293C290.426 15.7461 290.229 16.001 290.065 16.2939C289.907 16.5869 289.781 16.9033 289.688 17.2432L289.187 17.5068C289.251 17.0322 289.356 16.5459 289.503 16.0479C289.655 15.5498 289.863 15.0898 290.127 14.668C290.396 14.2461 290.733 13.9062 291.138 13.6484C291.548 13.3906 292.04 13.2705 292.614 13.2881C292.743 13.2881 292.869 13.2998 292.992 13.3232C293.121 13.3467 293.25 13.376 293.379 13.4111ZM297.097 23.1758C296.446 23.1641 295.881 23.0352 295.4 22.7891C294.926 22.5371 294.536 22.2002 294.231 21.7783C293.933 21.3506 293.719 20.8643 293.59 20.3193C293.461 19.7744 293.423 19.2031 293.476 18.6055L293.511 18.2275C293.569 17.6182 293.719 17.0205 293.959 16.4346C294.199 15.8428 294.519 15.3096 294.917 14.835C295.321 14.3604 295.796 13.9854 296.341 13.71C296.892 13.4287 297.501 13.2969 298.169 13.3145C298.831 13.3262 299.382 13.4668 299.821 13.7363C300.261 14.0059 300.604 14.3633 300.85 14.8086C301.102 15.248 301.266 15.7432 301.342 16.2939C301.418 16.8389 301.424 17.3984 301.359 17.9727L301.263 18.7021H294.363L294.574 17.375L299.839 17.3838L299.865 17.2432C299.924 16.8213 299.9 16.4141 299.795 16.0215C299.689 15.6289 299.496 15.3066 299.215 15.0547C298.939 14.7969 298.567 14.6621 298.099 14.6504C297.612 14.6328 297.19 14.7324 296.833 14.9492C296.476 15.1602 296.177 15.4473 295.937 15.8105C295.696 16.168 295.506 16.5605 295.365 16.9883C295.23 17.4102 295.137 17.8232 295.084 18.2275L295.049 18.5967C295.014 18.9717 295.025 19.3496 295.084 19.7305C295.143 20.1113 295.254 20.46 295.418 20.7764C295.588 21.0869 295.822 21.3418 296.121 21.541C296.42 21.7344 296.789 21.8369 297.229 21.8486C297.762 21.8604 298.239 21.7461 298.661 21.5059C299.089 21.2598 299.479 20.9492 299.83 20.5742L300.735 21.3477C300.46 21.752 300.132 22.0918 299.751 22.3672C299.37 22.6426 298.954 22.8477 298.503 22.9824C298.052 23.1172 297.583 23.1816 297.097 23.1758ZM308.206 20.4248C308.259 20.0615 308.191 19.7773 308.004 19.5723C307.822 19.3672 307.582 19.2119 307.283 19.1064C306.99 18.9951 306.703 18.9043 306.422 18.834C306.07 18.7461 305.716 18.6377 305.358 18.5088C305.001 18.3799 304.673 18.2158 304.374 18.0166C304.081 17.8115 303.847 17.5596 303.671 17.2607C303.501 16.9561 303.425 16.5869 303.442 16.1533C303.466 15.6846 303.589 15.2715 303.812 14.9141C304.04 14.5566 304.333 14.2578 304.69 14.0176C305.054 13.7773 305.449 13.5986 305.877 13.4814C306.305 13.3643 306.729 13.3086 307.151 13.3145C307.749 13.3262 308.291 13.4492 308.777 13.6836C309.27 13.918 309.659 14.2549 309.946 14.6943C310.233 15.1338 310.368 15.667 310.351 16.2939L308.777 16.2852C308.789 15.9512 308.722 15.6641 308.575 15.4238C308.429 15.1836 308.227 14.999 307.969 14.8701C307.711 14.7354 307.418 14.665 307.09 14.6592C306.779 14.6533 306.475 14.7031 306.176 14.8086C305.877 14.9082 305.622 15.0664 305.411 15.2832C305.2 15.4941 305.071 15.7695 305.024 16.1094C304.989 16.3613 305.027 16.5693 305.139 16.7334C305.25 16.8916 305.402 17.0205 305.596 17.1201C305.795 17.2139 306.003 17.293 306.22 17.3574C306.442 17.416 306.645 17.4688 306.826 17.5156C307.307 17.6504 307.781 17.8203 308.25 18.0254C308.719 18.2305 309.1 18.5146 309.393 18.8779C309.686 19.2354 309.817 19.707 309.788 20.293C309.765 20.791 309.633 21.2246 309.393 21.5938C309.158 21.957 308.854 22.2588 308.479 22.499C308.109 22.7334 307.702 22.9062 307.257 23.0176C306.812 23.1289 306.366 23.1816 305.921 23.1758C305.306 23.1641 304.731 23.0381 304.198 22.7979C303.671 22.5518 303.249 22.2002 302.933 21.7432C302.616 21.2803 302.467 20.7178 302.484 20.0557L304.075 20.0645C304.075 20.4453 304.154 20.7676 304.312 21.0312C304.477 21.2891 304.702 21.4854 304.989 21.6201C305.276 21.7549 305.604 21.8252 305.974 21.8311C306.284 21.8369 306.601 21.7959 306.923 21.708C307.251 21.6201 307.532 21.4736 307.767 21.2686C308.007 21.0576 308.153 20.7764 308.206 20.4248ZM316.881 13.4902L316.661 14.7383H311.66L311.88 13.4902H316.881ZM313.972 11.1787H315.554L313.945 20.6621C313.928 20.8672 313.934 21.0518 313.963 21.2158C313.992 21.3799 314.062 21.5117 314.174 21.6113C314.285 21.7051 314.455 21.7549 314.684 21.7607C314.812 21.7607 314.938 21.752 315.062 21.7344C315.19 21.7109 315.319 21.6904 315.448 21.6729L315.334 23.0088C315.146 23.0615 314.953 23.0996 314.754 23.123C314.561 23.1523 314.367 23.1641 314.174 23.1582C313.688 23.1523 313.307 23.0293 313.031 22.7891C312.756 22.5488 312.568 22.2383 312.469 21.8574C312.369 21.4766 312.34 21.0693 312.381 20.6357L313.972 11.1787ZM327.647 21.0576L329.651 9.5H331.251L328.904 23H327.454L327.647 21.0576ZM321.917 18.4209L321.935 18.2363C322.011 17.6504 322.151 17.0645 322.356 16.4785C322.567 15.8926 322.852 15.3564 323.209 14.8701C323.566 14.3838 324 13.9971 324.51 13.71C325.02 13.4229 325.614 13.2881 326.294 13.3057C326.903 13.3232 327.413 13.4668 327.823 13.7363C328.233 14.0059 328.556 14.3633 328.79 14.8086C329.03 15.248 329.191 15.7314 329.273 16.2588C329.361 16.7861 329.388 17.3164 329.353 17.8496L329.256 18.6582C329.156 19.2266 328.992 19.7832 328.764 20.3281C328.535 20.873 328.239 21.3652 327.876 21.8047C327.519 22.2383 327.088 22.5811 326.584 22.833C326.086 23.085 325.515 23.2021 324.87 23.1846C324.249 23.1611 323.733 23 323.323 22.7012C322.919 22.4023 322.603 22.0186 322.374 21.5498C322.151 21.0752 322.005 20.5654 321.935 20.0205C321.87 19.4697 321.864 18.9365 321.917 18.4209ZM323.552 18.2188L323.534 18.4033C323.493 18.7549 323.479 19.127 323.49 19.5195C323.508 19.9062 323.575 20.2725 323.692 20.6182C323.81 20.958 324 21.2393 324.264 21.4619C324.527 21.6787 324.885 21.7959 325.336 21.8135C325.816 21.8252 326.262 21.7168 326.672 21.4883C327.082 21.2598 327.434 20.9551 327.727 20.5742C328.02 20.1934 328.23 19.7803 328.359 19.335L328.702 17.1992C328.72 16.877 328.682 16.5693 328.588 16.2764C328.494 15.9775 328.354 15.7109 328.166 15.4766C327.984 15.2422 327.759 15.0547 327.489 14.9141C327.226 14.7676 326.93 14.6914 326.602 14.6855C326.109 14.668 325.685 14.7646 325.327 14.9756C324.97 15.1807 324.668 15.459 324.422 15.8105C324.182 16.1562 323.991 16.54 323.851 16.9619C323.71 17.3838 323.61 17.8027 323.552 18.2188ZM331.752 18.4033L331.778 18.2012C331.849 17.5625 332.007 16.9473 332.253 16.3555C332.505 15.7637 332.836 15.2363 333.246 14.7734C333.656 14.3105 334.143 13.9473 334.705 13.6836C335.268 13.4199 335.895 13.2969 336.586 13.3145C337.254 13.3262 337.825 13.4697 338.3 13.7451C338.78 14.0205 339.167 14.3867 339.46 14.8438C339.759 15.2949 339.967 15.8047 340.084 16.373C340.201 16.9414 340.23 17.5273 340.172 18.1309L340.154 18.333C340.078 18.9717 339.914 19.584 339.662 20.1699C339.41 20.7559 339.076 21.2773 338.66 21.7344C338.25 22.1914 337.764 22.5518 337.201 22.8154C336.639 23.0732 336.015 23.1934 335.329 23.1758C334.667 23.1641 334.096 23.0234 333.615 22.7539C333.141 22.4785 332.757 22.1152 332.464 21.6641C332.171 21.2129 331.966 20.7061 331.849 20.1436C331.731 19.5811 331.699 19.001 331.752 18.4033ZM333.36 18.2012L333.343 18.4121C333.302 18.7812 333.299 19.165 333.334 19.5635C333.375 19.9619 333.469 20.3311 333.615 20.6709C333.768 21.0107 333.987 21.2891 334.274 21.5059C334.562 21.7227 334.934 21.8369 335.391 21.8486C335.877 21.8604 336.305 21.7666 336.674 21.5674C337.043 21.3623 337.356 21.0869 337.614 20.7412C337.878 20.3955 338.086 20.0117 338.238 19.5898C338.396 19.168 338.502 18.749 338.555 18.333L338.572 18.1309C338.613 17.7617 338.613 17.3779 338.572 16.9795C338.537 16.5752 338.443 16.2002 338.291 15.8545C338.145 15.5029 337.928 15.2188 337.641 15.002C337.354 14.7793 336.981 14.6621 336.524 14.6504C336.038 14.6328 335.607 14.7295 335.232 14.9404C334.863 15.1455 334.55 15.4238 334.292 15.7754C334.034 16.127 333.826 16.5166 333.668 16.9443C333.516 17.3662 333.413 17.7852 333.36 18.2012ZM345.331 23.1758C344.681 23.1641 344.115 23.0352 343.635 22.7891C343.16 22.5371 342.771 22.2002 342.466 21.7783C342.167 21.3506 341.953 20.8643 341.824 20.3193C341.695 19.7744 341.657 19.2031 341.71 18.6055L341.745 18.2275C341.804 17.6182 341.953 17.0205 342.193 16.4346C342.434 15.8428 342.753 15.3096 343.151 14.835C343.556 14.3604 344.03 13.9854 344.575 13.71C345.126 13.4287 345.735 13.2969 346.403 13.3145C347.065 13.3262 347.616 13.4668 348.056 13.7363C348.495 14.0059 348.838 14.3633 349.084 14.8086C349.336 15.248 349.5 15.7432 349.576 16.2939C349.652 16.8389 349.658 17.3984 349.594 17.9727L349.497 18.7021H342.598L342.809 17.375L348.073 17.3838L348.1 17.2432C348.158 16.8213 348.135 16.4141 348.029 16.0215C347.924 15.6289 347.73 15.3066 347.449 15.0547C347.174 14.7969 346.802 14.6621 346.333 14.6504C345.847 14.6328 345.425 14.7324 345.067 14.9492C344.71 15.1602 344.411 15.4473 344.171 15.8105C343.931 16.168 343.74 16.5605 343.6 16.9883C343.465 17.4102 343.371 17.8232 343.318 18.2275L343.283 18.5967C343.248 18.9717 343.26 19.3496 343.318 19.7305C343.377 20.1113 343.488 20.46 343.652 20.7764C343.822 21.0869 344.057 21.3418 344.355 21.541C344.654 21.7344 345.023 21.8369 345.463 21.8486C345.996 21.8604 346.474 21.7461 346.896 21.5059C347.323 21.2598 347.713 20.9492 348.064 20.5742L348.97 21.3477C348.694 21.752 348.366 22.0918 347.985 22.3672C347.604 22.6426 347.188 22.8477 346.737 22.9824C346.286 23.1172 345.817 23.1816 345.331 23.1758ZM356.44 20.4248C356.493 20.0615 356.426 19.7773 356.238 19.5723C356.057 19.3672 355.816 19.2119 355.518 19.1064C355.225 18.9951 354.938 18.9043 354.656 18.834C354.305 18.7461 353.95 18.6377 353.593 18.5088C353.235 18.3799 352.907 18.2158 352.608 18.0166C352.315 17.8115 352.081 17.5596 351.905 17.2607C351.735 16.9561 351.659 16.5869 351.677 16.1533C351.7 15.6846 351.823 15.2715 352.046 14.9141C352.274 14.5566 352.567 14.2578 352.925 14.0176C353.288 13.7773 353.684 13.5986 354.111 13.4814C354.539 13.3643 354.964 13.3086 355.386 13.3145C355.983 13.3262 356.525 13.4492 357.012 13.6836C357.504 13.918 357.894 14.2549 358.181 14.6943C358.468 15.1338 358.603 15.667 358.585 16.2939L357.012 16.2852C357.023 15.9512 356.956 15.6641 356.81 15.4238C356.663 15.1836 356.461 14.999 356.203 14.8701C355.945 14.7354 355.652 14.665 355.324 14.6592C355.014 14.6533 354.709 14.7031 354.41 14.8086C354.111 14.9082 353.856 15.0664 353.646 15.2832C353.435 15.4941 353.306 15.7695 353.259 16.1094C353.224 16.3613 353.262 16.5693 353.373 16.7334C353.484 16.8916 353.637 17.0205 353.83 17.1201C354.029 17.2139 354.237 17.293 354.454 17.3574C354.677 17.416 354.879 17.4688 355.061 17.5156C355.541 17.6504 356.016 17.8203 356.484 18.0254C356.953 18.2305 357.334 18.5146 357.627 18.8779C357.92 19.2354 358.052 19.707 358.022 20.293C357.999 20.791 357.867 21.2246 357.627 21.5938C357.393 21.957 357.088 22.2588 356.713 22.499C356.344 22.7334 355.937 22.9062 355.491 23.0176C355.046 23.1289 354.601 23.1816 354.155 23.1758C353.54 23.1641 352.966 23.0381 352.433 22.7979C351.905 22.5518 351.483 22.2002 351.167 21.7432C350.851 21.2803 350.701 20.7178 350.719 20.0557L352.31 20.0645C352.31 20.4453 352.389 20.7676 352.547 21.0312C352.711 21.2891 352.937 21.4854 353.224 21.6201C353.511 21.7549 353.839 21.8252 354.208 21.8311C354.519 21.8369 354.835 21.7959 355.157 21.708C355.485 21.6201 355.767 21.4736 356.001 21.2686C356.241 21.0576 356.388 20.7764 356.44 20.4248ZM362.461 15.6172L361.178 23H359.587L361.239 13.4902H362.742L362.461 15.6172ZM361.723 17.8848L361.072 17.8672C361.154 17.2988 361.304 16.7422 361.521 16.1973C361.743 15.6465 362.033 15.1514 362.391 14.7119C362.754 14.2725 363.185 13.9268 363.683 13.6748C364.187 13.417 364.761 13.2969 365.405 13.3145C365.915 13.3262 366.34 13.4258 366.68 13.6133C367.025 13.7949 367.295 14.0439 367.488 14.3604C367.682 14.6768 367.811 15.043 367.875 15.459C367.939 15.8691 367.945 16.3057 367.893 16.7686L366.855 23H365.256L366.311 16.7422C366.352 16.3613 366.337 16.0186 366.267 15.7139C366.202 15.4033 366.056 15.1572 365.827 14.9756C365.604 14.7881 365.282 14.6885 364.86 14.6768C364.415 14.665 364.014 14.75 363.656 14.9316C363.299 15.1133 362.985 15.3623 362.716 15.6787C362.452 15.9893 362.235 16.3379 362.065 16.7246C361.901 17.1055 361.787 17.4922 361.723 17.8848ZM372.48 9.5L372.305 10.6162C372.24 11.0439 372.117 11.4512 371.936 11.8379C371.76 12.2246 371.537 12.585 371.268 12.9189C371.004 13.2529 370.708 13.5518 370.38 13.8154L369.457 13.1475C369.762 12.7725 370.022 12.3828 370.239 11.9785C370.462 11.5684 370.617 11.126 370.705 10.6514L370.907 9.5H372.48ZM377.561 13.4902L377.341 14.7383H372.34L372.56 13.4902H377.561ZM374.651 11.1787H376.233L374.625 20.6621C374.607 20.8672 374.613 21.0518 374.643 21.2158C374.672 21.3799 374.742 21.5117 374.854 21.6113C374.965 21.7051 375.135 21.7549 375.363 21.7607C375.492 21.7607 375.618 21.752 375.741 21.7344C375.87 21.7109 375.999 21.6904 376.128 21.6729L376.014 23.0088C375.826 23.0615 375.633 23.0996 375.434 23.123C375.24 23.1523 375.047 23.1641 374.854 23.1582C374.367 23.1523 373.986 23.0293 373.711 22.7891C373.436 22.5488 373.248 22.2383 373.148 21.8574C373.049 21.4766 373.02 21.0693 373.061 20.6357L374.651 11.1787ZM385.058 15.4766L383.757 23H382.157L383.81 13.4902H385.321L385.058 15.4766ZM384.346 17.8848L383.625 17.8672C383.707 17.2754 383.854 16.7041 384.064 16.1533C384.275 15.6025 384.557 15.1104 384.908 14.6768C385.266 14.2432 385.696 13.9033 386.2 13.6572C386.704 13.4111 387.287 13.2969 387.949 13.3145C388.441 13.3262 388.857 13.4229 389.197 13.6045C389.537 13.7803 389.81 14.0234 390.015 14.334C390.226 14.6387 390.366 14.9902 390.437 15.3887C390.513 15.7871 390.53 16.2119 390.489 16.6631L389.426 23H387.835L388.89 16.7334C388.937 16.335 388.913 15.9834 388.819 15.6787C388.731 15.374 388.564 15.1338 388.318 14.958C388.072 14.7764 387.738 14.6797 387.316 14.668C386.842 14.6562 386.429 14.7383 386.077 14.9141C385.731 15.0898 385.441 15.333 385.207 15.6436C384.979 15.9482 384.794 16.2969 384.653 16.6895C384.513 17.0762 384.41 17.4746 384.346 17.8848ZM390.489 16.9883L389.347 17.3223C389.417 16.7773 389.563 16.2617 389.786 15.7754C390.015 15.2891 390.311 14.8584 390.674 14.4834C391.037 14.1084 391.459 13.8154 391.939 13.6045C392.42 13.3936 392.95 13.2939 393.53 13.3057C394.046 13.3174 394.482 13.4141 394.84 13.5957C395.197 13.7715 395.481 14.0146 395.692 14.3252C395.909 14.6357 396.053 14.999 396.123 15.415C396.199 15.8252 396.211 16.2705 396.158 16.751L395.112 23H393.513L394.567 16.7246C394.614 16.3203 394.594 15.9658 394.506 15.6611C394.424 15.3564 394.26 15.1191 394.014 14.9492C393.768 14.7734 393.428 14.6826 392.994 14.6768C392.648 14.665 392.332 14.7178 392.045 14.835C391.758 14.9521 391.509 15.1191 391.298 15.3359C391.087 15.5469 390.911 15.793 390.771 16.0742C390.636 16.3555 390.542 16.6602 390.489 16.9883ZM403.233 21.374L404.024 16.4609C404.065 16.0977 404.03 15.7783 403.919 15.5029C403.813 15.2275 403.635 15.0137 403.383 14.8613C403.137 14.709 402.826 14.627 402.451 14.6152C402.123 14.6094 401.801 14.6621 401.484 14.7734C401.174 14.8848 400.904 15.0518 400.676 15.2744C400.447 15.4971 400.298 15.7783 400.228 16.1182L398.646 16.127C398.687 15.6523 398.836 15.2393 399.094 14.8877C399.352 14.5303 399.674 14.2344 400.061 14C400.447 13.7598 400.863 13.584 401.309 13.4727C401.754 13.3555 402.188 13.2998 402.609 13.3057C403.248 13.3174 403.802 13.4551 404.271 13.7188C404.745 13.9766 405.103 14.3398 405.343 14.8086C405.583 15.2773 405.671 15.8398 405.606 16.4961L404.877 20.9258C404.824 21.248 404.792 21.5732 404.78 21.9014C404.774 22.2236 404.812 22.54 404.895 22.8506L404.877 23L403.269 23.0088C403.204 22.7393 403.172 22.4668 403.172 22.1914C403.178 21.916 403.198 21.6436 403.233 21.374ZM404.209 17.2344L404.024 18.377L402.521 18.3682C402.205 18.3682 401.871 18.3916 401.52 18.4385C401.168 18.4854 400.834 18.5732 400.518 18.7021C400.201 18.8311 399.935 19.0186 399.718 19.2646C399.501 19.5049 399.369 19.8184 399.322 20.2051C399.287 20.5215 399.325 20.7969 399.437 21.0312C399.554 21.2598 399.729 21.4385 399.964 21.5674C400.198 21.6963 400.471 21.7637 400.781 21.7695C401.186 21.7754 401.584 21.6963 401.977 21.5322C402.369 21.3682 402.712 21.1338 403.005 20.8291C403.298 20.5244 403.5 20.1729 403.611 19.7744L404.191 20.5566C404.08 20.9434 403.898 21.3008 403.646 21.6289C403.395 21.9512 403.096 22.2295 402.75 22.4639C402.41 22.6982 402.044 22.8799 401.651 23.0088C401.259 23.1377 400.866 23.1992 400.474 23.1934C399.94 23.1816 399.457 23.0615 399.023 22.833C398.596 22.6045 398.256 22.2852 398.004 21.875C397.758 21.459 397.652 20.9756 397.688 20.4248C397.723 19.8213 397.881 19.3145 398.162 18.9043C398.443 18.4941 398.804 18.166 399.243 17.9199C399.688 17.6738 400.175 17.498 400.702 17.3926C401.229 17.2812 401.751 17.2256 402.267 17.2256L404.209 17.2344ZM412.523 13.4902L412.304 14.7383H407.303L407.522 13.4902H412.523ZM409.614 11.1787H411.196L409.588 20.6621C409.57 20.8672 409.576 21.0518 409.605 21.2158C409.635 21.3799 409.705 21.5117 409.816 21.6113C409.928 21.7051 410.098 21.7549 410.326 21.7607C410.455 21.7607 410.581 21.752 410.704 21.7344C410.833 21.7109 410.962 21.6904 411.091 21.6729L410.977 23.0088C410.789 23.0615 410.596 23.0996 410.396 23.123C410.203 23.1523 410.01 23.1641 409.816 23.1582C409.33 23.1523 408.949 23.0293 408.674 22.7891C408.398 22.5488 408.211 22.2383 408.111 21.8574C408.012 21.4766 407.982 21.0693 408.023 20.6357L409.614 11.1787ZM418.236 13.4902L418.017 14.7383H413.016L413.235 13.4902H418.236ZM415.327 11.1787H416.909L415.301 20.6621C415.283 20.8672 415.289 21.0518 415.318 21.2158C415.348 21.3799 415.418 21.5117 415.529 21.6113C415.641 21.7051 415.811 21.7549 416.039 21.7607C416.168 21.7607 416.294 21.752 416.417 21.7344C416.546 21.7109 416.675 21.6904 416.804 21.6729L416.689 23.0088C416.502 23.0615 416.309 23.0996 416.109 23.123C415.916 23.1523 415.723 23.1641 415.529 23.1582C415.043 23.1523 414.662 23.0293 414.387 22.7891C414.111 22.5488 413.924 22.2383 413.824 21.8574C413.725 21.4766 413.695 21.0693 413.736 20.6357L415.327 11.1787ZM422.446 23.1758C421.796 23.1641 421.23 23.0352 420.75 22.7891C420.275 22.5371 419.886 22.2002 419.581 21.7783C419.282 21.3506 419.068 20.8643 418.939 20.3193C418.811 19.7744 418.772 19.2031 418.825 18.6055L418.86 18.2275C418.919 17.6182 419.068 17.0205 419.309 16.4346C419.549 15.8428 419.868 15.3096 420.267 14.835C420.671 14.3604 421.146 13.9854 421.69 13.71C422.241 13.4287 422.851 13.2969 423.519 13.3145C424.181 13.3262 424.731 13.4668 425.171 13.7363C425.61 14.0059 425.953 14.3633 426.199 14.8086C426.451 15.248 426.615 15.7432 426.691 16.2939C426.768 16.8389 426.773 17.3984 426.709 17.9727L426.612 18.7021H419.713L419.924 17.375L425.188 17.3838L425.215 17.2432C425.273 16.8213 425.25 16.4141 425.145 16.0215C425.039 15.6289 424.846 15.3066 424.564 15.0547C424.289 14.7969 423.917 14.6621 423.448 14.6504C422.962 14.6328 422.54 14.7324 422.183 14.9492C421.825 15.1602 421.526 15.4473 421.286 15.8105C421.046 16.168 420.855 16.5605 420.715 16.9883C420.58 17.4102 420.486 17.8232 420.434 18.2275L420.398 18.5967C420.363 18.9717 420.375 19.3496 420.434 19.7305C420.492 20.1113 420.604 20.46 420.768 20.7764C420.938 21.0869 421.172 21.3418 421.471 21.541C421.77 21.7344 422.139 21.8369 422.578 21.8486C423.111 21.8604 423.589 21.7461 424.011 21.5059C424.438 21.2598 424.828 20.9492 425.18 20.5742L426.085 21.3477C425.81 21.752 425.481 22.0918 425.101 22.3672C424.72 22.6426 424.304 22.8477 423.853 22.9824C423.401 23.1172 422.933 23.1816 422.446 23.1758ZM430.655 15.0547L429.275 23H427.685L429.337 13.4902H430.884L430.655 15.0547ZM433.74 13.4111L433.591 14.9404C433.468 14.917 433.342 14.8965 433.213 14.8789C433.09 14.8613 432.967 14.8525 432.844 14.8525C432.463 14.8467 432.12 14.9053 431.815 15.0283C431.517 15.1455 431.25 15.3125 431.016 15.5293C430.787 15.7461 430.591 16.001 430.427 16.2939C430.269 16.5869 430.143 16.9033 430.049 17.2432L429.548 17.5068C429.612 17.0322 429.718 16.5459 429.864 16.0479C430.017 15.5498 430.225 15.0898 430.488 14.668C430.758 14.2461 431.095 13.9062 431.499 13.6484C431.909 13.3906 432.401 13.2705 432.976 13.2881C433.104 13.2881 433.23 13.2998 433.354 13.3232C433.482 13.3467 433.611 13.376 433.74 13.4111ZM432.703 22.165C432.703 21.8779 432.794 21.6377 432.976 21.4443C433.163 21.251 433.4 21.1514 433.688 21.1455C433.975 21.1396 434.209 21.2275 434.391 21.4092C434.578 21.5908 434.669 21.8252 434.663 22.1123C434.663 22.3994 434.569 22.6367 434.382 22.8242C434.2 23.0117 433.966 23.1084 433.679 23.1143C433.397 23.1201 433.163 23.0352 432.976 22.8594C432.788 22.6836 432.697 22.4521 432.703 22.165ZM439.014 9.5L438.812 10.7832L438.082 13.833H437.115L437.599 10.7744L437.801 9.5H439.014ZM441.316 9.5L441.114 10.7832L440.385 13.833H439.418L439.91 10.7129L440.104 9.5H441.316ZM169.928 50.249V51.2881H166.592V50.249H169.928ZM171.773 45.0469H173.052L176.312 53.1611L179.566 45.0469H180.852L176.805 55H175.807L171.773 45.0469ZM171.356 45.0469H172.484L172.669 51.1172V55H171.356V45.0469ZM180.134 45.0469H181.262V55H179.949V51.1172L180.134 45.0469ZM187.749 53.7354V49.9277C187.749 49.6361 187.69 49.3831 187.571 49.1689C187.457 48.9502 187.284 48.7816 187.052 48.6631C186.819 48.5446 186.532 48.4854 186.19 48.4854C185.871 48.4854 185.591 48.54 185.35 48.6494C185.113 48.7588 184.926 48.9023 184.789 49.0801C184.657 49.2578 184.591 49.4492 184.591 49.6543H183.326C183.326 49.39 183.395 49.1279 183.531 48.8682C183.668 48.6084 183.864 48.3737 184.119 48.1641C184.379 47.9499 184.689 47.7812 185.049 47.6582C185.413 47.5306 185.819 47.4668 186.266 47.4668C186.803 47.4668 187.277 47.5579 187.688 47.7402C188.102 47.9225 188.426 48.1982 188.658 48.5674C188.895 48.932 189.014 49.39 189.014 49.9414V53.3867C189.014 53.6328 189.034 53.8949 189.075 54.1729C189.121 54.4508 189.187 54.6901 189.273 54.8906V55H187.954C187.89 54.8542 187.84 54.6605 187.804 54.4189C187.767 54.1729 187.749 53.945 187.749 53.7354ZM187.968 50.5156L187.981 51.4043H186.703C186.343 51.4043 186.022 51.4339 185.739 51.4932C185.457 51.5479 185.22 51.6322 185.028 51.7461C184.837 51.86 184.691 52.0036 184.591 52.1768C184.491 52.3454 184.44 52.5436 184.44 52.7715C184.44 53.0039 184.493 53.2158 184.598 53.4072C184.702 53.5986 184.86 53.7513 185.069 53.8652C185.284 53.9746 185.546 54.0293 185.855 54.0293C186.243 54.0293 186.585 53.9473 186.881 53.7832C187.177 53.6191 187.412 53.4186 187.585 53.1816C187.763 52.9447 187.858 52.7145 187.872 52.4912L188.412 53.0996C188.38 53.291 188.294 53.5029 188.152 53.7354C188.011 53.9678 187.822 54.1911 187.585 54.4053C187.353 54.6149 187.075 54.7904 186.751 54.9316C186.432 55.0684 186.072 55.1367 185.671 55.1367C185.17 55.1367 184.73 55.0387 184.352 54.8428C183.978 54.6468 183.686 54.3848 183.477 54.0566C183.271 53.724 183.169 53.3525 183.169 52.9424C183.169 52.5459 183.246 52.1973 183.401 51.8965C183.556 51.5911 183.78 51.3382 184.071 51.1377C184.363 50.9326 184.714 50.7777 185.124 50.6729C185.534 50.568 185.992 50.5156 186.498 50.5156H187.968ZM192.268 48.7656V55H191.003V47.6035H192.233L192.268 48.7656ZM194.578 47.5625L194.571 48.7383C194.466 48.7155 194.366 48.7018 194.271 48.6973C194.179 48.6882 194.075 48.6836 193.956 48.6836C193.664 48.6836 193.407 48.7292 193.184 48.8203C192.96 48.9115 192.771 49.0391 192.616 49.2031C192.461 49.3672 192.338 49.5632 192.247 49.791C192.16 50.0143 192.104 50.2604 192.076 50.5293L191.721 50.7344C191.721 50.2878 191.764 49.8685 191.851 49.4766C191.942 49.0846 192.081 48.7383 192.268 48.4375C192.454 48.1322 192.691 47.8952 192.979 47.7266C193.27 47.5534 193.617 47.4668 194.018 47.4668C194.109 47.4668 194.214 47.4782 194.332 47.501C194.451 47.5192 194.533 47.5397 194.578 47.5625ZM198.57 54.0977C198.871 54.0977 199.149 54.0361 199.404 53.9131C199.66 53.79 199.869 53.6214 200.033 53.4072C200.197 53.1885 200.291 52.9401 200.313 52.6621H201.517C201.494 53.0996 201.346 53.5075 201.072 53.8857C200.803 54.2594 200.45 54.5625 200.013 54.7949C199.575 55.0228 199.094 55.1367 198.57 55.1367C198.014 55.1367 197.529 55.0387 197.114 54.8428C196.704 54.6468 196.362 54.3779 196.089 54.0361C195.82 53.6943 195.617 53.3024 195.48 52.8604C195.348 52.4137 195.282 51.9421 195.282 51.4453V51.1582C195.282 50.6615 195.348 50.1921 195.48 49.75C195.617 49.3034 195.82 48.9092 196.089 48.5674C196.362 48.2256 196.704 47.9567 197.114 47.7607C197.529 47.5648 198.014 47.4668 198.57 47.4668C199.149 47.4668 199.655 47.5853 200.088 47.8223C200.521 48.0547 200.86 48.3737 201.106 48.7793C201.357 49.1803 201.494 49.6361 201.517 50.1465H200.313C200.291 49.8411 200.204 49.5654 200.054 49.3193C199.908 49.0732 199.707 48.8773 199.452 48.7314C199.201 48.5811 198.908 48.5059 198.57 48.5059C198.183 48.5059 197.857 48.5833 197.593 48.7383C197.333 48.8887 197.126 49.0938 196.971 49.3535C196.82 49.6087 196.711 49.8936 196.643 50.208C196.579 50.5179 196.547 50.8346 196.547 51.1582V51.4453C196.547 51.7689 196.579 52.0879 196.643 52.4023C196.706 52.7168 196.813 53.0016 196.964 53.2568C197.119 53.512 197.326 53.7171 197.586 53.8721C197.85 54.0225 198.178 54.0977 198.57 54.0977ZM207.464 53.291V47.6035H208.735V55H207.525L207.464 53.291ZM207.703 51.7324L208.229 51.7188C208.229 52.2109 208.177 52.6667 208.072 53.0859C207.972 53.5007 207.808 53.8607 207.58 54.166C207.352 54.4714 207.054 54.7106 206.685 54.8838C206.315 55.0524 205.867 55.1367 205.338 55.1367C204.978 55.1367 204.647 55.0843 204.347 54.9795C204.05 54.8747 203.795 54.7129 203.581 54.4941C203.367 54.2754 203.201 53.9906 203.082 53.6396C202.968 53.2887 202.911 52.8672 202.911 52.375V47.6035H204.176V52.3887C204.176 52.7214 204.212 52.9971 204.285 53.2158C204.363 53.43 204.465 53.6009 204.593 53.7285C204.725 53.8516 204.871 53.9382 205.03 53.9883C205.194 54.0384 205.363 54.0635 205.536 54.0635C206.074 54.0635 206.5 53.9609 206.814 53.7559C207.129 53.5462 207.354 53.266 207.491 52.915C207.632 52.5596 207.703 52.1654 207.703 51.7324ZM214.97 53.0381C214.97 52.8558 214.929 52.6872 214.847 52.5322C214.769 52.3727 214.607 52.2292 214.361 52.1016C214.12 51.9694 213.755 51.8555 213.268 51.7598C212.857 51.6732 212.486 51.5706 212.153 51.4521C211.825 51.3337 211.545 51.1901 211.312 51.0215C211.085 50.8529 210.909 50.6546 210.786 50.4268C210.663 50.1989 210.602 49.9323 210.602 49.627C210.602 49.3353 210.665 49.0596 210.793 48.7998C210.925 48.54 211.11 48.3099 211.347 48.1094C211.588 47.9089 211.878 47.7516 212.215 47.6377C212.552 47.5238 212.928 47.4668 213.343 47.4668C213.935 47.4668 214.441 47.5716 214.86 47.7812C215.28 47.9909 215.601 48.2712 215.824 48.6221C216.048 48.9684 216.159 49.3535 216.159 49.7773H214.895C214.895 49.5723 214.833 49.374 214.71 49.1826C214.591 48.9867 214.416 48.8249 214.184 48.6973C213.956 48.5697 213.675 48.5059 213.343 48.5059C212.992 48.5059 212.707 48.5605 212.488 48.6699C212.274 48.7747 212.117 48.9092 212.017 49.0732C211.921 49.2373 211.873 49.4105 211.873 49.5928C211.873 49.7295 211.896 49.8525 211.941 49.9619C211.992 50.0667 212.078 50.1647 212.201 50.2559C212.324 50.3424 212.497 50.4245 212.721 50.502C212.944 50.5794 213.229 50.6569 213.575 50.7344C214.181 50.8711 214.68 51.0352 215.072 51.2266C215.464 51.418 215.756 51.6527 215.947 51.9307C216.139 52.2087 216.234 52.5459 216.234 52.9424C216.234 53.266 216.166 53.5622 216.029 53.8311C215.897 54.0999 215.703 54.3324 215.448 54.5283C215.198 54.7197 214.897 54.8701 214.546 54.9795C214.2 55.0843 213.81 55.1367 213.377 55.1367C212.725 55.1367 212.174 55.0205 211.723 54.7881C211.271 54.5557 210.93 54.2549 210.697 53.8857C210.465 53.5166 210.349 53.127 210.349 52.7168H211.62C211.638 53.0632 211.739 53.3389 211.921 53.5439C212.103 53.7445 212.326 53.888 212.591 53.9746C212.855 54.0566 213.117 54.0977 213.377 54.0977C213.723 54.0977 214.013 54.0521 214.245 53.9609C214.482 53.8698 214.662 53.7445 214.785 53.585C214.908 53.4255 214.97 53.2432 214.97 53.0381ZM225.244 45.9287L221.949 55H220.603L224.396 45.0469H225.265L225.244 45.9287ZM228.006 55L224.704 45.9287L224.684 45.0469H225.552L229.359 55H228.006ZM227.835 51.3154V52.3955H222.243V51.3154H227.835ZM234.944 53.291V47.6035H236.216V55H235.006L234.944 53.291ZM235.184 51.7324L235.71 51.7188C235.71 52.2109 235.658 52.6667 235.553 53.0859C235.452 53.5007 235.288 53.8607 235.061 54.166C234.833 54.4714 234.534 54.7106 234.165 54.8838C233.796 55.0524 233.347 55.1367 232.818 55.1367C232.458 55.1367 232.128 55.0843 231.827 54.9795C231.531 54.8747 231.276 54.7129 231.062 54.4941C230.847 54.2754 230.681 53.9906 230.562 53.6396C230.449 53.2887 230.392 52.8672 230.392 52.375V47.6035H231.656V52.3887C231.656 52.7214 231.693 52.9971 231.766 53.2158C231.843 53.43 231.946 53.6009 232.073 53.7285C232.205 53.8516 232.351 53.9382 232.511 53.9883C232.675 54.0384 232.843 54.0635 233.017 54.0635C233.554 54.0635 233.98 53.9609 234.295 53.7559C234.609 53.5462 234.835 53.266 234.972 52.915C235.113 52.5596 235.184 52.1654 235.184 51.7324ZM239.408 48.7656V55H238.144V47.6035H239.374L239.408 48.7656ZM241.719 47.5625L241.712 48.7383C241.607 48.7155 241.507 48.7018 241.411 48.6973C241.32 48.6882 241.215 48.6836 241.097 48.6836C240.805 48.6836 240.548 48.7292 240.324 48.8203C240.101 48.9115 239.912 49.0391 239.757 49.2031C239.602 49.3672 239.479 49.5632 239.388 49.791C239.301 50.0143 239.244 50.2604 239.217 50.5293L238.861 50.7344C238.861 50.2878 238.905 49.8685 238.991 49.4766C239.082 49.0846 239.221 48.7383 239.408 48.4375C239.595 48.1322 239.832 47.8952 240.119 47.7266C240.411 47.5534 240.757 47.4668 241.158 47.4668C241.249 47.4668 241.354 47.4782 241.473 47.501C241.591 47.5192 241.673 47.5397 241.719 47.5625ZM245.82 55.1367C245.305 55.1367 244.838 55.0501 244.419 54.877C244.004 54.6992 243.646 54.4508 243.346 54.1318C243.049 53.8128 242.822 53.4346 242.662 52.9971C242.503 52.5596 242.423 52.0811 242.423 51.5615V51.2744C242.423 50.6729 242.512 50.1374 242.689 49.668C242.867 49.194 243.109 48.793 243.414 48.4648C243.719 48.1367 244.066 47.8883 244.453 47.7197C244.84 47.5511 245.242 47.4668 245.656 47.4668C246.185 47.4668 246.641 47.5579 247.023 47.7402C247.411 47.9225 247.728 48.1777 247.974 48.5059C248.22 48.8294 248.402 49.2122 248.521 49.6543C248.639 50.0918 248.698 50.5703 248.698 51.0898V51.6572H243.175V50.625H247.434V50.5293C247.415 50.2012 247.347 49.8822 247.229 49.5723C247.115 49.2624 246.932 49.0072 246.682 48.8066C246.431 48.6061 246.089 48.5059 245.656 48.5059C245.369 48.5059 245.105 48.5674 244.863 48.6904C244.622 48.8089 244.414 48.9867 244.241 49.2236C244.068 49.4606 243.934 49.75 243.838 50.0918C243.742 50.4336 243.694 50.8278 243.694 51.2744V51.5615C243.694 51.9124 243.742 52.2428 243.838 52.5527C243.938 52.8581 244.082 53.127 244.269 53.3594C244.46 53.5918 244.69 53.7741 244.959 53.9062C245.232 54.0384 245.542 54.1045 245.889 54.1045C246.335 54.1045 246.714 54.0133 247.023 53.8311C247.333 53.6488 247.604 53.4049 247.837 53.0996L248.603 53.708C248.443 53.9495 248.24 54.1797 247.994 54.3984C247.748 54.6172 247.445 54.7949 247.085 54.9316C246.729 55.0684 246.308 55.1367 245.82 55.1367ZM251.549 44.5V55H250.277V44.5H251.549ZM254.953 47.6035V55H253.682V47.6035H254.953ZM253.586 45.6416C253.586 45.4365 253.647 45.2633 253.771 45.1221C253.898 44.9808 254.085 44.9102 254.331 44.9102C254.573 44.9102 254.757 44.9808 254.885 45.1221C255.017 45.2633 255.083 45.4365 255.083 45.6416C255.083 45.8376 255.017 46.0062 254.885 46.1475C254.757 46.2842 254.573 46.3525 254.331 46.3525C254.085 46.3525 253.898 46.2842 253.771 46.1475C253.647 46.0062 253.586 45.8376 253.586 45.6416ZM261.509 53.291V47.6035H262.78V55H261.57L261.509 53.291ZM261.748 51.7324L262.274 51.7188C262.274 52.2109 262.222 52.6667 262.117 53.0859C262.017 53.5007 261.853 53.8607 261.625 54.166C261.397 54.4714 261.099 54.7106 260.729 54.8838C260.36 55.0524 259.911 55.1367 259.383 55.1367C259.023 55.1367 258.692 55.0843 258.392 54.9795C258.095 54.8747 257.84 54.7129 257.626 54.4941C257.412 54.2754 257.245 53.9906 257.127 53.6396C257.013 53.2887 256.956 52.8672 256.956 52.375V47.6035H258.221V52.3887C258.221 52.7214 258.257 52.9971 258.33 53.2158C258.408 53.43 258.51 53.6009 258.638 53.7285C258.77 53.8516 258.916 53.9382 259.075 53.9883C259.239 54.0384 259.408 54.0635 259.581 54.0635C260.119 54.0635 260.545 53.9609 260.859 53.7559C261.174 53.5462 261.399 53.266 261.536 52.915C261.677 52.5596 261.748 52.1654 261.748 51.7324ZM269.015 53.0381C269.015 52.8558 268.974 52.6872 268.892 52.5322C268.814 52.3727 268.652 52.2292 268.406 52.1016C268.165 51.9694 267.8 51.8555 267.312 51.7598C266.902 51.6732 266.531 51.5706 266.198 51.4521C265.87 51.3337 265.59 51.1901 265.357 51.0215C265.13 50.8529 264.954 50.6546 264.831 50.4268C264.708 50.1989 264.646 49.9323 264.646 49.627C264.646 49.3353 264.71 49.0596 264.838 48.7998C264.97 48.54 265.155 48.3099 265.392 48.1094C265.633 47.9089 265.923 47.7516 266.26 47.6377C266.597 47.5238 266.973 47.4668 267.388 47.4668C267.98 47.4668 268.486 47.5716 268.905 47.7812C269.325 47.9909 269.646 48.2712 269.869 48.6221C270.092 48.9684 270.204 49.3535 270.204 49.7773H268.939C268.939 49.5723 268.878 49.374 268.755 49.1826C268.636 48.9867 268.461 48.8249 268.229 48.6973C268.001 48.5697 267.72 48.5059 267.388 48.5059C267.037 48.5059 266.752 48.5605 266.533 48.6699C266.319 48.7747 266.162 48.9092 266.062 49.0732C265.966 49.2373 265.918 49.4105 265.918 49.5928C265.918 49.7295 265.941 49.8525 265.986 49.9619C266.036 50.0667 266.123 50.1647 266.246 50.2559C266.369 50.3424 266.542 50.4245 266.766 50.502C266.989 50.5794 267.274 50.6569 267.62 50.7344C268.226 50.8711 268.725 51.0352 269.117 51.2266C269.509 51.418 269.801 51.6527 269.992 51.9307C270.184 52.2087 270.279 52.5459 270.279 52.9424C270.279 53.266 270.211 53.5622 270.074 53.8311C269.942 54.0999 269.748 54.3324 269.493 54.5283C269.243 54.7197 268.942 54.8701 268.591 54.9795C268.244 55.0843 267.855 55.1367 267.422 55.1367C266.77 55.1367 266.219 55.0205 265.768 54.7881C265.316 54.5557 264.975 54.2549 264.742 53.8857C264.51 53.5166 264.394 53.127 264.394 52.7168H265.665C265.683 53.0632 265.784 53.3389 265.966 53.5439C266.148 53.7445 266.371 53.888 266.636 53.9746C266.9 54.0566 267.162 54.0977 267.422 54.0977C267.768 54.0977 268.058 54.0521 268.29 53.9609C268.527 53.8698 268.707 53.7445 268.83 53.585C268.953 53.4255 269.015 53.2432 269.015 53.0381ZM271.961 54.3301C271.961 54.1159 272.027 53.9359 272.159 53.79C272.296 53.6396 272.492 53.5645 272.747 53.5645C273.002 53.5645 273.196 53.6396 273.328 53.79C273.465 53.9359 273.533 54.1159 273.533 54.3301C273.533 54.5397 273.465 54.7174 273.328 54.8633C273.196 55.0091 273.002 55.082 272.747 55.082C272.492 55.082 272.296 55.0091 272.159 54.8633C272.027 54.7174 271.961 54.5397 271.961 54.3301Z" fill="white"/>
</svg>
