<svg width="139" height="69" viewBox="0 0 139 69" fill="none" xmlns="http://www.w3.org/2000/svg">
<path fill-rule="evenodd" clip-rule="evenodd" d="M28.6628 21.4753C29.5049 20.6332 30.8701 20.6332 31.7122 21.4753L43.2122 32.9753C44.0543 33.8174 44.0543 35.1826 43.2122 36.0247L31.7122 47.5247C30.8701 48.3668 29.5049 48.3668 28.6628 47.5247C27.8207 46.6826 27.8207 45.3174 28.6628 44.4753L38.6381 34.5L28.6628 24.5247C27.8207 23.6826 27.8207 22.3174 28.6628 21.4753Z" fill="white"/>
<path fill-rule="evenodd" clip-rule="evenodd" d="M38.6628 21.4753C39.5049 20.6332 40.8701 20.6332 41.7122 21.4753L53.2122 32.9753C54.0543 33.8174 54.0543 35.1826 53.2122 36.0247L41.7122 47.5247C40.8701 48.3668 39.5049 48.3668 38.6628 47.5247C37.8207 46.6826 37.8207 45.3174 38.6628 44.4753L48.6381 34.5L38.6628 24.5247C37.8207 23.6826 37.8207 22.3174 38.6628 21.4753Z" fill="white"/>
<path fill-rule="evenodd" clip-rule="evenodd" d="M48.6628 21.4753C49.5049 20.6332 50.8701 20.6332 51.7122 21.4753L63.2122 32.9753C64.0543 33.8174 64.0543 35.1826 63.2122 36.0247L51.7122 47.5247C50.8701 48.3668 49.5049 48.3668 48.6628 47.5247C47.8207 46.6826 47.8207 45.3174 48.6628 44.4753L58.6381 34.5L48.6628 24.5247C47.8207 23.6826 47.8207 22.3174 48.6628 21.4753Z" fill="white"/>
<path fill-rule="evenodd" clip-rule="evenodd" d="M58.6628 21.4753C59.5049 20.6332 60.8701 20.6332 61.7122 21.4753L73.2122 32.9753C74.0543 33.8174 74.0543 35.1826 73.2122 36.0247L61.7122 47.5247C60.8701 48.3668 59.5049 48.3668 58.6628 47.5247C57.8207 46.6826 57.8207 45.3174 58.6628 44.4753L68.6381 34.5L58.6628 24.5247C57.8207 23.6826 57.8207 22.3174 58.6628 21.4753Z" fill="white"/>
<path fill-rule="evenodd" clip-rule="evenodd" d="M68.6628 21.4753C69.5049 20.6332 70.8701 20.6332 71.7122 21.4753L83.2122 32.9753C84.0543 33.8174 84.0543 35.1826 83.2122 36.0247L71.7122 47.5247C70.8701 48.3668 69.5049 48.3668 68.6628 47.5247C67.8207 46.6826 67.8207 45.3174 68.6628 44.4753L78.6381 34.5L68.6628 24.5247C67.8207 23.6826 67.8207 22.3174 68.6628 21.4753Z" fill="white"/>
<path fill-rule="evenodd" clip-rule="evenodd" d="M78.6628 21.4753C79.5049 20.6332 80.8701 20.6332 81.7122 21.4753L93.2122 32.9753C94.0543 33.8174 94.0543 35.1826 93.2122 36.0247L81.7122 47.5247C80.8701 48.3668 79.5049 48.3668 78.6628 47.5247C77.8207 46.6826 77.8207 45.3174 78.6628 44.4753L88.6381 34.5L78.6628 24.5247C77.8207 23.6826 77.8207 22.3174 78.6628 21.4753Z" fill="white"/>
<path fill-rule="evenodd" clip-rule="evenodd" d="M88.6628 21.4753C89.5049 20.6332 90.8701 20.6332 91.7122 21.4753L103.212 32.9753C104.054 33.8174 104.054 35.1826 103.212 36.0247L91.7122 47.5247C90.8701 48.3668 89.5049 48.3668 88.6628 47.5247C87.8207 46.6826 87.8207 45.3174 88.6628 44.4753L98.6381 34.5L88.6628 24.5247C87.8207 23.6826 87.8207 22.3174 88.6628 21.4753Z" fill="white"/>
<path fill-rule="evenodd" clip-rule="evenodd" d="M98.6628 21.4753C99.5049 20.6332 100.87 20.6332 101.712 21.4753L113.212 32.9753C114.054 33.8174 114.054 35.1826 113.212 36.0247L101.712 47.5247C100.87 48.3668 99.5049 48.3668 98.6628 47.5247C97.8207 46.6826 97.8207 45.3174 98.6628 44.4753L108.638 34.5L98.6628 24.5247C97.8207 23.6826 97.8207 22.3174 98.6628 21.4753Z" fill="white"/>
</svg>
