<svg width="35" height="35" viewBox="0 0 84 84" fill="none" xmlns="http://www.w3.org/2000/svg">
<path d="M57.4583 44.9583C57.8376 44.562 58.135 44.0947 58.3333 43.5833C58.75 42.5689 58.75 41.431 58.3333 40.4166C58.135 39.9051 57.8376 39.4379 57.4583 39.0416L44.9583 26.5416C44.1737 25.757 43.1095 25.3162 41.9999 25.3162C40.8904 25.3162 39.8262 25.757 39.0416 26.5416C38.257 27.3262 37.8162 28.3903 37.8162 29.4999C37.8162 30.6095 38.257 31.6737 39.0416 32.4583L44.4583 37.8333H29.4999C28.3949 37.8333 27.3351 38.2723 26.5537 39.0537C25.7723 39.8351 25.3333 40.8949 25.3333 41.9999C25.3333 43.105 25.7723 44.1648 26.5537 44.9462C27.3351 45.7276 28.3949 46.1666 29.4999 46.1666H44.4583L39.0416 51.5416C38.6511 51.929 38.3411 52.3898 38.1296 52.8975C37.918 53.4053 37.8091 53.9499 37.8091 54.4999C37.8091 55.05 37.918 55.5946 38.1296 56.1023C38.3411 56.6101 38.6511 57.0709 39.0416 57.4583C39.429 57.8488 39.8898 58.1588 40.3975 58.3703C40.9053 58.5819 41.4499 58.6908 41.9999 58.6908C42.55 58.6908 43.0946 58.5819 43.6023 58.3703C44.1101 58.1588 44.5709 57.8488 44.9583 57.4583L57.4583 44.9583ZM83.6666 41.9999C83.6666 33.7591 81.2229 25.7032 76.6445 18.8512C72.0661 11.9991 65.5587 6.65861 57.9451 3.50496C50.3315 0.351305 41.9537 -0.473834 33.8712 1.13388C25.7886 2.7416 18.3643 6.70997 12.5372 12.5372C6.70997 18.3643 2.7416 25.7886 1.13388 33.8712C-0.473834 41.9537 0.351305 50.3315 3.50496 57.9451C6.65861 65.5587 11.9991 72.0661 18.8512 76.6445C25.7032 81.2229 33.7591 83.6666 41.9999 83.6666C53.0506 83.6666 63.6487 79.2767 71.4627 71.4627C79.2767 63.6487 83.6666 53.0506 83.6666 41.9999V41.9999ZM8.6666 41.9999C8.6666 35.4072 10.6216 28.9626 14.2843 23.4809C17.947 17.9993 23.153 13.7269 29.2438 11.204C35.3347 8.68103 42.0369 8.02092 48.503 9.3071C54.969 10.5933 60.9084 13.768 65.5702 18.4297C70.2319 23.0915 73.4066 29.0309 74.6928 35.4969C75.979 41.963 75.3188 48.6652 72.7959 54.7561C70.273 60.8469 66.0006 66.0529 60.5189 69.7156C55.0373 73.3783 48.5927 75.3333 41.9999 75.3333C33.1594 75.3333 24.6809 71.8214 18.4297 65.5702C12.1785 59.319 8.6666 50.8405 8.6666 41.9999V41.9999Z" fill="white"/>
</svg>
