<svg width="1915" height="563" viewBox="0 0 1915 563" fill="none" xmlns="http://www.w3.org/2000/svg">
<rect x="918.108" y="26.5" width="37.5726" height="16.3043" stroke="white" stroke-width="5"/>
<rect x="971.324" y="26.5" width="37.5726" height="16.3043" stroke="white" stroke-width="5"/>
<rect x="943.484" y="33.3841" width="40.0364" height="2.53623" stroke="white" stroke-width="2.53623"/>
<rect x="996.7" y="33.3841" width="40.0364" height="2.53623" stroke="white" stroke-width="2.53623"/>
<path d="M891.5 34.616H929.073V34.6884H891.5V34.616Z" stroke="white" stroke-width="5"/>
<rect x="1795.1" y="26.5" width="37.5726" height="16.3043" stroke="white" stroke-width="5"/>
<rect x="1848.32" y="26.5" width="37.5726" height="16.3043" stroke="white" stroke-width="5"/>
<rect x="1820.48" y="33.3841" width="40.0364" height="2.53623" stroke="white" stroke-width="2.53623"/>
<rect x="1873.7" y="33.3841" width="40.0364" height="2.53623" stroke="white" stroke-width="2.53623"/>
<path d="M1768.5 34.616H1806.07V34.6884H1768.5V34.616Z" stroke="white" stroke-width="5"/>
<rect x="1503.5" y="189.896" width="37.5726" height="16.3043" transform="rotate(-90 1503.5 189.896)" stroke="white" stroke-width="5"/>
<rect x="1503.5" y="136.68" width="37.5726" height="16.3043" transform="rotate(-90 1503.5 136.68)" stroke="white" stroke-width="5"/>
<rect x="1510.38" y="164.52" width="40.0364" height="2.53623" transform="rotate(-90 1510.38 164.52)" stroke="white" stroke-width="2.53623"/>
<rect x="1510.38" y="111.304" width="40.0364" height="2.53623" transform="rotate(-90 1510.38 111.304)" stroke="white" stroke-width="2.53623"/>
<path d="M1511.62 216.504V178.931H1511.69V216.504H1511.62Z" stroke="white" stroke-width="5"/>
<rect x="1503.5" y="295.896" width="37.5726" height="16.3043" transform="rotate(-90 1503.5 295.896)" stroke="white" stroke-width="5"/>
<rect x="1503.5" y="242.68" width="37.5726" height="16.3043" transform="rotate(-90 1503.5 242.68)" stroke="white" stroke-width="5"/>
<rect x="1510.38" y="270.52" width="40.0364" height="2.53623" transform="rotate(-90 1510.38 270.52)" stroke="white" stroke-width="2.53623"/>
<rect x="1510.38" y="217.305" width="40.0364" height="2.53623" transform="rotate(-90 1510.38 217.305)" stroke="white" stroke-width="2.53623"/>
<path d="M1511.62 322.504V284.932H1511.69V322.504H1511.62Z" stroke="white" stroke-width="5"/>
<rect x="1040" y="2" width="69.4378" height="66" stroke="white" stroke-width="4"/>
<rect x="1136.29" y="26.5" width="37.5726" height="16.3043" stroke="white" stroke-width="5"/>
<rect x="1189.51" y="26.5" width="37.5726" height="16.3043" stroke="white" stroke-width="5"/>
<rect x="1161.67" y="33.3841" width="40.0364" height="2.53623" stroke="white" stroke-width="2.53623"/>
<rect x="1214.88" y="33.3841" width="40.0364" height="2.53623" stroke="white" stroke-width="2.53623"/>
<rect x="1108.45" y="33.3841" width="40.0364" height="2.53623" stroke="white" stroke-width="2.53623"/>
<rect x="1258.19" y="2" width="69.4378" height="66" stroke="white" stroke-width="4"/>
<rect x="1354.48" y="26.5" width="37.5726" height="16.3043" stroke="white" stroke-width="5"/>
<rect x="1407.69" y="26.5" width="37.5726" height="16.3043" stroke="white" stroke-width="5"/>
<rect x="1379.85" y="33.3841" width="40.0364" height="2.53623" stroke="white" stroke-width="2.53623"/>
<rect x="1433.07" y="33.3841" width="40.0364" height="2.53623" stroke="white" stroke-width="2.53623"/>
<rect x="1326.64" y="33.3841" width="40.0364" height="2.53623" stroke="white" stroke-width="2.53623"/>
<rect x="1476.37" y="2" width="69.4378" height="66" fill="white" stroke="white" stroke-width="4"/>
<path fill-rule="evenodd" clip-rule="evenodd" d="M1511.15 9.5779L1495.83 33.9579C1495.65 34.1071 1495.53 34.31 1495.47 34.5314L1495 35.2817L1512.14 45.2024L1529.29 35.2817L1513.14 9.58029C1513.09 9.46399 1513.02 9.35788 1512.94 9.26617L1512.14 8L1511.35 9.2681C1511.26 9.35874 1511.2 9.46335 1511.15 9.5779ZM1511.07 13.7323L1499.47 32.1894L1511.07 26.6685V13.7323ZM1511.07 29.0418L1498.68 34.9383L1511.07 42.1067V29.0418ZM1513.21 42.1064V29.0667L1525.39 35.0579L1513.21 42.1064ZM1513.21 26.6786V13.7331L1524.99 32.4701L1513.21 26.6786ZM1512.02 48.1065L1495 38.2579L1512.14 61.5714L1529.29 38.2579L1512.27 48.1064C1512.23 48.1017 1512.19 48.0993 1512.14 48.0993C1512.1 48.0993 1512.06 48.1018 1512.02 48.1065ZM1511.07 50.0345L1502.8 45.2471L1511.07 56.4974V50.0345ZM1513.21 56.4967L1521.49 45.2471L1513.21 50.0342V56.4967Z" fill="#1D90FF"/>
<rect x="1572.66" y="26.5" width="37.5726" height="16.3043" stroke="white" stroke-width="5"/>
<rect x="1625.88" y="26.5" width="37.5726" height="16.3043" stroke="white" stroke-width="5"/>
<rect x="1598.04" y="33.3841" width="40.0364" height="2.53623" stroke="white" stroke-width="2.53623"/>
<rect x="1651.25" y="33.3841" width="40.0364" height="2.53623" stroke="white" stroke-width="2.53623"/>
<rect x="1544.82" y="33.3841" width="40.0364" height="2.53623" stroke="white" stroke-width="2.53623"/>
<rect x="1694.56" y="2" width="69.4378" height="66" stroke="white" stroke-width="4"/>
<rect x="2" y="2" width="65" height="66" stroke="white" stroke-width="4"/>
<rect x="92.5" y="26.5" width="35" height="16.3043" stroke="white" stroke-width="5"/>
<rect x="142.5" y="26.5" width="35" height="16.3043" stroke="white" stroke-width="5"/>
<rect x="116.268" y="33.3841" width="37.4638" height="2.53623" stroke="white" stroke-width="2.53623"/>
<rect x="166.268" y="33.3841" width="37.4638" height="2.53623" stroke="white" stroke-width="2.53623"/>
<rect x="66.2681" y="33.3841" width="37.4638" height="2.53623" stroke="white" stroke-width="2.53623"/>
<rect x="207" y="2" width="65" height="66" stroke="white" stroke-width="4"/>
<rect x="297.5" y="26.5" width="35" height="16.3043" stroke="white" stroke-width="5"/>
<rect x="347.5" y="26.5" width="35" height="16.3043" stroke="white" stroke-width="5"/>
<rect x="321.268" y="33.3841" width="37.4638" height="2.53623" stroke="white" stroke-width="2.53623"/>
<rect x="371.268" y="33.3841" width="37.4638" height="2.53623" stroke="white" stroke-width="2.53623"/>
<rect x="271.268" y="33.3841" width="37.4638" height="2.53623" stroke="white" stroke-width="2.53623"/>
<rect x="412" y="2" width="65" height="66" stroke="white" stroke-width="4"/>
<rect x="502.5" y="26.5" width="35" height="16.3043" stroke="white" stroke-width="5"/>
<rect x="552.5" y="26.5" width="35" height="16.3043" stroke="white" stroke-width="5"/>
<rect x="526.268" y="33.3841" width="37.4638" height="2.53623" stroke="white" stroke-width="2.53623"/>
<rect x="576.268" y="33.3841" width="37.4638" height="2.53623" stroke="white" stroke-width="2.53623"/>
<rect x="476.268" y="33.3841" width="37.4638" height="2.53623" stroke="white" stroke-width="2.53623"/>
<rect x="617" y="2" width="65" height="66" stroke="white" stroke-width="4"/>
<rect x="707.5" y="26.5" width="35" height="16.3043" stroke="white" stroke-width="5"/>
<rect x="757.5" y="26.5" width="35" height="16.3043" stroke="white" stroke-width="5"/>
<rect x="731.268" y="33.3841" width="37.4638" height="2.53623" stroke="white" stroke-width="2.53623"/>
<rect x="781.268" y="33.3841" width="37.4638" height="2.53623" stroke="white" stroke-width="2.53623"/>
<rect x="681.268" y="33.3841" width="37.4638" height="2.53623" stroke="white" stroke-width="2.53623"/>
<rect x="822" y="2" width="65" height="66" stroke="white" stroke-width="4"/>
<rect x="1344" y="327" width="334.489" height="234" stroke="white" stroke-width="4"/>
<rect x="1344" y="327" width="334.489" height="22.4444" stroke="white" stroke-width="4"/>
<circle cx="1353.37" cy="337.958" r="3.96667" fill="white"/>
<circle cx="1364.48" cy="337.958" r="3.96667" fill="white"/>
<circle cx="1375.58" cy="337.958" r="3.96667" fill="white"/>
<path d="M1380.63 444H1388.33L1384.23 435.446L1380.63 444ZM1384.25 423.184L1364.66 430.077L1367.76 455.74L1384.27 464.816L1400.87 455.618L1403.96 429.955L1384.25 423.184ZM1379.04 447.636L1376.64 453.644L1372.15 453.663L1384.25 426.862L1384.22 426.811H1384.2L1384.2 426.767L1384.22 426.811H1384.27L1384.31 426.721V426.811H1384.27L1384.25 426.862L1396.87 453.775L1392.55 453.68L1389.89 447.538L1384.21 447.565" fill="white"/>
<g clip-path="url(#clip0_64_289)">
<path d="M1427.28 443.97V464.63H1468.6V423.31H1427.28V443.97ZM1460.58 442.317C1461.57 442.547 1462.47 443.065 1463.17 443.805C1463.55 444.204 1463.88 444.648 1464.16 445.127C1464.16 445.18 1462.37 446.387 1461.28 447.061C1461.24 447.087 1461.09 446.915 1460.91 446.654C1460.71 446.312 1460.43 446.025 1460.09 445.821C1459.75 445.617 1459.37 445.502 1458.97 445.487C1457.72 445.402 1456.91 446.059 1456.92 447.14C1456.91 447.409 1456.97 447.676 1457.1 447.914C1457.37 448.486 1457.88 448.826 1459.49 449.52C1462.45 450.793 1463.71 451.632 1464.5 452.826C1465.38 454.148 1465.57 456.283 1464.98 457.863C1464.32 459.582 1462.7 460.749 1460.41 461.136C1459.36 461.256 1458.3 461.245 1457.26 461.103C1455.67 460.845 1454.2 460.086 1453.07 458.938C1452.69 458.518 1451.95 457.424 1451.99 457.344C1452.11 457.255 1452.24 457.174 1452.37 457.103L1453.89 456.231L1455.08 455.543L1455.33 455.91C1455.75 456.508 1456.28 457.018 1456.89 457.411C1458.22 458.105 1460.02 458.009 1460.91 457.206C1461.21 456.911 1461.4 456.521 1461.44 456.103C1461.48 455.685 1461.38 455.266 1461.14 454.918C1460.81 454.459 1460.15 454.072 1458.3 453.265C1456.17 452.346 1455.25 451.778 1454.41 450.872C1453.89 450.275 1453.5 449.569 1453.28 448.806C1453.11 447.934 1453.09 447.041 1453.21 446.162C1453.65 444.102 1455.19 442.665 1457.44 442.238C1458.49 442.109 1459.54 442.138 1460.58 442.324V442.317ZM1450.88 444.05V445.742H1445.52V461.024H1441.71V445.739H1436.33V444.086C1436.32 443.517 1436.33 442.948 1436.38 442.38C1436.4 442.354 1439.69 442.341 1443.65 442.347H1450.86L1450.88 444.05Z" fill="white"/>
</g>
<g clip-path="url(#clip1_64_289)">
<path d="M1496.56 431.241L1499.23 460.964L1511.23 464.164L1523.26 461.024L1525.93 431.241H1496.56ZM1520.37 438.007L1520.2 439.936L1520.13 440.827H1506.06L1506.39 444.793H1519.8L1519.71 445.531L1518.84 455.087L1518.78 455.645L1511.24 457.673V457.671L1511.24 457.675L1503.71 455.72L1503.2 450.082H1506.89L1507.15 452.879L1511.24 453.916L1511.24 453.839V453.843L1515.35 452.967L1515.78 448.429H1503.03L1502.13 438.236L1502.04 437.191H1520.46L1520.37 438.007V438.007ZM1499.33 422.853H1501.19V424.69H1502.89V422.853H1504.75V428.414H1502.89V426.552H1501.19V428.414H1499.33V422.853ZM1507.19 424.698H1505.56V422.853H1510.69V424.698H1509.05V428.414H1507.19V424.698V424.698ZM1511.5 422.853H1513.44L1514.63 424.807L1515.82 422.853H1517.76V428.414H1515.91V425.658L1514.63 427.635H1514.6L1513.32 425.658V428.414H1511.5V422.853H1511.5ZM1518.69 422.853H1520.55V426.576H1523.16V428.414H1518.69V422.853V422.853Z" fill="white"/>
</g>
<g clip-path="url(#clip2_64_289)">
<path d="M1574.71 431.307C1569.07 431.307 1565.55 434.127 1564.13 439.769C1566.25 436.949 1568.72 435.891 1571.54 436.596C1573.15 436.997 1574.3 438.165 1575.57 439.459C1577.65 441.563 1580.05 444 1585.29 444C1590.93 444 1594.46 441.18 1595.87 435.537C1593.75 438.359 1591.28 439.416 1588.46 438.711C1586.85 438.309 1585.7 437.142 1584.43 435.848C1582.36 433.744 1579.96 431.307 1574.71 431.307V431.307ZM1564.13 444C1558.49 444 1554.97 446.82 1553.56 452.463C1555.67 449.641 1558.14 448.584 1560.96 449.289C1562.57 449.69 1563.72 450.858 1565 452.151C1567.07 454.256 1569.47 456.693 1574.71 456.693C1580.35 456.693 1583.88 453.873 1585.29 448.231C1583.17 451.051 1580.71 452.109 1577.89 451.404C1576.28 451.002 1575.13 449.835 1573.85 448.541C1571.78 446.437 1569.38 444 1564.13 444Z" fill="white"/>
</g>
<path d="M1623.52 430.381L1626.19 460.294L1638.16 463.616L1650.16 460.29L1652.83 430.381H1623.52ZM1646.4 447.07L1645.63 454.307L1645.63 454.927L1638.18 457.007V457.008L1638.17 457.013L1630.66 454.955L1630.15 449.223H1633.84L1634.1 452.12L1638.18 453.21L1638.18 453.215V453.204L1642.27 452.049L1642.71 447.239H1634.14L1634.07 446.461L1633.9 444.594L1633.82 443.603H1643.03L1643.37 439.967H1629.33L1629.25 439.111L1629.09 437.118L1629 436.001H1647.38L1647.29 437.103L1646.4 447.07ZM1646.44 426.538L1644.08 423.77H1646.44V422.117H1641.15V423.559L1643.93 426.084H1641.15V427.737H1646.44V426.538ZM1640.16 426.538L1637.91 423.77H1640.16V422.117H1635.2V423.559L1637.76 426.084H1635.2V427.737H1640.16V426.538ZM1634.21 426.084H1631.57V423.77H1634.21V422.117H1629.58V427.737H1634.21V426.084Z" fill="white"/>
<defs>
<clipPath id="clip0_64_289">
<rect width="42.3111" height="42.3111" fill="white" transform="translate(1426.62 422.844)"/>
</clipPath>
<clipPath id="clip1_64_289">
<rect width="42.3111" height="42.3111" fill="white" transform="translate(1490.09 422.316)"/>
</clipPath>
<clipPath id="clip2_64_289">
<rect width="42.3111" height="42.3111" fill="white" transform="translate(1553.56 422.844)"/>
</clipPath>
</defs>
</svg>
