<svg width="1915" height="70" viewBox="0 0 1915 70" fill="none" xmlns="http://www.w3.org/2000/svg">
<rect x="918.108" y="26.5" width="37.5726" height="16.3043" stroke="white" stroke-width="5"/>
<rect x="971.324" y="26.5" width="37.5726" height="16.3043" stroke="white" stroke-width="5"/>
<rect x="943.484" y="33.3841" width="40.0364" height="2.53623" stroke="white" stroke-width="2.53623"/>
<rect x="996.7" y="33.3841" width="40.0364" height="2.53623" stroke="white" stroke-width="2.53623"/>
<path d="M891.5 34.616H929.073V34.6884H891.5V34.616Z" stroke="white" stroke-width="5"/>
<rect x="1795.1" y="26.5" width="37.5726" height="16.3043" stroke="white" stroke-width="5"/>
<rect x="1848.32" y="26.5" width="37.5726" height="16.3043" stroke="white" stroke-width="5"/>
<rect x="1820.48" y="33.3841" width="40.0364" height="2.53623" stroke="white" stroke-width="2.53623"/>
<rect x="1873.7" y="33.3841" width="40.0364" height="2.53623" stroke="white" stroke-width="2.53623"/>
<path d="M1768.5 34.616H1806.07V34.6884H1768.5V34.616Z" stroke="white" stroke-width="5"/>
<rect x="1040" y="2" width="69.4378" height="66" stroke="white" stroke-width="4"/>
<rect x="1136.29" y="26.5" width="37.5726" height="16.3043" stroke="white" stroke-width="5"/>
<rect x="1189.51" y="26.5" width="37.5726" height="16.3043" stroke="white" stroke-width="5"/>
<rect x="1161.67" y="33.3841" width="40.0364" height="2.53623" stroke="white" stroke-width="2.53623"/>
<rect x="1214.88" y="33.3841" width="40.0364" height="2.53623" stroke="white" stroke-width="2.53623"/>
<rect x="1108.45" y="33.3841" width="40.0364" height="2.53623" stroke="white" stroke-width="2.53623"/>
<rect x="1258.19" y="2" width="69.4378" height="66" stroke="white" stroke-width="4"/>
<rect x="1354.48" y="26.5" width="37.5726" height="16.3043" stroke="white" stroke-width="5"/>
<rect x="1407.69" y="26.5" width="37.5726" height="16.3043" stroke="white" stroke-width="5"/>
<rect x="1379.85" y="33.3841" width="40.0364" height="2.53623" stroke="white" stroke-width="2.53623"/>
<rect x="1433.07" y="33.3841" width="40.0364" height="2.53623" stroke="white" stroke-width="2.53623"/>
<rect x="1326.64" y="33.3841" width="40.0364" height="2.53623" stroke="white" stroke-width="2.53623"/>
<rect x="1476.37" y="2" width="69.4378" height="66" fill="white" stroke="white" stroke-width="4"/>
<path fill-rule="evenodd" clip-rule="evenodd" d="M1511.15 9.5779L1495.83 33.9579C1495.65 34.1071 1495.53 34.31 1495.47 34.5314L1495 35.2817L1512.14 45.2024L1529.29 35.2817L1513.14 9.58029C1513.09 9.46399 1513.02 9.35788 1512.94 9.26617L1512.14 8L1511.35 9.2681C1511.26 9.35874 1511.2 9.46335 1511.15 9.5779ZM1511.07 13.7323L1499.47 32.1894L1511.07 26.6685V13.7323ZM1511.07 29.0418L1498.68 34.9383L1511.07 42.1067V29.0418ZM1513.21 42.1064V29.0667L1525.39 35.0579L1513.21 42.1064ZM1513.21 26.6786V13.7331L1524.99 32.4701L1513.21 26.6786ZM1512.02 48.1065L1495 38.2579L1512.14 61.5714L1529.29 38.2579L1512.27 48.1064C1512.23 48.1017 1512.19 48.0993 1512.14 48.0993C1512.1 48.0993 1512.06 48.1018 1512.02 48.1065ZM1511.07 50.0345L1502.8 45.2471L1511.07 56.4974V50.0345ZM1513.21 56.4967L1521.49 45.2471L1513.21 50.0342V56.4967Z" fill="#1D90FF"/>
<rect x="1572.66" y="26.5" width="37.5726" height="16.3043" stroke="white" stroke-width="5"/>
<rect x="1625.88" y="26.5" width="37.5726" height="16.3043" stroke="white" stroke-width="5"/>
<rect x="1598.04" y="33.3841" width="40.0364" height="2.53623" stroke="white" stroke-width="2.53623"/>
<rect x="1651.25" y="33.3841" width="40.0364" height="2.53623" stroke="white" stroke-width="2.53623"/>
<rect x="1544.82" y="33.3841" width="40.0364" height="2.53623" stroke="white" stroke-width="2.53623"/>
<rect x="1694.56" y="2" width="69.4378" height="66" stroke="white" stroke-width="4"/>
<rect x="2" y="2" width="65" height="66" stroke="white" stroke-width="4"/>
<rect x="92.5" y="26.5" width="35" height="16.3043" stroke="white" stroke-width="5"/>
<rect x="142.5" y="26.5" width="35" height="16.3043" stroke="white" stroke-width="5"/>
<rect x="116.268" y="33.3841" width="37.4638" height="2.53623" stroke="white" stroke-width="2.53623"/>
<rect x="166.268" y="33.3841" width="37.4638" height="2.53623" stroke="white" stroke-width="2.53623"/>
<rect x="66.2681" y="33.3841" width="37.4638" height="2.53623" stroke="white" stroke-width="2.53623"/>
<rect x="207" y="2" width="65" height="66" stroke="white" stroke-width="4"/>
<rect x="297.5" y="26.5" width="35" height="16.3043" stroke="white" stroke-width="5"/>
<rect x="347.5" y="26.5" width="35" height="16.3043" stroke="white" stroke-width="5"/>
<rect x="321.268" y="33.3841" width="37.4638" height="2.53623" stroke="white" stroke-width="2.53623"/>
<rect x="371.268" y="33.3841" width="37.4638" height="2.53623" stroke="white" stroke-width="2.53623"/>
<rect x="271.268" y="33.3841" width="37.4638" height="2.53623" stroke="white" stroke-width="2.53623"/>
<rect x="412" y="2" width="65" height="66" stroke="white" stroke-width="4"/>
<rect x="502.5" y="26.5" width="35" height="16.3043" stroke="white" stroke-width="5"/>
<rect x="552.5" y="26.5" width="35" height="16.3043" stroke="white" stroke-width="5"/>
<rect x="526.268" y="33.3841" width="37.4638" height="2.53623" stroke="white" stroke-width="2.53623"/>
<rect x="576.268" y="33.3841" width="37.4638" height="2.53623" stroke="white" stroke-width="2.53623"/>
<rect x="476.268" y="33.3841" width="37.4638" height="2.53623" stroke="white" stroke-width="2.53623"/>
<rect x="617" y="2" width="65" height="66" stroke="white" stroke-width="4"/>
<rect x="707.5" y="26.5" width="35" height="16.3043" stroke="white" stroke-width="5"/>
<rect x="757.5" y="26.5" width="35" height="16.3043" stroke="white" stroke-width="5"/>
<rect x="731.268" y="33.3841" width="37.4638" height="2.53623" stroke="white" stroke-width="2.53623"/>
<rect x="781.268" y="33.3841" width="37.4638" height="2.53623" stroke="white" stroke-width="2.53623"/>
<rect x="681.268" y="33.3841" width="37.4638" height="2.53623" stroke="white" stroke-width="2.53623"/>
<rect x="822" y="2" width="65" height="66" stroke="white" stroke-width="4"/>
</svg>
