<svg width="350" height="247" viewBox="0 0 350 247" fill="none" xmlns="http://www.w3.org/2000/svg">
<rect x="2" y="2" width="346" height="242.094" stroke="white" stroke-width="4"/>
<rect x="2" y="2" width="346" height="23.3437" stroke="white" stroke-width="4"/>
<circle cx="11.7578" cy="13.3984" r="4.10156" fill="white"/>
<circle cx="23.2422" cy="13.3984" r="4.10156" fill="white"/>
<circle cx="34.7266" cy="13.3984" r="4.10156" fill="white"/>
<g clip-path="url(#clip0_62_235)">
<path d="M39.9442 123.047H47.9012L43.6715 114.202L39.9442 123.047ZM43.6855 101.522L23.4316 108.65L26.6319 135.186L43.707 144.571L60.87 135.06L64.0692 108.524L43.6855 101.522ZM38.2967 126.807L35.8136 133.019L31.1716 133.038L43.6841 105.326L43.6602 105.273H43.6383L43.6387 105.228L43.6602 105.273H43.7084L43.7504 105.18V105.273H43.7081L43.6845 105.326L56.7374 133.154L52.2687 133.056L49.52 126.705L43.6503 126.733" fill="white"/>
</g>
<g clip-path="url(#clip1_62_235)">
<path d="M88.1836 123.016V144.378H130.908V101.654H88.1836V123.016ZM122.613 121.307C123.636 121.545 124.566 122.08 125.286 122.845C125.682 123.258 126.026 123.717 126.311 124.212C126.311 124.267 124.465 125.515 123.341 126.212C123.3 126.239 123.136 126.062 122.955 125.792C122.749 125.437 122.458 125.141 122.107 124.93C121.756 124.719 121.357 124.6 120.948 124.585C119.653 124.496 118.819 125.176 118.826 126.294C118.815 126.572 118.879 126.848 119.01 127.094C119.294 127.685 119.824 128.037 121.485 128.755C124.544 130.071 125.853 130.939 126.667 132.173C127.576 133.54 127.777 135.748 127.162 137.382C126.479 139.159 124.804 140.366 122.435 140.766C121.353 140.89 120.26 140.878 119.181 140.731C117.534 140.464 116.015 139.68 114.844 138.493C114.451 138.059 113.685 136.927 113.733 136.845C113.858 136.753 113.989 136.669 114.126 136.596L115.698 135.693L116.925 134.982L117.182 135.362C117.614 135.981 118.165 136.508 118.802 136.914C120.169 137.631 122.035 137.532 122.958 136.702C123.268 136.397 123.461 135.994 123.504 135.562C123.547 135.13 123.437 134.696 123.194 134.336C122.852 133.861 122.168 133.461 120.258 132.627C118.053 131.677 117.103 131.089 116.235 130.153C115.693 129.535 115.293 128.806 115.062 128.017C114.891 127.115 114.865 126.192 114.987 125.282C115.442 123.153 117.038 121.666 119.369 121.225C120.449 121.092 121.542 121.121 122.613 121.314V121.307ZM112.584 123.098V124.848H107.037V140.649H103.103V124.845H97.542V123.136C97.5271 122.547 97.543 121.959 97.5898 121.372C97.6104 121.345 101.008 121.331 105.109 121.338H112.564L112.584 123.098Z" fill="white"/>
</g>
<path d="M159.813 109.854L162.578 140.588L174.981 143.897L187.419 140.65L190.186 109.854H159.813ZM184.437 116.85L184.264 118.845L184.187 119.766H169.637L169.985 123.867H183.841L183.749 124.63L182.855 134.511L182.789 135.088L175 137.185V137.183L174.991 137.187L167.206 135.165L166.677 129.336H170.494L170.765 132.228L174.998 133.3L175 133.221V133.225L179.242 132.319L179.685 127.627H166.507L165.573 117.087L165.481 116.006H184.528L184.437 116.85V116.85ZM162.68 101.181H164.602V103.08H166.36V101.181H168.282V106.931H166.36V105.006H164.602V106.931H162.68V101.181ZM170.809 103.088H169.117V101.181H174.423V103.088H172.731V106.931H170.809V103.088V103.088ZM175.265 101.181H177.269L178.502 103.202L179.733 101.181H181.738V106.931H179.824V104.081L178.502 106.125H178.468L177.146 104.081V106.931H175.265V101.181H175.265ZM182.695 101.181H184.617V105.03H187.32V106.931H182.695V101.181V101.181Z" fill="white"/>
<g clip-path="url(#clip2_62_235)">
<path d="M240.626 109.923C234.793 109.923 231.148 112.838 229.688 118.672C231.875 115.756 234.428 114.662 237.344 115.391C239.009 115.806 240.199 117.014 241.516 118.351C243.661 120.528 246.143 123.047 251.563 123.047C257.397 123.047 261.042 120.131 262.501 114.296C260.314 117.214 257.761 118.307 254.845 117.578C253.181 117.163 251.992 115.956 250.673 114.618C248.53 112.442 246.048 109.923 240.626 109.923V109.923ZM229.688 123.047C223.855 123.047 220.21 125.963 218.751 131.798C220.938 128.88 223.49 127.787 226.407 128.516C228.071 128.931 229.261 130.138 230.579 131.476C232.723 133.652 235.205 136.171 240.626 136.171C246.459 136.171 250.104 133.256 251.563 127.422C249.376 130.338 246.824 131.432 243.908 130.702C242.243 130.288 241.055 129.08 239.735 127.743C237.592 125.566 235.111 123.047 229.688 123.047Z" fill="white"/>
</g>
<g clip-path="url(#clip3_62_235)">
<path d="M291.098 108.965L293.856 139.895L306.231 143.33L318.64 139.891L321.401 108.965H291.098ZM314.753 126.221L313.95 133.704L313.953 134.345L306.25 136.497V136.497L306.243 136.502L298.478 134.374L297.953 128.447H301.761L302.031 131.443L306.251 132.57L306.25 132.575V132.564L310.486 131.369L310.933 126.396H302.078L302.002 125.592L301.829 123.661L301.738 122.637H311.27L311.616 118.877H297.099L297.023 117.992L296.85 115.931L296.76 114.775H315.762L315.671 115.915L314.753 126.221ZM314.794 104.991L312.351 102.129H314.794V100.42H309.326V101.911L312.193 104.521H309.326V106.23H314.794V104.991ZM308.3 104.991L305.974 102.129H308.3V100.42H303.173V101.911L305.816 104.521H303.173V106.23H308.3V104.991ZM302.148 104.521H299.414V102.129H302.148V100.42H297.363V106.23H302.148V104.521Z" fill="white"/>
</g>
<defs>
<clipPath id="clip0_62_235">
<rect width="43.75" height="43.75" fill="white" transform="translate(21.875 101.172)"/>
</clipPath>
<clipPath id="clip1_62_235">
<rect width="43.75" height="43.75" fill="white" transform="translate(87.5 101.172)"/>
</clipPath>
<clipPath id="clip2_62_235">
<rect width="43.75" height="43.75" fill="white" transform="translate(218.75 101.172)"/>
</clipPath>
<clipPath id="clip3_62_235">
<rect width="43.75" height="43.75" fill="white" transform="translate(284.375 100.078)"/>
</clipPath>
</defs>
</svg>
