<svg width="160" height="345" viewBox="0 0 160 345" fill="none" xmlns="http://www.w3.org/2000/svg">
<path d="M157.927 326.212C108.241 148.254 34.4046 47.299 3.69703 19.0665" stroke="white" stroke-width="4"/>
<path d="M3.09121 16.1944C1.9878 16.1438 1.05236 16.9974 1.00185 18.1008L0.178767 36.082C0.128259 37.1854 0.981808 38.1208 2.08522 38.1713C3.18864 38.2219 4.12408 37.3683 4.17458 36.2649L4.90622 20.2816L20.8895 21.0133C21.9929 21.0638 22.9283 20.2102 22.9788 19.1068C23.0294 18.0034 22.1758 17.0679 21.0724 17.0174L3.09121 16.1944ZM27.1351 41.676L4.47716 16.8442L1.52236 19.5403L24.1803 44.3721L27.1351 41.676Z" fill="white"/>
</svg>
