<svg width="2258" height="630" viewBox="0 0 2258 630" fill="none" xmlns="http://www.w3.org/2000/svg">
<rect x="135.48" y="2" width="73.2113" height="74.3304" stroke="white" stroke-width="4"/>
<rect x="236.692" y="29.3569" width="39.7602" height="18.8397" stroke="white" stroke-width="5"/>
<rect x="292.641" y="29.3569" width="39.7602" height="18.8397" stroke="white" stroke-width="5"/>
<rect x="263.586" y="37.3575" width="41.9222" height="2.83806" stroke="white" stroke-width="2.83806"/>
<rect x="319.535" y="37.3575" width="41.9222" height="2.83806" stroke="white" stroke-width="2.83806"/>
<rect x="207.635" y="37.3575" width="41.9222" height="2.83806" stroke="white" stroke-width="2.83806"/>
<rect x="3.5" y="29.3568" width="42.639" height="18.8397" stroke="white" stroke-width="5"/>
<rect x="63.0479" y="29.3568" width="42.639" height="18.8397" stroke="white" stroke-width="5"/>
<rect x="32.1927" y="37.3575" width="44.8009" height="2.83806" stroke="white" stroke-width="2.83806"/>
<rect x="91.7411" y="37.3575" width="44.8009" height="2.83806" stroke="white" stroke-width="2.83806"/>
<mask id="path-11-inside-1_69_1034" fill="white">
<path d="M1 36H19V41H1V36Z"/>
</mask>
<path d="M1 36V31H-4V36H1ZM19 36H24V31H19V36ZM19 41V46H24V41H19ZM1 41H-4V46H1V41ZM1 41H19V31H1V41ZM14 36V41H24V36H14ZM19 36H1V46H19V36ZM6 41V36H-4V41H6Z" fill="white" mask="url(#path-11-inside-1_69_1034)"/>
<rect x="364.878" y="2" width="73.2113" height="74.3304" stroke="white" stroke-width="4"/>
<rect x="466.087" y="29.3566" width="39.7602" height="18.8397" stroke="white" stroke-width="5"/>
<rect x="522.037" y="29.3566" width="39.7602" height="18.8397" stroke="white" stroke-width="5"/>
<rect x="492.981" y="37.3574" width="41.9222" height="2.83806" stroke="white" stroke-width="2.83806"/>
<rect x="548.931" y="37.3574" width="41.9222" height="2.83806" stroke="white" stroke-width="2.83806"/>
<rect x="437.031" y="37.3574" width="41.9222" height="2.83806" stroke="white" stroke-width="2.83806"/>
<rect x="594.272" y="2" width="73.2113" height="74.3304" stroke="white" stroke-width="4"/>
<rect x="695.483" y="29.3568" width="39.7602" height="18.8397" stroke="white" stroke-width="5"/>
<rect x="751.435" y="29.3568" width="39.7602" height="18.8397" stroke="white" stroke-width="5"/>
<rect x="722.379" y="37.3575" width="41.9222" height="2.83806" stroke="white" stroke-width="2.83806"/>
<rect x="778.329" y="37.3575" width="41.9222" height="2.83806" stroke="white" stroke-width="2.83806"/>
<rect x="666.427" y="37.3575" width="41.9222" height="2.83806" stroke="white" stroke-width="2.83806"/>
<rect x="823.67" y="2" width="73.2113" height="74.3304" stroke="white" stroke-width="4"/>
<rect x="924.879" y="29.3568" width="39.7602" height="18.8397" stroke="white" stroke-width="5"/>
<rect x="980.828" y="29.3568" width="39.7602" height="18.8397" stroke="white" stroke-width="5"/>
<rect x="951.773" y="37.3575" width="41.9222" height="2.83806" stroke="white" stroke-width="2.83806"/>
<rect x="1007.72" y="37.3575" width="41.9222" height="2.83806" stroke="white" stroke-width="2.83806"/>
<rect x="895.824" y="37.3575" width="41.9222" height="2.83806" stroke="white" stroke-width="2.83806"/>
<rect x="1053.07" y="2" width="73.2113" height="74.3304" stroke="white" stroke-width="4"/>
<rect x="1160.28" y="29.3567" width="42.639" height="18.8397" stroke="white" stroke-width="5"/>
<rect x="1219.83" y="29.3567" width="42.639" height="18.8397" stroke="white" stroke-width="5"/>
<rect x="1188.97" y="37.3574" width="44.8009" height="2.83806" stroke="white" stroke-width="2.83806"/>
<rect x="1248.52" y="37.3574" width="44.8009" height="2.83806" stroke="white" stroke-width="2.83806"/>
<path d="M1130.5 38.4384H1173.14V39.1145H1130.5V38.4384Z" stroke="white" stroke-width="5"/>
<rect x="2141.64" y="29.3549" width="42.639" height="18.8397" stroke="white" stroke-width="5"/>
<rect x="2201.2" y="29.3549" width="42.639" height="18.8397" stroke="white" stroke-width="5"/>
<rect x="2170.33" y="37.3554" width="44.8009" height="2.83806" stroke="white" stroke-width="2.83806"/>
<rect x="2229.5" y="37.5" width="27" height="3" stroke="white" stroke-width="3"/>
<path d="M2111.87 38.4364H2154.51V39.1125H2111.87V38.4364Z" stroke="white" stroke-width="5"/>
<rect x="1296.74" y="2" width="78.177" height="74.3304" stroke="white" stroke-width="4"/>
<rect x="1404.42" y="29.3567" width="42.639" height="18.8397" stroke="white" stroke-width="5"/>
<rect x="1463.97" y="29.3567" width="42.639" height="18.8397" stroke="white" stroke-width="5"/>
<rect x="1433.12" y="37.3575" width="44.8009" height="2.83806" stroke="white" stroke-width="2.83806"/>
<rect x="1492.67" y="37.3575" width="44.8009" height="2.83806" stroke="white" stroke-width="2.83806"/>
<rect x="1373.57" y="37.3575" width="44.8009" height="2.83806" stroke="white" stroke-width="2.83806"/>
<rect x="1540.89" y="2" width="78.177" height="74.3304" stroke="white" stroke-width="4"/>
<rect x="1648.57" y="29.3569" width="42.639" height="18.8397" stroke="white" stroke-width="5"/>
<rect x="1708.12" y="29.3569" width="42.639" height="18.8397" stroke="white" stroke-width="5"/>
<rect x="1677.27" y="37.3576" width="44.8009" height="2.83806" stroke="white" stroke-width="2.83806"/>
<rect x="1736.82" y="37.3576" width="44.8009" height="2.83806" stroke="white" stroke-width="2.83806"/>
<rect x="1617.72" y="37.3576" width="44.8009" height="2.83806" stroke="white" stroke-width="2.83806"/>
<rect x="1785.04" y="2" width="78.177" height="74.3304" fill="white" stroke="white" stroke-width="4"/>
<path fill-rule="evenodd" clip-rule="evenodd" d="M1824.2 10.7145L1807.05 38.0007C1806.85 38.1667 1806.71 38.3915 1806.65 38.6369L1806.12 39.4791L1825.31 50.5804L1844.49 39.4791L1826.42 10.7189C1826.37 10.5893 1826.29 10.471 1826.2 10.3686L1825.31 8.95068L1824.41 10.3722C1824.32 10.4725 1824.25 10.5881 1824.2 10.7145ZM1824.11 15.3648L1811.13 36.0205L1824.11 29.8419V15.3648ZM1824.11 32.4976L1810.25 39.0955L1824.11 47.1164V32.4976ZM1826.51 47.1158V32.525L1840.14 39.2289L1826.51 47.1158ZM1826.51 29.8527V15.3664L1839.68 36.3335L1826.51 29.8527ZM1825.17 53.8307L1806.12 42.81L1825.31 68.8979L1844.49 42.81L1825.45 53.8306C1825.4 53.8254 1825.36 53.8227 1825.31 53.8227C1825.26 53.8227 1825.21 53.8254 1825.17 53.8307ZM1824.11 55.9882L1814.85 50.6309L1824.11 63.2205V55.9882ZM1826.51 63.219L1835.76 50.6309L1826.51 55.9876V63.219Z" fill="#1D90FF"/>
<rect x="1892.73" y="29.3562" width="42.639" height="18.8397" stroke="white" stroke-width="5"/>
<rect x="1952.27" y="29.3562" width="42.639" height="18.8397" stroke="white" stroke-width="5"/>
<rect x="1921.42" y="37.3575" width="44.8009" height="2.83806" stroke="white" stroke-width="2.83806"/>
<rect x="1980.97" y="37.3575" width="44.8009" height="2.83806" stroke="white" stroke-width="2.83806"/>
<rect x="1861.87" y="37.3575" width="44.8009" height="2.83806" stroke="white" stroke-width="2.83806"/>
<rect x="2029.19" y="2" width="78.177" height="74.3304" stroke="white" stroke-width="4"/>
<rect x="1815.33" y="212.793" width="42.639" height="18.8397" transform="rotate(-90 1815.33 212.793)" stroke="white" stroke-width="5"/>
<rect x="1815.33" y="153.245" width="42.639" height="18.8397" transform="rotate(-90 1815.33 153.245)" stroke="white" stroke-width="5"/>
<rect x="1823.33" y="184.101" width="44.8009" height="2.83806" transform="rotate(-90 1823.33 184.101)" stroke="white" stroke-width="2.83806"/>
<rect x="1823.33" y="124.552" width="44.8009" height="2.83806" transform="rotate(-90 1823.33 124.552)" stroke="white" stroke-width="2.83806"/>
<path d="M1824.41 242.568V199.929H1825.09V242.568H1824.41Z" stroke="white" stroke-width="5"/>
<rect x="1815.33" y="331.407" width="42.639" height="18.8397" transform="rotate(-90 1815.33 331.407)" stroke="white" stroke-width="5"/>
<rect x="1815.33" y="271.859" width="42.639" height="18.8397" transform="rotate(-90 1815.33 271.859)" stroke="white" stroke-width="5"/>
<rect x="1823.33" y="302.714" width="44.8009" height="2.83806" transform="rotate(-90 1823.33 302.714)" stroke="white" stroke-width="2.83806"/>
<rect x="1823.33" y="243.166" width="44.8009" height="2.83806" transform="rotate(-90 1823.33 243.166)" stroke="white" stroke-width="2.83806"/>
<path d="M1824.41 361.182V318.543H1825.09V361.182H1824.41Z" stroke="white" stroke-width="5"/>
<rect x="1636.91" y="365.677" width="374.771" height="262.323" stroke="white" stroke-width="4"/>
<rect x="1636.91" y="365.677" width="374.771" height="25.5915" stroke="white" stroke-width="4"/>
<circle cx="1647.63" cy="378.176" r="4.43872" fill="white"/>
<circle cx="1660.06" cy="378.176" r="4.43872" fill="white"/>
<circle cx="1672.49" cy="378.176" r="4.43872" fill="white"/>
<g clip-path="url(#clip0_69_1034)">
<path d="M1678.13 496.838H1686.75L1682.17 487.266L1678.13 496.838ZM1682.18 473.544L1660.26 481.258L1663.73 509.975L1682.21 520.132L1700.78 509.838L1704.24 481.121L1682.18 473.544ZM1676.35 500.907L1673.66 507.63L1668.64 507.651L1682.18 477.66L1682.16 477.603H1682.13L1682.13 477.554L1682.16 477.603H1682.21L1682.25 477.502V477.603H1682.21L1682.18 477.66L1696.31 507.776L1691.47 507.669L1688.5 500.797L1682.15 500.827" fill="white"/>
</g>
<g clip-path="url(#clip1_69_1034)">
<path d="M1730.34 496.805V519.923H1776.58V473.686H1730.34V496.805ZM1767.6 494.955C1768.71 495.212 1769.71 495.791 1770.49 496.62C1770.92 497.066 1771.29 497.563 1771.6 498.099C1771.6 498.158 1769.6 499.509 1768.39 500.263C1768.34 500.293 1768.16 500.1 1767.97 499.808C1767.75 499.425 1767.43 499.104 1767.05 498.876C1766.67 498.647 1766.24 498.519 1765.8 498.502C1764.4 498.406 1763.49 499.142 1763.5 500.352C1763.49 500.653 1763.56 500.952 1763.7 501.217C1764.01 501.857 1764.58 502.238 1766.38 503.015C1769.69 504.439 1771.11 505.379 1771.99 506.714C1772.97 508.194 1773.19 510.583 1772.52 512.351C1771.78 514.275 1769.97 515.58 1767.41 516.013C1766.24 516.147 1765.05 516.135 1763.88 515.976C1762.1 515.687 1760.46 514.839 1759.19 513.553C1758.77 513.084 1757.94 511.859 1757.99 511.771C1758.12 511.67 1758.27 511.58 1758.41 511.5L1760.12 510.524L1761.44 509.755L1761.72 510.165C1762.19 510.835 1762.78 511.406 1763.47 511.844C1764.95 512.621 1766.97 512.514 1767.97 511.615C1768.31 511.286 1768.52 510.849 1768.56 510.382C1768.61 509.914 1768.49 509.445 1768.23 509.055C1767.86 508.541 1767.12 508.109 1765.05 507.206C1762.66 506.178 1761.64 505.542 1760.7 504.528C1760.11 503.859 1759.68 503.07 1759.43 502.216C1759.24 501.241 1759.21 500.241 1759.35 499.257C1759.84 496.953 1761.57 495.344 1764.09 494.866C1765.26 494.722 1766.44 494.754 1767.6 494.963V494.955ZM1756.75 496.893V498.787H1750.74V515.887H1746.48V498.784H1740.47V496.934C1740.45 496.297 1740.47 495.66 1740.52 495.025C1740.54 494.996 1744.22 494.981 1748.66 494.988H1756.72L1756.75 496.893Z" fill="white"/>
</g>
<g clip-path="url(#clip2_69_1034)">
<path d="M1807.86 482.56L1810.85 515.821L1824.27 519.402L1837.73 515.888L1840.73 482.56H1807.86ZM1834.5 490.132L1834.32 492.29L1834.23 493.287H1818.49L1818.86 497.726H1833.86L1833.76 498.551L1832.79 509.244L1832.72 509.869L1824.29 512.138V512.137L1824.28 512.141L1815.86 509.953L1815.28 503.644H1819.42L1819.71 506.773L1824.29 507.935L1824.29 507.848V507.852L1828.88 506.873L1829.36 501.795H1815.1L1814.09 490.389L1813.99 489.218H1834.6L1834.5 490.132V490.132ZM1810.96 473.175H1813.04V475.23H1814.94V473.175H1817.02V479.397H1814.94V477.314H1813.04V479.397H1810.96V473.175ZM1819.76 475.239H1817.92V473.175H1823.67V475.239H1821.84V479.397H1819.76V475.239V475.239ZM1824.58 473.175H1826.75L1828.08 475.361L1829.41 473.175H1831.58V479.397H1829.51V476.313L1828.08 478.525H1828.04L1826.61 476.313V479.397H1824.58V473.175H1824.58ZM1832.62 473.175H1834.7V477.341H1837.62V479.398H1832.62V473.175V473.175Z" fill="white"/>
</g>
<g clip-path="url(#clip3_69_1034)">
<path d="M1895.31 482.635C1889 482.635 1885.05 485.79 1883.47 492.103C1885.84 488.947 1888.6 487.764 1891.76 488.553C1893.56 489.002 1894.85 490.308 1896.27 491.756C1898.59 494.111 1901.28 496.838 1907.15 496.838C1913.46 496.838 1917.4 493.682 1918.98 487.368C1916.62 490.525 1913.85 491.708 1910.7 490.92C1908.9 490.47 1907.61 489.164 1906.18 487.716C1903.86 485.361 1901.18 482.635 1895.31 482.635V482.635ZM1883.47 496.838C1877.16 496.838 1873.22 499.993 1871.64 506.308C1874 503.15 1876.77 501.967 1879.92 502.756C1881.72 503.206 1883.01 504.512 1884.44 505.959C1886.76 508.314 1889.44 511.041 1895.31 511.041C1901.62 511.041 1905.57 507.886 1907.15 501.573C1904.78 504.728 1902.02 505.912 1898.86 505.123C1897.06 504.674 1895.77 503.367 1894.35 501.919C1892.03 499.564 1889.34 496.838 1883.47 496.838Z" fill="white"/>
</g>
<path d="M1949.93 481.599L1952.92 515.072L1966.31 518.79L1979.74 515.067L1982.73 481.599H1949.93ZM1975.53 500.274L1974.67 508.372L1974.67 509.066L1966.33 511.394V511.395L1966.32 511.4L1957.92 509.098L1957.35 502.683H1961.47L1961.77 505.926L1966.33 507.145L1966.33 507.15V507.138L1970.92 505.845L1971.4 500.464H1961.82L1961.73 499.593L1961.55 497.504L1961.45 496.395H1971.76L1972.14 492.326H1956.43L1956.35 491.369L1956.16 489.138L1956.06 487.887H1976.63L1976.53 489.121L1975.53 500.274ZM1975.58 477.299L1972.93 474.201H1975.58V472.352H1969.66V473.966L1972.76 476.791H1969.66V478.64H1975.58V477.299ZM1968.55 477.299L1966.03 474.201H1968.55V472.352H1963V473.966L1965.86 476.791H1963V478.64H1968.55V477.299ZM1961.89 476.791H1958.93V474.201H1961.89V472.352H1956.71V478.64H1961.89V476.791Z" fill="white"/>
<rect x="135.48" y="159" width="73.2113" height="74.3304" stroke="white" stroke-width="4"/>
<rect x="236.692" y="186.356" width="39.7602" height="18.8397" stroke="white" stroke-width="5"/>
<rect x="292.641" y="186.356" width="39.7602" height="18.8397" stroke="white" stroke-width="5"/>
<rect x="263.586" y="194.357" width="41.9222" height="2.83806" stroke="white" stroke-width="2.83806"/>
<rect x="319.535" y="194.357" width="41.9222" height="2.83806" stroke="white" stroke-width="2.83806"/>
<rect x="207.635" y="194.357" width="41.9222" height="2.83806" stroke="white" stroke-width="2.83806"/>
<rect x="3.5" y="186.356" width="42.639" height="18.8397" stroke="white" stroke-width="5"/>
<rect x="63.0479" y="186.356" width="42.639" height="18.8397" stroke="white" stroke-width="5"/>
<rect x="32.1927" y="194.357" width="44.8009" height="2.83806" stroke="white" stroke-width="2.83806"/>
<rect x="91.7411" y="194.357" width="44.8009" height="2.83806" stroke="white" stroke-width="2.83806"/>
<mask id="path-92-inside-2_69_1034" fill="white">
<path d="M1 193H19V198H1V193Z"/>
</mask>
<path d="M1 193V188H-4V193H1ZM19 193H24V188H19V193ZM19 198V203H24V198H19ZM1 198H-4V203H1V198ZM1 198H19V188H1V198ZM14 193V198H24V193H14ZM19 193H1V203H19V193ZM6 198V193H-4V198H6Z" fill="white" mask="url(#path-92-inside-2_69_1034)"/>
<rect x="364.878" y="159" width="73.2113" height="74.3304" stroke="white" stroke-width="4"/>
<rect x="466.087" y="186.356" width="39.7602" height="18.8397" stroke="white" stroke-width="5"/>
<rect x="522.037" y="186.356" width="39.7602" height="18.8397" stroke="white" stroke-width="5"/>
<rect x="492.981" y="194.357" width="41.9222" height="2.83806" stroke="white" stroke-width="2.83806"/>
<rect x="548.931" y="194.357" width="41.9222" height="2.83806" stroke="white" stroke-width="2.83806"/>
<rect x="437.031" y="194.357" width="41.9222" height="2.83806" stroke="white" stroke-width="2.83806"/>
<rect x="594.272" y="159" width="73.2113" height="74.3304" stroke="white" stroke-width="4"/>
<rect x="695.483" y="186.356" width="39.7602" height="18.8397" stroke="white" stroke-width="5"/>
<rect x="751.435" y="186.356" width="39.7602" height="18.8397" stroke="white" stroke-width="5"/>
<rect x="722.379" y="194.357" width="41.9222" height="2.83806" stroke="white" stroke-width="2.83806"/>
<rect x="778.329" y="194.357" width="41.9222" height="2.83806" stroke="white" stroke-width="2.83806"/>
<rect x="666.427" y="194.357" width="41.9222" height="2.83806" stroke="white" stroke-width="2.83806"/>
<rect x="823.67" y="159" width="73.2113" height="74.3304" stroke="white" stroke-width="4"/>
<rect x="924.879" y="186.357" width="39.7602" height="18.8397" stroke="white" stroke-width="5"/>
<rect x="980.828" y="186.357" width="39.7602" height="18.8397" stroke="white" stroke-width="5"/>
<rect x="951.773" y="194.358" width="41.9222" height="2.83806" stroke="white" stroke-width="2.83806"/>
<rect x="1007.72" y="194.358" width="41.9222" height="2.83806" stroke="white" stroke-width="2.83806"/>
<rect x="895.825" y="194.358" width="41.9222" height="2.83806" stroke="white" stroke-width="2.83806"/>
<rect x="1053" y="159" width="73" height="74" stroke="white" stroke-width="4"/>
<rect x="2.76038" y="79.9999" width="73.2113" height="74.3304" stroke="white" stroke-width="4"/>
<rect x="103.97" y="107.356" width="39.7602" height="18.8397" stroke="white" stroke-width="5"/>
<rect x="159.921" y="107.356" width="39.7602" height="18.8397" stroke="white" stroke-width="5"/>
<rect x="130.865" y="115.357" width="41.9222" height="2.83806" stroke="white" stroke-width="2.83806"/>
<rect x="186.814" y="115.357" width="41.9222" height="2.83806" stroke="white" stroke-width="2.83806"/>
<rect x="74.9139" y="115.357" width="41.9222" height="2.83806" stroke="white" stroke-width="2.83806"/>
<rect x="232.156" y="79.9999" width="73.2113" height="74.3304" stroke="white" stroke-width="4"/>
<rect x="333.368" y="107.356" width="39.7602" height="18.8397" stroke="white" stroke-width="5"/>
<rect x="389.317" y="107.356" width="39.7602" height="18.8397" stroke="white" stroke-width="5"/>
<rect x="360.262" y="115.357" width="41.9222" height="2.83806" stroke="white" stroke-width="2.83806"/>
<rect x="416.21" y="115.357" width="41.9222" height="2.83806" stroke="white" stroke-width="2.83806"/>
<rect x="304.31" y="115.357" width="41.9222" height="2.83806" stroke="white" stroke-width="2.83806"/>
<rect x="461.551" y="79.9999" width="73.2113" height="74.3304" stroke="white" stroke-width="4"/>
<rect x="562.763" y="107.356" width="39.7602" height="18.8397" stroke="white" stroke-width="5"/>
<rect x="618.713" y="107.356" width="39.7602" height="18.8397" stroke="white" stroke-width="5"/>
<rect x="589.657" y="115.357" width="41.9222" height="2.83806" stroke="white" stroke-width="2.83806"/>
<rect x="645.607" y="115.357" width="41.9222" height="2.83806" stroke="white" stroke-width="2.83806"/>
<rect x="533.706" y="115.357" width="41.9222" height="2.83806" stroke="white" stroke-width="2.83806"/>
<rect x="690.946" y="79.9999" width="73.2113" height="74.3304" stroke="white" stroke-width="4"/>
<rect x="792.156" y="107.357" width="39.7602" height="18.8397" stroke="white" stroke-width="5"/>
<rect x="848.105" y="107.357" width="39.7602" height="18.8397" stroke="white" stroke-width="5"/>
<rect x="819.049" y="115.358" width="41.9222" height="2.83806" stroke="white" stroke-width="2.83806"/>
<rect x="874.998" y="115.358" width="41.9222" height="2.83806" stroke="white" stroke-width="2.83806"/>
<rect x="763.1" y="115.358" width="41.9222" height="2.83806" stroke="white" stroke-width="2.83806"/>
<rect x="920.343" y="79.9999" width="73.2113" height="74.3304" stroke="white" stroke-width="4"/>
<rect x="1024.35" y="107.357" width="42.639" height="18.8397" stroke="white" stroke-width="5"/>
<rect x="1052.78" y="115.209" width="27.4156" height="2.79751" stroke="white" stroke-width="2.79751"/>
<path d="M994.577 116.439H1037.22V117.115H994.577V116.439Z" stroke="white" stroke-width="5"/>
<rect x="1083.28" y="107.5" width="42.639" height="18.8397" stroke="white" stroke-width="5"/>
<rect x="1111.5" y="115.5" width="15" height="3" stroke="white" stroke-width="3"/>
<path d="M1053.5 116.582H1096.14V117.258H1053.5V116.582Z" stroke="white" stroke-width="5"/>
<rect x="135.72" y="316" width="73.2113" height="74.3304" stroke="white" stroke-width="4"/>
<rect x="236.932" y="343.356" width="39.7602" height="18.8397" stroke="white" stroke-width="5"/>
<rect x="292.881" y="343.356" width="39.7602" height="18.8397" stroke="white" stroke-width="5"/>
<rect x="263.826" y="351.357" width="41.9222" height="2.83806" stroke="white" stroke-width="2.83806"/>
<rect x="319.775" y="351.357" width="41.9222" height="2.83806" stroke="white" stroke-width="2.83806"/>
<rect x="207.874" y="351.357" width="41.9222" height="2.83806" stroke="white" stroke-width="2.83806"/>
<rect x="3.73962" y="343.356" width="42.639" height="18.8397" stroke="white" stroke-width="5"/>
<rect x="63.2875" y="343.356" width="42.639" height="18.8397" stroke="white" stroke-width="5"/>
<rect x="32.4323" y="351.357" width="44.8009" height="2.83806" stroke="white" stroke-width="2.83806"/>
<rect x="91.9807" y="351.357" width="44.8009" height="2.83806" stroke="white" stroke-width="2.83806"/>
<mask id="path-154-inside-3_69_1034" fill="white">
<path d="M1.23962 350H19.2396V355H1.23962V350Z"/>
</mask>
<path d="M1.23962 350V345H-3.76038V350H1.23962ZM19.2396 350H24.2396V345H19.2396V350ZM19.2396 355V360H24.2396V355H19.2396ZM1.23962 355H-3.76038V360H1.23962V355ZM1.23962 355H19.2396V345H1.23962V355ZM14.2396 350V355H24.2396V350H14.2396ZM19.2396 350H1.23962V360H19.2396V350ZM6.23962 355V350H-3.76038V355H6.23962Z" fill="white" mask="url(#path-154-inside-3_69_1034)"/>
<rect x="365.118" y="316" width="73.2113" height="74.3304" stroke="white" stroke-width="4"/>
<rect x="466.327" y="343.356" width="39.7602" height="18.8397" stroke="white" stroke-width="5"/>
<rect x="522.277" y="343.356" width="39.7602" height="18.8397" stroke="white" stroke-width="5"/>
<rect x="493.221" y="351.357" width="41.9222" height="2.83806" stroke="white" stroke-width="2.83806"/>
<rect x="549.171" y="351.357" width="41.9222" height="2.83806" stroke="white" stroke-width="2.83806"/>
<rect x="437.271" y="351.357" width="41.9222" height="2.83806" stroke="white" stroke-width="2.83806"/>
<rect x="594.512" y="316" width="73.2113" height="74.3304" stroke="white" stroke-width="4"/>
<rect x="695.722" y="343.356" width="39.7602" height="18.8397" stroke="white" stroke-width="5"/>
<rect x="751.674" y="343.356" width="39.7602" height="18.8397" stroke="white" stroke-width="5"/>
<rect x="722.619" y="351.357" width="41.9222" height="2.83806" stroke="white" stroke-width="2.83806"/>
<rect x="778.569" y="351.357" width="41.9222" height="2.83806" stroke="white" stroke-width="2.83806"/>
<rect x="666.667" y="351.357" width="41.9222" height="2.83806" stroke="white" stroke-width="2.83806"/>
<rect x="823.91" y="316" width="73.2113" height="74.3304" stroke="white" stroke-width="4"/>
<rect x="925.119" y="343.357" width="39.7602" height="18.8397" stroke="white" stroke-width="5"/>
<rect x="981.068" y="343.357" width="39.7602" height="18.8397" stroke="white" stroke-width="5"/>
<rect x="952.013" y="351.359" width="41.9222" height="2.83806" stroke="white" stroke-width="2.83806"/>
<rect x="1007.96" y="351.359" width="41.9222" height="2.83806" stroke="white" stroke-width="2.83806"/>
<rect x="896.064" y="351.359" width="41.9222" height="2.83806" stroke="white" stroke-width="2.83806"/>
<rect x="1053.24" y="316" width="73" height="74" stroke="white" stroke-width="4"/>
<rect x="3" y="237" width="73.2113" height="74.3304" stroke="white" stroke-width="4"/>
<rect x="104.209" y="264.356" width="39.7602" height="18.8397" stroke="white" stroke-width="5"/>
<rect x="160.161" y="264.356" width="39.7602" height="18.8397" stroke="white" stroke-width="5"/>
<rect x="131.105" y="272.357" width="41.9222" height="2.83806" stroke="white" stroke-width="2.83806"/>
<rect x="187.054" y="272.357" width="41.9222" height="2.83806" stroke="white" stroke-width="2.83806"/>
<rect x="75.1535" y="272.357" width="41.9222" height="2.83806" stroke="white" stroke-width="2.83806"/>
<rect x="232.395" y="237" width="73.2113" height="74.3304" stroke="white" stroke-width="4"/>
<rect x="333.607" y="264.356" width="39.7602" height="18.8397" stroke="white" stroke-width="5"/>
<rect x="389.557" y="264.356" width="39.7602" height="18.8397" stroke="white" stroke-width="5"/>
<rect x="360.501" y="272.357" width="41.9222" height="2.83806" stroke="white" stroke-width="2.83806"/>
<rect x="416.45" y="272.357" width="41.9222" height="2.83806" stroke="white" stroke-width="2.83806"/>
<rect x="304.55" y="272.357" width="41.9222" height="2.83806" stroke="white" stroke-width="2.83806"/>
<rect x="461.791" y="237" width="73.2113" height="74.3304" stroke="white" stroke-width="4"/>
<rect x="563.003" y="264.356" width="39.7602" height="18.8397" stroke="white" stroke-width="5"/>
<rect x="618.952" y="264.356" width="39.7602" height="18.8397" stroke="white" stroke-width="5"/>
<rect x="589.897" y="272.357" width="41.9222" height="2.83806" stroke="white" stroke-width="2.83806"/>
<rect x="645.846" y="272.357" width="41.9222" height="2.83806" stroke="white" stroke-width="2.83806"/>
<rect x="533.945" y="272.357" width="41.9222" height="2.83806" stroke="white" stroke-width="2.83806"/>
<rect x="691.186" y="237" width="73.2113" height="74.3304" stroke="white" stroke-width="4"/>
<rect x="792.395" y="264.357" width="39.7602" height="18.8397" stroke="white" stroke-width="5"/>
<rect x="848.344" y="264.357" width="39.7602" height="18.8397" stroke="white" stroke-width="5"/>
<rect x="819.288" y="272.358" width="41.9222" height="2.83806" stroke="white" stroke-width="2.83806"/>
<rect x="875.238" y="272.358" width="41.9222" height="2.83806" stroke="white" stroke-width="2.83806"/>
<rect x="763.339" y="272.358" width="41.9222" height="2.83806" stroke="white" stroke-width="2.83806"/>
<rect x="920.583" y="237" width="73.2113" height="74.3304" stroke="white" stroke-width="4"/>
<rect x="1024.59" y="264.357" width="42.639" height="18.8397" stroke="white" stroke-width="5"/>
<rect x="1053.02" y="272.209" width="27.4156" height="2.79751" stroke="white" stroke-width="2.79751"/>
<path d="M994.816 273.439H1037.46V274.115H994.816V273.439Z" stroke="white" stroke-width="5"/>
<rect x="1083.52" y="264.5" width="42.639" height="18.8397" stroke="white" stroke-width="5"/>
<rect x="1111.74" y="272.5" width="15" height="3" stroke="white" stroke-width="3"/>
<path d="M1053.74 273.582H1096.38V274.258H1053.74V273.582Z" stroke="white" stroke-width="5"/>
<rect x="135.72" y="473" width="73.2113" height="74.3304" stroke="white" stroke-width="4"/>
<rect x="236.932" y="500.356" width="39.7602" height="18.8397" stroke="white" stroke-width="5"/>
<rect x="292.881" y="500.356" width="39.7602" height="18.8397" stroke="white" stroke-width="5"/>
<rect x="263.826" y="508.357" width="41.9222" height="2.83806" stroke="white" stroke-width="2.83806"/>
<rect x="319.775" y="508.357" width="41.9222" height="2.83806" stroke="white" stroke-width="2.83806"/>
<rect x="207.874" y="508.357" width="41.9222" height="2.83806" stroke="white" stroke-width="2.83806"/>
<rect x="3.73962" y="500.356" width="42.639" height="18.8397" stroke="white" stroke-width="5"/>
<rect x="63.2875" y="500.356" width="42.639" height="18.8397" stroke="white" stroke-width="5"/>
<rect x="32.4323" y="508.357" width="44.8009" height="2.83806" stroke="white" stroke-width="2.83806"/>
<rect x="91.9807" y="508.357" width="44.8009" height="2.83806" stroke="white" stroke-width="2.83806"/>
<mask id="path-216-inside-4_69_1034" fill="white">
<path d="M1.23962 507H19.2396V512H1.23962V507Z"/>
</mask>
<path d="M1.23962 507V502H-3.76038V507H1.23962ZM19.2396 507H24.2396V502H19.2396V507ZM19.2396 512V517H24.2396V512H19.2396ZM1.23962 512H-3.76038V517H1.23962V512ZM1.23962 512H19.2396V502H1.23962V512ZM14.2396 507V512H24.2396V507H14.2396ZM19.2396 507H1.23962V517H19.2396V507ZM6.23962 512V507H-3.76038V512H6.23962Z" fill="white" mask="url(#path-216-inside-4_69_1034)"/>
<rect x="365.118" y="473" width="73.2113" height="74.3304" stroke="white" stroke-width="4"/>
<rect x="466.327" y="500.356" width="39.7602" height="18.8397" stroke="white" stroke-width="5"/>
<rect x="522.277" y="500.356" width="39.7602" height="18.8397" stroke="white" stroke-width="5"/>
<rect x="493.221" y="508.357" width="41.9222" height="2.83806" stroke="white" stroke-width="2.83806"/>
<rect x="549.171" y="508.357" width="41.9222" height="2.83806" stroke="white" stroke-width="2.83806"/>
<rect x="437.271" y="508.357" width="41.9222" height="2.83806" stroke="white" stroke-width="2.83806"/>
<rect x="594.512" y="473" width="73.2113" height="74.3304" stroke="white" stroke-width="4"/>
<rect x="695.722" y="500.356" width="39.7602" height="18.8397" stroke="white" stroke-width="5"/>
<rect x="751.674" y="500.356" width="39.7602" height="18.8397" stroke="white" stroke-width="5"/>
<rect x="722.619" y="508.357" width="41.9222" height="2.83806" stroke="white" stroke-width="2.83806"/>
<rect x="778.569" y="508.357" width="41.9222" height="2.83806" stroke="white" stroke-width="2.83806"/>
<rect x="666.667" y="508.357" width="41.9222" height="2.83806" stroke="white" stroke-width="2.83806"/>
<rect x="823.91" y="473" width="73.2113" height="74.3304" stroke="white" stroke-width="4"/>
<rect x="925.119" y="500.357" width="39.7602" height="18.8397" stroke="white" stroke-width="5"/>
<rect x="981.068" y="500.357" width="39.7602" height="18.8397" stroke="white" stroke-width="5"/>
<rect x="952.013" y="508.359" width="41.9222" height="2.83806" stroke="white" stroke-width="2.83806"/>
<rect x="1007.96" y="508.359" width="41.9222" height="2.83806" stroke="white" stroke-width="2.83806"/>
<rect x="896.064" y="508.359" width="41.9222" height="2.83806" stroke="white" stroke-width="2.83806"/>
<rect x="1053.24" y="473" width="73" height="74" stroke="white" stroke-width="4"/>
<rect x="3" y="394" width="73.2113" height="74.3304" stroke="white" stroke-width="4"/>
<rect x="104.209" y="421.356" width="39.7602" height="18.8397" stroke="white" stroke-width="5"/>
<rect x="160.161" y="421.356" width="39.7602" height="18.8397" stroke="white" stroke-width="5"/>
<rect x="131.105" y="429.357" width="41.9222" height="2.83806" stroke="white" stroke-width="2.83806"/>
<rect x="187.054" y="429.357" width="41.9222" height="2.83806" stroke="white" stroke-width="2.83806"/>
<rect x="75.1535" y="429.357" width="41.9222" height="2.83806" stroke="white" stroke-width="2.83806"/>
<rect x="232.395" y="394" width="73.2113" height="74.3304" stroke="white" stroke-width="4"/>
<rect x="333.607" y="421.356" width="39.7602" height="18.8397" stroke="white" stroke-width="5"/>
<rect x="389.557" y="421.356" width="39.7602" height="18.8397" stroke="white" stroke-width="5"/>
<rect x="360.501" y="429.357" width="41.9222" height="2.83806" stroke="white" stroke-width="2.83806"/>
<rect x="416.45" y="429.357" width="41.9222" height="2.83806" stroke="white" stroke-width="2.83806"/>
<rect x="304.55" y="429.357" width="41.9222" height="2.83806" stroke="white" stroke-width="2.83806"/>
<rect x="461.791" y="394" width="73.2113" height="74.3304" stroke="white" stroke-width="4"/>
<rect x="563.003" y="421.356" width="39.7602" height="18.8397" stroke="white" stroke-width="5"/>
<rect x="618.952" y="421.356" width="39.7602" height="18.8397" stroke="white" stroke-width="5"/>
<rect x="589.897" y="429.357" width="41.9222" height="2.83806" stroke="white" stroke-width="2.83806"/>
<rect x="645.846" y="429.357" width="41.9222" height="2.83806" stroke="white" stroke-width="2.83806"/>
<rect x="533.945" y="429.357" width="41.9222" height="2.83806" stroke="white" stroke-width="2.83806"/>
<rect x="691.186" y="394" width="73.2113" height="74.3304" stroke="white" stroke-width="4"/>
<rect x="792.395" y="421.357" width="39.7602" height="18.8397" stroke="white" stroke-width="5"/>
<rect x="848.344" y="421.357" width="39.7602" height="18.8397" stroke="white" stroke-width="5"/>
<rect x="819.288" y="429.358" width="41.9222" height="2.83806" stroke="white" stroke-width="2.83806"/>
<rect x="875.238" y="429.358" width="41.9222" height="2.83806" stroke="white" stroke-width="2.83806"/>
<rect x="763.339" y="429.358" width="41.9222" height="2.83806" stroke="white" stroke-width="2.83806"/>
<rect x="920.583" y="394" width="73.2113" height="74.3304" stroke="white" stroke-width="4"/>
<rect x="1024.59" y="421.357" width="42.639" height="18.8397" stroke="white" stroke-width="5"/>
<rect x="1053.02" y="429.209" width="27.4156" height="2.79751" stroke="white" stroke-width="2.79751"/>
<path d="M994.816 430.439H1037.46V431.115H994.816V430.439Z" stroke="white" stroke-width="5"/>
<rect x="1083.52" y="421.5" width="42.639" height="18.8397" stroke="white" stroke-width="5"/>
<rect x="1111.74" y="429.5" width="15" height="3" stroke="white" stroke-width="3"/>
<path d="M1053.74 430.582H1096.38V431.258H1053.74V430.582Z" stroke="white" stroke-width="5"/>
<rect x="3" y="551" width="73.2113" height="74.3304" stroke="white" stroke-width="4"/>
<rect x="104.209" y="578.356" width="39.7602" height="18.8397" stroke="white" stroke-width="5"/>
<rect x="160.161" y="578.356" width="39.7602" height="18.8397" stroke="white" stroke-width="5"/>
<rect x="131.105" y="586.357" width="41.9222" height="2.83806" stroke="white" stroke-width="2.83806"/>
<rect x="187.054" y="586.357" width="41.9222" height="2.83806" stroke="white" stroke-width="2.83806"/>
<rect x="75.1535" y="586.357" width="41.9222" height="2.83806" stroke="white" stroke-width="2.83806"/>
<rect x="232.395" y="551" width="73.2113" height="74.3304" stroke="white" stroke-width="4"/>
<rect x="333.607" y="578.356" width="39.7602" height="18.8397" stroke="white" stroke-width="5"/>
<rect x="389.557" y="578.356" width="39.7602" height="18.8397" stroke="white" stroke-width="5"/>
<rect x="360.501" y="586.357" width="41.9222" height="2.83806" stroke="white" stroke-width="2.83806"/>
<rect x="416.45" y="586.357" width="41.9222" height="2.83806" stroke="white" stroke-width="2.83806"/>
<rect x="304.55" y="586.357" width="41.9222" height="2.83806" stroke="white" stroke-width="2.83806"/>
<rect x="461.791" y="551" width="73.2113" height="74.3304" stroke="white" stroke-width="4"/>
<rect x="563.003" y="578.356" width="39.7602" height="18.8397" stroke="white" stroke-width="5"/>
<rect x="618.952" y="578.356" width="39.7602" height="18.8397" stroke="white" stroke-width="5"/>
<rect x="589.897" y="586.357" width="41.9222" height="2.83806" stroke="white" stroke-width="2.83806"/>
<rect x="645.846" y="586.357" width="41.9222" height="2.83806" stroke="white" stroke-width="2.83806"/>
<rect x="533.945" y="586.357" width="41.9222" height="2.83806" stroke="white" stroke-width="2.83806"/>
<rect x="691.186" y="551" width="73.2113" height="74.3304" stroke="white" stroke-width="4"/>
<rect x="792.395" y="578.357" width="39.7602" height="18.8397" stroke="white" stroke-width="5"/>
<rect x="848.344" y="578.357" width="39.7602" height="18.8397" stroke="white" stroke-width="5"/>
<rect x="819.288" y="586.358" width="41.9222" height="2.83806" stroke="white" stroke-width="2.83806"/>
<rect x="875.238" y="586.358" width="41.9222" height="2.83806" stroke="white" stroke-width="2.83806"/>
<rect x="763.339" y="586.358" width="41.9222" height="2.83806" stroke="white" stroke-width="2.83806"/>
<rect x="920.583" y="551" width="73.2113" height="74.3304" stroke="white" stroke-width="4"/>
<rect x="1024.59" y="578.357" width="42.639" height="18.8397" stroke="white" stroke-width="5"/>
<rect x="1053.02" y="586.209" width="27.4156" height="2.79751" stroke="white" stroke-width="2.79751"/>
<path d="M994.816 587.439H1037.46V588.115H994.816V587.439Z" stroke="white" stroke-width="5"/>
<rect x="1083.52" y="578.5" width="42.639" height="18.8397" stroke="white" stroke-width="5"/>
<rect x="1111.74" y="586.5" width="15" height="3" stroke="white" stroke-width="3"/>
<path d="M1053.74 587.582H1096.38V588.258H1053.74V587.582Z" stroke="white" stroke-width="5"/>
<defs>
<clipPath id="clip0_69_1034">
<rect width="47.3464" height="47.3464" fill="white" transform="translate(1658.58 473.165)"/>
</clipPath>
<clipPath id="clip1_69_1034">
<rect width="47.3464" height="47.3464" fill="white" transform="translate(1729.6 473.165)"/>
</clipPath>
<clipPath id="clip2_69_1034">
<rect width="47.3464" height="47.3464" fill="white" transform="translate(1800.62 472.573)"/>
</clipPath>
<clipPath id="clip3_69_1034">
<rect width="47.3464" height="47.3464" fill="white" transform="translate(1871.64 473.165)"/>
</clipPath>
</defs>
</svg>
