<svg width="2257" height="710" viewBox="0 0 2257 710" fill="none" xmlns="http://www.w3.org/2000/svg">
<rect x="134.48" y="81" width="73.2113" height="74.3304" stroke="white" stroke-width="4"/>
<rect x="235.692" y="108.357" width="39.7602" height="18.8397" stroke="white" stroke-width="5"/>
<rect x="291.641" y="108.357" width="39.7602" height="18.8397" stroke="white" stroke-width="5"/>
<rect x="262.586" y="116.358" width="41.9222" height="2.83806" stroke="white" stroke-width="2.83806"/>
<rect x="318.535" y="116.358" width="41.9222" height="2.83806" stroke="white" stroke-width="2.83806"/>
<rect x="206.635" y="116.358" width="41.9222" height="2.83806" stroke="white" stroke-width="2.83806"/>
<rect x="2.5" y="108.357" width="42.639" height="18.8397" stroke="white" stroke-width="5"/>
<rect x="62.0479" y="108.357" width="42.639" height="18.8397" stroke="white" stroke-width="5"/>
<rect x="31.1927" y="116.358" width="44.8009" height="2.83806" stroke="white" stroke-width="2.83806"/>
<rect x="90.7411" y="116.358" width="44.8009" height="2.83806" stroke="white" stroke-width="2.83806"/>
<mask id="path-11-inside-1_69_1034" fill="white">
<path d="M0 115H18V120H0V115Z"/>
</mask>
<path d="M0 115V110H-5V115H0ZM18 115H23V110H18V115ZM18 120V125H23V120H18ZM0 120H-5V125H0V120ZM0 120H18V110H0V120ZM13 115V120H23V115H13ZM18 115H0V125H18V115ZM5 120V115H-5V120H5Z" fill="white" mask="url(#path-11-inside-1_69_1034)"/>
<rect x="363.878" y="81" width="73.2113" height="74.3304" stroke="white" stroke-width="4"/>
<rect x="465.087" y="108.357" width="39.7602" height="18.8397" stroke="white" stroke-width="5"/>
<rect x="521.037" y="108.357" width="39.7602" height="18.8397" stroke="white" stroke-width="5"/>
<rect x="491.981" y="116.357" width="41.9222" height="2.83806" stroke="white" stroke-width="2.83806"/>
<rect x="547.931" y="116.357" width="41.9222" height="2.83806" stroke="white" stroke-width="2.83806"/>
<rect x="436.031" y="116.357" width="41.9222" height="2.83806" stroke="white" stroke-width="2.83806"/>
<rect x="593.272" y="81" width="73.2113" height="74.3304" stroke="white" stroke-width="4"/>
<rect x="694.483" y="108.357" width="39.7602" height="18.8397" stroke="white" stroke-width="5"/>
<rect x="750.435" y="108.357" width="39.7602" height="18.8397" stroke="white" stroke-width="5"/>
<rect x="721.379" y="116.358" width="41.9222" height="2.83806" stroke="white" stroke-width="2.83806"/>
<rect x="777.329" y="116.358" width="41.9222" height="2.83806" stroke="white" stroke-width="2.83806"/>
<rect x="665.427" y="116.358" width="41.9222" height="2.83806" stroke="white" stroke-width="2.83806"/>
<rect x="822.67" y="81" width="73.2113" height="74.3304" stroke="white" stroke-width="4"/>
<rect x="923.879" y="108.357" width="39.7602" height="18.8397" stroke="white" stroke-width="5"/>
<rect x="979.828" y="108.357" width="39.7602" height="18.8397" stroke="white" stroke-width="5"/>
<rect x="950.773" y="116.358" width="41.9222" height="2.83806" stroke="white" stroke-width="2.83806"/>
<rect x="1006.72" y="116.358" width="41.9222" height="2.83806" stroke="white" stroke-width="2.83806"/>
<rect x="894.824" y="116.358" width="41.9222" height="2.83806" stroke="white" stroke-width="2.83806"/>
<rect x="1052.07" y="81" width="73.2113" height="74.3304" stroke="white" stroke-width="4"/>
<rect x="1159.28" y="108.357" width="42.639" height="18.8397" stroke="white" stroke-width="5"/>
<rect x="1218.83" y="108.357" width="42.639" height="18.8397" stroke="white" stroke-width="5"/>
<rect x="1187.97" y="116.357" width="44.8009" height="2.83806" stroke="white" stroke-width="2.83806"/>
<rect x="1247.52" y="116.357" width="44.8009" height="2.83806" stroke="white" stroke-width="2.83806"/>
<path d="M1129.5 117.438H1172.14V118.114H1129.5V117.438Z" stroke="white" stroke-width="5"/>
<rect x="2140.64" y="108.355" width="42.639" height="18.8397" stroke="white" stroke-width="5"/>
<rect x="2200.2" y="108.355" width="42.639" height="18.8397" stroke="white" stroke-width="5"/>
<rect x="2169.33" y="116.355" width="44.8009" height="2.83806" stroke="white" stroke-width="2.83806"/>
<rect x="2228.5" y="116.5" width="27" height="3" stroke="white" stroke-width="3"/>
<path d="M2110.87 117.436H2153.51V118.113H2110.87V117.436Z" stroke="white" stroke-width="5"/>
<rect x="1295.74" y="81" width="78.177" height="74.3304" stroke="white" stroke-width="4"/>
<rect x="1403.42" y="108.357" width="42.639" height="18.8397" stroke="white" stroke-width="5"/>
<rect x="1462.97" y="108.357" width="42.639" height="18.8397" stroke="white" stroke-width="5"/>
<rect x="1432.12" y="116.358" width="44.8009" height="2.83806" stroke="white" stroke-width="2.83806"/>
<rect x="1491.67" y="116.358" width="44.8009" height="2.83806" stroke="white" stroke-width="2.83806"/>
<rect x="1372.57" y="116.358" width="44.8009" height="2.83806" stroke="white" stroke-width="2.83806"/>
<rect x="1539.89" y="81" width="78.177" height="74.3304" stroke="white" stroke-width="4"/>
<rect x="1647.57" y="108.357" width="42.639" height="18.8397" stroke="white" stroke-width="5"/>
<rect x="1707.12" y="108.357" width="42.639" height="18.8397" stroke="white" stroke-width="5"/>
<rect x="1676.27" y="116.358" width="44.8009" height="2.83806" stroke="white" stroke-width="2.83806"/>
<rect x="1735.82" y="116.358" width="44.8009" height="2.83806" stroke="white" stroke-width="2.83806"/>
<rect x="1616.72" y="116.358" width="44.8009" height="2.83806" stroke="white" stroke-width="2.83806"/>
<rect x="1784.04" y="81" width="78.177" height="74.3304" fill="white" stroke="white" stroke-width="4"/>
<path fill-rule="evenodd" clip-rule="evenodd" d="M1823.2 89.7145L1806.05 117.001C1805.85 117.167 1805.71 117.392 1805.65 117.637L1805.12 118.479L1824.31 129.58L1843.49 118.479L1825.42 89.7189C1825.37 89.5893 1825.29 89.471 1825.2 89.3686L1824.31 87.9507L1823.41 89.3722C1823.32 89.4725 1823.25 89.5881 1823.2 89.7145ZM1823.11 94.3648L1810.13 115.02L1823.11 108.842V94.3648ZM1823.11 111.498L1809.25 118.095L1823.11 126.116V111.498ZM1825.51 126.116V111.525L1839.14 118.229L1825.51 126.116ZM1825.51 108.853V94.3664L1838.68 115.333L1825.51 108.853ZM1824.17 132.831L1805.12 121.81L1824.31 147.898L1843.49 121.81L1824.45 132.831C1824.4 132.825 1824.36 132.823 1824.31 132.823C1824.26 132.823 1824.21 132.825 1824.17 132.831ZM1823.11 134.988L1813.85 129.631L1823.11 142.22V134.988ZM1825.51 142.219L1834.76 129.631L1825.51 134.988V142.219Z" fill="#1D90FF"/>
<rect x="1891.73" y="108.356" width="42.639" height="18.8397" stroke="white" stroke-width="5"/>
<rect x="1951.27" y="108.356" width="42.639" height="18.8397" stroke="white" stroke-width="5"/>
<rect x="1920.42" y="116.358" width="44.8009" height="2.83806" stroke="white" stroke-width="2.83806"/>
<rect x="1979.97" y="116.358" width="44.8009" height="2.83806" stroke="white" stroke-width="2.83806"/>
<rect x="1860.87" y="116.358" width="44.8009" height="2.83806" stroke="white" stroke-width="2.83806"/>
<rect x="2028.19" y="81" width="78.177" height="74.3304" stroke="white" stroke-width="4"/>
<rect x="1814.33" y="291.793" width="42.639" height="18.8397" transform="rotate(-90 1814.33 291.793)" stroke="white" stroke-width="5"/>
<rect x="1814.33" y="232.245" width="42.639" height="18.8397" transform="rotate(-90 1814.33 232.245)" stroke="white" stroke-width="5"/>
<rect x="1822.33" y="263.101" width="44.8009" height="2.83806" transform="rotate(-90 1822.33 263.101)" stroke="white" stroke-width="2.83806"/>
<rect x="1822.33" y="203.552" width="44.8009" height="2.83806" transform="rotate(-90 1822.33 203.552)" stroke="white" stroke-width="2.83806"/>
<path d="M1823.41 321.568V278.929H1824.09V321.568H1823.41Z" stroke="white" stroke-width="5"/>
<rect x="1814.33" y="410.407" width="42.639" height="18.8397" transform="rotate(-90 1814.33 410.407)" stroke="white" stroke-width="5"/>
<rect x="1814.33" y="350.859" width="42.639" height="18.8397" transform="rotate(-90 1814.33 350.859)" stroke="white" stroke-width="5"/>
<rect x="1822.33" y="381.714" width="44.8009" height="2.83806" transform="rotate(-90 1822.33 381.714)" stroke="white" stroke-width="2.83806"/>
<rect x="1822.33" y="322.166" width="44.8009" height="2.83806" transform="rotate(-90 1822.33 322.166)" stroke="white" stroke-width="2.83806"/>
<path d="M1823.41 440.182V397.543H1824.09V440.182H1823.41Z" stroke="white" stroke-width="5"/>
<rect x="1635.91" y="444.677" width="374.771" height="262.323" stroke="white" stroke-width="4"/>
<rect x="1635.91" y="444.677" width="374.771" height="25.5915" stroke="white" stroke-width="4"/>
<circle cx="1646.63" cy="457.176" r="4.43872" fill="white"/>
<circle cx="1659.06" cy="457.176" r="4.43872" fill="white"/>
<circle cx="1671.49" cy="457.176" r="4.43872" fill="white"/>
<g clip-path="url(#clip0_69_1034)">
<path d="M1677.13 575.838H1685.75L1681.17 566.266L1677.13 575.838ZM1681.18 552.544L1659.26 560.258L1662.73 588.975L1681.21 599.132L1699.78 588.838L1703.24 560.121L1681.18 552.544ZM1675.35 579.907L1672.66 586.63L1667.64 586.651L1681.18 556.66L1681.16 556.603H1681.13L1681.13 556.554L1681.16 556.603H1681.21L1681.25 556.502V556.603H1681.21L1681.18 556.66L1695.31 586.776L1690.47 586.669L1687.5 579.797L1681.15 579.827" fill="white"/>
</g>
<g clip-path="url(#clip1_69_1034)">
<path d="M1729.34 575.805V598.923H1775.58V552.686H1729.34V575.805ZM1766.6 573.955C1767.71 574.212 1768.71 574.791 1769.49 575.62C1769.92 576.066 1770.29 576.563 1770.6 577.099C1770.6 577.158 1768.6 578.509 1767.39 579.263C1767.34 579.293 1767.16 579.1 1766.97 578.808C1766.75 578.425 1766.43 578.104 1766.05 577.876C1765.67 577.647 1765.24 577.519 1764.8 577.502C1763.4 577.406 1762.49 578.142 1762.5 579.352C1762.49 579.653 1762.56 579.952 1762.7 580.217C1763.01 580.857 1763.58 581.238 1765.38 582.015C1768.69 583.439 1770.11 584.379 1770.99 585.714C1771.97 587.194 1772.19 589.583 1771.52 591.351C1770.78 593.275 1768.97 594.58 1766.41 595.013C1765.24 595.147 1764.05 595.135 1762.88 594.976C1761.1 594.687 1759.46 593.839 1758.19 592.553C1757.77 592.084 1756.94 590.859 1756.99 590.771C1757.12 590.67 1757.27 590.58 1757.41 590.5L1759.12 589.524L1760.44 588.755L1760.72 589.165C1761.19 589.835 1761.78 590.406 1762.47 590.844C1763.95 591.621 1765.97 591.514 1766.97 590.615C1767.31 590.286 1767.52 589.849 1767.56 589.382C1767.61 588.914 1767.49 588.445 1767.23 588.055C1766.86 587.541 1766.12 587.109 1764.05 586.206C1761.66 585.178 1760.64 584.542 1759.7 583.528C1759.11 582.859 1758.68 582.07 1758.43 581.216C1758.24 580.241 1758.21 579.241 1758.35 578.257C1758.84 575.953 1760.57 574.344 1763.09 573.866C1764.26 573.722 1765.44 573.754 1766.6 573.963V573.955ZM1755.75 575.893V577.787H1749.74V594.887H1745.48V577.784H1739.47V575.934C1739.45 575.297 1739.47 574.66 1739.52 574.025C1739.54 573.996 1743.22 573.981 1747.66 573.988H1755.72L1755.75 575.893Z" fill="white"/>
</g>
<g clip-path="url(#clip2_69_1034)">
<path d="M1806.86 561.56L1809.85 594.821L1823.27 598.402L1836.73 594.888L1839.73 561.56H1806.86ZM1833.5 569.132L1833.32 571.29L1833.23 572.287H1817.49L1817.86 576.726H1832.86L1832.76 577.551L1831.79 588.244L1831.72 588.869L1823.29 591.138V591.137L1823.28 591.141L1814.86 588.953L1814.28 582.644H1818.42L1818.71 585.773L1823.29 586.935L1823.29 586.848V586.852L1827.88 585.873L1828.36 580.795H1814.1L1813.09 569.389L1812.99 568.218H1833.6L1833.5 569.132V569.132ZM1809.96 552.175H1812.04V554.23H1813.94V552.175H1816.02V558.397H1813.94V556.314H1812.04V558.397H1809.96V552.175ZM1818.76 554.239H1816.92V552.175H1822.67V554.239H1820.84V558.397H1818.76V554.239V554.239ZM1823.58 552.175H1825.75L1827.08 554.361L1828.41 552.175H1830.58V558.397H1828.51V555.313L1827.08 557.525H1827.04L1825.61 555.313V558.397H1823.58V552.175H1823.58ZM1831.62 552.175H1833.7V556.341H1836.62V558.398H1831.62V552.175V552.175Z" fill="white"/>
</g>
<g clip-path="url(#clip3_69_1034)">
<path d="M1894.31 561.635C1888 561.635 1884.05 564.79 1882.47 571.103C1884.84 567.947 1887.6 566.764 1890.76 567.553C1892.56 568.002 1893.85 569.308 1895.27 570.756C1897.59 573.111 1900.28 575.838 1906.15 575.838C1912.46 575.838 1916.4 572.682 1917.98 566.368C1915.62 569.525 1912.85 570.708 1909.7 569.92C1907.9 569.47 1906.61 568.164 1905.18 566.716C1902.86 564.361 1900.18 561.635 1894.31 561.635V561.635ZM1882.47 575.838C1876.16 575.838 1872.22 578.993 1870.64 585.308C1873 582.15 1875.77 580.967 1878.92 581.756C1880.72 582.206 1882.01 583.512 1883.44 584.959C1885.76 587.314 1888.44 590.041 1894.31 590.041C1900.62 590.041 1904.57 586.886 1906.15 580.573C1903.78 583.728 1901.02 584.912 1897.86 584.123C1896.06 583.674 1894.77 582.367 1893.35 580.919C1891.03 578.564 1888.34 575.838 1882.47 575.838Z" fill="white"/>
</g>
<path d="M1948.93 560.599L1951.92 594.072L1965.31 597.79L1978.74 594.067L1981.73 560.599H1948.93ZM1974.53 579.274L1973.67 587.372L1973.67 588.066L1965.33 590.394V590.395L1965.32 590.4L1956.92 588.098L1956.35 581.683H1960.47L1960.77 584.926L1965.33 586.145L1965.33 586.15V586.138L1969.92 584.845L1970.4 579.464H1960.82L1960.73 578.593L1960.55 576.504L1960.45 575.395H1970.76L1971.14 571.326H1955.43L1955.35 570.369L1955.16 568.138L1955.06 566.887H1975.63L1975.53 568.121L1974.53 579.274ZM1974.58 556.299L1971.93 553.201H1974.58V551.352H1968.66V552.966L1971.76 555.791H1968.66V557.64H1974.58V556.299ZM1967.55 556.299L1965.03 553.201H1967.55V551.352H1962V552.966L1964.86 555.791H1962V557.64H1967.55V556.299ZM1960.89 555.791H1957.93V553.201H1960.89V551.352H1955.71V557.64H1960.89V555.791Z" fill="white"/>
<rect x="134.72" y="81.0001" width="73.2113" height="74.3304" stroke="white" stroke-width="4"/>
<rect x="235.932" y="108.356" width="39.7602" height="18.8397" stroke="white" stroke-width="5"/>
<rect x="291.881" y="108.356" width="39.7602" height="18.8397" stroke="white" stroke-width="5"/>
<rect x="262.826" y="116.357" width="41.9222" height="2.83806" stroke="white" stroke-width="2.83806"/>
<rect x="318.775" y="116.357" width="41.9222" height="2.83806" stroke="white" stroke-width="2.83806"/>
<rect x="206.874" y="116.357" width="41.9222" height="2.83806" stroke="white" stroke-width="2.83806"/>
<rect x="2.73962" y="108.356" width="42.639" height="18.8397" stroke="white" stroke-width="5"/>
<rect x="62.2875" y="108.356" width="42.639" height="18.8397" stroke="white" stroke-width="5"/>
<rect x="31.4323" y="116.357" width="44.8009" height="2.83806" stroke="white" stroke-width="2.83806"/>
<rect x="90.9807" y="116.357" width="44.8009" height="2.83806" stroke="white" stroke-width="2.83806"/>
<mask id="path-92-inside-2_69_1034" fill="white">
<path d="M0.239624 115H18.2396V120H0.239624V115Z"/>
</mask>
<path d="M0.239624 115V110H-4.76038V115H0.239624ZM18.2396 115H23.2396V110H18.2396V115ZM18.2396 120V125H23.2396V120H18.2396ZM0.239624 120H-4.76038V125H0.239624V120ZM0.239624 120H18.2396V110H0.239624V120ZM13.2396 115V120H23.2396V115H13.2396ZM18.2396 115H0.239624V125H18.2396V115ZM5.23962 120V115H-4.76038V120H5.23962Z" fill="white" mask="url(#path-92-inside-2_69_1034)"/>
<rect x="364.118" y="81.0001" width="73.2113" height="74.3304" stroke="white" stroke-width="4"/>
<rect x="465.327" y="108.356" width="39.7602" height="18.8397" stroke="white" stroke-width="5"/>
<rect x="521.277" y="108.356" width="39.7602" height="18.8397" stroke="white" stroke-width="5"/>
<rect x="492.221" y="116.357" width="41.9222" height="2.83806" stroke="white" stroke-width="2.83806"/>
<rect x="548.171" y="116.357" width="41.9222" height="2.83806" stroke="white" stroke-width="2.83806"/>
<rect x="436.271" y="116.357" width="41.9222" height="2.83806" stroke="white" stroke-width="2.83806"/>
<rect x="593.512" y="81.0001" width="73.2113" height="74.3304" stroke="white" stroke-width="4"/>
<rect x="694.722" y="108.356" width="39.7602" height="18.8397" stroke="white" stroke-width="5"/>
<rect x="750.674" y="108.356" width="39.7602" height="18.8397" stroke="white" stroke-width="5"/>
<rect x="721.619" y="116.357" width="41.9222" height="2.83806" stroke="white" stroke-width="2.83806"/>
<rect x="777.569" y="116.357" width="41.9222" height="2.83806" stroke="white" stroke-width="2.83806"/>
<rect x="665.667" y="116.357" width="41.9222" height="2.83806" stroke="white" stroke-width="2.83806"/>
<rect x="822.91" y="81.0004" width="73.2113" height="74.3304" stroke="white" stroke-width="4"/>
<rect x="924.119" y="108.357" width="39.7602" height="18.8397" stroke="white" stroke-width="5"/>
<rect x="980.068" y="108.357" width="39.7602" height="18.8397" stroke="white" stroke-width="5"/>
<rect x="951.013" y="116.359" width="41.9222" height="2.83806" stroke="white" stroke-width="2.83806"/>
<rect x="1006.96" y="116.359" width="41.9222" height="2.83806" stroke="white" stroke-width="2.83806"/>
<rect x="895.064" y="116.359" width="41.9222" height="2.83806" stroke="white" stroke-width="2.83806"/>
<rect x="1052.24" y="81.0001" width="73" height="74" stroke="white" stroke-width="4"/>
<rect x="2" y="2" width="73.2113" height="74.3304" stroke="white" stroke-width="4"/>
<rect x="103.209" y="29.3563" width="39.7602" height="18.8397" stroke="white" stroke-width="5"/>
<rect x="159.161" y="29.3563" width="39.7602" height="18.8397" stroke="white" stroke-width="5"/>
<rect x="130.105" y="37.3574" width="41.9222" height="2.83806" stroke="white" stroke-width="2.83806"/>
<rect x="186.054" y="37.3574" width="41.9222" height="2.83806" stroke="white" stroke-width="2.83806"/>
<rect x="74.1535" y="37.3574" width="41.9222" height="2.83806" stroke="white" stroke-width="2.83806"/>
<rect x="231.395" y="2" width="73.2113" height="74.3304" stroke="white" stroke-width="4"/>
<rect x="332.607" y="29.3563" width="39.7602" height="18.8397" stroke="white" stroke-width="5"/>
<rect x="388.557" y="29.3563" width="39.7602" height="18.8397" stroke="white" stroke-width="5"/>
<rect x="359.501" y="37.3574" width="41.9222" height="2.83806" stroke="white" stroke-width="2.83806"/>
<rect x="415.45" y="37.3574" width="41.9222" height="2.83806" stroke="white" stroke-width="2.83806"/>
<rect x="303.55" y="37.3574" width="41.9222" height="2.83806" stroke="white" stroke-width="2.83806"/>
<rect x="460.791" y="2" width="73.2113" height="74.3304" stroke="white" stroke-width="4"/>
<rect x="562.003" y="29.3563" width="39.7602" height="18.8397" stroke="white" stroke-width="5"/>
<rect x="617.952" y="29.3563" width="39.7602" height="18.8397" stroke="white" stroke-width="5"/>
<rect x="588.897" y="37.3574" width="41.9222" height="2.83806" stroke="white" stroke-width="2.83806"/>
<rect x="644.846" y="37.3574" width="41.9222" height="2.83806" stroke="white" stroke-width="2.83806"/>
<rect x="532.945" y="37.3574" width="41.9222" height="2.83806" stroke="white" stroke-width="2.83806"/>
<rect x="690.186" y="2" width="73.2113" height="74.3304" stroke="white" stroke-width="4"/>
<rect x="791.395" y="29.3571" width="39.7602" height="18.8397" stroke="white" stroke-width="5"/>
<rect x="847.344" y="29.3571" width="39.7602" height="18.8397" stroke="white" stroke-width="5"/>
<rect x="818.288" y="37.358" width="41.9222" height="2.83806" stroke="white" stroke-width="2.83806"/>
<rect x="874.238" y="37.358" width="41.9222" height="2.83806" stroke="white" stroke-width="2.83806"/>
<rect x="762.339" y="37.358" width="41.9222" height="2.83806" stroke="white" stroke-width="2.83806"/>
<rect x="919.583" y="2" width="73.2113" height="74.3304" stroke="white" stroke-width="4"/>
<rect x="1023.59" y="29.3567" width="42.639" height="18.8397" stroke="white" stroke-width="5"/>
<rect x="1052.02" y="37.2087" width="27.4156" height="2.79751" stroke="white" stroke-width="2.79751"/>
<path d="M993.816 38.4387H1036.46V39.1148H993.816V38.4387Z" stroke="white" stroke-width="5"/>
<rect x="1082.52" y="29.5001" width="42.639" height="18.8397" stroke="white" stroke-width="5"/>
<rect x="1110.74" y="37.5001" width="15" height="3" stroke="white" stroke-width="3"/>
<path d="M1052.74 38.5822H1095.38V39.2583H1052.74V38.5822Z" stroke="white" stroke-width="5"/>
<rect x="134.72" y="241" width="73.2113" height="74.3304" stroke="white" stroke-width="4"/>
<rect x="235.932" y="268.356" width="39.7602" height="18.8397" stroke="white" stroke-width="5"/>
<rect x="291.881" y="268.356" width="39.7602" height="18.8397" stroke="white" stroke-width="5"/>
<rect x="262.826" y="276.357" width="41.9222" height="2.83806" stroke="white" stroke-width="2.83806"/>
<rect x="318.775" y="276.357" width="41.9222" height="2.83806" stroke="white" stroke-width="2.83806"/>
<rect x="206.874" y="276.357" width="41.9222" height="2.83806" stroke="white" stroke-width="2.83806"/>
<rect x="2.73962" y="268.356" width="42.639" height="18.8397" stroke="white" stroke-width="5"/>
<rect x="62.2875" y="268.356" width="42.639" height="18.8397" stroke="white" stroke-width="5"/>
<rect x="31.4323" y="276.357" width="44.8009" height="2.83806" stroke="white" stroke-width="2.83806"/>
<rect x="90.9807" y="276.357" width="44.8009" height="2.83806" stroke="white" stroke-width="2.83806"/>
<mask id="path-154-inside-3_69_1034" fill="white">
<path d="M0.239624 275H18.2396V280H0.239624V275Z"/>
</mask>
<path d="M0.239624 275V270H-4.76038V275H0.239624ZM18.2396 275H23.2396V270H18.2396V275ZM18.2396 280V285H23.2396V280H18.2396ZM0.239624 280H-4.76038V285H0.239624V280ZM0.239624 280H18.2396V270H0.239624V280ZM13.2396 275V280H23.2396V275H13.2396ZM18.2396 275H0.239624V285H18.2396V275ZM5.23962 280V275H-4.76038V280H5.23962Z" fill="white" mask="url(#path-154-inside-3_69_1034)"/>
<rect x="364.118" y="241" width="73.2113" height="74.3304" stroke="white" stroke-width="4"/>
<rect x="465.327" y="268.356" width="39.7602" height="18.8397" stroke="white" stroke-width="5"/>
<rect x="521.277" y="268.356" width="39.7602" height="18.8397" stroke="white" stroke-width="5"/>
<rect x="492.221" y="276.357" width="41.9222" height="2.83806" stroke="white" stroke-width="2.83806"/>
<rect x="548.171" y="276.357" width="41.9222" height="2.83806" stroke="white" stroke-width="2.83806"/>
<rect x="436.271" y="276.357" width="41.9222" height="2.83806" stroke="white" stroke-width="2.83806"/>
<rect x="593.512" y="241" width="73.2113" height="74.3304" stroke="white" stroke-width="4"/>
<rect x="694.722" y="268.356" width="39.7602" height="18.8397" stroke="white" stroke-width="5"/>
<rect x="750.674" y="268.356" width="39.7602" height="18.8397" stroke="white" stroke-width="5"/>
<rect x="721.619" y="276.357" width="41.9222" height="2.83806" stroke="white" stroke-width="2.83806"/>
<rect x="777.569" y="276.357" width="41.9222" height="2.83806" stroke="white" stroke-width="2.83806"/>
<rect x="665.667" y="276.357" width="41.9222" height="2.83806" stroke="white" stroke-width="2.83806"/>
<rect x="822.91" y="241" width="73.2113" height="74.3304" stroke="white" stroke-width="4"/>
<rect x="924.119" y="268.357" width="39.7602" height="18.8397" stroke="white" stroke-width="5"/>
<rect x="980.068" y="268.357" width="39.7602" height="18.8397" stroke="white" stroke-width="5"/>
<rect x="951.013" y="276.359" width="41.9222" height="2.83806" stroke="white" stroke-width="2.83806"/>
<rect x="1006.96" y="276.359" width="41.9222" height="2.83806" stroke="white" stroke-width="2.83806"/>
<rect x="895.064" y="276.359" width="41.9222" height="2.83806" stroke="white" stroke-width="2.83806"/>
<rect x="1052.24" y="241" width="73" height="74" stroke="white" stroke-width="4"/>
<rect x="2" y="162" width="73.2113" height="74.3304" stroke="white" stroke-width="4"/>
<rect x="103.209" y="189.356" width="39.7602" height="18.8397" stroke="white" stroke-width="5"/>
<rect x="159.161" y="189.356" width="39.7602" height="18.8397" stroke="white" stroke-width="5"/>
<rect x="130.105" y="197.357" width="41.9222" height="2.83806" stroke="white" stroke-width="2.83806"/>
<rect x="186.054" y="197.357" width="41.9222" height="2.83806" stroke="white" stroke-width="2.83806"/>
<rect x="74.1535" y="197.357" width="41.9222" height="2.83806" stroke="white" stroke-width="2.83806"/>
<rect x="231.395" y="162" width="73.2113" height="74.3304" stroke="white" stroke-width="4"/>
<rect x="332.607" y="189.356" width="39.7602" height="18.8397" stroke="white" stroke-width="5"/>
<rect x="388.557" y="189.356" width="39.7602" height="18.8397" stroke="white" stroke-width="5"/>
<rect x="359.501" y="197.357" width="41.9222" height="2.83806" stroke="white" stroke-width="2.83806"/>
<rect x="415.45" y="197.357" width="41.9222" height="2.83806" stroke="white" stroke-width="2.83806"/>
<rect x="303.55" y="197.357" width="41.9222" height="2.83806" stroke="white" stroke-width="2.83806"/>
<rect x="460.791" y="162" width="73.2113" height="74.3304" stroke="white" stroke-width="4"/>
<rect x="562.003" y="189.356" width="39.7602" height="18.8397" stroke="white" stroke-width="5"/>
<rect x="617.952" y="189.356" width="39.7602" height="18.8397" stroke="white" stroke-width="5"/>
<rect x="588.897" y="197.357" width="41.9222" height="2.83806" stroke="white" stroke-width="2.83806"/>
<rect x="644.846" y="197.357" width="41.9222" height="2.83806" stroke="white" stroke-width="2.83806"/>
<rect x="532.945" y="197.357" width="41.9222" height="2.83806" stroke="white" stroke-width="2.83806"/>
<rect x="690.186" y="162" width="73.2113" height="74.3304" stroke="white" stroke-width="4"/>
<rect x="791.395" y="189.357" width="39.7602" height="18.8397" stroke="white" stroke-width="5"/>
<rect x="847.344" y="189.357" width="39.7602" height="18.8397" stroke="white" stroke-width="5"/>
<rect x="818.288" y="197.358" width="41.9222" height="2.83806" stroke="white" stroke-width="2.83806"/>
<rect x="874.238" y="197.358" width="41.9222" height="2.83806" stroke="white" stroke-width="2.83806"/>
<rect x="762.339" y="197.358" width="41.9222" height="2.83806" stroke="white" stroke-width="2.83806"/>
<rect x="919.583" y="162" width="73.2113" height="74.3304" stroke="white" stroke-width="4"/>
<rect x="1023.59" y="189.357" width="42.639" height="18.8397" stroke="white" stroke-width="5"/>
<rect x="1052.02" y="197.209" width="27.4156" height="2.79751" stroke="white" stroke-width="2.79751"/>
<path d="M993.816 198.439H1036.46V199.115H993.816V198.439Z" stroke="white" stroke-width="5"/>
<rect x="1082.52" y="189.5" width="42.639" height="18.8397" stroke="white" stroke-width="5"/>
<rect x="1110.74" y="197.5" width="15" height="3" stroke="white" stroke-width="3"/>
<path d="M1052.74 198.582H1095.38V199.258H1052.74V198.582Z" stroke="white" stroke-width="5"/>
<rect x="134.72" y="398" width="73.2113" height="74.3304" stroke="white" stroke-width="4"/>
<rect x="235.932" y="425.356" width="39.7602" height="18.8397" stroke="white" stroke-width="5"/>
<rect x="291.881" y="425.356" width="39.7602" height="18.8397" stroke="white" stroke-width="5"/>
<rect x="262.826" y="433.357" width="41.9222" height="2.83806" stroke="white" stroke-width="2.83806"/>
<rect x="318.775" y="433.357" width="41.9222" height="2.83806" stroke="white" stroke-width="2.83806"/>
<rect x="206.874" y="433.357" width="41.9222" height="2.83806" stroke="white" stroke-width="2.83806"/>
<rect x="2.73962" y="425.356" width="42.639" height="18.8397" stroke="white" stroke-width="5"/>
<rect x="62.2875" y="425.356" width="42.639" height="18.8397" stroke="white" stroke-width="5"/>
<rect x="31.4323" y="433.357" width="44.8009" height="2.83806" stroke="white" stroke-width="2.83806"/>
<rect x="90.9807" y="433.357" width="44.8009" height="2.83806" stroke="white" stroke-width="2.83806"/>
<mask id="path-216-inside-4_69_1034" fill="white">
<path d="M0.239624 432H18.2396V437H0.239624V432Z"/>
</mask>
<path d="M0.239624 432V427H-4.76038V432H0.239624ZM18.2396 432H23.2396V427H18.2396V432ZM18.2396 437V442H23.2396V437H18.2396ZM0.239624 437H-4.76038V442H0.239624V437ZM0.239624 437H18.2396V427H0.239624V437ZM13.2396 432V437H23.2396V432H13.2396ZM18.2396 432H0.239624V442H18.2396V432ZM5.23962 437V432H-4.76038V437H5.23962Z" fill="white" mask="url(#path-216-inside-4_69_1034)"/>
<rect x="364.118" y="398" width="73.2113" height="74.3304" stroke="white" stroke-width="4"/>
<rect x="465.327" y="425.356" width="39.7602" height="18.8397" stroke="white" stroke-width="5"/>
<rect x="521.277" y="425.356" width="39.7602" height="18.8397" stroke="white" stroke-width="5"/>
<rect x="492.221" y="433.357" width="41.9222" height="2.83806" stroke="white" stroke-width="2.83806"/>
<rect x="548.171" y="433.357" width="41.9222" height="2.83806" stroke="white" stroke-width="2.83806"/>
<rect x="436.271" y="433.357" width="41.9222" height="2.83806" stroke="white" stroke-width="2.83806"/>
<rect x="593.512" y="398" width="73.2113" height="74.3304" stroke="white" stroke-width="4"/>
<rect x="694.722" y="425.356" width="39.7602" height="18.8397" stroke="white" stroke-width="5"/>
<rect x="750.674" y="425.356" width="39.7602" height="18.8397" stroke="white" stroke-width="5"/>
<rect x="721.619" y="433.357" width="41.9222" height="2.83806" stroke="white" stroke-width="2.83806"/>
<rect x="777.569" y="433.357" width="41.9222" height="2.83806" stroke="white" stroke-width="2.83806"/>
<rect x="665.667" y="433.357" width="41.9222" height="2.83806" stroke="white" stroke-width="2.83806"/>
<rect x="822.91" y="398" width="73.2113" height="74.3304" stroke="white" stroke-width="4"/>
<rect x="924.119" y="425.357" width="39.7602" height="18.8397" stroke="white" stroke-width="5"/>
<rect x="980.068" y="425.357" width="39.7602" height="18.8397" stroke="white" stroke-width="5"/>
<rect x="951.013" y="433.359" width="41.9222" height="2.83806" stroke="white" stroke-width="2.83806"/>
<rect x="1006.96" y="433.359" width="41.9222" height="2.83806" stroke="white" stroke-width="2.83806"/>
<rect x="895.064" y="433.359" width="41.9222" height="2.83806" stroke="white" stroke-width="2.83806"/>
<rect x="1052.24" y="398" width="73" height="74" stroke="white" stroke-width="4"/>
<rect x="2" y="319" width="73.2113" height="74.3304" stroke="white" stroke-width="4"/>
<rect x="103.209" y="346.356" width="39.7602" height="18.8397" stroke="white" stroke-width="5"/>
<rect x="159.161" y="346.356" width="39.7602" height="18.8397" stroke="white" stroke-width="5"/>
<rect x="130.105" y="354.357" width="41.9222" height="2.83806" stroke="white" stroke-width="2.83806"/>
<rect x="186.054" y="354.357" width="41.9222" height="2.83806" stroke="white" stroke-width="2.83806"/>
<rect x="74.1535" y="354.357" width="41.9222" height="2.83806" stroke="white" stroke-width="2.83806"/>
<rect x="231.395" y="319" width="73.2113" height="74.3304" stroke="white" stroke-width="4"/>
<rect x="332.607" y="346.356" width="39.7602" height="18.8397" stroke="white" stroke-width="5"/>
<rect x="388.557" y="346.356" width="39.7602" height="18.8397" stroke="white" stroke-width="5"/>
<rect x="359.501" y="354.357" width="41.9222" height="2.83806" stroke="white" stroke-width="2.83806"/>
<rect x="415.45" y="354.357" width="41.9222" height="2.83806" stroke="white" stroke-width="2.83806"/>
<rect x="303.55" y="354.357" width="41.9222" height="2.83806" stroke="white" stroke-width="2.83806"/>
<rect x="460.791" y="319" width="73.2113" height="74.3304" stroke="white" stroke-width="4"/>
<rect x="562.003" y="346.356" width="39.7602" height="18.8397" stroke="white" stroke-width="5"/>
<rect x="617.952" y="346.356" width="39.7602" height="18.8397" stroke="white" stroke-width="5"/>
<rect x="588.897" y="354.357" width="41.9222" height="2.83806" stroke="white" stroke-width="2.83806"/>
<rect x="644.846" y="354.357" width="41.9222" height="2.83806" stroke="white" stroke-width="2.83806"/>
<rect x="532.945" y="354.357" width="41.9222" height="2.83806" stroke="white" stroke-width="2.83806"/>
<rect x="690.186" y="319" width="73.2113" height="74.3304" stroke="white" stroke-width="4"/>
<rect x="791.395" y="346.357" width="39.7602" height="18.8397" stroke="white" stroke-width="5"/>
<rect x="847.344" y="346.357" width="39.7602" height="18.8397" stroke="white" stroke-width="5"/>
<rect x="818.288" y="354.358" width="41.9222" height="2.83806" stroke="white" stroke-width="2.83806"/>
<rect x="874.238" y="354.358" width="41.9222" height="2.83806" stroke="white" stroke-width="2.83806"/>
<rect x="762.339" y="354.358" width="41.9222" height="2.83806" stroke="white" stroke-width="2.83806"/>
<rect x="919.583" y="319" width="73.2113" height="74.3304" stroke="white" stroke-width="4"/>
<rect x="1023.59" y="346.357" width="42.639" height="18.8397" stroke="white" stroke-width="5"/>
<rect x="1052.02" y="354.209" width="27.4156" height="2.79751" stroke="white" stroke-width="2.79751"/>
<path d="M993.816 355.439H1036.46V356.115H993.816V355.439Z" stroke="white" stroke-width="5"/>
<rect x="1082.52" y="346.5" width="42.639" height="18.8397" stroke="white" stroke-width="5"/>
<rect x="1110.74" y="354.5" width="15" height="3" stroke="white" stroke-width="3"/>
<path d="M1052.74 355.582H1095.38V356.258H1052.74V355.582Z" stroke="white" stroke-width="5"/>
<rect x="2" y="476" width="73.2113" height="74.3304" stroke="white" stroke-width="4"/>
<rect x="103.209" y="503.356" width="39.7602" height="18.8397" stroke="white" stroke-width="5"/>
<rect x="159.161" y="503.356" width="39.7602" height="18.8397" stroke="white" stroke-width="5"/>
<rect x="130.105" y="511.357" width="41.9222" height="2.83806" stroke="white" stroke-width="2.83806"/>
<rect x="186.054" y="511.357" width="41.9222" height="2.83806" stroke="white" stroke-width="2.83806"/>
<rect x="74.1535" y="511.357" width="41.9222" height="2.83806" stroke="white" stroke-width="2.83806"/>
<rect x="231.395" y="476" width="73.2113" height="74.3304" stroke="white" stroke-width="4"/>
<rect x="332.607" y="503.356" width="39.7602" height="18.8397" stroke="white" stroke-width="5"/>
<rect x="388.557" y="503.356" width="39.7602" height="18.8397" stroke="white" stroke-width="5"/>
<rect x="359.501" y="511.357" width="41.9222" height="2.83806" stroke="white" stroke-width="2.83806"/>
<rect x="415.45" y="511.357" width="41.9222" height="2.83806" stroke="white" stroke-width="2.83806"/>
<rect x="303.55" y="511.357" width="41.9222" height="2.83806" stroke="white" stroke-width="2.83806"/>
<rect x="460.791" y="476" width="73.2113" height="74.3304" stroke="white" stroke-width="4"/>
<rect x="562.003" y="503.356" width="39.7602" height="18.8397" stroke="white" stroke-width="5"/>
<rect x="617.952" y="503.356" width="39.7602" height="18.8397" stroke="white" stroke-width="5"/>
<rect x="588.897" y="511.357" width="41.9222" height="2.83806" stroke="white" stroke-width="2.83806"/>
<rect x="644.846" y="511.357" width="41.9222" height="2.83806" stroke="white" stroke-width="2.83806"/>
<rect x="532.945" y="511.357" width="41.9222" height="2.83806" stroke="white" stroke-width="2.83806"/>
<rect x="690.186" y="476" width="73.2113" height="74.3304" stroke="white" stroke-width="4"/>
<rect x="791.395" y="503.357" width="39.7602" height="18.8397" stroke="white" stroke-width="5"/>
<rect x="847.344" y="503.357" width="39.7602" height="18.8397" stroke="white" stroke-width="5"/>
<rect x="818.288" y="511.358" width="41.9222" height="2.83806" stroke="white" stroke-width="2.83806"/>
<rect x="874.238" y="511.358" width="41.9222" height="2.83806" stroke="white" stroke-width="2.83806"/>
<rect x="762.339" y="511.358" width="41.9222" height="2.83806" stroke="white" stroke-width="2.83806"/>
<rect x="919.583" y="476" width="73.2113" height="74.3304" stroke="white" stroke-width="4"/>
<rect x="1023.59" y="503.357" width="42.639" height="18.8397" stroke="white" stroke-width="5"/>
<rect x="1052.02" y="511.209" width="27.4156" height="2.79751" stroke="white" stroke-width="2.79751"/>
<path d="M993.816 512.439H1036.46V513.115H993.816V512.439Z" stroke="white" stroke-width="5"/>
<rect x="1082.52" y="503.5" width="42.639" height="18.8397" stroke="white" stroke-width="5"/>
<rect x="1110.74" y="511.5" width="15" height="3" stroke="white" stroke-width="3"/>
<path d="M1052.74 512.582H1095.38V513.258H1052.74V512.582Z" stroke="white" stroke-width="5"/>
<rect x="134.72" y="555" width="73.2113" height="74.3304" stroke="white" stroke-width="4"/>
<rect x="235.932" y="582.356" width="39.7602" height="18.8397" stroke="white" stroke-width="5"/>
<rect x="291.881" y="582.356" width="39.7602" height="18.8397" stroke="white" stroke-width="5"/>
<rect x="262.826" y="590.357" width="41.9222" height="2.83806" stroke="white" stroke-width="2.83806"/>
<rect x="318.775" y="590.357" width="41.9222" height="2.83806" stroke="white" stroke-width="2.83806"/>
<rect x="206.874" y="590.357" width="41.9222" height="2.83806" stroke="white" stroke-width="2.83806"/>
<rect x="2.73962" y="582.356" width="42.639" height="18.8397" stroke="white" stroke-width="5"/>
<rect x="62.2875" y="582.356" width="42.639" height="18.8397" stroke="white" stroke-width="5"/>
<rect x="31.4323" y="590.357" width="44.8009" height="2.83806" stroke="white" stroke-width="2.83806"/>
<rect x="90.9807" y="590.357" width="44.8009" height="2.83806" stroke="white" stroke-width="2.83806"/>
<mask id="path-309-inside-5_69_1034" fill="white">
<path d="M0.239624 589H18.2396V594H0.239624V589Z"/>
</mask>
<path d="M0.239624 589V584H-4.76038V589H0.239624ZM18.2396 589H23.2396V584H18.2396V589ZM18.2396 594V599H23.2396V594H18.2396ZM0.239624 594H-4.76038V599H0.239624V594ZM0.239624 594H18.2396V584H0.239624V594ZM13.2396 589V594H23.2396V589H13.2396ZM18.2396 589H0.239624V599H18.2396V589ZM5.23962 594V589H-4.76038V594H5.23962Z" fill="white" mask="url(#path-309-inside-5_69_1034)"/>
<rect x="364.118" y="555" width="73.2113" height="74.3304" stroke="white" stroke-width="4"/>
<rect x="465.327" y="582.356" width="39.7602" height="18.8397" stroke="white" stroke-width="5"/>
<rect x="521.277" y="582.356" width="39.7602" height="18.8397" stroke="white" stroke-width="5"/>
<rect x="492.221" y="590.357" width="41.9222" height="2.83806" stroke="white" stroke-width="2.83806"/>
<rect x="548.171" y="590.357" width="41.9222" height="2.83806" stroke="white" stroke-width="2.83806"/>
<rect x="436.271" y="590.357" width="41.9222" height="2.83806" stroke="white" stroke-width="2.83806"/>
<rect x="593.512" y="555" width="73.2113" height="74.3304" stroke="white" stroke-width="4"/>
<rect x="694.722" y="582.356" width="39.7602" height="18.8397" stroke="white" stroke-width="5"/>
<rect x="750.674" y="582.356" width="39.7602" height="18.8397" stroke="white" stroke-width="5"/>
<rect x="721.619" y="590.357" width="41.9222" height="2.83806" stroke="white" stroke-width="2.83806"/>
<rect x="777.569" y="590.357" width="41.9222" height="2.83806" stroke="white" stroke-width="2.83806"/>
<rect x="665.667" y="590.357" width="41.9222" height="2.83806" stroke="white" stroke-width="2.83806"/>
<rect x="822.91" y="555" width="73.2113" height="74.3304" stroke="white" stroke-width="4"/>
<rect x="924.119" y="582.357" width="39.7602" height="18.8397" stroke="white" stroke-width="5"/>
<rect x="980.068" y="582.357" width="39.7602" height="18.8397" stroke="white" stroke-width="5"/>
<rect x="951.013" y="590.359" width="41.9222" height="2.83806" stroke="white" stroke-width="2.83806"/>
<rect x="1006.96" y="590.359" width="41.9222" height="2.83806" stroke="white" stroke-width="2.83806"/>
<rect x="895.064" y="590.359" width="41.9222" height="2.83806" stroke="white" stroke-width="2.83806"/>
<rect x="1052.24" y="555" width="73" height="74" stroke="white" stroke-width="4"/>
<rect x="2" y="476" width="73.2113" height="74.3304" stroke="white" stroke-width="4"/>
<rect x="103.209" y="503.356" width="39.7602" height="18.8397" stroke="white" stroke-width="5"/>
<rect x="159.161" y="503.356" width="39.7602" height="18.8397" stroke="white" stroke-width="5"/>
<rect x="130.105" y="511.357" width="41.9222" height="2.83806" stroke="white" stroke-width="2.83806"/>
<rect x="186.054" y="511.357" width="41.9222" height="2.83806" stroke="white" stroke-width="2.83806"/>
<rect x="74.1535" y="511.357" width="41.9222" height="2.83806" stroke="white" stroke-width="2.83806"/>
<rect x="231.395" y="476" width="73.2113" height="74.3304" stroke="white" stroke-width="4"/>
<rect x="332.607" y="503.356" width="39.7602" height="18.8397" stroke="white" stroke-width="5"/>
<rect x="388.557" y="503.356" width="39.7602" height="18.8397" stroke="white" stroke-width="5"/>
<rect x="359.501" y="511.357" width="41.9222" height="2.83806" stroke="white" stroke-width="2.83806"/>
<rect x="415.45" y="511.357" width="41.9222" height="2.83806" stroke="white" stroke-width="2.83806"/>
<rect x="303.55" y="511.357" width="41.9222" height="2.83806" stroke="white" stroke-width="2.83806"/>
<rect x="460.791" y="476" width="73.2113" height="74.3304" stroke="white" stroke-width="4"/>
<rect x="562.003" y="503.356" width="39.7602" height="18.8397" stroke="white" stroke-width="5"/>
<rect x="617.952" y="503.356" width="39.7602" height="18.8397" stroke="white" stroke-width="5"/>
<rect x="588.897" y="511.357" width="41.9222" height="2.83806" stroke="white" stroke-width="2.83806"/>
<rect x="644.846" y="511.357" width="41.9222" height="2.83806" stroke="white" stroke-width="2.83806"/>
<rect x="532.945" y="511.357" width="41.9222" height="2.83806" stroke="white" stroke-width="2.83806"/>
<rect x="690.186" y="476" width="73.2113" height="74.3304" stroke="white" stroke-width="4"/>
<rect x="791.395" y="503.357" width="39.7602" height="18.8397" stroke="white" stroke-width="5"/>
<rect x="847.344" y="503.357" width="39.7602" height="18.8397" stroke="white" stroke-width="5"/>
<rect x="818.288" y="511.358" width="41.9222" height="2.83806" stroke="white" stroke-width="2.83806"/>
<rect x="874.238" y="511.358" width="41.9222" height="2.83806" stroke="white" stroke-width="2.83806"/>
<rect x="762.339" y="511.358" width="41.9222" height="2.83806" stroke="white" stroke-width="2.83806"/>
<rect x="919.583" y="476" width="73.2113" height="74.3304" stroke="white" stroke-width="4"/>
<rect x="1023.59" y="503.357" width="42.639" height="18.8397" stroke="white" stroke-width="5"/>
<rect x="1052.02" y="511.209" width="27.4156" height="2.79751" stroke="white" stroke-width="2.79751"/>
<path d="M993.816 512.439H1036.46V513.115H993.816V512.439Z" stroke="white" stroke-width="5"/>
<rect x="1082.52" y="503.5" width="42.639" height="18.8397" stroke="white" stroke-width="5"/>
<rect x="1110.74" y="511.5" width="15" height="3" stroke="white" stroke-width="3"/>
<path d="M1052.74 512.582H1095.38V513.258H1052.74V512.582Z" stroke="white" stroke-width="5"/>
<rect x="2" y="633" width="73.2113" height="74.3304" stroke="white" stroke-width="4"/>
<rect x="103.209" y="660.356" width="39.7602" height="18.8397" stroke="white" stroke-width="5"/>
<rect x="159.161" y="660.356" width="39.7602" height="18.8397" stroke="white" stroke-width="5"/>
<rect x="130.105" y="668.357" width="41.9222" height="2.83806" stroke="white" stroke-width="2.83806"/>
<rect x="186.054" y="668.357" width="41.9222" height="2.83806" stroke="white" stroke-width="2.83806"/>
<rect x="74.1535" y="668.357" width="41.9222" height="2.83806" stroke="white" stroke-width="2.83806"/>
<rect x="231.395" y="633" width="73.2113" height="74.3304" stroke="white" stroke-width="4"/>
<rect x="332.607" y="660.356" width="39.7602" height="18.8397" stroke="white" stroke-width="5"/>
<rect x="388.557" y="660.356" width="39.7602" height="18.8397" stroke="white" stroke-width="5"/>
<rect x="359.501" y="668.357" width="41.9222" height="2.83806" stroke="white" stroke-width="2.83806"/>
<rect x="415.45" y="668.357" width="41.9222" height="2.83806" stroke="white" stroke-width="2.83806"/>
<rect x="303.55" y="668.357" width="41.9222" height="2.83806" stroke="white" stroke-width="2.83806"/>
<rect x="460.791" y="633" width="73.2113" height="74.3304" stroke="white" stroke-width="4"/>
<rect x="562.003" y="660.356" width="39.7602" height="18.8397" stroke="white" stroke-width="5"/>
<rect x="617.952" y="660.356" width="39.7602" height="18.8397" stroke="white" stroke-width="5"/>
<rect x="588.897" y="668.357" width="41.9222" height="2.83806" stroke="white" stroke-width="2.83806"/>
<rect x="644.846" y="668.357" width="41.9222" height="2.83806" stroke="white" stroke-width="2.83806"/>
<rect x="532.945" y="668.357" width="41.9222" height="2.83806" stroke="white" stroke-width="2.83806"/>
<rect x="690.186" y="633" width="73.2113" height="74.3304" stroke="white" stroke-width="4"/>
<rect x="791.395" y="660.357" width="39.7602" height="18.8397" stroke="white" stroke-width="5"/>
<rect x="847.344" y="660.357" width="39.7602" height="18.8397" stroke="white" stroke-width="5"/>
<rect x="818.288" y="668.358" width="41.9222" height="2.83806" stroke="white" stroke-width="2.83806"/>
<rect x="874.238" y="668.358" width="41.9222" height="2.83806" stroke="white" stroke-width="2.83806"/>
<rect x="762.339" y="668.358" width="41.9222" height="2.83806" stroke="white" stroke-width="2.83806"/>
<rect x="919.583" y="633" width="73.2113" height="74.3304" stroke="white" stroke-width="4"/>
<rect x="1023.59" y="660.357" width="42.639" height="18.8397" stroke="white" stroke-width="5"/>
<rect x="1052.02" y="668.209" width="27.4156" height="2.79751" stroke="white" stroke-width="2.79751"/>
<path d="M993.816 669.439H1036.46V670.115H993.816V669.439Z" stroke="white" stroke-width="5"/>
<rect x="1082.52" y="660.5" width="42.639" height="18.8397" stroke="white" stroke-width="5"/>
<rect x="1110.74" y="668.5" width="15" height="3" stroke="white" stroke-width="3"/>
<path d="M1052.74 669.582H1095.38V670.258H1052.74V669.582Z" stroke="white" stroke-width="5"/>
<defs>
<clipPath id="clip0_69_1034">
<rect width="47.3464" height="47.3464" fill="white" transform="translate(1657.58 552.165)"/>
</clipPath>
<clipPath id="clip1_69_1034">
<rect width="47.3464" height="47.3464" fill="white" transform="translate(1728.6 552.165)"/>
</clipPath>
<clipPath id="clip2_69_1034">
<rect width="47.3464" height="47.3464" fill="white" transform="translate(1799.62 551.573)"/>
</clipPath>
<clipPath id="clip3_69_1034">
<rect width="47.3464" height="47.3464" fill="white" transform="translate(1870.64 552.165)"/>
</clipPath>
</defs>
</svg>
