<svg width="2167" height="563" viewBox="0 0 2167 563" fill="none" xmlns="http://www.w3.org/2000/svg">
<rect x="1063.11" y="26.5" width="37.5726" height="16.3043" stroke="white" stroke-width="5"/>
<rect x="1116.32" y="26.5" width="37.5726" height="16.3043" stroke="white" stroke-width="5"/>
<rect x="1088.48" y="33.3841" width="40.0364" height="2.53623" stroke="white" stroke-width="2.53623"/>
<rect x="1141.7" y="33.3841" width="40.0364" height="2.53623" stroke="white" stroke-width="2.53623"/>
<path d="M1036.5 34.616H1074.07V34.6884H1036.5V34.616Z" stroke="white" stroke-width="5"/>
<rect x="1940.1" y="26.5" width="37.5726" height="16.3043" stroke="white" stroke-width="5"/>
<rect x="1993.32" y="26.5" width="37.5726" height="16.3043" stroke="white" stroke-width="5"/>
<rect x="1965.48" y="33.3841" width="40.0364" height="2.53623" stroke="white" stroke-width="2.53623"/>
<rect x="2018.7" y="33.3841" width="40.0364" height="2.53623" stroke="white" stroke-width="2.53623"/>
<path d="M1913.5 34.616H1951.07V34.6884H1913.5V34.616Z" stroke="white" stroke-width="5"/>
<rect x="2046.11" y="26.5" width="37.5726" height="16.3043" stroke="white" stroke-width="5"/>
<rect x="2099.32" y="26.5" width="37.5726" height="16.3043" stroke="white" stroke-width="5"/>
<rect x="2071.48" y="33.3841" width="40.0364" height="2.53623" stroke="white" stroke-width="2.53623"/>
<rect x="2124.7" y="33.3841" width="40.0364" height="2.53623" stroke="white" stroke-width="2.53623"/>
<path d="M2019.5 34.616H2057.07V34.6884H2019.5V34.616Z" stroke="white" stroke-width="5"/>
<rect x="1185" y="2" width="69.4378" height="66" stroke="white" stroke-width="4"/>
<rect x="1281.29" y="26.5" width="37.5726" height="16.3043" stroke="white" stroke-width="5"/>
<rect x="1334.51" y="26.5" width="37.5726" height="16.3043" stroke="white" stroke-width="5"/>
<rect x="1306.67" y="33.3841" width="40.0364" height="2.53623" stroke="white" stroke-width="2.53623"/>
<rect x="1359.88" y="33.3841" width="40.0364" height="2.53623" stroke="white" stroke-width="2.53623"/>
<rect x="1253.45" y="33.3841" width="40.0364" height="2.53623" stroke="white" stroke-width="2.53623"/>
<rect x="1403.19" y="2" width="69.4378" height="66" stroke="white" stroke-width="4"/>
<rect x="1499.48" y="26.5" width="37.5726" height="16.3043" stroke="white" stroke-width="5"/>
<rect x="1552.69" y="26.5" width="37.5726" height="16.3043" stroke="white" stroke-width="5"/>
<rect x="1524.85" y="33.3841" width="40.0364" height="2.53623" stroke="white" stroke-width="2.53623"/>
<rect x="1578.07" y="33.3841" width="40.0364" height="2.53623" stroke="white" stroke-width="2.53623"/>
<rect x="1471.64" y="33.3841" width="40.0364" height="2.53623" stroke="white" stroke-width="2.53623"/>
<rect x="1621.37" y="2" width="69.4378" height="66" fill="white" stroke="white" stroke-width="4"/>
<path fill-rule="evenodd" clip-rule="evenodd" d="M1656.15 9.5779L1640.83 33.9579C1640.65 34.1071 1640.53 34.31 1640.47 34.5314L1640 35.2817L1657.14 45.2024L1674.29 35.2817L1658.14 9.58029C1658.09 9.46399 1658.02 9.35788 1657.94 9.26617L1657.14 8L1656.35 9.2681C1656.26 9.35874 1656.2 9.46335 1656.15 9.5779ZM1656.07 13.7323L1644.47 32.1894L1656.07 26.6685V13.7323ZM1656.07 29.0418L1643.68 34.9383L1656.07 42.1067V29.0418ZM1658.21 42.1064V29.0667L1670.39 35.0579L1658.21 42.1064ZM1658.21 26.6786V13.7331L1669.99 32.4701L1658.21 26.6786ZM1657.02 48.1065L1640 38.2579L1657.14 61.5714L1674.29 38.2579L1657.27 48.1064C1657.23 48.1017 1657.19 48.0993 1657.14 48.0993C1657.1 48.0993 1657.06 48.1018 1657.02 48.1065ZM1656.07 50.0345L1647.8 45.2471L1656.07 56.4974V50.0345ZM1658.21 56.4967L1666.49 45.2471L1658.21 50.0342V56.4967Z" fill="#1D90FF"/>
<rect x="1717.66" y="26.5" width="37.5726" height="16.3043" stroke="white" stroke-width="5"/>
<rect x="1770.88" y="26.5" width="37.5726" height="16.3043" stroke="white" stroke-width="5"/>
<rect x="1743.04" y="33.3841" width="40.0364" height="2.53623" stroke="white" stroke-width="2.53623"/>
<rect x="1796.25" y="33.3841" width="40.0364" height="2.53623" stroke="white" stroke-width="2.53623"/>
<rect x="1689.82" y="33.3841" width="40.0364" height="2.53623" stroke="white" stroke-width="2.53623"/>
<rect x="1839.56" y="2" width="69.4378" height="66" stroke="white" stroke-width="4"/>
<rect x="147" y="2" width="65" height="66" stroke="white" stroke-width="4"/>
<rect x="237.5" y="26.5" width="35" height="16.3043" stroke="white" stroke-width="5"/>
<rect x="287.5" y="26.5" width="35" height="16.3043" stroke="white" stroke-width="5"/>
<rect x="261.268" y="33.3841" width="37.4638" height="2.53623" stroke="white" stroke-width="2.53623"/>
<rect x="311.268" y="33.3841" width="37.4638" height="2.53623" stroke="white" stroke-width="2.53623"/>
<rect x="211.268" y="33.3841" width="37.4638" height="2.53623" stroke="white" stroke-width="2.53623"/>
<rect x="29.1079" y="26.5" width="37.5726" height="16.3043" stroke="white" stroke-width="5"/>
<rect x="82.3236" y="26.5" width="37.5726" height="16.3043" stroke="white" stroke-width="5"/>
<rect x="54.4839" y="33.3841" width="40.0364" height="2.53623" stroke="white" stroke-width="2.53623"/>
<rect x="107.7" y="33.3841" width="40.0364" height="2.53623" stroke="white" stroke-width="2.53623"/>
<path d="M2.5 34.616H40.0726V34.6884H2.5V34.616Z" stroke="white" stroke-width="5"/>
<rect x="352" y="2" width="65" height="66" stroke="white" stroke-width="4"/>
<rect x="442.5" y="26.5" width="35" height="16.3043" stroke="white" stroke-width="5"/>
<rect x="492.5" y="26.5" width="35" height="16.3043" stroke="white" stroke-width="5"/>
<rect x="466.268" y="33.3841" width="37.4638" height="2.53623" stroke="white" stroke-width="2.53623"/>
<rect x="516.268" y="33.3841" width="37.4638" height="2.53623" stroke="white" stroke-width="2.53623"/>
<rect x="416.268" y="33.3841" width="37.4638" height="2.53623" stroke="white" stroke-width="2.53623"/>
<rect x="557" y="2" width="65" height="66" stroke="white" stroke-width="4"/>
<rect x="647.5" y="26.5" width="35" height="16.3043" stroke="white" stroke-width="5"/>
<rect x="697.5" y="26.5" width="35" height="16.3043" stroke="white" stroke-width="5"/>
<rect x="671.268" y="33.3841" width="37.4638" height="2.53623" stroke="white" stroke-width="2.53623"/>
<rect x="721.268" y="33.3841" width="37.4638" height="2.53623" stroke="white" stroke-width="2.53623"/>
<rect x="621.268" y="33.3841" width="37.4638" height="2.53623" stroke="white" stroke-width="2.53623"/>
<rect x="762" y="2" width="65" height="66" stroke="white" stroke-width="4"/>
<rect x="852.5" y="26.5" width="35" height="16.3043" stroke="white" stroke-width="5"/>
<rect x="902.5" y="26.5" width="35" height="16.3043" stroke="white" stroke-width="5"/>
<rect x="876.268" y="33.3841" width="37.4638" height="2.53623" stroke="white" stroke-width="2.53623"/>
<rect x="926.268" y="33.3841" width="37.4638" height="2.53623" stroke="white" stroke-width="2.53623"/>
<rect x="826.268" y="33.3841" width="37.4638" height="2.53623" stroke="white" stroke-width="2.53623"/>
<rect x="967" y="2" width="65" height="66" stroke="white" stroke-width="4"/>
<rect x="1648.5" y="189.896" width="37.5726" height="16.3043" transform="rotate(-90 1648.5 189.896)" stroke="white" stroke-width="5"/>
<rect x="1648.5" y="136.681" width="37.5726" height="16.3043" transform="rotate(-90 1648.5 136.681)" stroke="white" stroke-width="5"/>
<rect x="1655.38" y="164.52" width="40.0364" height="2.53623" transform="rotate(-90 1655.38 164.52)" stroke="white" stroke-width="2.53623"/>
<rect x="1655.38" y="111.305" width="40.0364" height="2.53623" transform="rotate(-90 1655.38 111.305)" stroke="white" stroke-width="2.53623"/>
<path d="M1656.62 216.504V178.932H1656.69V216.504H1656.62Z" stroke="white" stroke-width="5"/>
<rect x="1648.5" y="295.896" width="37.5726" height="16.3043" transform="rotate(-90 1648.5 295.896)" stroke="white" stroke-width="5"/>
<rect x="1648.5" y="242.681" width="37.5726" height="16.3043" transform="rotate(-90 1648.5 242.681)" stroke="white" stroke-width="5"/>
<rect x="1655.38" y="270.52" width="40.0364" height="2.53623" transform="rotate(-90 1655.38 270.52)" stroke="white" stroke-width="2.53623"/>
<rect x="1655.38" y="217.305" width="40.0364" height="2.53623" transform="rotate(-90 1655.38 217.305)" stroke="white" stroke-width="2.53623"/>
<path d="M1656.62 322.504V284.932H1656.69V322.504H1656.62Z" stroke="white" stroke-width="5"/>
<rect x="1489" y="327" width="334.489" height="234" stroke="white" stroke-width="4"/>
<rect x="1489" y="327" width="334.489" height="22.4444" stroke="white" stroke-width="4"/>
<circle cx="1498.37" cy="337.958" r="3.96667" fill="white"/>
<circle cx="1509.48" cy="337.958" r="3.96667" fill="white"/>
<circle cx="1520.58" cy="337.958" r="3.96667" fill="white"/>
<path d="M1525.63 444H1533.33L1529.23 435.446L1525.63 444ZM1529.25 423.184L1509.66 430.077L1512.76 455.74L1529.27 464.816L1545.87 455.618L1548.96 429.955L1529.25 423.184ZM1524.04 447.636L1521.64 453.644L1517.15 453.663L1529.25 426.862L1529.22 426.811H1529.2L1529.2 426.767L1529.22 426.811H1529.27L1529.31 426.721V426.811H1529.27L1529.25 426.862L1541.87 453.775L1537.55 453.68L1534.89 447.538L1529.21 447.565" fill="white"/>
<g clip-path="url(#clip0_70_1813)">
<path d="M1572.28 443.97V464.63H1613.6V423.311H1572.28V443.97ZM1605.58 442.317C1606.57 442.547 1607.47 443.065 1608.17 443.805C1608.55 444.204 1608.88 444.648 1609.16 445.127C1609.16 445.18 1607.37 446.387 1606.28 447.061C1606.24 447.087 1606.09 446.916 1605.91 446.654C1605.71 446.312 1605.43 446.025 1605.09 445.821C1604.75 445.617 1604.37 445.502 1603.97 445.488C1602.72 445.402 1601.91 446.059 1601.92 447.14C1601.91 447.409 1601.97 447.676 1602.1 447.914C1602.37 448.486 1602.88 448.826 1604.49 449.52C1607.45 450.793 1608.71 451.633 1609.5 452.826C1610.38 454.148 1610.57 456.283 1609.98 457.864C1609.32 459.582 1607.7 460.749 1605.41 461.136C1604.36 461.256 1603.3 461.245 1602.26 461.103C1600.67 460.845 1599.2 460.086 1598.07 458.938C1597.69 458.518 1596.95 457.424 1596.99 457.345C1597.11 457.255 1597.24 457.174 1597.37 457.103L1598.89 456.231L1600.08 455.543L1600.33 455.91C1600.75 456.508 1601.28 457.018 1601.89 457.411C1603.22 458.105 1605.02 458.009 1605.91 457.206C1606.21 456.911 1606.4 456.521 1606.44 456.103C1606.48 455.685 1606.38 455.266 1606.14 454.918C1605.81 454.459 1605.15 454.072 1603.3 453.265C1601.17 452.347 1600.25 451.778 1599.41 450.872C1598.89 450.275 1598.5 449.569 1598.28 448.806C1598.11 447.934 1598.09 447.042 1598.21 446.162C1598.65 444.102 1600.19 442.665 1602.44 442.238C1603.49 442.109 1604.54 442.138 1605.58 442.324V442.317ZM1595.88 444.05V445.742H1590.52V461.024H1586.71V445.739H1581.33V444.086C1581.32 443.517 1581.33 442.948 1581.38 442.38C1581.4 442.354 1584.69 442.341 1588.65 442.347H1595.86L1595.88 444.05Z" fill="white"/>
</g>
<g clip-path="url(#clip1_70_1813)">
<path d="M1641.56 431.241L1644.23 460.964L1656.23 464.164L1668.26 461.024L1670.93 431.241H1641.56ZM1665.37 438.007L1665.2 439.936L1665.13 440.827H1651.06L1651.39 444.793H1664.8L1664.71 445.531L1663.84 455.087L1663.78 455.645L1656.24 457.673V457.671L1656.24 457.675L1648.71 455.72L1648.2 450.082H1651.89L1652.15 452.879L1656.24 453.916L1656.24 453.839V453.843L1660.35 452.967L1660.78 448.429H1648.03L1647.13 438.236L1647.04 437.191H1665.46L1665.37 438.007V438.007ZM1644.33 422.853H1646.19V424.69H1647.89V422.853H1649.75V428.414H1647.89V426.552H1646.19V428.414H1644.33V422.853ZM1652.19 424.698H1650.56V422.853H1655.69V424.698H1654.05V428.414H1652.19V424.698V424.698ZM1656.5 422.853H1658.44L1659.63 424.807L1660.82 422.853H1662.76V428.414H1660.91V425.658L1659.63 427.635H1659.6L1658.32 425.658V428.414H1656.5V422.853H1656.5ZM1663.69 422.853H1665.55V426.576H1668.16V428.414H1663.69V422.853V422.853Z" fill="white"/>
</g>
<g clip-path="url(#clip2_70_1813)">
<path d="M1719.71 431.307C1714.07 431.307 1710.55 434.127 1709.13 439.769C1711.25 436.949 1713.72 435.891 1716.54 436.596C1718.15 436.998 1719.3 438.165 1720.57 439.459C1722.65 441.564 1725.05 444 1730.29 444C1735.93 444 1739.46 441.18 1740.87 435.537C1738.75 438.359 1736.28 439.416 1733.46 438.711C1731.85 438.31 1730.7 437.142 1729.43 435.849C1727.36 433.744 1724.96 431.307 1719.71 431.307V431.307ZM1709.13 444C1703.49 444 1699.97 446.82 1698.56 452.463C1700.67 449.641 1703.14 448.584 1705.96 449.289C1707.57 449.691 1708.72 450.858 1710 452.152C1712.07 454.256 1714.47 456.693 1719.71 456.693C1725.35 456.693 1728.88 453.873 1730.29 448.231C1728.17 451.051 1725.71 452.109 1722.89 451.404C1721.28 451.003 1720.13 449.835 1718.85 448.541C1716.78 446.437 1714.38 444 1709.13 444Z" fill="white"/>
</g>
<path d="M1768.52 430.381L1771.19 460.294L1783.16 463.616L1795.16 460.29L1797.83 430.381H1768.52ZM1791.4 447.07L1790.63 454.307L1790.63 454.926L1783.18 457.007V457.008L1783.17 457.013L1775.66 454.955L1775.15 449.223H1778.84L1779.1 452.12L1783.18 453.21L1783.18 453.215V453.204L1787.27 452.049L1787.71 447.239H1779.14L1779.07 446.461L1778.9 444.594L1778.82 443.603H1788.03L1788.37 439.967H1774.33L1774.25 439.111L1774.09 437.118L1774 436.001H1792.38L1792.29 437.103L1791.4 447.07ZM1791.44 426.538L1789.08 423.77H1791.44V422.117H1786.15V423.559L1788.93 426.084H1786.15V427.737H1791.44V426.538ZM1785.16 426.538L1782.91 423.77H1785.16V422.117H1780.2V423.559L1782.76 426.084H1780.2V427.737H1785.16V426.538ZM1779.21 426.084H1776.57V423.77H1779.21V422.117H1774.58V427.737H1779.21V426.084Z" fill="white"/>
<rect x="147" y="142" width="65" height="66" stroke="white" stroke-width="4"/>
<rect x="237.5" y="166.5" width="35" height="16.3043" stroke="white" stroke-width="5"/>
<rect x="287.5" y="166.5" width="35" height="16.3043" stroke="white" stroke-width="5"/>
<rect x="261.268" y="173.384" width="37.4638" height="2.53623" stroke="white" stroke-width="2.53623"/>
<rect x="311.268" y="173.384" width="37.4638" height="2.53623" stroke="white" stroke-width="2.53623"/>
<rect x="211.268" y="173.384" width="37.4638" height="2.53623" stroke="white" stroke-width="2.53623"/>
<rect x="29.1079" y="166.5" width="37.5726" height="16.3043" stroke="white" stroke-width="5"/>
<rect x="82.3236" y="166.5" width="37.5726" height="16.3043" stroke="white" stroke-width="5"/>
<rect x="54.4839" y="173.384" width="40.0364" height="2.53623" stroke="white" stroke-width="2.53623"/>
<rect x="107.7" y="173.384" width="40.0364" height="2.53623" stroke="white" stroke-width="2.53623"/>
<path d="M2.5 174.616H40.0726V174.688H2.5V174.616Z" stroke="white" stroke-width="5"/>
<rect x="352" y="142" width="65" height="66" stroke="white" stroke-width="4"/>
<rect x="442.5" y="166.5" width="35" height="16.3043" stroke="white" stroke-width="5"/>
<rect x="492.5" y="166.5" width="35" height="16.3043" stroke="white" stroke-width="5"/>
<rect x="466.268" y="173.384" width="37.4638" height="2.53623" stroke="white" stroke-width="2.53623"/>
<rect x="516.268" y="173.384" width="37.4638" height="2.53623" stroke="white" stroke-width="2.53623"/>
<rect x="416.268" y="173.384" width="37.4638" height="2.53623" stroke="white" stroke-width="2.53623"/>
<rect x="557" y="142" width="65" height="66" stroke="white" stroke-width="4"/>
<rect x="647.5" y="166.5" width="35" height="16.3043" stroke="white" stroke-width="5"/>
<rect x="697.5" y="166.5" width="35" height="16.3043" stroke="white" stroke-width="5"/>
<rect x="671.268" y="173.384" width="37.4638" height="2.53623" stroke="white" stroke-width="2.53623"/>
<rect x="721.268" y="173.384" width="37.4638" height="2.53623" stroke="white" stroke-width="2.53623"/>
<rect x="621.268" y="173.384" width="37.4638" height="2.53623" stroke="white" stroke-width="2.53623"/>
<rect x="762" y="142" width="65" height="66" stroke="white" stroke-width="4"/>
<rect x="852.5" y="166.5" width="35" height="16.3043" stroke="white" stroke-width="5"/>
<rect x="902.5" y="166.5" width="35" height="16.3043" stroke="white" stroke-width="5"/>
<rect x="876.268" y="173.384" width="37.4638" height="2.53623" stroke="white" stroke-width="2.53623"/>
<rect x="926.268" y="173.384" width="37.4638" height="2.53623" stroke="white" stroke-width="2.53623"/>
<rect x="826.268" y="173.384" width="37.4638" height="2.53623" stroke="white" stroke-width="2.53623"/>
<rect x="967" y="142" width="36" height="66" stroke="white" stroke-width="4"/>
<rect x="42" y="212" width="65" height="66" stroke="white" stroke-width="4"/>
<rect x="132.5" y="236.5" width="35" height="16.3043" stroke="white" stroke-width="5"/>
<rect x="182.5" y="236.5" width="35" height="16.3043" stroke="white" stroke-width="5"/>
<rect x="156.268" y="243.384" width="37.4638" height="2.53623" stroke="white" stroke-width="2.53623"/>
<rect x="206.268" y="243.384" width="37.4638" height="2.53623" stroke="white" stroke-width="2.53623"/>
<rect x="106.268" y="243.384" width="37.4638" height="2.53623" stroke="white" stroke-width="2.53623"/>
<rect x="247" y="212" width="65" height="66" stroke="white" stroke-width="4"/>
<rect x="337.5" y="236.5" width="35" height="16.3043" stroke="white" stroke-width="5"/>
<rect x="387.5" y="236.5" width="35" height="16.3043" stroke="white" stroke-width="5"/>
<rect x="361.268" y="243.384" width="37.4638" height="2.53623" stroke="white" stroke-width="2.53623"/>
<rect x="411.268" y="243.384" width="37.4638" height="2.53623" stroke="white" stroke-width="2.53623"/>
<rect x="311.268" y="243.384" width="37.4638" height="2.53623" stroke="white" stroke-width="2.53623"/>
<rect x="452" y="212" width="65" height="66" stroke="white" stroke-width="4"/>
<rect x="542.5" y="236.5" width="35" height="16.3043" stroke="white" stroke-width="5"/>
<rect x="592.5" y="236.5" width="35" height="16.3043" stroke="white" stroke-width="5"/>
<rect x="566.268" y="243.384" width="37.4638" height="2.53623" stroke="white" stroke-width="2.53623"/>
<rect x="616.268" y="243.384" width="37.4638" height="2.53623" stroke="white" stroke-width="2.53623"/>
<rect x="516.268" y="243.384" width="37.4638" height="2.53623" stroke="white" stroke-width="2.53623"/>
<rect x="657" y="212" width="65" height="66" stroke="white" stroke-width="4"/>
<rect x="747.5" y="236.5" width="35" height="16.3043" stroke="white" stroke-width="5"/>
<rect x="797.5" y="236.5" width="35" height="16.3043" stroke="white" stroke-width="5"/>
<rect x="771.268" y="243.384" width="37.4638" height="2.53623" stroke="white" stroke-width="2.53623"/>
<rect x="821.268" y="243.384" width="37.4638" height="2.53623" stroke="white" stroke-width="2.53623"/>
<rect x="721.268" y="243.384" width="37.4638" height="2.53623" stroke="white" stroke-width="2.53623"/>
<rect x="862" y="212" width="65" height="66" stroke="white" stroke-width="4"/>
<rect x="954.108" y="236.5" width="37.5726" height="16.3043" stroke="white" stroke-width="5"/>
<rect x="979.25" y="243.25" width="24.5" height="2.5" stroke="white" stroke-width="2.5"/>
<path d="M927.5 244.616H965.073V244.688H927.5V244.616Z" stroke="white" stroke-width="5"/>
<path d="M2.5 244.5H40.0726V244.572H2.5V244.5Z" stroke="white" stroke-width="5"/>
<rect x="42" y="72" width="65" height="66" stroke="white" stroke-width="4"/>
<rect x="132.5" y="96.5" width="35" height="16.3043" stroke="white" stroke-width="5"/>
<rect x="182.5" y="96.5" width="35" height="16.3043" stroke="white" stroke-width="5"/>
<rect x="156.268" y="103.384" width="37.4638" height="2.53623" stroke="white" stroke-width="2.53623"/>
<rect x="206.268" y="103.384" width="37.4638" height="2.53623" stroke="white" stroke-width="2.53623"/>
<rect x="106.268" y="103.384" width="37.4638" height="2.53623" stroke="white" stroke-width="2.53623"/>
<rect x="247" y="72" width="65" height="66" stroke="white" stroke-width="4"/>
<rect x="337.5" y="96.5" width="35" height="16.3043" stroke="white" stroke-width="5"/>
<rect x="387.5" y="96.5" width="35" height="16.3043" stroke="white" stroke-width="5"/>
<rect x="361.268" y="103.384" width="37.4638" height="2.53623" stroke="white" stroke-width="2.53623"/>
<rect x="411.268" y="103.384" width="37.4638" height="2.53623" stroke="white" stroke-width="2.53623"/>
<rect x="311.268" y="103.384" width="37.4638" height="2.53623" stroke="white" stroke-width="2.53623"/>
<rect x="452" y="72" width="65" height="66" stroke="white" stroke-width="4"/>
<rect x="542.5" y="96.5" width="35" height="16.3043" stroke="white" stroke-width="5"/>
<rect x="592.5" y="96.5" width="35" height="16.3043" stroke="white" stroke-width="5"/>
<rect x="566.268" y="103.384" width="37.4638" height="2.53623" stroke="white" stroke-width="2.53623"/>
<rect x="616.268" y="103.384" width="37.4638" height="2.53623" stroke="white" stroke-width="2.53623"/>
<rect x="516.268" y="103.384" width="37.4638" height="2.53623" stroke="white" stroke-width="2.53623"/>
<rect x="657" y="72" width="65" height="66" stroke="white" stroke-width="4"/>
<rect x="747.5" y="96.5" width="35" height="16.3043" stroke="white" stroke-width="5"/>
<rect x="797.5" y="96.5" width="35" height="16.3043" stroke="white" stroke-width="5"/>
<rect x="771.268" y="103.384" width="37.4638" height="2.53623" stroke="white" stroke-width="2.53623"/>
<rect x="821.268" y="103.384" width="37.4638" height="2.53623" stroke="white" stroke-width="2.53623"/>
<rect x="721.268" y="103.384" width="37.4638" height="2.53623" stroke="white" stroke-width="2.53623"/>
<rect x="862" y="72" width="65" height="66" stroke="white" stroke-width="4"/>
<rect x="954.108" y="96.5" width="37.5726" height="16.3043" stroke="white" stroke-width="5"/>
<rect x="979.25" y="103.25" width="24.5" height="2.5" stroke="white" stroke-width="2.5"/>
<path d="M927.5 104.616H965.073V104.688H927.5V104.616Z" stroke="white" stroke-width="5"/>
<path d="M2.5 104.5H40.0726V104.572H2.5V104.5Z" stroke="white" stroke-width="5"/>
<rect x="147" y="282" width="65" height="66" stroke="white" stroke-width="4"/>
<rect x="237.5" y="306.5" width="35" height="16.3043" stroke="white" stroke-width="5"/>
<rect x="287.5" y="306.5" width="35" height="16.3043" stroke="white" stroke-width="5"/>
<rect x="261.268" y="313.384" width="37.4638" height="2.53623" stroke="white" stroke-width="2.53623"/>
<rect x="311.268" y="313.384" width="37.4638" height="2.53623" stroke="white" stroke-width="2.53623"/>
<rect x="211.268" y="313.384" width="37.4638" height="2.53623" stroke="white" stroke-width="2.53623"/>
<rect x="29.1079" y="306.5" width="37.5726" height="16.3043" stroke="white" stroke-width="5"/>
<rect x="82.3236" y="306.5" width="37.5726" height="16.3043" stroke="white" stroke-width="5"/>
<rect x="54.4839" y="313.384" width="40.0364" height="2.53623" stroke="white" stroke-width="2.53623"/>
<rect x="107.7" y="313.384" width="40.0364" height="2.53623" stroke="white" stroke-width="2.53623"/>
<path d="M2.5 314.616H40.0726V314.688H2.5V314.616Z" stroke="white" stroke-width="5"/>
<rect x="352" y="282" width="65" height="66" stroke="white" stroke-width="4"/>
<rect x="442.5" y="306.5" width="35" height="16.3043" stroke="white" stroke-width="5"/>
<rect x="492.5" y="306.5" width="35" height="16.3043" stroke="white" stroke-width="5"/>
<rect x="466.268" y="313.384" width="37.4638" height="2.53623" stroke="white" stroke-width="2.53623"/>
<rect x="516.268" y="313.384" width="37.4638" height="2.53623" stroke="white" stroke-width="2.53623"/>
<rect x="416.268" y="313.384" width="37.4638" height="2.53623" stroke="white" stroke-width="2.53623"/>
<rect x="557" y="282" width="65" height="66" stroke="white" stroke-width="4"/>
<rect x="647.5" y="306.5" width="35" height="16.3043" stroke="white" stroke-width="5"/>
<rect x="697.5" y="306.5" width="35" height="16.3043" stroke="white" stroke-width="5"/>
<rect x="671.268" y="313.384" width="37.4638" height="2.53623" stroke="white" stroke-width="2.53623"/>
<rect x="721.268" y="313.384" width="37.4638" height="2.53623" stroke="white" stroke-width="2.53623"/>
<rect x="621.268" y="313.384" width="37.4638" height="2.53623" stroke="white" stroke-width="2.53623"/>
<rect x="762" y="282" width="65" height="66" stroke="white" stroke-width="4"/>
<rect x="852.5" y="306.5" width="35" height="16.3043" stroke="white" stroke-width="5"/>
<rect x="902.5" y="306.5" width="35" height="16.3043" stroke="white" stroke-width="5"/>
<rect x="876.268" y="313.384" width="37.4638" height="2.53623" stroke="white" stroke-width="2.53623"/>
<rect x="926.268" y="313.384" width="37.4638" height="2.53623" stroke="white" stroke-width="2.53623"/>
<rect x="826.268" y="313.384" width="37.4638" height="2.53623" stroke="white" stroke-width="2.53623"/>
<rect x="967" y="282" width="36" height="66" stroke="white" stroke-width="4"/>
<rect x="42" y="352" width="65" height="66" stroke="white" stroke-width="4"/>
<rect x="132.5" y="376.5" width="35" height="16.3043" stroke="white" stroke-width="5"/>
<rect x="182.5" y="376.5" width="35" height="16.3043" stroke="white" stroke-width="5"/>
<rect x="156.268" y="383.384" width="37.4638" height="2.53623" stroke="white" stroke-width="2.53623"/>
<rect x="206.268" y="383.384" width="37.4638" height="2.53623" stroke="white" stroke-width="2.53623"/>
<rect x="106.268" y="383.384" width="37.4638" height="2.53623" stroke="white" stroke-width="2.53623"/>
<rect x="247" y="352" width="65" height="66" stroke="white" stroke-width="4"/>
<rect x="337.5" y="376.5" width="35" height="16.3043" stroke="white" stroke-width="5"/>
<rect x="387.5" y="376.5" width="35" height="16.3043" stroke="white" stroke-width="5"/>
<rect x="361.268" y="383.384" width="37.4638" height="2.53623" stroke="white" stroke-width="2.53623"/>
<rect x="411.268" y="383.384" width="37.4638" height="2.53623" stroke="white" stroke-width="2.53623"/>
<rect x="311.268" y="383.384" width="37.4638" height="2.53623" stroke="white" stroke-width="2.53623"/>
<rect x="452" y="352" width="65" height="66" stroke="white" stroke-width="4"/>
<rect x="542.5" y="376.5" width="35" height="16.3043" stroke="white" stroke-width="5"/>
<rect x="592.5" y="376.5" width="35" height="16.3043" stroke="white" stroke-width="5"/>
<rect x="566.268" y="383.384" width="37.4638" height="2.53623" stroke="white" stroke-width="2.53623"/>
<rect x="616.268" y="383.384" width="37.4638" height="2.53623" stroke="white" stroke-width="2.53623"/>
<rect x="516.268" y="383.384" width="37.4638" height="2.53623" stroke="white" stroke-width="2.53623"/>
<rect x="657" y="352" width="65" height="66" stroke="white" stroke-width="4"/>
<rect x="747.5" y="376.5" width="35" height="16.3043" stroke="white" stroke-width="5"/>
<rect x="797.5" y="376.5" width="35" height="16.3043" stroke="white" stroke-width="5"/>
<rect x="771.268" y="383.384" width="37.4638" height="2.53623" stroke="white" stroke-width="2.53623"/>
<rect x="821.268" y="383.384" width="37.4638" height="2.53623" stroke="white" stroke-width="2.53623"/>
<rect x="721.268" y="383.384" width="37.4638" height="2.53623" stroke="white" stroke-width="2.53623"/>
<rect x="862" y="352" width="65" height="66" stroke="white" stroke-width="4"/>
<rect x="954.108" y="376.5" width="37.5726" height="16.3043" stroke="white" stroke-width="5"/>
<rect x="979.25" y="383.25" width="24.5" height="2.5" stroke="white" stroke-width="2.5"/>
<path d="M927.5 384.616H965.073V384.688H927.5V384.616Z" stroke="white" stroke-width="5"/>
<path d="M2.5 384.5H40.0726V384.572H2.5V384.5Z" stroke="white" stroke-width="5"/>
<rect x="42" y="212" width="65" height="66" stroke="white" stroke-width="4"/>
<rect x="132.5" y="236.5" width="35" height="16.3043" stroke="white" stroke-width="5"/>
<rect x="182.5" y="236.5" width="35" height="16.3043" stroke="white" stroke-width="5"/>
<rect x="156.268" y="243.384" width="37.4638" height="2.53623" stroke="white" stroke-width="2.53623"/>
<rect x="206.268" y="243.384" width="37.4638" height="2.53623" stroke="white" stroke-width="2.53623"/>
<rect x="106.268" y="243.384" width="37.4638" height="2.53623" stroke="white" stroke-width="2.53623"/>
<rect x="247" y="212" width="65" height="66" stroke="white" stroke-width="4"/>
<rect x="337.5" y="236.5" width="35" height="16.3043" stroke="white" stroke-width="5"/>
<rect x="387.5" y="236.5" width="35" height="16.3043" stroke="white" stroke-width="5"/>
<rect x="361.268" y="243.384" width="37.4638" height="2.53623" stroke="white" stroke-width="2.53623"/>
<rect x="411.268" y="243.384" width="37.4638" height="2.53623" stroke="white" stroke-width="2.53623"/>
<rect x="311.268" y="243.384" width="37.4638" height="2.53623" stroke="white" stroke-width="2.53623"/>
<rect x="452" y="212" width="65" height="66" stroke="white" stroke-width="4"/>
<rect x="542.5" y="236.5" width="35" height="16.3043" stroke="white" stroke-width="5"/>
<rect x="592.5" y="236.5" width="35" height="16.3043" stroke="white" stroke-width="5"/>
<rect x="566.268" y="243.384" width="37.4638" height="2.53623" stroke="white" stroke-width="2.53623"/>
<rect x="616.268" y="243.384" width="37.4638" height="2.53623" stroke="white" stroke-width="2.53623"/>
<rect x="516.268" y="243.384" width="37.4638" height="2.53623" stroke="white" stroke-width="2.53623"/>
<rect x="657" y="212" width="65" height="66" stroke="white" stroke-width="4"/>
<rect x="747.5" y="236.5" width="35" height="16.3043" stroke="white" stroke-width="5"/>
<rect x="797.5" y="236.5" width="35" height="16.3043" stroke="white" stroke-width="5"/>
<rect x="771.268" y="243.384" width="37.4638" height="2.53623" stroke="white" stroke-width="2.53623"/>
<rect x="821.268" y="243.384" width="37.4638" height="2.53623" stroke="white" stroke-width="2.53623"/>
<rect x="721.268" y="243.384" width="37.4638" height="2.53623" stroke="white" stroke-width="2.53623"/>
<rect x="862" y="212" width="65" height="66" stroke="white" stroke-width="4"/>
<rect x="954.108" y="236.5" width="37.5726" height="16.3043" stroke="white" stroke-width="5"/>
<rect x="979.25" y="243.25" width="24.5" height="2.5" stroke="white" stroke-width="2.5"/>
<path d="M927.5 244.616H965.073V244.688H927.5V244.616Z" stroke="white" stroke-width="5"/>
<path d="M2.5 244.5H40.0726V244.572H2.5V244.5Z" stroke="white" stroke-width="5"/>
<rect x="147" y="422" width="65" height="66" stroke="white" stroke-width="4"/>
<rect x="237.5" y="446.5" width="35" height="16.3043" stroke="white" stroke-width="5"/>
<rect x="287.5" y="446.5" width="35" height="16.3043" stroke="white" stroke-width="5"/>
<rect x="261.268" y="453.384" width="37.4638" height="2.53623" stroke="white" stroke-width="2.53623"/>
<rect x="311.268" y="453.384" width="37.4638" height="2.53623" stroke="white" stroke-width="2.53623"/>
<rect x="211.268" y="453.384" width="37.4638" height="2.53623" stroke="white" stroke-width="2.53623"/>
<rect x="29.1079" y="446.5" width="37.5726" height="16.3043" stroke="white" stroke-width="5"/>
<rect x="82.3236" y="446.5" width="37.5726" height="16.3043" stroke="white" stroke-width="5"/>
<rect x="54.4839" y="453.384" width="40.0364" height="2.53623" stroke="white" stroke-width="2.53623"/>
<rect x="107.7" y="453.384" width="40.0364" height="2.53623" stroke="white" stroke-width="2.53623"/>
<path d="M2.5 454.616H40.0726V454.688H2.5V454.616Z" stroke="white" stroke-width="5"/>
<rect x="352" y="422" width="65" height="66" stroke="white" stroke-width="4"/>
<rect x="442.5" y="446.5" width="35" height="16.3043" stroke="white" stroke-width="5"/>
<rect x="492.5" y="446.5" width="35" height="16.3043" stroke="white" stroke-width="5"/>
<rect x="466.268" y="453.384" width="37.4638" height="2.53623" stroke="white" stroke-width="2.53623"/>
<rect x="516.268" y="453.384" width="37.4638" height="2.53623" stroke="white" stroke-width="2.53623"/>
<rect x="416.268" y="453.384" width="37.4638" height="2.53623" stroke="white" stroke-width="2.53623"/>
<rect x="557" y="422" width="65" height="66" stroke="white" stroke-width="4"/>
<rect x="647.5" y="446.5" width="35" height="16.3043" stroke="white" stroke-width="5"/>
<rect x="697.5" y="446.5" width="35" height="16.3043" stroke="white" stroke-width="5"/>
<rect x="671.268" y="453.384" width="37.4638" height="2.53623" stroke="white" stroke-width="2.53623"/>
<rect x="721.268" y="453.384" width="37.4638" height="2.53623" stroke="white" stroke-width="2.53623"/>
<rect x="621.268" y="453.384" width="37.4638" height="2.53623" stroke="white" stroke-width="2.53623"/>
<rect x="762" y="422" width="65" height="66" stroke="white" stroke-width="4"/>
<rect x="852.5" y="446.5" width="35" height="16.3043" stroke="white" stroke-width="5"/>
<rect x="902.5" y="446.5" width="35" height="16.3043" stroke="white" stroke-width="5"/>
<rect x="876.268" y="453.384" width="37.4638" height="2.53623" stroke="white" stroke-width="2.53623"/>
<rect x="926.268" y="453.384" width="37.4638" height="2.53623" stroke="white" stroke-width="2.53623"/>
<rect x="826.268" y="453.384" width="37.4638" height="2.53623" stroke="white" stroke-width="2.53623"/>
<rect x="967" y="422" width="36" height="66" stroke="white" stroke-width="4"/>
<rect x="42" y="492" width="65" height="66" stroke="white" stroke-width="4"/>
<rect x="132.5" y="516.5" width="35" height="16.3043" stroke="white" stroke-width="5"/>
<rect x="182.5" y="516.5" width="35" height="16.3043" stroke="white" stroke-width="5"/>
<rect x="156.268" y="523.384" width="37.4638" height="2.53623" stroke="white" stroke-width="2.53623"/>
<rect x="206.268" y="523.384" width="37.4638" height="2.53623" stroke="white" stroke-width="2.53623"/>
<rect x="106.268" y="523.384" width="37.4638" height="2.53623" stroke="white" stroke-width="2.53623"/>
<rect x="247" y="492" width="65" height="66" stroke="white" stroke-width="4"/>
<rect x="337.5" y="516.5" width="35" height="16.3043" stroke="white" stroke-width="5"/>
<rect x="387.5" y="516.5" width="35" height="16.3043" stroke="white" stroke-width="5"/>
<rect x="361.268" y="523.384" width="37.4638" height="2.53623" stroke="white" stroke-width="2.53623"/>
<rect x="411.268" y="523.384" width="37.4638" height="2.53623" stroke="white" stroke-width="2.53623"/>
<rect x="311.268" y="523.384" width="37.4638" height="2.53623" stroke="white" stroke-width="2.53623"/>
<rect x="452" y="492" width="65" height="66" stroke="white" stroke-width="4"/>
<rect x="542.5" y="516.5" width="35" height="16.3043" stroke="white" stroke-width="5"/>
<rect x="592.5" y="516.5" width="35" height="16.3043" stroke="white" stroke-width="5"/>
<rect x="566.268" y="523.384" width="37.4638" height="2.53623" stroke="white" stroke-width="2.53623"/>
<rect x="616.268" y="523.384" width="37.4638" height="2.53623" stroke="white" stroke-width="2.53623"/>
<rect x="516.268" y="523.384" width="37.4638" height="2.53623" stroke="white" stroke-width="2.53623"/>
<rect x="657" y="492" width="65" height="66" stroke="white" stroke-width="4"/>
<rect x="747.5" y="516.5" width="35" height="16.3043" stroke="white" stroke-width="5"/>
<rect x="797.5" y="516.5" width="35" height="16.3043" stroke="white" stroke-width="5"/>
<rect x="771.268" y="523.384" width="37.4638" height="2.53623" stroke="white" stroke-width="2.53623"/>
<rect x="821.268" y="523.384" width="37.4638" height="2.53623" stroke="white" stroke-width="2.53623"/>
<rect x="721.268" y="523.384" width="37.4638" height="2.53623" stroke="white" stroke-width="2.53623"/>
<rect x="862" y="492" width="65" height="66" stroke="white" stroke-width="4"/>
<rect x="954.108" y="516.5" width="37.5726" height="16.3043" stroke="white" stroke-width="5"/>
<rect x="979.25" y="523.25" width="24.5" height="2.5" stroke="white" stroke-width="2.5"/>
<path d="M927.5 524.616H965.073V524.688H927.5V524.616Z" stroke="white" stroke-width="5"/>
<path d="M2.5 524.5H40.0726V524.572H2.5V524.5Z" stroke="white" stroke-width="5"/>
<rect x="42" y="352" width="65" height="66" stroke="white" stroke-width="4"/>
<rect x="132.5" y="376.5" width="35" height="16.3043" stroke="white" stroke-width="5"/>
<rect x="182.5" y="376.5" width="35" height="16.3043" stroke="white" stroke-width="5"/>
<rect x="156.268" y="383.384" width="37.4638" height="2.53623" stroke="white" stroke-width="2.53623"/>
<rect x="206.268" y="383.384" width="37.4638" height="2.53623" stroke="white" stroke-width="2.53623"/>
<rect x="106.268" y="383.384" width="37.4638" height="2.53623" stroke="white" stroke-width="2.53623"/>
<rect x="247" y="352" width="65" height="66" stroke="white" stroke-width="4"/>
<rect x="337.5" y="376.5" width="35" height="16.3043" stroke="white" stroke-width="5"/>
<rect x="387.5" y="376.5" width="35" height="16.3043" stroke="white" stroke-width="5"/>
<rect x="361.268" y="383.384" width="37.4638" height="2.53623" stroke="white" stroke-width="2.53623"/>
<rect x="411.268" y="383.384" width="37.4638" height="2.53623" stroke="white" stroke-width="2.53623"/>
<rect x="311.268" y="383.384" width="37.4638" height="2.53623" stroke="white" stroke-width="2.53623"/>
<rect x="452" y="352" width="65" height="66" stroke="white" stroke-width="4"/>
<rect x="542.5" y="376.5" width="35" height="16.3043" stroke="white" stroke-width="5"/>
<rect x="592.5" y="376.5" width="35" height="16.3043" stroke="white" stroke-width="5"/>
<rect x="566.268" y="383.384" width="37.4638" height="2.53623" stroke="white" stroke-width="2.53623"/>
<rect x="616.268" y="383.384" width="37.4638" height="2.53623" stroke="white" stroke-width="2.53623"/>
<rect x="516.268" y="383.384" width="37.4638" height="2.53623" stroke="white" stroke-width="2.53623"/>
<rect x="657" y="352" width="65" height="66" stroke="white" stroke-width="4"/>
<rect x="747.5" y="376.5" width="35" height="16.3043" stroke="white" stroke-width="5"/>
<rect x="797.5" y="376.5" width="35" height="16.3043" stroke="white" stroke-width="5"/>
<rect x="771.268" y="383.384" width="37.4638" height="2.53623" stroke="white" stroke-width="2.53623"/>
<rect x="821.268" y="383.384" width="37.4638" height="2.53623" stroke="white" stroke-width="2.53623"/>
<rect x="721.268" y="383.384" width="37.4638" height="2.53623" stroke="white" stroke-width="2.53623"/>
<rect x="862" y="352" width="65" height="66" stroke="white" stroke-width="4"/>
<rect x="954.108" y="376.5" width="37.5726" height="16.3043" stroke="white" stroke-width="5"/>
<rect x="979.25" y="383.25" width="24.5" height="2.5" stroke="white" stroke-width="2.5"/>
<path d="M927.5 384.616H965.073V384.688H927.5V384.616Z" stroke="white" stroke-width="5"/>
<path d="M2.5 384.5H40.0726V384.572H2.5V384.5Z" stroke="white" stroke-width="5"/>
<defs>
<clipPath id="clip0_70_1813">
<rect width="42.3111" height="42.3111" fill="white" transform="translate(1571.62 422.844)"/>
</clipPath>
<clipPath id="clip1_70_1813">
<rect width="42.3111" height="42.3111" fill="white" transform="translate(1635.09 422.316)"/>
</clipPath>
<clipPath id="clip2_70_1813">
<rect width="42.3111" height="42.3111" fill="white" transform="translate(1698.56 422.844)"/>
</clipPath>
</defs>
</svg>
