<svg width="75" height="75" viewBox="0 0 75 75" fill="none" xmlns="http://www.w3.org/2000/svg">
<rect width="75" height="75" fill="white"/>
<path d="M6.233 11.88H5.099L6.998 18H8.321L10.301 11.88H9.185L8.096 15.39C7.925 15.939 7.826 16.263 7.691 16.776H7.673C7.538 16.227 7.466 15.966 7.304 15.435L6.233 11.88ZM13.71 16.488C13.575 16.704 13.233 17.226 12.459 17.226C11.703 17.226 11.343 16.722 11.271 16.137H14.394C14.394 16.065 14.403 15.948 14.403 15.876C14.403 14.562 13.746 13.617 12.378 13.617C11.181 13.617 10.272 14.499 10.272 15.822C10.272 17.208 11.136 18.108 12.405 18.108C13.656 18.108 14.232 17.325 14.421 17.028L13.71 16.488ZM12.378 14.436C12.963 14.436 13.359 14.814 13.386 15.372H11.298C11.325 14.859 11.721 14.436 12.378 14.436ZM15.3679 13.716V18H16.3939V16.074C16.3939 15.696 16.4299 15.444 16.5109 15.228C16.6639 14.85 16.9699 14.652 17.5189 14.652C17.6089 14.652 17.7079 14.661 17.8069 14.67V13.626C17.7169 13.617 17.6989 13.617 17.6449 13.617C16.8169 13.617 16.4749 14.13 16.3939 14.346V13.716H15.3679ZM18.5394 16.443C18.5394 17.892 19.3854 18.108 19.9614 18.108C20.5914 18.108 21.0414 17.811 21.2484 17.451V18H22.2744V13.716H21.2484V16.02C21.2484 16.704 20.9784 17.199 20.3394 17.199C19.7094 17.199 19.5654 16.767 19.5654 16.101V13.716H18.5394V16.443ZM26.9267 14.031C26.6747 13.752 26.3057 13.617 25.8647 13.617C25.1897 13.617 24.7307 13.914 24.5237 14.274V13.716H23.4977V18H24.5237V15.714C24.5237 15.021 24.8207 14.526 25.4507 14.526C26.2247 14.526 26.2787 15.066 26.2787 15.84V18H27.3047V15.714C27.3047 15.021 27.5927 14.526 28.2317 14.526C29.0057 14.526 29.0597 15.066 29.0597 15.84V18H30.0857V15.579C30.0857 14.634 29.9777 14.337 29.7077 14.031C29.4827 13.779 29.1227 13.617 28.5737 13.617C27.7997 13.617 27.3677 13.968 27.1067 14.283C27.0527 14.193 26.9987 14.112 26.9267 14.031ZM37.376 16.164C37.088 16.758 36.593 17.109 35.9 17.109C34.802 17.109 34.172 16.272 34.172 14.94C34.172 13.608 34.82 12.744 35.9 12.744C36.611 12.744 37.097 13.122 37.394 13.761L38.339 13.176C38.033 12.645 37.322 11.772 35.9 11.772C34.109 11.772 32.984 13.068 32.984 14.94C32.984 16.803 34.019 18.108 35.9 18.108C37.403 18.108 38.123 17.163 38.402 16.596L37.376 16.164ZM42.6418 14.94C42.6418 13.977 41.9128 13.644 40.9228 13.644C39.8608 13.644 39.0508 14.067 39.0508 15.129L40.0138 15.156C40.0228 14.679 40.3108 14.427 40.8778 14.427C41.4178 14.427 41.6518 14.634 41.6518 14.976V15.012C41.6518 15.201 41.5618 15.255 41.3098 15.3L40.9858 15.354C39.6988 15.57 38.9068 15.777 38.9068 16.803C38.9068 17.676 39.5458 18.108 40.4368 18.108C41.1838 18.108 41.5438 17.829 41.7238 17.64C41.7958 17.955 42.0568 18.081 42.4348 18.081C42.7048 18.081 42.8398 18.054 42.9568 18.027V17.406H42.8938C42.6868 17.406 42.6418 17.307 42.6418 17.055V14.94ZM40.6978 17.343C40.2118 17.343 39.9598 17.136 39.9598 16.776C39.9598 16.434 40.2028 16.281 40.6978 16.182L41.2828 16.065C41.4448 16.029 41.5528 15.984 41.6518 15.939V16.47C41.6518 17.073 41.2288 17.343 40.6978 17.343ZM46.1304 18.108C47.2734 18.108 48.0294 17.163 48.0294 15.876C48.0294 14.499 47.2914 13.617 46.1304 13.617C45.5724 13.617 45.1044 13.887 44.8704 14.193V13.716H43.8444V19.71H44.8704V17.55C45.1404 17.883 45.5544 18.108 46.1304 18.108ZM44.8254 15.858C44.8254 15.039 45.2664 14.499 45.9144 14.499C46.5714 14.499 47.0034 15.003 47.0034 15.858C47.0034 16.704 46.5714 17.217 45.9144 17.217C45.2664 17.217 44.8254 16.686 44.8254 15.858ZM50.0032 13.716H48.9772V18H50.0032V13.716ZM50.0032 11.88H48.9772V12.924H50.0032V11.88ZM53.6932 17.226C53.5852 17.244 53.4232 17.262 53.2432 17.262C53.0632 17.262 52.8922 17.235 52.8112 17.145C52.7302 17.064 52.6942 16.947 52.6942 16.704V14.517H53.6932V13.716H52.6942V11.997L51.6682 12.222V13.716H50.7502V14.517H51.6682V16.875C51.6682 17.289 51.6772 17.532 51.8482 17.739C52.0822 18.027 52.5142 18.108 52.9282 18.108C53.2342 18.108 53.4952 18.081 53.6932 18.036V17.226ZM58.0139 14.94C58.0139 13.977 57.2849 13.644 56.2949 13.644C55.2329 13.644 54.4229 14.067 54.4229 15.129L55.3859 15.156C55.3949 14.679 55.6829 14.427 56.2499 14.427C56.7899 14.427 57.0239 14.634 57.0239 14.976V15.012C57.0239 15.201 56.9339 15.255 56.6819 15.3L56.3579 15.354C55.0709 15.57 54.2789 15.777 54.2789 16.803C54.2789 17.676 54.9179 18.108 55.8089 18.108C56.5559 18.108 56.9159 17.829 57.0959 17.64C57.1679 17.955 57.4289 18.081 57.8069 18.081C58.0769 18.081 58.2119 18.054 58.3289 18.027V17.406H58.2659C58.0589 17.406 58.0139 17.307 58.0139 17.055V14.94ZM56.0699 17.343C55.5839 17.343 55.3319 17.136 55.3319 16.776C55.3319 16.434 55.5749 16.281 56.0699 16.182L56.6549 16.065C56.8169 16.029 56.9249 15.984 57.0239 15.939V16.47C57.0239 17.073 56.6009 17.343 56.0699 17.343ZM60.2425 11.88H59.2165V18H60.2425V11.88Z" fill="#1D90FF"/>
<path d="M5.144 48.843H6.935V54H8.015V48.843H9.797V47.88H5.144V48.843ZM14.3149 51.579C14.3149 50.751 14.2249 50.427 14.0269 50.148C13.7389 49.761 13.3339 49.617 12.8479 49.617C12.1999 49.617 11.7139 49.896 11.5159 50.274V47.88H10.4899V54H11.5159V51.714C11.5159 51.021 11.8219 50.526 12.4609 50.526C12.9019 50.526 13.1269 50.715 13.2169 51.021C13.2799 51.237 13.2889 51.516 13.2889 51.84V54H14.3149V51.579ZM18.6231 52.488C18.4881 52.704 18.1461 53.226 17.3721 53.226C16.6161 53.226 16.2561 52.722 16.1841 52.137H19.3071C19.3071 52.065 19.3161 51.948 19.3161 51.876C19.3161 50.562 18.6591 49.617 17.2911 49.617C16.0941 49.617 15.1851 50.499 15.1851 51.822C15.1851 53.208 16.0491 54.108 17.3181 54.108C18.5691 54.108 19.1451 53.325 19.3341 53.028L18.6231 52.488ZM17.2911 50.436C17.8761 50.436 18.2721 50.814 18.2991 51.372H16.2111C16.2381 50.859 16.6341 50.436 17.2911 50.436ZM24.8865 54C25.6785 54 26.0025 53.901 26.2995 53.739C26.8125 53.46 27.1365 52.938 27.1365 52.254C27.1365 51.489 26.6775 50.985 26.1195 50.76C26.5785 50.562 26.9295 50.094 26.9295 49.473C26.9295 48.825 26.6145 48.348 26.1285 48.105C25.8405 47.961 25.5165 47.88 24.7515 47.88H22.3485V54H24.8865ZM23.4285 51.264H24.7155C25.2105 51.264 25.4715 51.282 25.6875 51.417C25.9035 51.552 26.0565 51.813 26.0565 52.155C26.0565 52.497 25.9035 52.758 25.6875 52.893C25.4805 53.01 25.2465 53.046 24.7155 53.046H23.4285V51.264ZM25.8675 49.599C25.8675 49.896 25.7415 50.121 25.5345 50.256C25.3005 50.4 24.9405 50.391 24.6705 50.391H23.4285V48.816H24.6705C25.1025 48.816 25.2825 48.843 25.4535 48.924C25.6875 49.032 25.8675 49.284 25.8675 49.599ZM29.0941 47.88H28.0681V54H29.0941V47.88ZM30.0301 51.876C30.0301 53.244 30.8581 54.108 32.1721 54.108C33.4861 54.108 34.3141 53.244 34.3141 51.876C34.3141 50.499 33.4771 49.617 32.1721 49.617C30.8671 49.617 30.0301 50.499 30.0301 51.876ZM31.0471 51.858C31.0471 51.003 31.4971 50.49 32.1721 50.49C32.8471 50.49 33.2971 50.994 33.2971 51.858C33.2971 52.704 32.8291 53.226 32.1721 53.226C31.5151 53.226 31.0471 52.713 31.0471 51.858ZM38.9477 50.823C38.6867 50.148 38.0657 49.617 37.0667 49.617C35.8877 49.617 34.9607 50.436 34.9607 51.876C34.9607 53.316 35.8247 54.108 37.0667 54.108C38.1647 54.108 38.7497 53.388 38.9477 52.929L38.1197 52.488C37.9667 52.875 37.6787 53.217 37.0937 53.217C36.4187 53.217 35.9777 52.713 35.9777 51.858C35.9777 51.003 36.4097 50.499 37.0937 50.499C37.6157 50.499 37.9397 50.814 38.0927 51.273L38.9477 50.823ZM39.7839 47.88V54H40.8099V52.659L41.4399 52.083L42.7359 54H44.0139L42.1689 51.381L43.8609 49.716H42.5379L40.8099 51.471V47.88H39.7839ZM48.1147 50.823C47.8537 50.148 47.2327 49.617 46.2337 49.617C45.0547 49.617 44.1277 50.436 44.1277 51.876C44.1277 53.316 44.9917 54.108 46.2337 54.108C47.3317 54.108 47.9167 53.388 48.1147 52.929L47.2867 52.488C47.1337 52.875 46.8457 53.217 46.2607 53.217C45.5857 53.217 45.1447 52.713 45.1447 51.858C45.1447 51.003 45.5767 50.499 46.2607 50.499C46.7827 50.499 47.1067 50.814 47.2597 51.273L48.1147 50.823ZM52.7759 51.579C52.7759 50.751 52.6859 50.427 52.4879 50.148C52.1999 49.761 51.7949 49.617 51.3089 49.617C50.6609 49.617 50.1749 49.896 49.9769 50.274V47.88H48.9509V54H49.9769V51.714C49.9769 51.021 50.2829 50.526 50.9219 50.526C51.3629 50.526 51.5879 50.715 51.6779 51.021C51.7409 51.237 51.7499 51.516 51.7499 51.84V54H52.7759V51.579ZM57.3811 50.94C57.3811 49.977 56.6521 49.644 55.6621 49.644C54.6001 49.644 53.7901 50.067 53.7901 51.129L54.7531 51.156C54.7621 50.679 55.0501 50.427 55.6171 50.427C56.1571 50.427 56.3911 50.634 56.3911 50.976V51.012C56.3911 51.201 56.3011 51.255 56.0491 51.3L55.7251 51.354C54.4381 51.57 53.6461 51.777 53.6461 52.803C53.6461 53.676 54.2851 54.108 55.1761 54.108C55.9231 54.108 56.2831 53.829 56.4631 53.64C56.5351 53.955 56.7961 54.081 57.1741 54.081C57.4441 54.081 57.5791 54.054 57.6961 54.027V53.406H57.6331C57.4261 53.406 57.3811 53.307 57.3811 53.055V50.94ZM55.4371 53.343C54.9511 53.343 54.6991 53.136 54.6991 52.776C54.6991 52.434 54.9421 52.281 55.4371 52.182L56.0221 52.065C56.1841 52.029 56.2921 51.984 56.3911 51.939V52.47C56.3911 53.073 55.9681 53.343 55.4371 53.343ZM59.6097 49.716H58.5837V54H59.6097V49.716ZM59.6097 47.88H58.5837V48.924H59.6097V47.88ZM64.6587 51.579C64.6587 50.751 64.5687 50.427 64.3707 50.148C64.0827 49.761 63.6777 49.617 63.1917 49.617C62.5437 49.617 62.0577 49.896 61.8597 50.274V49.716H60.8337V54H61.8597V51.714C61.8597 51.021 62.1657 50.526 62.8047 50.526C63.2457 50.526 63.4707 50.715 63.5607 51.021C63.6237 51.237 63.6327 51.516 63.6327 51.84V54H64.6587V51.579ZM8.24 66C9.032 66 9.356 65.901 9.653 65.739C10.166 65.46 10.49 64.938 10.49 64.254C10.49 63.489 10.031 62.985 9.473 62.76C9.932 62.562 10.283 62.094 10.283 61.473C10.283 60.825 9.968 60.348 9.482 60.105C9.194 59.961 8.87 59.88 8.105 59.88H5.702V66H8.24ZM6.782 63.264H8.069C8.564 63.264 8.825 63.282 9.041 63.417C9.257 63.552 9.41 63.813 9.41 64.155C9.41 64.497 9.257 64.758 9.041 64.893C8.834 65.01 8.6 65.046 8.069 65.046H6.782V63.264ZM9.221 61.599C9.221 61.896 9.095 62.121 8.888 62.256C8.654 62.4 8.294 62.391 8.024 62.391H6.782V60.816H8.024C8.456 60.816 8.636 60.843 8.807 60.924C9.041 61.032 9.221 61.284 9.221 61.599ZM11.1775 63.876C11.1775 65.244 12.0055 66.108 13.3195 66.108C14.6335 66.108 15.4615 65.244 15.4615 63.876C15.4615 62.499 14.6245 61.617 13.3195 61.617C12.0145 61.617 11.1775 62.499 11.1775 63.876ZM12.1945 63.858C12.1945 63.003 12.6445 62.49 13.3195 62.49C13.9945 62.49 14.4445 62.994 14.4445 63.858C14.4445 64.704 13.9765 65.226 13.3195 65.226C12.6625 65.226 12.1945 64.713 12.1945 63.858ZM16.3422 64.443C16.3422 65.892 17.1882 66.108 17.7642 66.108C18.3942 66.108 18.8442 65.811 19.0512 65.451V66H20.0772V61.716H19.0512V64.02C19.0512 64.704 18.7812 65.199 18.1422 65.199C17.5122 65.199 17.3682 64.767 17.3682 64.101V61.716H16.3422V64.443ZM23.7665 65.226C23.6585 65.244 23.4965 65.262 23.3165 65.262C23.1365 65.262 22.9655 65.235 22.8845 65.145C22.8035 65.064 22.7675 64.947 22.7675 64.704V62.517H23.7665V61.716H22.7675V59.997L21.7415 60.222V61.716H20.8235V62.517H21.7415V64.875C21.7415 65.289 21.7505 65.532 21.9215 65.739C22.1555 66.027 22.5875 66.108 23.0015 66.108C23.3075 66.108 23.5685 66.081 23.7665 66.036V65.226ZM25.6751 61.716H24.6491V66H25.6751V61.716ZM25.6751 59.88H24.6491V60.924H25.6751V59.88ZM28.5191 66.108C29.0951 66.108 29.5091 65.883 29.7791 65.55V67.71H30.8051V61.716H29.7791V62.193C29.5451 61.887 29.0771 61.617 28.5191 61.617C27.3581 61.617 26.6201 62.553 26.6201 63.876C26.6201 65.163 27.3761 66.108 28.5191 66.108ZM29.8241 63.858C29.8241 64.686 29.3831 65.217 28.7351 65.217C28.0781 65.217 27.6461 64.704 27.6461 63.858C27.6461 63.003 28.0781 62.499 28.7351 62.499C29.3831 62.499 29.8241 63.039 29.8241 63.858ZM31.9779 64.443C31.9779 65.892 32.8239 66.108 33.3999 66.108C34.0299 66.108 34.4799 65.811 34.6869 65.451V66H35.7129V61.716H34.6869V64.02C34.6869 64.704 34.4169 65.199 33.7779 65.199C33.1479 65.199 33.0039 64.767 33.0039 64.101V61.716H31.9779V64.443ZM40.0772 64.488C39.9422 64.704 39.6002 65.226 38.8262 65.226C38.0702 65.226 37.7102 64.722 37.6382 64.137H40.7612C40.7612 64.065 40.7702 63.948 40.7702 63.876C40.7702 62.562 40.1132 61.617 38.7452 61.617C37.5482 61.617 36.6392 62.499 36.6392 63.822C36.6392 65.208 37.5032 66.108 38.7722 66.108C40.0232 66.108 40.5992 65.325 40.7882 65.028L40.0772 64.488ZM38.7452 62.436C39.3302 62.436 39.7262 62.814 39.7532 63.372H37.6652C37.6922 62.859 38.0882 62.436 38.7452 62.436Z" fill="#1D90FF"/>
</svg>
