<svg width="150" height="33" viewBox="0 0 150 33" fill="none" xmlns="http://www.w3.org/2000/svg">
<g clip-path="url(#clip0_83_3210)">
<path d="M94.8763 31.5638H91.1895V25.4661H84.3022V31.5638H80.6357V16.7878H84.3022V22.6774H91.1895V16.7878H94.8763V31.5638ZM101.338 31.8759C100.055 31.8759 99.0458 31.5915 98.3098 31.0227C97.5738 30.4538 97.2058 29.6838 97.2058 28.7126C97.2058 27.7137 97.5839 26.9506 98.3402 26.4234C98.7048 26.1737 99.1606 25.969 99.7075 25.8095C100.254 25.6499 100.967 25.5216 101.845 25.4244L105.511 25.0915V24.7793C105.511 24.2104 105.332 23.7804 104.974 23.489C104.616 23.1976 104.1 23.052 103.425 23.052C102.749 23.052 102.209 23.1872 101.804 23.4578C101.399 23.7283 101.169 24.1203 101.115 24.6336H97.5096C97.6447 23.4543 98.2423 22.5282 99.3024 21.8553C100.362 21.1824 101.737 20.846 103.425 20.846C105.356 20.846 106.774 21.2102 107.679 21.9386C108.583 22.6669 109.036 23.7942 109.036 25.3204V28.5253C109.036 29.8156 109.117 30.8284 109.279 31.5638H105.815C105.72 31.0921 105.673 30.5024 105.673 29.7948C105.349 30.4469 104.809 30.9568 104.053 31.3244C103.296 31.6921 102.392 31.8759 101.338 31.8759ZM102.675 29.7116C103.539 29.7116 104.238 29.5 104.772 29.0768C105.305 28.6537 105.572 28.0952 105.572 27.4015V26.7772L102.857 27.0685C102.128 27.1657 101.602 27.3217 101.277 27.5368C100.953 27.7518 100.791 28.0605 100.791 28.4629C100.791 28.8514 100.96 29.1566 101.298 29.3786C101.635 29.6006 102.094 29.7116 102.675 29.7116ZM117.199 31.8759C115.93 31.8759 114.816 31.6505 113.857 31.1996C112.898 30.7487 112.159 30.1035 111.639 29.2641C111.119 28.4247 110.859 27.4501 110.859 26.3401C110.859 25.2163 111.115 24.2417 111.629 23.4162C112.142 22.5906 112.881 21.9559 113.847 21.5119C114.812 21.0679 115.95 20.846 117.26 20.846C118.894 20.846 120.224 21.1824 121.251 21.8553C122.277 22.5282 122.918 23.4751 123.175 24.696L119.691 25.2788C119.556 24.6683 119.269 24.2 118.83 23.874C118.391 23.548 117.834 23.3849 117.159 23.3849C116.321 23.3849 115.66 23.6416 115.174 24.155C114.687 24.6683 114.444 25.3759 114.444 26.2777C114.444 27.2212 114.691 27.9634 115.184 28.5045C115.677 29.0456 116.342 29.3162 117.179 29.3162C117.868 29.3162 118.425 29.1497 118.85 28.8167C119.276 28.4837 119.563 28.005 119.711 27.3807L123.175 28.0259C122.932 29.219 122.274 30.159 121.2 30.8458C120.126 31.5326 118.793 31.8759 117.199 31.8759ZM130.731 27.0893L128.806 28.7751V31.5638H125.302V16.4756H128.806V25.3828L133.121 21.1581H137.436L133.283 25.1123L137.578 31.5638H133.627L130.731 27.0893Z" fill="white"/>
<path d="M80.6211 0.249736H84.6605L88.1287 9.9478C88.36 10.5999 88.5164 11.2034 88.598 11.7584H88.6796C88.7476 11.3144 88.904 10.7109 89.1488 9.9478L92.617 0.249736H96.6565L90.8217 15.0258H86.4558L80.6211 0.249736ZM98.1661 4.62011H101.696V15.0258H98.1661V4.62011ZM98.0845 0H101.798V3.10088H98.0845V0ZM109.754 15.3379C108.34 15.3379 107.109 15.1368 106.061 14.7344C105.014 14.3321 104.178 13.7355 103.552 12.9446L105.429 11.363C106.408 12.4729 107.911 13.0279 109.938 13.0279C111.311 13.0279 111.998 12.7088 111.998 12.0706C111.998 11.7931 111.896 11.5919 111.692 11.467C111.488 11.3422 111.107 11.245 110.55 11.1757L107.775 10.8427C106.551 10.6762 105.64 10.3328 105.041 9.81253C104.443 9.29225 104.144 8.57426 104.144 7.65856C104.144 6.60412 104.61 5.78208 105.541 5.19242C106.473 4.60276 107.796 4.30794 109.509 4.30794C110.733 4.30794 111.825 4.46749 112.784 4.7866C113.742 5.10571 114.508 5.57049 115.079 6.18096L113.447 7.86667C112.916 7.43657 112.311 7.114 111.631 6.89895C110.951 6.6839 110.155 6.57637 109.244 6.57637C108.578 6.57637 108.088 6.64574 107.775 6.78449C107.462 6.92323 107.306 7.14521 107.306 7.45045C107.306 7.70018 107.401 7.88748 107.592 8.01235C107.782 8.13722 108.102 8.23434 108.55 8.30371L111.631 8.6575C112.855 8.82399 113.742 9.16044 114.293 9.66685C114.844 10.1733 115.12 10.8843 115.12 11.8C115.12 12.91 114.661 13.7771 113.742 14.4014C112.824 15.0258 111.495 15.3379 109.754 15.3379ZM117.221 4.62011H120.75V15.0258H117.221V4.62011ZM117.139 0H120.852V3.10088H117.139V0ZM129.176 15.3379C127.925 15.3379 126.816 15.1194 125.851 14.6824C124.885 14.2453 124.134 13.6106 123.596 12.7781C123.059 11.9457 122.79 10.9537 122.79 9.80212C122.79 8.66443 123.059 7.67938 123.596 6.84692C124.134 6.01446 124.885 5.38319 125.851 4.95309C126.816 4.52299 127.925 4.30794 129.176 4.30794C130.427 4.30794 131.532 4.52299 132.491 4.95309C133.45 5.38319 134.198 6.01446 134.735 6.84692C135.273 7.67938 135.541 8.66443 135.541 9.80212C135.541 10.9537 135.273 11.9457 134.735 12.7781C134.198 13.6106 133.45 14.2453 132.491 14.6824C131.532 15.1194 130.427 15.3379 129.176 15.3379ZM129.176 12.9446C130.033 12.9446 130.709 12.6706 131.206 12.1226C131.702 11.5746 131.951 10.8011 131.951 9.80212C131.951 8.80318 131.702 8.03664 131.206 7.50248C130.709 6.96832 130.033 6.70124 129.176 6.70124C128.306 6.70124 127.622 6.96832 127.126 7.50248C126.629 8.03664 126.381 8.80318 126.381 9.80212C126.381 10.8011 126.629 11.5746 127.126 12.1226C127.622 12.6706 128.306 12.9446 129.176 12.9446ZM137.602 4.62011H141.029V6.78449C141.859 5.13345 143.266 4.30794 145.252 4.30794C146.667 4.30794 147.745 4.72416 148.486 5.55662C149.227 6.38907 149.598 7.60999 149.598 9.21941V15.0258H146.068V9.71888C146.068 8.7893 145.878 8.09907 145.497 7.64815C145.116 7.19724 144.531 6.97179 143.742 6.97179C142.913 6.97179 142.27 7.23193 141.815 7.75221C141.359 8.2725 141.131 9.00435 141.131 9.9478V15.0258H137.602V4.62011Z" fill="white"/>
<rect x="3" y="2" width="67" height="27" fill="white"/>
<path fill-rule="evenodd" clip-rule="evenodd" d="M73.5136 -0.0480957C74.4713 -0.0480957 75.2477 0.728366 75.2477 1.68618V30.3017C75.2477 31.2595 74.4713 32.036 73.5136 32.036H-0.185818C-1.14354 32.036 -1.91992 31.2595 -1.91992 30.3017V1.68618C-1.91992 0.728366 -1.14354 -0.0480957 -0.185818 -0.0480957H73.5136ZM10.2546 5.15473H4.14944V26.8332H9.26789V14.681L9.23705 11.7499H9.32955C9.6379 12.503 10.1312 13.3681 10.8096 14.3452L20.029 26.8332H25.8257V5.15473H20.7073V17.2763L20.7381 20.177H20.6456C20.3167 19.3831 19.8234 18.4977 19.1656 17.5206L10.2546 5.15473ZM45.7679 5.15473H28.4269V26.8332H33.8199V18.1007H45.2614V14.0704H33.8199V9.27669H45.7679V5.15473ZM68.3113 5.15473H47.502V9.52095H55.0803V26.8332H60.733V9.52095H68.3113V5.15473Z" fill="#4DBFFF"/>
</g>
<defs>
<clipPath id="clip0_83_3210">
<rect width="150" height="32.0841" fill="white"/>
</clipPath>
</defs>
</svg>
