<svg width="339" height="493" viewBox="0 0 339 493" fill="none" xmlns="http://www.w3.org/2000/svg">
<rect x="161.5" y="119.896" width="37.5726" height="16.3043" transform="rotate(-90 161.5 119.896)" stroke="white" stroke-width="5"/>
<rect x="161.5" y="66.6805" width="37.5726" height="16.3043" transform="rotate(-90 161.5 66.6805)" stroke="white" stroke-width="5"/>
<rect x="168.384" y="94.5203" width="40.0364" height="2.53623" transform="rotate(-90 168.384 94.5203)" stroke="white" stroke-width="2.53623"/>
<rect x="168.384" y="41.3045" width="40.0364" height="2.53623" transform="rotate(-90 168.384 41.3045)" stroke="white" stroke-width="2.53623"/>
<path d="M169.616 146.504V108.932H169.688V146.504H169.616Z" stroke="white" stroke-width="5"/>
<rect x="161.5" y="225.896" width="37.5726" height="16.3043" transform="rotate(-90 161.5 225.896)" stroke="white" stroke-width="5"/>
<rect x="161.5" y="172.681" width="37.5726" height="16.3043" transform="rotate(-90 161.5 172.681)" stroke="white" stroke-width="5"/>
<rect x="168.384" y="200.52" width="40.0364" height="2.53623" transform="rotate(-90 168.384 200.52)" stroke="white" stroke-width="2.53623"/>
<rect x="168.384" y="147.305" width="40.0364" height="2.53623" transform="rotate(-90 168.384 147.305)" stroke="white" stroke-width="2.53623"/>
<path d="M169.616 252.504V214.932H169.688V252.504H169.616Z" stroke="white" stroke-width="5"/>
<rect x="2" y="257" width="334.489" height="234" stroke="white" stroke-width="4"/>
<rect x="2" y="257" width="334.489" height="22.4444" stroke="white" stroke-width="4"/>
<circle cx="11.371" cy="267.958" r="3.96667" fill="white"/>
<circle cx="22.4777" cy="267.958" r="3.96667" fill="white"/>
<circle cx="33.5843" cy="267.958" r="3.96667" fill="white"/>
<path d="M38.6301 374H46.3254L42.2348 365.446L38.6301 374ZM42.2484 353.184L22.6606 360.077L25.7556 385.74L42.2692 394.816L58.8677 385.618L61.9617 359.955L42.2484 353.184ZM37.0368 377.636L34.6353 383.644L30.1461 383.663L42.247 356.862L42.2239 356.811H42.2028L42.2031 356.767L42.2239 356.811H42.2705L42.3112 356.721V356.811H42.2702L42.2474 356.862L54.871 383.775L50.5493 383.68L47.891 377.538L42.2143 377.565" fill="white"/>
<g clip-path="url(#clip0_67_300)">
<path d="M85.2832 373.97V394.63H126.603V353.311H85.2832V373.97ZM118.58 372.317C119.57 372.547 120.469 373.065 121.165 373.805C121.548 374.204 121.881 374.648 122.157 375.127C122.157 375.18 120.372 376.387 119.284 377.061C119.244 377.087 119.086 376.916 118.911 376.654C118.712 376.312 118.43 376.025 118.091 375.821C117.751 375.617 117.366 375.502 116.97 375.488C115.717 375.402 114.911 376.059 114.918 377.14C114.907 377.409 114.969 377.676 115.096 377.914C115.37 378.486 115.883 378.826 117.489 379.52C120.448 380.793 121.714 381.633 122.5 382.826C123.38 384.148 123.575 386.283 122.98 387.864C122.319 389.582 120.699 390.749 118.408 391.136C117.362 391.256 116.305 391.245 115.261 391.103C113.669 390.845 112.2 390.086 111.067 388.938C110.686 388.518 109.946 387.424 109.992 387.345C110.113 387.255 110.24 387.174 110.372 387.103L111.893 386.231L113.08 385.543L113.328 385.91C113.746 386.508 114.278 387.018 114.894 387.411C116.217 388.105 118.021 388.009 118.914 387.206C119.214 386.911 119.401 386.521 119.442 386.103C119.484 385.685 119.378 385.266 119.142 384.918C118.811 384.459 118.15 384.072 116.303 383.265C114.17 382.347 113.252 381.778 112.412 380.872C111.888 380.275 111.501 379.569 111.278 378.806C111.112 377.934 111.087 377.042 111.205 376.162C111.645 374.102 113.189 372.665 115.443 372.238C116.487 372.109 117.545 372.138 118.58 372.324V372.317ZM108.882 374.05V375.742H103.517V391.024H99.712V375.739H94.3338V374.086C94.3194 373.517 94.3348 372.948 94.3801 372.38C94.3999 372.354 97.6856 372.341 101.652 372.347H108.862L108.882 374.05Z" fill="white"/>
</g>
<g clip-path="url(#clip1_67_300)">
<path d="M154.558 361.241L157.231 390.964L169.226 394.164L181.255 391.024L183.931 361.241H154.558ZM178.371 368.007L178.204 369.936L178.13 370.827H164.058L164.395 374.793H177.795L177.706 375.531L176.841 385.087L176.778 385.645L169.245 387.673V387.671L169.236 387.675L161.707 385.72L161.196 380.082H164.887L165.149 382.879L169.243 383.916L169.245 383.839V383.843L173.347 382.967L173.776 378.429H161.031L160.127 368.236L160.039 367.191H178.459L178.371 368.007V368.007ZM157.33 352.853H159.188V354.69H160.889V352.853H162.747V358.414H160.889V356.552H159.189V358.414H157.33V352.853ZM165.191 354.698H163.555V352.853H168.687V354.698H167.05V358.414H165.191V354.698V354.698ZM169.501 352.853H171.439L172.631 354.807L173.822 352.853H175.761V358.414H173.91V355.658L172.631 357.635H172.599L171.32 355.658V358.414H169.501V352.853H169.501ZM176.686 352.853H178.545V356.576H181.159V358.414H176.686V352.853V352.853Z" fill="white"/>
</g>
<g clip-path="url(#clip2_67_300)">
<path d="M232.712 361.307C227.071 361.307 223.546 364.127 222.134 369.769C224.249 366.949 226.718 365.891 229.538 366.596C231.148 366.998 232.299 368.165 233.573 369.459C235.647 371.563 238.048 374 243.29 374C248.931 374 252.456 371.18 253.868 365.537C251.753 368.359 249.284 369.416 246.464 368.711C244.854 368.309 243.704 367.142 242.429 365.849C240.356 363.744 237.956 361.307 232.712 361.307V361.307ZM222.134 374C216.493 374 212.968 376.82 211.557 382.463C213.672 379.641 216.14 378.584 218.96 379.289C220.571 379.691 221.721 380.858 222.996 382.152C225.069 384.256 227.47 386.693 232.712 386.693C238.353 386.693 241.878 383.873 243.29 378.231C241.175 381.051 238.706 382.109 235.886 381.404C234.276 381.002 233.127 379.835 231.851 378.541C229.778 376.437 227.378 374 222.134 374Z" fill="white"/>
</g>
<path d="M281.524 360.381L284.191 390.294L296.16 393.616L308.161 390.29L310.831 360.381H281.524ZM304.402 377.07L303.625 384.307L303.628 384.927L296.178 387.007V387.008L296.172 387.013L288.662 384.955L288.154 379.223H291.837L292.098 382.12L296.179 383.21L296.178 383.215V383.204L300.275 382.049L300.707 377.239H292.143L292.07 376.461L291.903 374.594L291.815 373.603H301.033L301.368 369.967H287.328L287.255 369.111L287.087 367.118L287 366.001H305.378L305.289 367.103L304.402 377.07ZM304.442 356.538L302.078 353.77H304.442V352.117H299.153V353.559L301.926 356.084H299.153V357.737H304.442V356.538ZM298.161 356.538L295.911 353.77H298.161V352.117H293.203V353.559L295.759 356.084H293.203V357.737H298.161V356.538ZM292.211 356.084H289.567V353.77H292.211V352.117H287.583V357.737H292.211V356.084Z" fill="white"/>
<defs>
<clipPath id="clip0_67_300">
<rect width="42.3111" height="42.3111" fill="white" transform="translate(84.6221 352.844)"/>
</clipPath>
<clipPath id="clip1_67_300">
<rect width="42.3111" height="42.3111" fill="white" transform="translate(148.089 352.316)"/>
</clipPath>
<clipPath id="clip2_67_300">
<rect width="42.3111" height="42.3111" fill="white" transform="translate(211.555 352.844)"/>
</clipPath>
</defs>
</svg>
